<?xml version="1.0" encoding="UTF-8" standalone="no"?>
<!-- Created with Inkscape (http://www.inkscape.org/) -->

<svg
   xmlns:dc="http://purl.org/dc/elements/1.1/"
   xmlns:cc="http://creativecommons.org/ns#"
   xmlns:rdf="http://www.w3.org/1999/02/22-rdf-syntax-ns#"
   xmlns:svg="http://www.w3.org/2000/svg"
   xmlns="http://www.w3.org/2000/svg"
   xmlns:sodipodi="http://sodipodi.sourceforge.net/DTD/sodipodi-0.dtd"
   xmlns:inkscape="http://www.inkscape.org/namespaces/inkscape"
   version="1.1"
   id="svg2"
   xml:space="preserve"
   width="297mm"
   height="162mm"
   viewBox="0 0 1122.5197 612.28337"
   sodipodi:docname="uofu_medallion_black.svg"
   inkscape:version="0.92.4 5da689c313, 2019-01-14"><metadata
     id="metadata8"><rdf:RDF><cc:Work
         rdf:about=""><dc:format>image/svg+xml</dc:format><dc:type
           rdf:resource="http://purl.org/dc/dcmitype/StillImage" /><dc:title></dc:title></cc:Work></rdf:RDF></metadata><defs
     id="defs6" /><sodipodi:namedview
     pagecolor="#ffffff"
     bordercolor="#666666"
     borderopacity="1"
     objecttolerance="10"
     gridtolerance="10"
     guidetolerance="10"
     inkscape:pageopacity="0"
     inkscape:pageshadow="2"
     inkscape:window-width="1920"
     inkscape:window-height="1043"
     id="namedview4"
     showgrid="false"
     inkscape:zoom="0.95588524"
     inkscape:cx="561.25984"
     inkscape:cy="342.04724"
     inkscape:window-x="1920"
     inkscape:window-y="0"
     inkscape:window-maximized="1"
     inkscape:current-layer="g10"
     units="mm" /><g
     id="g10"
     inkscape:groupmode="layer"
     inkscape:label="ink_ext_XXXXXX"
     transform="matrix(1.3333333,0,0,-1.3333333,0,612.28334)"><g
       id="g12"
       transform="matrix(0.31321496,0,0,0.31321496,190.20713,2.8986379)"><path
         d="m 613.461,815.598 c -13.91,-8.953 -26.82,-19.262 -38.578,-30.758 11.765,11.476 24.668,21.808 38.578,30.758 z m 152.43,0.019 h 121.906 c -39.531,25.352 -86.688,39.942 -137.399,39.942 -50.3,0 -97.484,-14.586 -136.906,-39.942 H 726.086 V 696.262 H 686.262 V 537.98 h 119.351 v 158.282 h -39.722 z m 121.918,-0.004 c 13.222,-8.476 25.566,-18.175 36.914,-28.918 -11.34,10.77 -23.692,20.438 -36.914,28.918 z M 1122.96,509.777 c -20.47,-19.367 -39.82,-12.824 -49.03,-7.547 -6.56,-9.425 -13.94,-19.343 -22.24,-29.441 19.23,4.469 36.57,-12.855 36.57,-12.855 -22.65,-18.106 -41.86,-8.981 -50.25,-2.942 -7.47,-8.234 -15.5,-16.371 -24.07,-24.262 18.18,0.25 32.01,-17 32.01,-17 -23.76,-15 -41.45,-4.941 -49.509,2.008 -1.73,-1.379 -3.371,-2.816 -5.136,-4.168 -7.883,-6.011 -15.715,-11.582 -23.477,-16.808 20.906,0.726 33.942,-21.961 33.942,-21.961 -27.926,-12.102 -44.305,3.738 -50.133,11.488 -9.563,-5.898 -18.965,-11.219 -28.137,-16.039 18.527,-3.711 27.883,-25 27.883,-25 -27.363,-8.551 -41.914,6.469 -47.688,15.199 -11.074,-5.16 -21.679,-9.558 -31.707,-13.32 20.575,-4.68 27.168,-30.258 27.168,-30.258 -29.64,-4.18 -41.359,14.738 -45.117,23.949 -42.363,-13.82 -70.441,-15.582 -70.441,-15.582 0,0 -5.625,-1.039 -7.293,4.383 -1.328,4.309 2.703,7.699 2.703,7.699 0,0 28.097,1.481 69.941,14.821 -2.804,10.168 -4.429,30.711 19.621,45.757 0,0 10.672,-22.32 -0.168,-39 9.024,3.383 18.477,7.274 28.293,11.782 -4.523,9.011 -10.871,30 11.368,49.57 0,0 16.054,-22.91 4.48,-41.879 10.168,5.168 20.598,10.969 31.223,17.527 -5.371,9.223 -11.914,28.321 6.992,48.903 0,0 16.289,-18.75 10.164,-37.75 6.894,4.711 13.828,9.711 20.793,15.07 1.699,1.309 3.281,2.688 4.941,4.02 -6.66,7.488 -18.379,26.187 -1.875,50.941 0,0 21.819,-18.394 14.864,-40.012 9.985,8.871 19.245,18.059 27.785,27.336 -7.57,7.149 -19.97,24.141 -6.75,49.707 0,0 21.56,-14.476 19.58,-35.16 8.49,10.098 16.1,20.016 22.79,29.399 -7.9,5.882 -23.5,21.996 -11.9,49.785 0,0 23.49,-13.028 22.4,-34.434 8.56,13.039 15.05,24.176 19.36,32.086 -7.94,5.063 -25.55,20.371 -15.22,49.516 0,0 17.01,-8.305 22.55,-23.633 1.57,10.082 7.46,21.91 24.34,30.148 0,0 10.34,-29.039 -9.54,-43.777 18.25,6.461 37.32,-8.031 37.32,-8.031 -19.73,-20.785 -39.75,-14.762 -49.04,-9.949 -4.07,-7.645 -10,-18.157 -17.84,-30.497 18.77,6.036 37.48,-9.789 37.48,-9.789 z m -476.019,-91.039 -79.519,79.047 v 198.477 h -34.016 c 0.008,0.004 0.008,0.011 0.008,0.011 -3.887,-7.144 -10.348,-14.519 -18.961,-21.691 -30.019,-25.019 -38.594,-48.633 -39.336,-65.762 0,0 -24.297,38.575 0.742,87.93 0,0 -49.336,-7.148 -69.375,-62.187 0,0 -16.836,71.171 44.336,116.523 30.41,22.559 24.805,46.738 18.516,61.133 -2.227,5.234 -7.461,10.254 3.73,22.285 40.192,48.199 92.758,85.781 152.762,107.961 0,0 -0.012,-0.008 -0.015,-0.008 l -32.59,8.981 40.363,29.667 37.598,-25.152 c 7.824,1.766 15.765,3.203 23.777,4.445 l -61.852,37.797 -27.296,157.315 63.535,-154.01 -10.657,166.3 45.977,-160.19 8.762,166.46 27.886,-164.37 24.36,164.54 8.023,-166.16 42.832,160.95 -8.593,-166.32 59.988,155.34 -21.41,-131.12 -63.735,-63.727 c 48.114,-4.281 93.492,-17.953 134.305,-39.246 l -91,57.91 47.621,43.143 124.746,-152.83 -28.293,18.004 c 20.207,-15.532 38.72,-33.145 55.23,-52.536 4.82,-6.484 8.67,-17.382 4.82,-25.585 -3.57,-7.559 -21.7,-30.235 19.77,-60.977 61.17,-45.352 44.33,-116.523 44.33,-116.523 -20.02,55.039 -69.35,62.187 -69.35,62.187 25.02,-49.355 0.72,-87.93 0.72,-87.93 -0.72,17.129 -9.28,40.743 -39.336,65.762 -13.145,10.953 -19.778,20.551 -22.051,31.785 V 696.262 H 924.586 V 497.785 l -79.535,-79.047 z m 60.614,-89.117 c -1.672,-5.422 -7.297,-4.383 -7.297,-4.383 0,0 -28.074,1.762 -70.438,15.582 -3.765,-9.211 -15.472,-28.129 -45.125,-23.949 0,0 6.598,25.578 27.176,30.258 -10.031,3.762 -20.641,8.16 -31.711,13.32 -5.765,-8.73 -20.324,-23.75 -47.68,-15.199 0,0 9.356,21.289 27.875,25 -9.167,4.82 -18.57,10.141 -28.132,16.039 -5.832,-7.75 -22.207,-23.59 -50.133,-11.488 0,0 13.039,22.687 33.945,21.961 -7.769,5.226 -15.601,10.797 -23.48,16.808 -1.77,1.352 -3.414,2.789 -5.145,4.168 -8.047,-6.949 -25.738,-17.008 -49.5,-2.008 0,0 13.828,17.25 32.008,17 -8.578,7.891 -16.602,16.028 -24.074,24.262 -8.387,-6.039 -27.602,-15.164 -50.239,2.942 0,0 17.333,17.324 36.551,12.855 -8.289,10.098 -15.672,20.016 -22.23,29.434 -9.207,-5.27 -28.555,-11.805 -49.028,7.554 0,0 18.704,15.821 37.469,9.789 -7.832,12.34 -13.762,22.852 -17.832,30.497 -9.289,-4.813 -29.312,-10.833 -49.031,9.949 0,0 19.07,14.488 37.305,8.039 -19.86,14.73 -9.539,43.769 -9.539,43.769 16.886,-8.238 22.773,-20.07 24.347,-30.152 5.531,15.332 22.543,23.637 22.543,23.637 10.344,-29.145 -7.265,-44.453 -15.215,-49.516 4.321,-7.91 10.793,-19.047 19.364,-32.09 -1.09,21.41 22.406,34.438 22.406,34.438 11.586,-27.789 -4.008,-43.895 -11.91,-49.782 6.691,-9.386 14.308,-19.304 22.793,-29.402 -1.981,20.684 19.586,35.16 19.586,35.16 13.222,-25.566 0.82,-42.558 -6.758,-49.707 8.539,-9.277 17.793,-18.472 27.793,-27.336 -6.957,21.618 14.851,40.012 14.851,40.012 16.52,-24.754 4.797,-43.453 -1.875,-50.941 1.66,-1.332 3.243,-2.711 4.946,-4.02 6.961,-5.359 13.898,-10.359 20.797,-15.07 -6.129,18.988 10.16,37.75 10.16,37.75 18.91,-20.582 12.367,-39.692 6.992,-48.903 10.625,-6.558 21.062,-12.359 31.226,-17.539 -11.574,18.981 4.485,41.891 4.485,41.891 22.23,-19.57 15.879,-40.559 11.355,-49.57 9.821,-4.508 19.274,-8.399 28.297,-11.782 -10.844,16.68 -0.164,39 -0.164,39 24.047,-15.046 22.426,-35.589 19.613,-45.757 41.852,-13.34 69.946,-14.821 69.946,-14.821 0,0 4.035,-3.39 2.707,-7.699 z m -300.094,553.77 22.383,-38.067 -42.539,13.438 z m 37.328,-19.047 -0.047,-0.039 -0.109,0.097 z m 107.223,271.896 76.883,-135.47 -2.047,1.25 -28.063,-21.223 z m 365.582,5.35 -29.914,-107.39 -16.817,17.05 z m 0.722,-138.46 -18.429,18.69 65.109,98.07 z m 29.188,-29.599 -20.027,20.321 83.713,98.428 z m 27.519,-27.898 -20.644,20.933 98.211,94.324 z m 104.017,-26.442 49.26,-71.621 -69.4,46.993 z m 89.41,-105.476 -5.38,7.562 27.5,4.77 c -3.94,17.437 -8.83,34.508 -14.67,51.133 l -37.48,-21.27 -7.23,10.16 44,13.235 c -6.07,17.015 -13.15,33.535 -21.09,49.558 l -44.41,-32.586 -8.06,11.34 51.8,22.551 c -8.16,16.359 -17.22,32.172 -27.19,47.348 l -44.75,-41.606 -2.45,3.438 -49.24,-49.258 -20.06,20.344 116.1,67.699 c -10.15,15.426 -21.24,30.157 -33.11,44.207 l -89.74,-105.067 -21.482,21.786 111.182,83.331 c -84.18,99.52 -209.424,162.71 -349.397,162.71 -129.848,0 -247,-54.39 -330.477,-141.69 L 538.398,936.164 454.434,1080.23 567.969,958.078 501.348,1110.95 597.598,979.906 509.773,913.484 412.574,1043.15 c -12.57,-13.16 -24.422,-27.02 -35.383,-41.6 L 508.93,912.848 481.176,891.859 376.582,1000.76 C 366.57,987.379 357.309,973.422 348.77,958.969 l 129.472,-69.328 -26.703,-20.196 -103.605,88.059 c -8.532,-14.547 -16.258,-29.617 -23.192,-45.133 l 69.594,-27.844 -11.93,-13.199 -58.617,38.918 c -6.453,-14.637 -12.195,-29.656 -17.141,-45.047 l 56.11,-15.617 -10.332,-11.441 -46.738,24.191 c -4.692,-14.945 -8.676,-30.207 -11.856,-45.762 l 34.066,-5.578 -7.718,-8.539 -27.028,10.445 c -5.703,-29.113 -8.757,-59.179 -8.757,-89.976 0,-255.254 205.449,-462.172 458.898,-462.172 253.441,0 458.887,206.918 458.887,462.172 0,34.418 -3.85,67.922 -10.93,100.195 z M 555.422,763.371 c -4.852,-6.039 -9.492,-12.254 -13.742,-18.769 4.25,6.515 8.894,12.726 13.742,18.769 z M 741.516,44.3984 c -375.559,0 -680.0082,304.4536 -680.0082,680.0076 0,375.554 304.4492,680.004 680.0082,680.004 375.554,0 680.004,-304.45 680.004,-680.004 0,-375.554 -304.45,-680.0076 -680.004,-680.0076 z M 1412.65,938.293 c -23.32,73.277 -20.06,160.707 -63.75,221.807 -44.65,62.42 -128.87,87.4 -190.49,132.83 -61.03,45 -110.04,118.54 -183.512,142.6 -70.468,23.11 -152.347,-6.5 -230.496,-6.5 -77.031,0 -157.781,29.98 -227.39,7.52 -72.754,-23.5 -121.426,-96.33 -182.11,-140.34 C 272.93,1251.27 188.516,1226.94 143.398,1164.89 98.7109,1103.43 101.035,1015.23 77.1289,941.242 54.1992,870.246 0,801.145 0,722.453 0,644.855 53.8672,576.711 76.1719,506.594 99.4922,433.309 96.2305,345.91 139.922,284.781 184.551,222.359 268.809,197.379 330.41,151.949 c 61.035,-45 110.039,-118.5388 183.516,-142.60916 70.469,-23.07814 152.336,6.53126 230.476,6.53126 77.036,0 157.801,-29.9805 227.411,-7.51954 C 1044.57,31.8203 1093.24,104.66 1153.92,148.66 c 61.97,44.949 146.39,69.281 191.5,131.328 44.69,61.473 42.37,149.672 66.27,223.657 22.93,70.996 77.13,140.097 77.13,218.808 0,77.578 -53.86,145.723 -76.17,215.84"
         style="fill:#231f20;fill-opacity:1;fill-rule:nonzero;stroke:none"
         id="path14"
         inkscape:connector-curvature="0" /><path
         d="m 1094.31,634.563 c -20.02,55.039 -69.35,62.187 -69.35,62.187 25.02,-49.355 0.72,-87.93 0.72,-87.93 -0.72,17.129 -9.28,40.743 -39.336,65.762 -20.43,17.031 -25.293,30.723 -22.149,52.52 0.899,5.918 -1.367,15.683 -7.715,23.007 -45.546,64.532 -120.906,105.45 -206.082,105.45 -86.875,0 -164.597,-43.282 -208.718,-110.957 -4.512,-6.973 -10.782,-17.832 -6.739,-24.864 7.403,-12.988 -1.777,-29.57 -20.488,-45.156 -30.019,-25.019 -38.594,-48.633 -39.336,-65.762 0,0 -24.297,38.575 0.742,87.93 0,0 -49.336,-7.148 -69.375,-62.187 0,0 -16.836,71.171 44.336,116.523 30.41,22.559 24.805,46.738 18.516,61.133 -2.227,5.234 -7.461,10.254 3.73,22.285 66.211,79.394 165.872,130.273 277.332,130.273 110.165,0 208.778,-49.336 274.992,-127.129 4.82,-6.484 8.67,-17.382 4.82,-25.585 -3.57,-7.559 -21.7,-30.235 19.77,-60.977 61.17,-45.352 44.33,-116.523 44.33,-116.523 z m -29.26,108.804 c -42.57,32.43 -29.68,58.367 -26,66.336 3.94,8.66 -1.54,23.074 -6.5,29.914 -68.003,82.067 -167.741,131.196 -280.902,131.196 -114.492,0 -214.835,-46.821 -282.843,-130.571 -11.492,-12.695 -8.121,-24.844 -5.836,-30.367 6.469,-15.184 8.945,-33.961 -22.289,-57.758 -62.836,-47.844 -38.75,-136.25 -38.75,-136.25 20.582,58.067 61.875,70 61.875,70 -25.715,-52.066 16.25,-101.25 16.25,-101.25 0.758,18.074 1.035,51.102 31.875,77.5 19.207,16.442 38.226,38.797 30.625,52.5 -4.157,7.422 -5.258,12.028 -0.625,19.375 45.316,71.403 120.14,115.625 209.375,115.625 87.484,0 157.566,-41.926 204.375,-110 6.504,-7.726 3.418,-20.637 2.5,-26.875 -3.242,-23 12.761,-33.914 33.75,-51.875 30.89,-26.398 29.88,-52.551 30.62,-70.625 0,0 36.79,45.758 11.1,97.821 0,0 41.49,-13.504 62.03,-71.571 0,0 32.2,79.031 -30.63,126.875"
         style="fill:#231f20;fill-opacity:1;fill-rule:nonzero;stroke:none"
         id="path16"
         inkscape:connector-curvature="0" /><path
         d="m 232.77,628.664 -5.575,-0.754 c -0.91,5.442 -1.707,8.625 -2.394,9.574 -0.684,0.957 -1.692,1.524 -3.02,1.719 -2.035,0.235 -7.988,-0.305 -17.859,-1.625 l -41.078,-5.484 c -11.199,-1.496 -17.449,-2.434 -18.746,-2.824 l 1.293,-9.676 c 0.648,-4.875 1.382,-9.141 2.191,-12.805 0.34,-1.473 0.637,-2.305 0.891,-2.5 0.316,-0.281 1.144,-0.437 2.496,-0.496 3.25,-0.156 6.859,-0.02 10.816,0.418 l 0.75,-5.574 c -9.305,-1.418 -14.543,-2.219 -15.719,-2.422 -1.98,-0.391 -4.117,-0.879 -6.394,-1.485 l -0.77,0.528 c -0.125,2.137 -0.316,4.402 -0.574,6.805 -0.426,3.886 -1.379,11.359 -2.851,22.414 l -3.653,27.332 c -1.519,11.379 -2.578,18.964 -3.183,22.793 -0.336,2.058 -0.731,4.152 -1.168,6.25 l 0.593,0.761 c 2.825,0 5.289,0.098 7.391,0.293 0.371,0.012 5.359,0.598 14.977,1.75 l 0.742,-5.578 c -3.531,-0.555 -6.871,-1.308 -10.028,-2.234 -1.593,-0.489 -2.535,-0.918 -2.812,-1.27 -0.191,-0.304 -0.246,-1.054 -0.184,-2.246 0.129,-3.762 0.547,-8.254 1.243,-13.461 l 1.3,-9.722 c 1.618,0.078 7.891,0.847 18.813,2.304 l 41.074,5.489 c 9.879,1.316 15.785,2.371 17.727,3.152 1.144,0.48 1.937,1.277 2.371,2.394 0.429,1.121 0.379,4.414 -0.168,9.883 l 5.574,0.742 c 0.863,-8.828 1.699,-16.261 2.5,-22.285 0.859,-6.437 2.008,-13.82 3.434,-22.16"
         style="fill:#231f20;fill-opacity:1;fill-rule:nonzero;stroke:none"
         id="path18"
         inkscape:connector-curvature="0" /><path
         d="m 222.945,699.309 -6.086,0.363 c 0.172,4.336 0.192,6.988 0.067,7.957 -0.129,0.969 -0.348,1.691 -0.672,2.168 -0.316,0.48 -0.789,0.82 -1.426,1.047 -1.351,0.535 -4.531,0.976 -9.547,1.316 l -13.715,1.074 -32.289,1.934 -13.601,0.559 c -5.11,0.261 -8.367,0.203 -9.778,-0.168 -0.656,-0.149 -1.164,-0.418 -1.539,-0.829 -0.371,-0.421 -0.687,-1.093 -0.953,-2.042 -0.261,-0.946 -0.57,-3.602 -0.926,-7.977 l -6.078,0.367 c 0.754,7.473 1.387,15.363 1.883,23.684 0.445,7.441 0.684,14.054 0.715,19.836 l 6.082,-0.371 c -0.105,-4.934 -0.086,-7.844 0.063,-8.735 0.16,-0.875 0.453,-1.519 0.886,-1.922 0.434,-0.39 2.028,-0.761 4.754,-1.113 4.645,-0.691 11.363,-1.297 20.153,-1.824 l 7.894,-0.473 c 0.516,3.285 1.078,10.199 1.711,20.746 0.797,13.289 1.133,21.504 1.004,24.637 l -7.895,0.48 c -7.093,0.418 -11.648,0.653 -13.672,0.692 -6.109,0.027 -9.554,-0.027 -10.347,-0.164 -0.555,-0.11 -0.988,-0.305 -1.309,-0.586 -0.316,-0.285 -0.597,-0.832 -0.851,-1.633 -0.254,-0.801 -0.625,-3.711 -1.11,-8.73 l -6.086,0.363 c 0.657,5.73 1.207,12.32 1.653,19.773 0.496,8.313 0.812,16.231 0.953,23.742 l 6.078,-0.363 c -0.168,-4.344 -0.188,-7 -0.059,-7.969 0.125,-0.964 0.344,-1.687 0.668,-2.168 0.317,-0.468 0.789,-0.82 1.426,-1.042 1.399,-0.54 4.578,-0.977 9.539,-1.321 l 13.785,-1.074 32.289,-1.926 13.543,-0.562 c 5.157,-0.266 8.411,-0.235 9.77,0.097 0.652,0.196 1.183,0.489 1.578,0.899 0.395,0.41 0.707,1.094 0.949,2.039 0.242,0.945 0.539,3.605 0.895,7.98 l 6.082,-0.363 c -0.758,-7.48 -1.391,-15.371 -1.887,-23.68 -0.445,-7.453 -0.684,-14.062 -0.715,-19.836 l -6.082,0.364 c 0.117,5.066 0.102,8.054 -0.054,8.965 -0.157,0.906 -0.45,1.57 -0.887,1.98 -0.442,0.402 -2.031,0.781 -4.785,1.133 -4.684,0.488 -11.453,0.996 -20.293,1.535 l -14.442,0.859 c -0.445,-2.277 -1.004,-8.937 -1.664,-19.98 -0.633,-10.598 -1.012,-17.656 -1.133,-21.192 -0.039,-1.425 -0.007,-2.832 0.082,-4.218 l 14.442,-0.86 c 7.187,-0.429 11.777,-0.605 13.769,-0.507 6.149,0 9.645,0.058 10.477,0.195 0.519,0.105 0.934,0.293 1.25,0.574 0.316,0.274 0.605,0.813 0.859,1.594 0.254,0.789 0.621,3.633 1.102,8.555 l 6.082,-0.364 c -0.652,-5.742 -1.207,-12.332 -1.652,-19.785 -0.497,-8.309 -0.813,-16.219 -0.95,-23.73"
         style="fill:#231f20;fill-opacity:1;fill-rule:nonzero;stroke:none"
         id="path20"
         inkscape:connector-curvature="0" /><path
         d="m 232.645,816.684 -3.614,0.906 c -0.578,2.969 -1.328,5.469 -2.246,7.488 -1.805,0.746 -4.781,1.731 -8.937,2.973 -7.594,2.293 -13.129,3.887 -16.618,4.754 l -30.144,7.597 c -1.16,0.293 -5.543,1.289 -13.141,2.989 -5.086,1.144 -8.238,1.613 -9.476,1.406 -0.504,-0.106 -0.918,-0.352 -1.258,-0.731 -0.832,-1.046 -2.023,-4.093 -3.59,-9.152 l -5.148,1.301 3.75,15.418 c 0.75,3.047 1.476,5.969 2.175,8.762 1.532,6.054 3.161,12.808 4.899,20.273 l 3.058,13.543 c 0.399,1.594 1.301,4.797 2.704,9.617 0.113,0.442 0.433,1.137 0.972,2.082 l 0.985,0.246 9.316,-3.722 c 0.66,-0.215 3.813,-1.25 9.469,-3.114 l -1.297,-5.16 c -5.301,1.242 -8.59,1.867 -9.875,1.86 -0.668,-0.02 -1.188,-0.168 -1.543,-0.45 -0.547,-0.468 -1.348,-2.148 -2.406,-5.019 -1.586,-4.238 -2.91,-8.449 -3.965,-12.629 -0.988,-3.926 -1.848,-7.969 -2.574,-12.137 4.902,-1.887 11.25,-3.808 19.039,-5.762 l 13.758,-3.468 c 1.058,2.91 2,5.988 2.812,9.238 0.254,1.016 1.09,4.68 2.492,11.016 0.555,2.382 0.75,3.808 0.586,4.296 -0.156,0.481 -0.547,0.918 -1.156,1.309 -1.559,0.949 -4.305,1.973 -8.238,3.059 l 1.371,5.457 14.652,-4.012 14.742,-3.398 -1.379,-5.45 c -5.156,1.348 -8.429,1.817 -9.812,1.407 -1.02,-0.317 -1.82,-1.125 -2.395,-2.454 -1.261,-2.949 -2.5,-6.816 -3.711,-11.621 -1.086,-4.324 -1.828,-7.918 -2.234,-10.8 l 28.121,-7.079 c 3.141,-0.793 5.863,-1.378 8.168,-1.738 1.199,3.485 2.418,7.676 3.648,12.567 1.2,4.757 2.153,9.191 2.856,13.3 0.703,4.114 0.879,6.7 0.535,7.774 -0.101,0.351 -0.43,0.734 -0.984,1.164 -1.938,1.328 -5.774,3.183 -11.516,5.566 l 1.375,5.449 c 8.609,-3.175 15.774,-5.488 21.496,-6.933 l 0.656,-1.067 c -0.41,-2.91 -1.273,-6.98 -2.593,-12.207 l -2.922,-10.656 c -2.809,-10.504 -4.719,-17.762 -5.719,-21.746 -0.269,-1.062 -1.984,-8.504 -5.144,-22.312"
         style="fill:#231f20;fill-opacity:1;fill-rule:nonzero;stroke:none"
         id="path22"
         inkscape:connector-curvature="0" /><path
         d="m 184.199,969.934 -5.082,2.754 11.016,19.347 4.265,8.205 4.207,8.24 1.137,2.26 5.082,-2.76 c -2.359,-4.34 -3.469,-7.3 -3.332,-8.886 0.035,-0.809 0.524,-1.59 1.469,-2.364 2.211,-1.914 7.582,-5.175 16.117,-9.804 l 14.07,-7.625 7.129,-3.789 c 7.403,-4.016 12.012,-6.418 13.828,-7.219 4,-1.699 7.579,-2.402 10.739,-2.129 3.164,0.285 6.316,1.621 9.48,4.024 3.16,2.402 6.067,6.054 8.723,10.957 3.051,5.625 4.527,10.636 4.414,15.019 -0.106,4.386 -1.313,8.116 -3.617,11.206 -2.313,3.08 -7.766,6.96 -16.383,11.63 l -12.371,6.71 c -10.68,5.78 -17.192,9.31 -19.539,10.58 -5.16,2.64 -8.387,4.03 -9.684,4.15 -0.801,0.07 -1.535,-0.14 -2.211,-0.6 -1.41,-0.97 -3.39,-3.66 -5.953,-8.09 l -5.082,2.75 c 4.188,7.07 6.649,11.29 7.383,12.64 0.195,0.35 0.465,0.91 0.816,1.64 l 6.844,13.47 5.078,-2.76 c -2.015,-3.72 -2.98,-6.22 -2.898,-7.51 0.062,-0.66 0.469,-1.39 1.215,-2.18 0.75,-0.79 4.695,-3.3 11.828,-7.53 7.136,-4.22 12.804,-7.47 17.015,-9.76 l 14.262,-7.73 c 3.645,-1.98 7.266,-4.28 10.871,-6.9 3.598,-2.63 6.348,-5.49 8.235,-8.56 1.894,-3.08 3.171,-6.67 3.832,-10.761 0.656,-4.106 0.472,-8.442 -0.547,-13.028 -1.024,-4.59 -2.946,-9.504 -5.778,-14.718 -3.304,-6.102 -7.226,-11.36 -11.761,-15.762 -3.301,-3.192 -6.645,-5.457 -10.012,-6.809 -3.367,-1.336 -6.668,-1.969 -9.899,-1.883 -3.222,0.09 -6.082,0.625 -8.585,1.621 -1.567,0.586 -5.543,2.618 -11.934,6.086 l -11.629,6.375 -15.418,8.36 c -5.664,3.066 -10.812,5.742 -15.445,8.019 -1.848,0.84 -3.278,1.289 -4.285,1.356 -0.559,0.039 -1.36,-0.196 -2.414,-0.684 l -5.196,-7.558"
         style="fill:#231f20;fill-opacity:1;fill-rule:nonzero;stroke:none"
         id="path24"
         inkscape:connector-curvature="0" /><path
         d="m 311.277,1025.24 c 3.297,4.28 5.11,6.8 5.442,7.55 0.183,0.5 0.234,1.01 0.14,1.55 -0.089,0.53 -0.55,1.3 -1.379,2.3 -1.156,1.35 -4.167,4.34 -9.035,8.98 -2.785,2.61 -6.504,5.91 -11.164,9.87 l -16.847,14.37 -15.481,12.77 c -2.586,2.15 -4.34,3.46 -5.258,3.94 -0.918,0.48 -1.699,0.72 -2.347,0.7 -0.653,-0.02 -1.407,-0.32 -2.266,-0.91 -0.863,-0.59 -2.992,-2.62 -6.379,-6.09 l -4.398,3.75 c 3.996,4.21 6.883,7.35 8.664,9.44 l 6.261,7.72 3.907,4.94 c 15.558,-0.87 33.847,-1.45 54.871,-1.73 15.14,-0.22 27.289,-0.04 36.433,0.52 l -12.168,10.38 c -18.89,16.09 -30.179,25.35 -33.871,27.78 -1.422,0.96 -2.531,1.37 -3.332,1.21 -1.312,-0.26 -3.976,-2.67 -7.992,-7.24 l -4.398,3.75 c 3.851,4.04 7.3,7.84 10.328,11.39 2.941,3.46 6.613,8.01 11.019,13.65 l 4.399,-3.75 c -3.512,-4.33 -5.34,-7.12 -5.496,-8.37 -0.067,-0.42 0.039,-0.83 0.297,-1.24 1.312,-2.02 5.023,-5.77 11.152,-11.26 6.117,-5.5 10.672,-9.51 13.652,-12.05 23.317,-19.87 37.664,-31.69 43.047,-35.45 l -0.109,-1.09 c -2.985,-2.55 -5.977,-5.17 -8.981,-7.88 -22.258,-0.47 -54.875,-0.22 -97.855,0.74 l 26.133,-22.27 c 5.422,-4.61 11.172,-9.31 17.254,-14.08 4.171,-3.32 6.82,-5.21 7.933,-5.68 0.535,-0.22 1.078,-0.27 1.625,-0.16 0.543,0.1 1.223,0.53 2.039,1.27 2.207,2.03 3.758,3.56 4.645,4.6 0.176,0.22 0.461,0.58 0.84,1.1 l 4.402,-3.75 c -5.715,-6.56 -8.961,-10.28 -9.734,-11.19 -2.875,-3.37 -6.661,-8.05 -11.352,-14.04 l -4.641,3.96"
         style="fill:#231f20;fill-opacity:1;fill-rule:nonzero;stroke:none"
         id="path26"
         inkscape:connector-curvature="0" /><path
         d="m 364.078,1209.23 3.949,-4.64 c -3.48,-3.15 -5.492,-5.1 -6.031,-5.83 -0.543,-0.73 -0.851,-1.33 -0.941,-1.8 -0.086,-0.47 -0.039,-0.92 0.156,-1.36 0.258,-0.81 1.055,-2.1 2.383,-3.88 0.73,-0.95 2.164,-2.69 4.293,-5.23 7.258,-8.71 11.179,-13.39 11.746,-14.06 l 18.066,-21.2 8.446,-9.42 c 3.078,-3.61 5.257,-5.82 6.527,-6.61 0.555,-0.37 1.113,-0.55 1.664,-0.54 0.551,0.02 1.25,0.25 2.094,0.7 0.84,0.44 2.984,2.07 6.437,4.9 l 3.949,-4.64 c -5.878,-4.6 -12.043,-9.65 -18.488,-15.14 -5.601,-4.78 -10.5,-9.16 -14.683,-13.14 l -3.957,4.64 c 3.605,3.31 5.648,5.27 6.132,5.86 0.633,0.78 0.981,1.41 1.039,1.88 0.059,0.48 -0.007,0.91 -0.211,1.28 -0.246,0.52 -1.511,2.29 -3.781,5.31 -3.429,4.35 -6.668,8.3 -9.719,11.89 l -18.738,21.98 c -5.949,6.98 -9.855,11.39 -11.715,13.26 -3.972,4.31 -6.558,6.92 -7.754,7.83 -0.492,0.37 -0.957,0.58 -1.39,0.64 -0.43,0.05 -1.016,-0.1 -1.758,-0.46 -0.742,-0.35 -3.055,-2.07 -6.938,-5.14 l -3.957,4.64 c 4.59,3.5 9.727,7.67 15.407,12.51 6.371,5.43 12.293,10.68 17.773,15.77"
         style="fill:#231f20;fill-opacity:1;fill-rule:nonzero;stroke:none"
         id="path28"
         inkscape:connector-curvature="0" /><path
         d="m 471.383,1165.66 c -8.379,6.19 -16.363,12.06 -23.965,17.59 l -20.566,14.84 c -16.129,11.63 -25.872,18.5 -29.215,20.57 -3.344,2.08 -5.535,3.09 -6.582,3.05 -1.551,-0.1 -4.184,-1.23 -7.891,-3.41 l -3.191,5.19 c 9.5,5.49 15.265,8.86 17.289,10.11 l 20.711,13.3 3.199,-5.19 c -3.246,-2.05 -5.504,-3.71 -6.762,-4.98 -0.738,-0.72 -1.152,-1.37 -1.258,-1.94 -0.101,-0.58 0.032,-1.16 0.395,-1.75 0.726,-1.17 4.301,-4.11 10.734,-8.8 3.703,-2.69 5.696,-4.17 5.973,-4.4 0.277,-0.23 0.625,-0.52 1.051,-0.85 l 37.152,-27.22 -6.965,40.37 c -0.144,0.94 -1.043,5.5 -2.699,13.68 -1.141,5.79 -2.016,9.6 -2.617,11.45 -0.215,0.52 -0.461,1.02 -0.75,1.49 -0.41,0.66 -0.824,1.1 -1.246,1.29 -0.418,0.21 -0.856,0.28 -1.305,0.22 -0.34,-0.05 -1.102,-0.38 -2.277,-1 -2.684,-1.33 -4.907,-2.51 -6.68,-3.54 l -3.195,5.18 15.082,8.74 12.371,8.17 3.195,-5.19 c -3.562,-2.68 -5.508,-4.44 -5.84,-5.3 -0.547,-1.47 -0.004,-7.28 1.617,-17.41 l 1.872,-12.31 3.773,-23.8 c 3.246,-20.28 5.746,-34.5 7.504,-42.67 l -8.914,-5.48"
         style="fill:#231f20;fill-opacity:1;fill-rule:nonzero;stroke:none"
         id="path30"
         inkscape:connector-curvature="0" /><path
         d="m 526.793,1197.65 -1.348,3.48 c 2.094,2.18 3.7,4.24 4.825,6.15 -0.434,1.91 -1.352,4.91 -2.743,9.02 -2.507,7.52 -4.414,12.96 -5.707,16.31 l -11.207,29 c -0.425,1.12 -2.144,5.27 -5.144,12.46 -2.008,4.8 -3.442,7.65 -4.321,8.55 -0.378,0.34 -0.82,0.55 -1.324,0.6 -1.34,0.07 -4.515,-0.71 -9.547,-2.36 l -1.914,4.96 14.75,5.84 c 2.934,1.14 5.735,2.24 8.41,3.27 5.832,2.25 12.29,4.83 19.383,7.72 l 12.824,5.32 c 1.536,0.59 4.668,1.71 9.415,3.35 0.425,0.16 1.175,0.29 2.261,0.41 l 0.77,-0.67 2.344,-9.76 c 0.203,-0.65 1.175,-3.83 2.921,-9.52 l -4.957,-1.92 c -2.046,5.05 -3.441,8.09 -4.183,9.14 -0.406,0.54 -0.824,0.87 -1.266,0.99 -0.699,0.18 -2.527,-0.13 -5.484,-0.93 -4.379,-1.15 -8.578,-2.5 -12.602,-4.05 -3.773,-1.46 -7.574,-3.1 -11.394,-4.91 1.293,-5.09 3.386,-11.38 6.281,-18.87 l 5.117,-13.25 c 2.988,0.82 6.039,1.84 9.172,3.05 0.973,0.37 4.445,1.81 10.43,4.33 2.265,0.92 3.543,1.59 3.847,2 0.301,0.41 0.434,0.98 0.399,1.7 -0.121,1.82 -0.871,4.65 -2.258,8.49 l 5.242,2.03 5.188,-14.28 5.742,-14 -5.246,-2.02 c -1.883,4.99 -3.391,7.93 -4.524,8.82 -0.843,0.66 -1.968,0.84 -3.379,0.54 -3.132,-0.66 -7.015,-1.89 -11.632,-3.68 -4.157,-1.6 -7.528,-3.07 -10.11,-4.41 l 10.453,-27.05 c 1.168,-3.02 2.27,-5.57 3.301,-7.67 3.543,1.04 7.668,2.46 12.371,4.28 4.574,1.77 8.742,3.55 12.504,5.35 3.762,1.8 5.981,3.15 6.656,4.05 0.231,0.28 0.356,0.78 0.379,1.47 -0.035,2.35 -0.73,6.56 -2.101,12.62 l 5.246,2.03 c 2.375,-8.86 4.625,-16.05 6.754,-21.56 l -0.492,-1.15 c -2.614,-1.35 -6.442,-2.99 -11.469,-4.94 l -10.383,-3.75 c -10.203,-3.78 -17.227,-6.41 -21.059,-7.89 -1.027,-0.39 -8.089,-3.29 -21.191,-8.69"
         style="fill:#231f20;fill-opacity:1;fill-rule:nonzero;stroke:none"
         id="path32"
         inkscape:connector-curvature="0" /><path
         d="m 585.102,1316.07 -1.071,5.52 c 1.028,0.2 4.625,0.79 10.789,1.77 3.012,0.48 7.266,1.25 12.762,2.32 4.691,0.91 8.695,1.77 12.012,2.61 5.5,1.29 10.054,2.29 13.676,3 7.011,1.35 12.367,1.86 16.046,1.52 3.68,-0.34 7.067,-1.88 10.149,-4.62 3.078,-2.74 5.066,-6.41 5.961,-11.03 1.058,-5.47 0.351,-10.78 -2.133,-15.9 -2.48,-5.13 -6.953,-9.69 -13.414,-13.66 1.508,-1.81 3.184,-3.62 5.023,-5.46 1.84,-1.83 2.926,-2.95 3.262,-3.35 0.332,-0.4 0.676,-0.77 1.02,-1.13 l 13.437,-13.68 c 3.578,-3.64 5.516,-5.59 5.797,-5.86 4.223,-3.85 6.797,-6.1 7.715,-6.76 0.914,-0.66 1.762,-1.07 2.539,-1.25 0.777,-0.18 2.223,-0.08 4.332,0.28 l 1.156,-5.98 c -6.972,-1.03 -12.008,-1.86 -15.101,-2.45 -3.594,-0.7 -7.133,-1.54 -10.621,-2.53 -0.415,0.95 -1.204,2.13 -2.36,3.55 l -18.988,21.19 c -5.449,6.08 -9.981,10.81 -13.606,14.2 -1.812,1.7 -3.488,2.93 -5.023,3.67 l 0.305,2.38 c 5.382,0.85 9.316,2.19 11.785,4.01 2.472,1.82 4.32,4.57 5.547,8.27 1.23,3.69 1.445,7.6 0.648,11.72 -0.808,4.17 -2.465,7.44 -4.965,9.82 -2.504,2.39 -5.312,3.84 -8.429,4.37 -2.008,0.31 -5.43,0 -10.254,-0.93 -2.153,-0.42 -4.243,-1.01 -6.266,-1.78 0.184,-1.65 0.762,-5.33 1.738,-11.04 2.227,-12.87 3.758,-21.45 4.594,-25.76 1.313,-6.79 2.777,-13.98 4.387,-21.56 1.992,-9.3 3.152,-14.58 3.488,-15.83 0.625,-2.51 1.195,-4.11 1.703,-4.81 0.25,-0.33 0.61,-0.6 1.067,-0.81 0.461,-0.22 1.156,-0.34 2.089,-0.34 0.934,-0.01 3.567,0.36 7.891,1.11 l 1.16,-5.98 c -7.738,-1.18 -15.5,-2.53 -23.301,-4.04 -6.945,-1.35 -13.351,-2.75 -19.214,-4.2 l -1.164,5.98 c 5.078,1.17 8.054,2.01 8.933,2.51 0.516,0.23 0.867,0.54 1.051,0.9 0.187,0.36 0.254,1.04 0.199,2.01 -0.023,1.84 -0.316,4.55 -0.879,8.16 l -3.531,19.9 -4.891,25.21 -3.082,14.28 c -1.183,5.64 -2.105,8.99 -2.761,10.04 -0.317,0.46 -0.723,0.77 -1.211,0.96 -1.157,0.34 -4.489,0.16 -9.996,-0.52"
         style="fill:#231f20;fill-opacity:1;fill-rule:nonzero;stroke:none"
         id="path34"
         inkscape:connector-curvature="0" /><path
         d="m 763.523,1316.52 -5.781,-0.09 c -0.176,5.34 -0.461,9.11 -0.863,11.32 -1.441,2 -3.914,3.75 -7.426,5.27 -3.512,1.5 -7.426,2.22 -11.754,2.15 -6.195,-0.1 -10.961,-1.76 -14.304,-4.97 -3.344,-3.22 -4.981,-6.94 -4.915,-11.19 0.094,-3.05 0.629,-5.5 1.622,-7.38 0.988,-1.88 2.375,-3.36 4.171,-4.43 1.79,-1.08 4.422,-2.06 7.899,-2.93 2.648,-0.51 6.336,-1.14 11.058,-1.89 4.723,-0.76 7.801,-1.29 9.215,-1.59 3.703,-0.91 6.703,-2.03 9,-3.35 2.301,-1.32 4.137,-2.86 5.508,-4.61 1.367,-1.75 2.512,-3.97 3.414,-6.65 0.906,-2.69 1.391,-5.71 1.446,-9.07 0.089,-5.91 -1.036,-11.11 -3.383,-15.62 -1.782,-3.39 -4.266,-6.51 -7.461,-9.35 -3.203,-2.84 -6.504,-4.98 -9.91,-6.41 -5.45,-2.3 -12.012,-3.52 -19.688,-3.64 -5.617,-0.09 -10.633,0.36 -15.031,1.35 -4.406,0.98 -9.262,2.72 -14.555,5.21 1.328,5.26 1.93,13.24 1.809,23.94 l 5.781,0.09 c -0.039,-3.31 0.277,-7.43 0.945,-12.34 1.782,-2.82 4.785,-5.29 9.02,-7.38 4.23,-2.09 8.828,-3.1 13.805,-3.03 4.332,0.07 8.187,0.91 11.558,2.51 3.371,1.6 5.805,3.77 7.289,6.52 1.485,2.75 2.203,5.85 2.145,9.31 -0.043,2.91 -0.621,5.39 -1.727,7.45 -1.105,2.06 -2.805,3.7 -5.105,4.91 -2.301,1.2 -6.332,2.43 -12.094,3.68 -8.277,1.62 -13.727,2.81 -16.332,3.55 -3.941,1.13 -7.125,2.81 -9.559,5.03 -2.425,2.22 -4.257,4.93 -5.496,8.11 -1.234,3.18 -1.883,6.61 -1.937,10.3 -0.086,5.16 0.91,9.94 2.984,14.33 2.082,4.39 4.859,7.8 8.344,10.26 3.48,2.45 7.426,4.24 11.844,5.34 4.414,1.11 8.949,1.7 13.613,1.77 4.844,0.08 9.547,-0.28 14.105,-1.08 4.563,-0.8 8.524,-2.01 11.887,-3.6 l 0.57,-1.65 c -0.582,-2.99 -1,-5.93 -1.246,-8.81 -0.25,-2.87 -0.402,-6.65 -0.465,-11.34"
         style="fill:#231f20;fill-opacity:1;fill-rule:nonzero;stroke:none"
         id="path36"
         inkscape:connector-curvature="0" /><path
         d="m 840.605,1334.35 -0.71,-6.06 c -4.684,0.42 -7.477,0.57 -8.379,0.47 -0.903,-0.1 -1.555,-0.28 -1.961,-0.53 -0.407,-0.25 -0.703,-0.6 -0.895,-1.04 -0.414,-0.74 -0.824,-2.2 -1.219,-4.38 -0.207,-1.18 -0.511,-3.42 -0.933,-6.71 -1.449,-11.24 -2.227,-17.3 -2.328,-18.17 l -3.278,-27.66 -1.175,-12.6 c -0.555,-4.71 -0.7,-7.8 -0.414,-9.28 0.105,-0.66 0.351,-1.19 0.742,-1.58 0.383,-0.4 1.031,-0.75 1.925,-1.07 0.907,-0.31 3.555,-0.77 7.969,-1.39 l -0.715,-6.05 c -7.375,1.19 -15.265,2.28 -23.671,3.27 -7.321,0.88 -13.86,1.49 -19.622,1.86 l 0.719,6.05 c 4.879,-0.39 7.699,-0.57 8.469,-0.52 1,0.07 1.695,0.24 2.09,0.52 0.383,0.28 0.648,0.62 0.793,1.02 0.203,0.53 0.644,2.66 1.324,6.39 0.855,5.46 1.562,10.53 2.113,15.2 l 3.399,28.69 c 1.082,9.1 1.668,14.97 1.773,17.61 0.457,5.83 0.621,9.5 0.481,11.01 -0.067,0.61 -0.231,1.09 -0.481,1.44 -0.258,0.36 -0.766,0.69 -1.531,0.98 -0.77,0.31 -3.598,0.83 -8.492,1.6 l 0.715,6.06 c 5.695,-1 12.242,-1.93 19.652,-2.8 8.312,-0.99 16.195,-1.77 23.64,-2.33"
         style="fill:#231f20;fill-opacity:1;fill-rule:nonzero;stroke:none"
         id="path38"
         inkscape:connector-curvature="0" /><path
         d="m 856.754,1233 1.445,5.43 c 5.371,-1.23 8.614,-1.72 9.754,-1.45 1.145,0.27 2.063,0.98 2.746,2.15 0.996,1.78 2.774,7.49 5.321,17.12 l 10.625,40.05 c 2.902,10.92 4.425,17.06 4.562,18.4 l -9.434,2.51 c -4.765,1.26 -8.984,2.22 -12.675,2.86 -1.485,0.25 -2.375,0.31 -2.657,0.14 -0.371,-0.19 -0.839,-0.89 -1.406,-2.12 -1.387,-2.94 -2.637,-6.33 -3.75,-10.16 l -5.441,1.45 c 2.258,9.13 3.508,14.28 3.781,15.44 0.391,1.98 0.742,4.14 1.074,6.48 l 0.762,0.51 c 2.031,-0.7 4.199,-1.39 6.523,-2.07 3.75,-1.1 11.016,-3.07 21.797,-5.93 l 26.66,-7.08 c 11.082,-2.93 18.516,-4.86 22.274,-5.76 2.043,-0.47 4.113,-0.91 6.223,-1.31 l 0.488,-0.84 c -1.094,-2.61 -1.934,-4.92 -2.559,-6.94 -0.137,-0.34 -1.504,-5.18 -4.101,-14.5 l -5.45,1.44 c 0.829,3.48 1.426,6.85 1.766,10.12 0.156,1.66 0.129,2.69 -0.105,3.08 -0.207,0.3 -0.872,0.64 -1.993,1.03 -3.535,1.32 -7.832,2.65 -12.921,4 l -9.481,2.51 c -0.547,-1.52 -2.227,-7.61 -5.059,-18.27 l -10.625,-40.05 c -2.558,-9.63 -3.847,-15.5 -3.859,-17.58 0,-1.25 0.441,-2.28 1.301,-3.11 0.879,-0.83 3.945,-2.03 9.199,-3.62 l -1.445,-5.44 c -8.489,2.58 -15.664,4.65 -21.543,6.21 -6.27,1.66 -13.535,3.43 -21.797,5.3"
         style="fill:#231f20;fill-opacity:1;fill-rule:nonzero;stroke:none"
         id="path40"
         inkscape:connector-curvature="0" /><path
         d="m 992.984,1239.02 13.696,9.06 c 2.38,1.66 9.53,6.78 21.45,15.35 4.12,2.93 6.75,4.86 7.88,5.79 l 10.03,-4.68 -1.32,-2.81 c -8.22,-4.44 -17.41,-9.88 -27.54,-16.32 -10.13,-6.45 -16.5,-10.66 -19.117,-12.65 -1.758,-1.36 -3.086,-2.64 -4.004,-3.84 -0.645,-0.88 -1.465,-2.4 -2.481,-4.57 l -4.941,-10.61 c -2.481,-5.31 -4.16,-9.25 -5.02,-11.79 -0.859,-2.56 -1.23,-4.17 -1.094,-4.85 0.145,-0.68 0.594,-1.35 1.348,-2 0.762,-0.66 3.418,-2.11 7.996,-4.35 l -2.578,-5.51 c -7.723,3.94 -14.766,7.4 -21.101,10.36 -6.172,2.88 -12.5,5.66 -18.965,8.34 l 2.578,5.52 c 4.793,-2.03 7.644,-3.14 8.554,-3.3 0.899,-0.18 1.602,-0.12 2.11,0.15 0.508,0.28 1.308,1.43 2.422,3.46 2.402,4.68 4.394,8.7 5.957,12.05 l 5.566,11.93 c 0.449,0.96 0.586,3.32 0.41,7.07 -0.547,9.02 -1.425,18.06 -2.617,27.14 -0.969,7.38 -2.207,13.51 -3.73,18.4 -1.028,3.23 -1.868,5.28 -2.52,6.15 -0.43,0.5 -2.207,1.48 -5.332,2.94 l 2.188,4.68 14.394,-3.58 c 2.461,-0.55 5.02,-1.07 7.676,-1.56 1.863,-2.6 3.125,-4.72 3.769,-6.37 0.645,-1.65 1.27,-4.47 1.875,-8.47 0.918,-5.92 1.504,-12.52 1.739,-19.81 0.488,-11.61 0.73,-18.71 0.722,-21.32"
         style="fill:#231f20;fill-opacity:1;fill-rule:nonzero;stroke:none"
         id="path42"
         inkscape:connector-curvature="0" /><path
         d="m 1089.74,1180.71 c -6.95,-8.21 -11.56,-15.94 -13.87,-23.21 -2.3,-7.26 -2.64,-13.48 -1.02,-18.66 1.63,-5.18 4.81,-9.79 9.58,-13.81 4.4,-3.73 9.24,-6.01 14.51,-6.85 5.27,-0.83 11.03,0.43 17.27,3.8 6.23,3.36 12.39,8.62 18.47,15.81 4.16,4.93 7.44,9.88 9.84,14.87 2.39,4.99 3.8,9.75 4.23,14.32 0.42,4.56 -0.06,8.73 -1.51,12.54 -1.42,3.81 -4.37,7.61 -8.86,11.4 -5.1,4.33 -10.47,6.81 -16.1,7.42 -5.63,0.63 -11.26,-0.73 -16.87,-4.07 -5.63,-3.34 -10.84,-7.86 -15.67,-13.56 z m -18.77,10.49 c 5.45,6.43 11.17,11.21 17.15,14.36 6,3.14 12.2,4.87 18.63,5.16 6.43,0.3 12.38,-0.61 17.85,-2.7 7,-2.72 13.7,-6.79 20.08,-12.2 6.37,-5.38 11.37,-11.15 15.02,-17.32 2.69,-4.63 4.42,-9.48 5.18,-14.56 0.76,-5.09 0.76,-9.63 0.01,-13.64 -0.75,-4.02 -2.11,-7.97 -4.06,-11.87 -1.95,-3.91 -4.58,-7.8 -7.89,-11.71 -5.59,-6.61 -11.93,-11.79 -18.98,-15.54 -5.25,-2.8 -10.88,-4.47 -16.88,-5 -6,-0.54 -11.8,0.05 -17.42,1.79 -7.65,2.43 -15.11,6.72 -22.38,12.87 -7.86,6.65 -13.4,13.8 -16.62,21.44 -3.22,7.65 -4.06,15.62 -2.54,23.93 1.51,8.31 5.8,16.65 12.85,24.99"
         style="fill:#231f20;fill-opacity:1;fill-rule:nonzero;stroke:none"
         id="path44"
         inkscape:connector-curvature="0" /><path
         d="m 1189.6,1054.4 -3.86,4.71 c 4.36,3.77 6.81,6.27 7.34,7.52 0.25,0.62 0.08,1.53 -0.54,2.72 -1.66,2.96 -4.77,7.22 -9.36,12.8 -0.67,0.8 -1.83,2.18 -3.5,4.14 l -5.92,-4.87 c -8.43,-6.94 -14.27,-11.9 -17.51,-14.9 -3.23,-2.99 -4.99,-4.91 -5.26,-5.73 -0.19,-0.56 -0.15,-1.25 0.14,-2.09 0.29,-0.82 2.26,-3.82 5.94,-9.01 l -4.22,-3.47 -16.76,21.13 c -2.48,3.01 -6.52,7.67 -12.12,13.99 l 4.46,3.67 c 3.44,-4.03 5.55,-6.27 6.33,-6.7 0.37,-0.23 0.78,-0.34 1.24,-0.32 0.69,0.03 1.82,0.55 3.39,1.53 0.91,0.57 3.59,2.55 8.05,5.94 4.45,3.4 7.62,5.87 9.51,7.42 l 22.11,18.18 c 0.5,0.41 5.35,4.67 14.55,12.77 2.68,2.33 4.46,4.11 5.34,5.37 0.3,0.43 0.46,0.83 0.47,1.23 0.01,0.39 -0.22,1.04 -0.67,1.95 -0.44,0.91 -1.96,3.14 -4.54,6.71 l 4.48,3.68 15.06,-19.07 21.4,-25.06 c 2.93,-3.56 5.52,-7.07 7.77,-10.53 l -0.35,-1.09 c -2.34,-1.29 -5.19,-3.09 -8.56,-5.39 -3.36,-2.3 -6.23,-4.4 -8.6,-6.31 l -3.58,4.35 c 0.85,0.71 2.7,2.37 5.55,5 1.5,1.36 2.35,2.24 2.56,2.64 0.15,0.31 0.21,0.61 0.14,0.9 -0.08,0.99 -0.88,2.8 -2.35,5.43 -1.48,2.63 -3.49,5.49 -6.02,8.57 -0.48,0.59 -1.9,2.22 -4.21,4.85 -2.33,2.65 -3.93,4.44 -4.79,5.37 -3.89,-2.52 -10.45,-7.58 -19.71,-15.2 l -7.46,-6.12 c 3.42,-4.67 5.78,-7.79 7.07,-9.36 3.72,-4.53 6.29,-7.21 7.69,-8.05 0.52,-0.33 1.2,-0.33 2.05,0.02 1.14,0.42 3.33,1.9 6.57,4.44 l 3.87,-4.71 c -6.06,-4.97 -13.78,-11.33 -23.19,-19.05"
         style="fill:#231f20;fill-opacity:1;fill-rule:nonzero;stroke:none"
         id="path46"
         inkscape:connector-curvature="0" /><path
         d="m 1273.96,1033.12 5.21,2.49 9.18,-20.27 4.14,-8.29 4.2,-8.23 1.16,-2.254 -5.22,-2.492 c -2.13,4.461 -3.88,7.106 -5.23,7.916 -0.68,0.44 -1.6,0.51 -2.78,0.2 -2.85,-0.66 -8.65,-3.096 -17.4,-7.276 l -14.44,-6.914 -7.26,-3.535 c -7.6,-3.633 -12.24,-5.945 -13.96,-6.953 -3.72,-2.246 -6.4,-4.715 -8.03,-7.442 -1.63,-2.715 -2.4,-6.062 -2.31,-10.027 0.08,-3.977 1.33,-8.469 3.74,-13.496 2.75,-5.781 5.94,-9.914 9.55,-12.402 3.61,-2.485 7.34,-3.704 11.2,-3.653 3.85,0.059 10.18,2.196 19.03,6.426 l 12.7,6.074 c 10.95,5.235 17.63,8.426 20.05,9.578 5.16,2.629 8.18,4.422 9.05,5.403 0.52,0.605 0.79,1.316 0.8,2.144 0.06,1.711 -0.96,4.895 -3.05,9.563 l 5.22,2.5 c 3.26,-7.539 5.22,-12 5.89,-13.399 0.17,-0.371 0.45,-0.906 0.85,-1.629 l 6.87,-13.449 -5.21,-2.488 c -1.82,3.816 -3.29,6.07 -4.38,6.765 -0.57,0.333 -1.4,0.43 -2.48,0.293 -1.07,-0.136 -5.43,-1.855 -13.04,-5.144 -7.6,-3.293 -13.57,-5.977 -17.89,-8.039 l -14.64,-7 c -3.74,-1.789 -7.73,-3.36 -11.97,-4.738 -4.24,-1.368 -8.16,-1.914 -11.77,-1.629 -3.6,0.269 -7.25,1.347 -10.95,3.222 -3.71,1.875 -7.11,4.571 -10.23,8.094 -3.1,3.527 -5.95,7.961 -8.51,13.32 -2.99,6.258 -4.94,12.52 -5.84,18.782 -0.65,4.55 -0.52,8.582 0.38,12.097 0.89,3.516 2.32,6.555 4.28,9.114 1.98,2.558 4.09,4.558 6.36,5.996 1.4,0.925 5.38,2.949 11.94,6.093 l 11.99,5.649 15.82,7.57 c 5.81,2.78 11,5.38 15.56,7.79 1.77,1 2.97,1.89 3.63,2.66 0.35,0.43 0.64,1.22 0.86,2.35 l -3.07,8.66"
         style="fill:#231f20;fill-opacity:1;fill-rule:nonzero;stroke:none"
         id="path48"
         inkscape:connector-curvature="0" /><path
         d="m 1242.22,876.82 5.43,1.422 c 1.58,-5.269 2.77,-8.336 3.58,-9.187 0.8,-0.86 1.86,-1.297 3.2,-1.328 2.05,0.019 7.89,1.3 17.52,3.839 l 40.08,10.547 c 10.92,2.879 17.01,4.59 18.25,5.137 l -2.49,9.441 c -1.25,4.758 -2.51,8.899 -3.77,12.434 -0.51,1.414 -0.92,2.203 -1.19,2.363 -0.35,0.242 -1.19,0.301 -2.54,0.184 -3.24,-0.242 -6.81,-0.828 -10.69,-1.758 l -1.42,5.441 c 9.04,2.555 14.14,4.004 15.29,4.356 1.92,0.633 3.97,1.387 6.15,2.266 l 0.83,-0.422 c 0.39,-2.11 0.87,-4.336 1.42,-6.68 0.91,-3.809 2.78,-11.102 5.63,-21.895 l 7.02,-26.667 c 2.92,-11.086 4.92,-18.497 5.99,-22.208 0.6,-2.011 1.24,-4.035 1.94,-6.054 l -0.5,-0.84 c -2.79,-0.352 -5.24,-0.754 -7.29,-1.211 -0.37,-0.051 -5.25,-1.25 -14.65,-3.594 l -1.42,5.438 c 3.43,0.996 6.65,2.148 9.67,3.469 1.52,0.679 2.4,1.218 2.63,1.609 0.15,0.32 0.12,1.074 -0.09,2.246 -0.61,3.723 -1.58,8.125 -2.91,13.203 l -2.5,9.484 c -1.61,-0.277 -7.73,-1.82 -18.38,-4.628 l -40.08,-10.547 c -9.63,-2.539 -15.37,-4.317 -17.19,-5.344 -1.08,-0.613 -1.78,-1.504 -2.06,-2.664 -0.28,-1.164 0.18,-4.426 1.4,-9.785 l -5.44,-1.438 c -1.96,8.664 -3.7,15.93 -5.26,21.809 -1.65,6.277 -3.71,13.457 -6.16,21.562"
         style="fill:#231f20;fill-opacity:1;fill-rule:nonzero;stroke:none"
         id="path50"
         inkscape:connector-curvature="0" /><path
         d="m 1298.26,794.926 c 0.18,-4.297 0.53,-9.153 1.03,-14.571 0.49,-5.238 1.04,-9.902 1.62,-14.027 l 34.07,17.934 z m -40.16,26.66 5.76,0.535 c 0.63,-3.66 1.07,-5.84 1.34,-6.523 0.26,-0.684 0.64,-1.258 1.12,-1.719 0.49,-0.469 1.22,-0.906 2.21,-1.348 1,-0.437 4.63,-1.668 10.92,-3.703 2.95,-0.918 8.77,-2.672 17.45,-5.262 l 45.89,-13.699 16.15,-4.562 0.9,-9.637 -68.85,-37.277 -9.01,-5.125 -6.07,-3.321 c -0.78,-0.539 -1.33,-1.027 -1.66,-1.465 -0.33,-0.449 -0.56,-0.937 -0.7,-1.488 -0.13,-0.535 -0.17,-1.89 -0.1,-4.039 -0.04,-0.703 -0.06,-1.711 -0.06,-3.047 l -5.76,-0.539 -1.31,19.035 -2.69,23.934 5.76,0.539 c 0.73,-5.488 1.33,-8.566 1.78,-9.23 0.46,-0.672 1.13,-0.965 2.05,-0.879 1.13,0.109 2.95,0.8 5.45,2.089 l 14.48,7.247 -3.29,35.312 -8.47,2.219 c -6.49,1.68 -10.52,2.441 -12.06,2.305 -1.09,-0.11 -1.83,-0.54 -2.23,-1.309 -0.53,-1.145 -0.64,-4.434 -0.31,-9.863 l -5.76,-0.539 -1,15.773 -1.93,15.586"
         style="fill:#231f20;fill-opacity:1;fill-rule:nonzero;stroke:none"
         id="path52"
         inkscape:connector-curvature="0" /><path
         d="m 1267.83,714.074 6.05,-0.683 c -0.39,-4.325 -0.56,-6.973 -0.49,-7.95 0.08,-0.976 0.26,-1.707 0.55,-2.199 0.29,-0.496 0.76,-0.867 1.38,-1.121 1.32,-0.605 4.47,-1.219 9.46,-1.824 l 13.63,-1.809 32.15,-3.64 13.56,-1.289 c 5.07,-0.539 8.34,-0.657 9.76,-0.364 0.67,0.11 1.19,0.364 1.58,0.754 0.39,0.391 0.75,1.055 1.06,1.981 0.31,0.937 0.76,3.574 1.36,7.922 l 6.05,-0.696 c -1.16,-7.422 -2.21,-15.261 -3.15,-23.543 -0.84,-7.414 -1.43,-14.004 -1.77,-19.765 l -6.06,0.683 c 0.38,4.922 0.51,7.832 0.4,8.719 -0.09,0.898 -0.36,1.555 -0.78,1.973 -0.41,0.422 -1.97,0.871 -4.68,1.367 -4.6,0.937 -11.27,1.902 -20.02,2.902 l -7.87,0.887 c -0.69,-3.242 -1.63,-10.117 -2.82,-20.613 -1.5,-13.235 -2.26,-21.418 -2.3,-24.563 l 7.85,-0.887 c 7.06,-0.8 11.6,-1.281 13.61,-1.425 6.1,-0.356 9.55,-0.481 10.34,-0.383 0.56,0.078 1.01,0.246 1.34,0.508 0.33,0.273 0.65,0.8 0.94,1.593 0.3,0.782 0.82,3.672 1.58,8.653 l 6.06,-0.684 c -0.96,-5.695 -1.87,-12.25 -2.71,-19.66 -0.95,-8.281 -1.68,-16.16 -2.22,-23.66 l -6.05,0.691 c 0.39,4.328 0.56,6.973 0.49,7.949 -0.08,0.969 -0.27,1.711 -0.56,2.2 -0.29,0.488 -0.75,0.867 -1.37,1.121 -1.36,0.617 -4.52,1.222 -9.46,1.828 l -13.7,1.805 -32.14,3.652 -13.49,1.281 c -5.14,0.535 -8.38,0.684 -9.76,0.418 -0.67,-0.144 -1.21,-0.418 -1.63,-0.808 -0.41,-0.391 -0.76,-1.055 -1.06,-1.985 -0.29,-0.937 -0.72,-3.574 -1.3,-7.918 l -6.06,0.684 c 1.15,7.422 2.2,15.273 3.15,23.543 0.84,7.414 1.42,14.004 1.76,19.773 l 6.06,-0.691 c -0.39,-5.047 -0.54,-8.035 -0.42,-8.953 0.1,-0.918 0.36,-1.594 0.78,-2.024 0.41,-0.429 1.98,-0.886 4.71,-1.394 4.65,-0.735 11.38,-1.602 20.18,-2.61 l 14.38,-1.629 c 0.57,2.247 1.47,8.875 2.72,19.872 1.2,10.539 1.95,17.578 2.27,21.093 0.11,1.426 0.15,2.824 0.13,4.219 l -14.37,1.633 c -7.15,0.808 -11.72,1.23 -13.71,1.238 -6.14,0.332 -9.63,0.449 -10.48,0.363 -0.52,-0.078 -0.95,-0.246 -1.28,-0.507 -0.33,-0.266 -0.64,-0.774 -0.94,-1.555 -0.3,-0.762 -0.82,-3.594 -1.56,-8.477 l -6.05,0.696 c 0.96,5.691 1.86,12.246 2.71,19.656 0.94,8.273 1.67,16.164 2.21,23.652"
         style="fill:#231f20;fill-opacity:1;fill-rule:nonzero;stroke:none"
         id="path54"
         inkscape:connector-curvature="0" /><path
         d="m 236.934,414.07 10.39,13.071 -8.554,14.339 15.527,-5.921 10.918,12.597 -0.762,-16.695 15.293,-6.551 -16.035,-4.41 -1.445,-16.66 -9.121,13.969 -16.211,-3.739"
         style="fill:#231f20;fill-opacity:1;fill-rule:nonzero;stroke:none"
         id="path56"
         inkscape:connector-curvature="0" /><path
         d="m 274.043,360.422 9.121,13.988 -9.863,13.449 16.035,-4.429 9.687,13.57 0.782,-16.711 15.84,-5.078 -15.547,-5.902 0.117,-16.719 -10.41,13.09 -15.762,-5.258"
         style="fill:#231f20;fill-opacity:1;fill-rule:nonzero;stroke:none"
         id="path58"
         inkscape:connector-curvature="0" /><path
         d="m 315.938,310.441 7.792,14.75 -11.054,12.52 16.347,-2.91 8.379,14.429 2.325,-16.582 16.25,-3.589 -14.942,-7.329 1.66,-16.64 -11.562,12.031 -15.195,-6.68"
         style="fill:#231f20;fill-opacity:1;fill-rule:nonzero;stroke:none"
         id="path60"
         inkscape:connector-curvature="0" /><path
         d="m 429.961,235.789 c 8.926,12.41 -45.82,33.481 -45.82,33.481 0,0 36.914,-45.899 45.82,-33.481"
         style="fill:#231f20;fill-opacity:1;fill-rule:nonzero;stroke:none"
         id="path62"
         inkscape:connector-curvature="0" /><path
         d="m 195.352,543.098 c 14.199,5.507 20.332,-53.164 20.332,-53.164 0,0 -34.512,47.695 -20.332,53.164"
         style="fill:#231f20;fill-opacity:1;fill-rule:nonzero;stroke:none"
         id="path64"
         inkscape:connector-curvature="0" /><path
         d="m 1247.73,414.109 -10.39,13.051 8.57,14.32 -15.52,-5.921 -10.94,12.617 0.78,-16.696 -15.27,-6.57 15.99,-4.41 1.47,-16.66 9.14,13.98 16.17,-3.711"
         style="fill:#231f20;fill-opacity:1;fill-rule:nonzero;stroke:none"
         id="path66"
         inkscape:connector-curvature="0" /><path
         d="m 1210.64,360.422 -9.14,13.988 9.84,13.449 -15.99,-4.429 -9.67,13.59 -0.78,-16.711 -15.84,-5.079 15.51,-5.902 -0.1,-16.738 10.41,13.09 15.76,-5.258"
         style="fill:#231f20;fill-opacity:1;fill-rule:nonzero;stroke:none"
         id="path68"
         inkscape:connector-curvature="0" /><path
         d="m 1168.73,310.441 -7.76,14.75 11.06,12.52 -16.39,-2.891 -8.38,14.41 -2.32,-16.558 -16.23,-3.613 14.94,-7.309 -1.68,-16.641 11.56,12.032 15.2,-6.7"
         style="fill:#231f20;fill-opacity:1;fill-rule:nonzero;stroke:none"
         id="path70"
         inkscape:connector-curvature="0" /><path
         d="m 1054.7,235.789 c -8.9,12.43 45.86,33.5 45.86,33.5 0,0 -36.93,-45.918 -45.86,-33.5"
         style="fill:#231f20;fill-opacity:1;fill-rule:nonzero;stroke:none"
         id="path72"
         inkscape:connector-curvature="0" /><path
         d="m 1289.31,543.117 c -14.18,5.488 -20.29,-53.183 -20.29,-53.183 0,0 34.51,47.714 20.29,53.183"
         style="fill:#231f20;fill-opacity:1;fill-rule:nonzero;stroke:none"
         id="path74"
         inkscape:connector-curvature="0" /><path
         d="m 520.836,146.922 1.777,5.34 12.801,-2.813 c 1.367,-0.258 2.453,-0.199 3.258,0.192 0.808,0.379 1.664,1.418 2.566,3.109 1.727,3.211 4.547,10.68 8.457,22.43 l 5.239,15.718 c 1.8,5.411 3.695,11.282 5.691,17.602 l 1.73,5.68 c 0.461,1.398 0.629,2.34 0.493,2.82 -0.137,0.48 -0.407,0.801 -0.801,0.922 -0.27,0.09 -1.367,0.039 -3.301,-0.133 -9.914,-0.879 -16.246,-1.551 -19.012,-1.988 l -0.64,0.738 c 0.109,0.922 0.355,2.402 0.73,4.41 0.254,1.512 0.453,2.93 0.598,4.25 l 0.219,0.43 c 8.601,-0.32 15.476,-0.488 20.613,-0.481 5.133,-0.007 13.223,0.204 24.273,0.622 l 1.114,-1.461 c -0.235,-0.688 -1.051,-2.707 -2.453,-6.028 -1.407,-3.32 -2.262,-5.472 -2.583,-6.422 -1.402,-3.757 -4.82,-13.429 -10.25,-29 l -3.23,-9.699 c -3.16,-9.488 -5.297,-16.09 -6.422,-19.789 -1.73,-5.641 -2.543,-9.012 -2.426,-10.121 0.075,-0.66 0.368,-1.238 0.879,-1.738 0.856,-0.922 3.871,-2.371 9.043,-4.332 1.469,-0.539 2.848,-1.141 4.129,-1.809 l -1.773,-5.34 c -9.36,3.449 -16.981,6.149 -22.86,8.11 -4.011,1.328 -13.3,4.257 -27.859,8.781"
         style="fill:#231f20;fill-opacity:1;fill-rule:nonzero;stroke:none"
         id="path76"
         inkscape:connector-curvature="0" /><path
         d="m 694.211,163.672 c 2.805,1.449 5.098,3.449 6.875,6.008 1.773,2.57 2.844,5.41 3.199,8.531 0.52,4.488 -0.418,8.238 -2.808,11.23 -2.395,2.989 -5.856,4.75 -10.391,5.278 -3.938,0.453 -7.262,-0.379 -9.965,-2.481 -2.699,-2.109 -4.258,-4.949 -4.668,-8.527 -0.164,-1.422 -0.101,-2.781 0.192,-4.07 0.296,-1.289 0.832,-2.582 1.613,-3.879 0.773,-1.293 1.777,-2.512 2.992,-3.621 1.223,-1.121 2.805,-2.289 4.75,-3.539 l 4.68,-2.911 z m -15.828,-11.211 c -3.5,-2.109 -6.231,-4.621 -8.195,-7.531 -1.965,-2.91 -3.157,-6.2 -3.583,-9.871 -0.644,-5.59 0.52,-10.368 3.493,-14.309 2.972,-3.941 6.898,-6.199 11.789,-6.762 4.386,-0.508 8.203,0.59 11.453,3.282 3.246,2.691 5.133,6.32 5.66,10.859 0.375,3.301 0.117,6.109 -0.777,8.422 -0.895,2.308 -2.61,4.519 -5.125,6.621 -2.524,2.098 -6.836,4.879 -12.942,8.316 z m -5.606,3.359 c -3.464,2.578 -5.957,4.86 -7.468,6.821 -1.52,1.961 -2.633,4.359 -3.352,7.211 -0.723,2.839 -0.887,5.878 -0.516,9.136 0.606,5.274 2.461,9.762 5.551,13.461 3.098,3.699 6.863,6.36 11.293,7.961 4.43,1.602 9.785,2.039 16.067,1.32 7.652,-0.878 13.359,-3.511 17.128,-7.89 3.762,-4.371 5.329,-9.379 4.676,-15.012 -0.343,-3.027 -1.273,-5.75 -2.777,-8.168 -1.504,-2.441 -3.473,-4.57 -5.902,-6.43 -1.368,-1.039 -3.594,-2.32 -6.676,-3.82 3.707,-2.101 6.484,-4.058 8.344,-5.871 1.855,-1.809 3.273,-3.75 4.246,-5.777 0.968,-2.043 1.609,-4.25 1.918,-6.633 0.304,-2.379 0.304,-4.899 0,-7.559 -0.754,-6.55 -3.036,-12.14 -6.836,-16.761 -3.809,-4.618 -8.821,-7.899 -15.032,-9.829 -4.281,-1.32 -9.242,-1.652 -14.878,-1.011 -5.317,0.621 -9.641,1.961 -12.977,4.011 -2.348,1.418 -4.512,3.329 -6.488,5.692 -1.981,2.367 -3.461,5.008 -4.446,7.957 -0.984,2.941 -1.25,6.391 -0.797,10.32 0.356,3.082 1.106,5.789 2.258,8.172 1.153,2.367 2.637,4.391 4.45,6.07 1.808,1.668 3.625,2.957 5.445,3.86 0.387,0.179 2.648,1.109 6.769,2.769"
         style="fill:#231f20;fill-opacity:1;fill-rule:nonzero;stroke:none"
         id="path78"
         inkscape:connector-curvature="0" /><path
         d="m 795.715,143.52 -2.832,1.16 c 0.023,2.449 -0.153,5.929 -0.535,10.429 l -0.805,11.032 -0.957,8.988 -1.094,7.531 c -0.41,3.379 -0.668,5.391 -0.785,6.02 -0.176,1.191 -0.371,2.351 -0.594,3.48 -0.218,1.129 -0.5,2.422 -0.847,3.871 l 0.82,0.778 c 11.102,0.871 20.668,1.73 28.711,2.589 3.074,0.321 5.504,0.59 7.297,0.821 l 12.976,1.801 0.735,-1.04 c 0.015,-5.089 0.105,-8.359 0.261,-9.839 0.125,-1.2 0.364,-2.762 0.704,-4.68 l -0.59,-0.981 c -1.801,-0.089 -3.828,-0.218 -6.086,-0.41 -7.406,-0.621 -12.16,-1.05 -14.278,-1.281 -9.73,-1.027 -16.507,-1.91 -20.332,-2.641 l 2.008,-21.789 c 3.66,2.243 6.793,3.832 9.379,4.743 2.594,0.929 5.453,1.57 8.59,1.898 8.402,0.891 15.266,-0.73 20.57,-4.871 5.313,-4.16 8.379,-10.047 9.192,-17.707 0.648,-6.09 -0.465,-12.203 -3.332,-18.301 -2.871,-6.101 -7.731,-11.332 -14.578,-15.66 -5.165,-3.301 -11.36,-5.32 -18.59,-6.09 -3.067,-0.332 -5.672,-0.402 -7.825,-0.199 -2.144,0.18 -4.914,0.75 -8.296,1.687 -0.497,1.993 -1.086,3.981 -1.766,5.981 -0.684,1.992 -2.348,6.441 -5.004,13.32 l 4.336,2.059 c 1.926,-3.321 4.027,-6.028 6.305,-8.129 2.281,-2.102 5,-3.68 8.164,-4.738 3.16,-1.051 6.316,-1.411 9.468,-1.082 5.024,0.539 8.973,2.679 11.856,6.441 2.879,3.769 4.004,8.621 3.371,14.527 -0.652,6.16 -2.824,10.774 -6.512,13.864 -3.691,3.089 -8.379,4.328 -14.066,3.718 -2.281,-0.23 -4.277,-0.691 -6.004,-1.359 -1.727,-0.672 -3.168,-1.391 -4.328,-2.16 -0.649,-0.403 -2.219,-1.66 -4.707,-3.781"
         style="fill:#231f20;fill-opacity:1;fill-rule:nonzero;stroke:none"
         id="path80"
         inkscape:connector-curvature="0" /><path
         d="m 929.293,186.59 c 3.887,-9.602 7.891,-18.059 12.012,-25.391 4.101,-7.328 7.754,-11.808 10.918,-13.461 3.164,-1.648 6.152,-1.91 8.945,-0.769 3.445,1.402 5.566,4.32 6.387,8.781 0.808,4.461 -1.555,13.512 -7.09,27.172 -3.633,8.918 -7.785,17.566 -12.473,25.957 -2.519,4.492 -4.773,7.711 -6.777,9.66 -2,1.949 -4.004,3.16 -6.004,3.641 -2.004,0.48 -4.023,0.308 -6.055,-0.52 -2.304,-0.93 -4.035,-2.441 -5.215,-4.539 -1.171,-2.09 -1.562,-4.973 -1.171,-8.633 0.515,-5.168 2.695,-12.457 6.523,-21.898 z m -12.031,-15.25 c -3.008,7.422 -5.227,14.41 -6.653,20.992 -0.925,4.238 -1.171,8.387 -0.73,12.449 0.449,4.047 1.394,7.59 2.851,10.61 1.454,3.031 3.477,5.718 6.083,8.058 2.597,2.352 5.656,4.242 9.152,5.653 7.031,2.867 13.144,3.57 18.301,2.097 5.164,-1.449 9.765,-4.629 13.789,-9.527 4.023,-4.891 8.066,-12.332 12.109,-22.313 2.859,-7.039 5,-13.328 6.445,-18.89 1.426,-5.559 1.993,-10.578 1.68,-15.078 -0.312,-4.493 -1.172,-8.321 -2.578,-11.469 -1.406,-3.16 -3.32,-5.883 -5.762,-8.203 -2.453,-2.297 -5.722,-4.278 -9.816,-5.938 -4.863,-1.98 -9.481,-2.781 -13.867,-2.39 -4.383,0.379 -8.446,1.918 -12.196,4.621 -3.761,2.699 -7.148,6.578 -10.168,11.629 -3.015,5.058 -5.898,10.961 -8.64,17.699"
         style="fill:#231f20;fill-opacity:1;fill-rule:nonzero;stroke:none"
         id="path82"
         inkscape:connector-curvature="0" /><path
         d="m 471.27,817.355 6.562,-7.91 c 0,0 12.227,26.953 33.125,41.973 0,0 -26.797,-15.82 -39.687,-34.063"
         style="fill:#231f20;fill-opacity:1;fill-rule:nonzero;stroke:none"
         id="path84"
         inkscape:connector-curvature="0" /><path
         d="m 478.789,808.254 6.582,-7.93 c 0,0 12.207,26.953 33.106,41.953 0,0 -26.797,-15.781 -39.688,-34.023"
         style="fill:#231f20;fill-opacity:1;fill-rule:nonzero;stroke:none"
         id="path86"
         inkscape:connector-curvature="0" /><path
         d="m 486.309,799.113 6.543,-7.89 c 0,0 12.246,26.953 33.125,41.953 0,0 -26.836,-15.821 -39.668,-34.063"
         style="fill:#231f20;fill-opacity:1;fill-rule:nonzero;stroke:none"
         id="path88"
         inkscape:connector-curvature="0" /><path
         d="m 493.789,790.012 6.582,-7.891 c 0,0 12.207,26.914 33.125,41.953 0,0 -26.836,-15.82 -39.707,-34.062"
         style="fill:#231f20;fill-opacity:1;fill-rule:nonzero;stroke:none"
         id="path90"
         inkscape:connector-curvature="0" /><path
         d="m 501.328,780.891 6.563,-7.911 c 0,0 12.207,26.954 33.125,41.973 0,0 -26.817,-15.84 -39.688,-34.062"
         style="fill:#231f20;fill-opacity:1;fill-rule:nonzero;stroke:none"
         id="path92"
         inkscape:connector-curvature="0" /><path
         d="m 508.828,771.789 6.543,-7.93 c 0,0 12.207,26.973 33.125,41.973 0,0 -26.816,-15.82 -39.668,-34.043"
         style="fill:#231f20;fill-opacity:1;fill-rule:nonzero;stroke:none"
         id="path94"
         inkscape:connector-curvature="0" /><path
         d="m 516.328,762.668 6.582,-7.91 c 0,0 12.207,26.953 33.086,41.953 0,0 -26.797,-15.82 -39.668,-34.043"
         style="fill:#231f20;fill-opacity:1;fill-rule:nonzero;stroke:none"
         id="path96"
         inkscape:connector-curvature="0" /><path
         d="m 523.848,753.547 7.343,-10.371 c -1.777,5.254 11.407,29.414 32.344,44.433 0,0 -26.816,-15.82 -39.687,-34.062"
         style="fill:#231f20;fill-opacity:1;fill-rule:nonzero;stroke:none"
         id="path98"
         inkscape:connector-curvature="0" /><path
         d="m 478.398,797.277 c 0,0 10.176,-12.793 -6.718,-38.593 0,0 13.672,5.117 21.152,25.468 l -14.434,13.125"
         style="fill:#231f20;fill-opacity:1;fill-rule:nonzero;stroke:none"
         id="path100"
         inkscape:connector-curvature="0" /><path
         d="m 492.168,785.754 c 0,0 -3.359,-25.02 -14.063,-35.391 0,0 13.633,5.098 21.153,25.489 l -7.09,9.902"
         style="fill:#231f20;fill-opacity:1;fill-rule:nonzero;stroke:none"
         id="path102"
         inkscape:connector-curvature="0" /><path
         d="m 498.613,777.453 c 0,0 -3.398,-25.039 -14.101,-35.39 0,0 13.672,5.097 21.191,25.468 l -7.09,9.922"
         style="fill:#231f20;fill-opacity:1;fill-rule:nonzero;stroke:none"
         id="path104"
         inkscape:connector-curvature="0" /><path
         d="m 505.02,769.152 c 0,0 -3.34,-25.039 -14.063,-35.41 0,0 13.672,5.117 21.152,25.488 l -7.089,9.922"
         style="fill:#231f20;fill-opacity:1;fill-rule:nonzero;stroke:none"
         id="path106"
         inkscape:connector-curvature="0" /><path
         d="m 511.484,760.832 c 0,0 -4.98,-27.422 -15.703,-37.812 0,0 15.293,7.519 22.774,27.89 l -7.071,9.922"
         style="fill:#231f20;fill-opacity:1;fill-rule:nonzero;stroke:none"
         id="path108"
         inkscape:connector-curvature="0" /><path
         d="m 517.91,752.531 c 0,0 -5.508,-30.117 -16.23,-40.488 0,0 15.82,10.176 23.32,30.547 l -7.09,9.941"
         style="fill:#231f20;fill-opacity:1;fill-rule:nonzero;stroke:none"
         id="path110"
         inkscape:connector-curvature="0" /><path
         d="m 524.355,744.211 c 0,0 1.583,-23.848 -21.054,-48.809 0,0 25.683,16.075 28.125,38.887 l -7.071,9.922"
         style="fill:#231f20;fill-opacity:1;fill-rule:nonzero;stroke:none"
         id="path112"
         inkscape:connector-curvature="0" /><path
         d="m 1029.53,817.355 -6.59,-7.91 c 0,0 -12.2,26.953 -33.1,41.973 0,0 26.8,-15.82 39.69,-34.063"
         style="fill:#231f20;fill-opacity:1;fill-rule:nonzero;stroke:none"
         id="path114"
         inkscape:connector-curvature="0" /><path
         d="m 1022.01,808.254 -6.59,-7.93 c 0,0 -12.14,26.953 -33.061,41.953 0,0 26.761,-15.781 39.651,-34.023"
         style="fill:#231f20;fill-opacity:1;fill-rule:nonzero;stroke:none"
         id="path116"
         inkscape:connector-curvature="0" /><path
         d="m 1014.49,799.113 -6.57,-7.89 c 0,0 -12.182,26.953 -33.08,41.953 0,0 26.8,-15.821 39.65,-34.063"
         style="fill:#231f20;fill-opacity:1;fill-rule:nonzero;stroke:none"
         id="path118"
         inkscape:connector-curvature="0" /><path
         d="m 1007.01,790.012 -6.6,-7.891 c 0,0 -12.191,26.914 -33.109,41.953 0,0 26.836,-15.82 39.709,-34.062"
         style="fill:#231f20;fill-opacity:1;fill-rule:nonzero;stroke:none"
         id="path120"
         inkscape:connector-curvature="0" /><path
         d="m 999.488,780.891 -6.601,-7.911 c 0,0 -12.149,26.954 -33.067,41.973 0,0 26.817,-15.84 39.668,-34.062"
         style="fill:#231f20;fill-opacity:1;fill-rule:nonzero;stroke:none"
         id="path122"
         inkscape:connector-curvature="0" /><path
         d="m 991.988,771.789 -6.562,-7.93 c 0,0 -12.207,26.973 -33.125,41.973 0,0 26.797,-15.82 39.687,-34.043"
         style="fill:#231f20;fill-opacity:1;fill-rule:nonzero;stroke:none"
         id="path124"
         inkscape:connector-curvature="0" /><path
         d="m 984.469,762.668 -6.582,-7.91 c 0,0 -12.207,26.953 -33.106,41.953 0,0 26.797,-15.82 39.688,-34.043"
         style="fill:#231f20;fill-opacity:1;fill-rule:nonzero;stroke:none"
         id="path126"
         inkscape:connector-curvature="0" /><path
         d="m 976.949,753.547 -6.543,-7.91 c 0,0 -12.226,26.953 -33.105,41.972 0,0 26.816,-15.82 39.648,-34.062"
         style="fill:#231f20;fill-opacity:1;fill-rule:nonzero;stroke:none"
         id="path128"
         inkscape:connector-curvature="0" /><path
         d="m 1020.29,796.848 c 0,0 -9.65,-17.657 8.88,-38.164 0,0 -13.67,5.117 -21.21,25.468 l 12.33,12.696"
         style="fill:#231f20;fill-opacity:1;fill-rule:nonzero;stroke:none"
         id="path130"
         inkscape:connector-curvature="0" /><path
         d="m 1008.67,785.754 c 0,0 3.34,-25.02 14.06,-35.391 0,0 -13.67,5.098 -21.21,25.489 l 7.15,9.902"
         style="fill:#231f20;fill-opacity:1;fill-rule:nonzero;stroke:none"
         id="path132"
         inkscape:connector-curvature="0" /><path
         d="m 1002.22,777.453 c 0,0 3.34,-25.039 14.06,-35.39 0,0 -13.65,5.097 -21.186,25.468 l 7.126,9.922"
         style="fill:#231f20;fill-opacity:1;fill-rule:nonzero;stroke:none"
         id="path134"
         inkscape:connector-curvature="0" /><path
         d="m 995.777,769.152 c 0,0 3.34,-25.039 14.063,-35.41 0,0 -13.672,5.117 -21.211,25.488 l 7.148,9.922"
         style="fill:#231f20;fill-opacity:1;fill-rule:nonzero;stroke:none"
         id="path136"
         inkscape:connector-curvature="0" /><path
         d="m 989.313,760.832 c 0,0 4.98,-27.422 15.697,-37.812 0,0 -15.287,7.519 -22.787,27.89 l 7.09,9.922"
         style="fill:#231f20;fill-opacity:1;fill-rule:nonzero;stroke:none"
         id="path138"
         inkscape:connector-curvature="0" /><path
         d="m 982.945,752.531 c 0,0 5.45,-30.117 16.172,-40.488 0,0 -15.84,10.176 -23.32,30.547 l 7.148,9.941"
         style="fill:#231f20;fill-opacity:1;fill-rule:nonzero;stroke:none"
         id="path140"
         inkscape:connector-curvature="0" /><path
         d="m 976.48,744.211 c 0,0 1.114,-29.844 18.946,-49.356 0,0 -25.391,16.68 -26.035,39.434 l 7.089,9.922"
         style="fill:#231f20;fill-opacity:1;fill-rule:nonzero;stroke:none"
         id="path142"
         inkscape:connector-curvature="0" /><path
         d="m 590.742,858.305 -2.461,-1.524 c -1.496,2.305 -2.519,3.614 -3.078,3.934 -0.281,0.168 -0.726,0.137 -1.332,-0.086 -1.527,-0.606 -3.777,-1.828 -6.758,-3.664 -0.425,-0.262 -1.168,-0.723 -2.211,-1.395 l 1.922,-3.136 c 2.746,-4.454 4.731,-7.539 5.946,-9.266 1.214,-1.73 2.011,-2.676 2.382,-2.863 0.258,-0.125 0.59,-0.145 1.004,-0.067 0.41,0.086 1.981,0.84 4.696,2.254 l 1.351,-2.195 -11.172,-6.602 c -1.597,-0.988 -4.082,-2.609 -7.457,-4.875 l -1.429,2.325 c 2.136,1.378 3.339,2.226 3.593,2.57 0.137,0.164 0.215,0.351 0.235,0.566 0.027,0.332 -0.137,0.899 -0.508,1.707 -0.207,0.469 -0.973,1.867 -2.285,4.2 -1.317,2.335 -2.282,3.996 -2.891,4.992 l -7.176,11.648 c -0.16,0.254 -1.867,2.832 -5.117,7.707 -0.926,1.426 -1.656,2.383 -2.199,2.879 -0.184,0.164 -0.367,0.274 -0.555,0.305 -0.183,0.019 -0.508,-0.039 -0.965,-0.196 -0.461,-0.156 -1.621,-0.722 -3.484,-1.718 l -1.434,2.324 10.082,5.937 13.332,8.582 c 1.891,1.165 3.735,2.168 5.532,3.02 l 0.5,-0.234 c 0.449,-1.204 1.105,-2.688 1.976,-4.434 0.864,-1.75 1.676,-3.242 2.418,-4.504 l -2.324,-1.426 c -0.277,0.45 -0.949,1.426 -2.012,2.942 -0.543,0.801 -0.902,1.269 -1.086,1.386 -0.136,0.094 -0.273,0.145 -0.418,0.125 -0.472,0.02 -1.382,-0.234 -2.73,-0.761 -1.348,-0.535 -2.836,-1.309 -4.469,-2.313 -0.312,-0.187 -1.172,-0.754 -2.578,-1.691 -1.406,-0.938 -2.355,-1.582 -2.855,-1.934 0.921,-1.992 2.878,-5.418 5.871,-10.273 l 2.398,-3.895 c 2.469,1.336 4.117,2.254 4.953,2.774 2.418,1.492 3.875,2.539 4.371,3.152 0.196,0.227 0.239,0.559 0.129,0.977 -0.121,0.578 -0.676,1.711 -1.668,3.398 l 2.461,1.516 c 1.961,-3.176 4.457,-7.239 7.5,-12.168"
         style="fill:#231f20;fill-opacity:1;fill-rule:nonzero;stroke:none"
         id="path144"
         inkscape:connector-curvature="0" /><path
         d="m 604.805,847.844 -0.782,1.601 c 0.903,1.125 1.586,2.168 2.04,3.125 -0.282,0.891 -0.833,2.285 -1.661,4.18 -1.488,3.488 -2.609,5.996 -3.363,7.539 l -6.512,13.34 c -0.254,0.519 -1.242,2.422 -2.964,5.715 -1.153,2.207 -1.954,3.504 -2.407,3.894 -0.195,0.149 -0.41,0.227 -0.656,0.235 -0.645,-0.028 -2.133,-0.528 -4.469,-1.524 l -1.133,2.317 6.836,3.406 c 1.36,0.676 2.664,1.32 3.903,1.926 2.707,1.316 5.699,2.812 8.984,4.492 l 5.934,3.074 c 0.715,0.352 2.172,1.016 4.379,1.992 0.195,0.098 0.55,0.196 1.07,0.293 l 0.394,-0.281 1.532,-4.543 c 0.125,-0.301 0.718,-1.777 1.797,-4.402 l -2.321,-1.133 c -1.176,2.312 -1.965,3.699 -2.363,4.168 -0.211,0.234 -0.426,0.371 -0.641,0.422 -0.347,0.047 -1.211,-0.176 -2.601,-0.688 -2.059,-0.73 -4.024,-1.558 -5.899,-2.476 -1.754,-0.852 -3.515,-1.797 -5.281,-2.832 0.813,-2.375 2.059,-5.286 3.738,-8.731 l 2.969,-6.086 c 1.414,0.52 2.852,1.133 4.317,1.848 0.453,0.223 2.074,1.062 4.863,2.519 1.058,0.547 1.652,0.918 1.785,1.133 0.129,0.203 0.172,0.488 0.125,0.828 -0.129,0.86 -0.602,2.188 -1.418,3.957 l 2.387,1.172 3.051,-6.613 3.324,-6.445 -2.391,-1.172 c -1.101,2.316 -1.945,3.664 -2.527,4.043 -0.438,0.285 -0.989,0.324 -1.656,0.117 -1.489,-0.457 -3.317,-1.211 -5.477,-2.266 -1.945,-0.945 -3.512,-1.804 -4.703,-2.558 l 6.094,-12.481 c 0.675,-1.394 1.312,-2.578 1.894,-3.523 1.66,0.633 3.578,1.484 5.762,2.547 2.125,1.035 4.047,2.062 5.781,3.078 1.727,1.015 2.734,1.758 3.024,2.215 0.093,0.144 0.14,0.382 0.121,0.722 -0.11,1.114 -0.618,3.106 -1.52,5.95 l 2.461,1.199 c 1.465,-4.129 2.816,-7.449 4.047,-9.981 l -0.199,-0.578 c -1.196,-0.758 -2.957,-1.707 -5.289,-2.84 l -4.821,-2.226 c -4.734,-2.215 -7.992,-3.77 -9.769,-4.629 -0.473,-0.235 -3.735,-1.914 -9.789,-5.039"
         style="fill:#231f20;fill-opacity:1;fill-rule:nonzero;stroke:none"
         id="path146"
         inkscape:connector-curvature="0" /><path
         d="m 651.047,872.59 c 0.73,0.09 2.027,0.469 3.902,1.133 2.555,0.91 4.321,2.48 5.293,4.738 0.973,2.242 0.906,4.949 -0.215,8.113 -0.793,2.239 -1.851,3.906 -3.172,5.012 -1.312,1.102 -2.753,1.699 -4.316,1.785 -1.562,0.09 -3.539,-0.293 -5.93,-1.141 -0.847,-0.292 -1.613,-0.656 -2.3,-1.066 l 5.004,-14.121 1.378,-3.66 c 0.036,-0.098 0.153,-0.371 0.356,-0.793 z m -7.965,22.043 1.801,0.633 c 1.406,0.5 2.668,1.074 3.789,1.726 1.117,0.656 1.949,1.399 2.488,2.238 0.543,0.833 0.871,1.907 0.973,3.215 0.109,1.309 -0.102,2.703 -0.625,4.18 -0.528,1.492 -1.27,2.664 -2.223,3.504 -0.957,0.84 -1.976,1.32 -3.07,1.437 -1.098,0.118 -2.578,-0.168 -4.453,-0.824 -1.352,-0.484 -2.551,-0.992 -3.602,-1.531 0.434,-1.531 0.988,-3.281 1.668,-5.242 l 1.664,-4.864 z m -2.727,-29.727 -0.515,1.453 c 0.863,1.036 1.543,2.004 2.035,2.903 -0.234,1.054 -0.598,2.332 -1.074,3.816 -0.992,3.059 -2.906,8.574 -5.735,16.563 -0.753,2.14 -1.964,5.461 -3.628,9.953 -1.27,3.476 -2.083,5.429 -2.422,5.867 -0.223,0.273 -0.457,0.441 -0.711,0.488 -0.539,0.129 -2.196,-0.195 -4.965,-0.996 l -0.914,2.578 c 0.457,0.168 0.937,0.324 1.445,0.469 l 4.344,1.379 c 1.418,0.476 3.172,1.082 5.265,1.824 2.071,0.735 3.692,1.34 4.856,1.809 2.934,1.199 4.855,1.961 5.766,2.285 3.421,1.211 6.187,1.797 8.293,1.746 2.101,-0.051 3.82,-0.594 5.16,-1.633 1.332,-1.031 2.3,-2.379 2.883,-4.051 0.636,-1.785 0.734,-3.621 0.292,-5.515 -0.437,-1.887 -1.273,-3.528 -2.507,-4.922 -0.727,-0.852 -2.516,-2.266 -5.356,-4.262 3.926,0.883 6.762,1.215 8.504,1 1.742,-0.226 3.34,-0.969 4.789,-2.238 1.453,-1.27 2.528,-2.879 3.215,-4.824 0.727,-2.051 0.93,-4.071 0.605,-6.055 -0.324,-1.992 -0.992,-3.828 -2.011,-5.516 -1.02,-1.699 -2.344,-3.214 -3.961,-4.574 -1.621,-1.355 -3.828,-2.527 -6.625,-3.512 l -10.52,-3.488 c -1.675,-0.586 -3.843,-1.445 -6.508,-2.547"
         style="fill:#231f20;fill-opacity:1;fill-rule:nonzero;stroke:none"
         id="path148"
         inkscape:connector-curvature="0" /><path
         d="m 681.09,888.129 c 1.383,0.359 2.68,0.176 3.894,-0.539 1.223,-0.723 2.008,-1.766 2.364,-3.152 0.363,-1.379 0.175,-2.688 -0.551,-3.918 -0.723,-1.231 -1.77,-2.02 -3.125,-2.372 -1.387,-0.363 -2.692,-0.175 -3.922,0.547 -1.23,0.723 -2.023,1.778 -2.383,3.164 -0.355,1.375 -0.179,2.676 0.539,3.895 0.715,1.223 1.778,2.012 3.184,2.375"
         style="fill:#231f20;fill-opacity:1;fill-rule:nonzero;stroke:none"
         id="path150"
         inkscape:connector-curvature="0" /><path
         d="m 705.977,884.242 -0.418,3.375 5.304,6.789 c 2.75,3.574 4.778,6.348 6.086,8.313 1.309,1.961 2.293,3.75 2.957,5.359 0.664,1.613 1.09,3.047 1.282,4.309 0.183,1.25 0.203,2.508 0.042,3.777 -0.308,2.52 -1.187,4.356 -2.632,5.508 -1.446,1.152 -3.266,1.594 -5.461,1.32 -1.242,-0.156 -2.379,-0.547 -3.414,-1.183 -1.035,-0.633 -1.887,-1.504 -2.543,-2.598 -0.231,-1.375 -0.465,-3.145 -0.7,-5.313 l -2.558,-0.312 -0.074,7.559 c -0.016,1.164 -0.035,2.382 -0.059,3.664 1.25,1.558 2.766,2.8 4.547,3.711 1.781,0.918 3.82,1.511 6.113,1.796 3.231,0.399 5.918,0.196 8.047,-0.617 2.129,-0.82 3.805,-2.109 5.02,-3.875 1.214,-1.769 1.949,-3.652 2.195,-5.644 0.156,-1.289 0.129,-2.578 -0.086,-3.86 -0.223,-1.277 -0.703,-2.715 -1.449,-4.304 -0.75,-1.594 -1.567,-3.028 -2.449,-4.289 l -3.239,-4.227 -3.019,-3.809 c -1.598,-2.023 -3.321,-4.113 -5.188,-6.269 l 0.153,-0.422 5.761,0.715 c 0.868,0.105 3.754,0.527 8.649,1.258 1.562,0.234 3.469,0.566 5.722,0.996 l 0.317,-0.399 c 0.027,-1.953 0.117,-3.476 0.25,-4.582 0.086,-0.703 0.301,-1.601 0.648,-2.695 l -0.117,-0.383 -9.723,-0.918 c -2.203,-0.191 -3.769,-0.347 -4.711,-0.465 l -15.253,-2.285"
         style="fill:#231f20;fill-opacity:1;fill-rule:nonzero;stroke:none"
         id="path152"
         inkscape:connector-curvature="0" /><path
         d="m 754.418,914.77 c 1.25,0.847 2.227,1.933 2.922,3.25 0.691,1.32 1.035,2.734 1.023,4.238 -0.019,2.16 -0.687,3.879 -1.996,5.156 -1.312,1.281 -3.054,1.914 -5.238,1.895 -1.895,-0.02 -3.418,-0.606 -4.574,-1.766 -1.16,-1.152 -1.731,-2.598 -1.715,-4.316 0.004,-0.684 0.109,-1.321 0.328,-1.914 0.215,-0.598 0.547,-1.184 0.988,-1.75 0.446,-0.567 0.989,-1.083 1.633,-1.543 0.645,-0.457 1.457,-0.926 2.453,-1.395 l 2.391,-1.105 z m -6.781,-6.25 c -1.559,-1.204 -2.719,-2.559 -3.492,-4.055 -0.766,-1.492 -1.141,-3.125 -1.125,-4.891 0.023,-2.695 0.851,-4.883 2.5,-6.582 1.644,-1.699 3.64,-2.531 6,-2.512 2.109,0.02 3.855,0.762 5.242,2.227 1.383,1.477 2.066,3.301 2.047,5.488 -0.016,1.582 -0.297,2.903 -0.86,3.946 -0.554,1.047 -1.496,1.992 -2.812,2.843 -1.313,0.84 -3.516,1.903 -6.606,3.184 z m -2.848,1.265 c -1.793,1.02 -3.101,1.945 -3.934,2.793 -0.832,0.844 -1.5,1.914 -2.007,3.227 -0.508,1.297 -0.766,2.742 -0.782,4.304 -0.019,2.532 0.59,4.766 1.84,6.711 1.246,1.942 2.871,3.418 4.879,4.442 2,1.015 4.512,1.543 7.524,1.574 3.675,0.027 6.535,-0.883 8.574,-2.734 2.039,-1.86 3.07,-4.141 3.097,-6.86 0.008,-1.453 -0.269,-2.789 -0.843,-4.031 -0.578,-1.238 -1.391,-2.371 -2.438,-3.398 -0.597,-0.575 -1.582,-1.309 -2.969,-2.208 1.879,-0.769 3.309,-1.542 4.297,-2.292 0.985,-0.754 1.766,-1.583 2.348,-2.493 0.582,-0.91 1.016,-1.922 1.301,-3.027 0.281,-1.113 0.433,-2.305 0.441,-3.582 0.031,-3.156 -0.722,-5.938 -2.25,-8.359 -1.531,-2.414 -3.711,-4.258 -6.531,-5.547 -1.953,-0.879 -4.285,-1.328 -6.988,-1.352 -2.555,-0.015 -4.68,0.356 -6.383,1.137 -1.192,0.535 -2.324,1.308 -3.402,2.312 -1.075,1.008 -1.934,2.176 -2.575,3.516 -0.633,1.34 -0.961,2.961 -0.98,4.855 -0.016,1.473 0.183,2.813 0.594,4.004 0.406,1.192 0.996,2.246 1.757,3.145 0.77,0.898 1.555,1.609 2.371,2.148 0.168,0.118 1.196,0.684 3.059,1.715"
         style="fill:#231f20;fill-opacity:1;fill-rule:nonzero;stroke:none"
         id="path154"
         inkscape:connector-curvature="0" /><path
         d="m 775.113,912.512 c 1.196,-0.086 2.664,-0.227 4.414,-0.41 l 0.082,1.132 c -1.074,0.118 -1.714,0.235 -1.914,0.371 -0.199,0.129 -0.324,0.313 -0.367,0.547 -0.07,0.411 -0.031,1.59 0.113,3.547 l 0.618,8.125 c 0.16,2.168 0.265,3.406 0.32,3.719 l 1.941,-0.145 c 1.047,-0.078 1.938,-0.187 2.672,-0.312 0.235,-0.039 0.375,-0.078 0.43,-0.129 0.058,-0.066 0.101,-0.262 0.133,-0.594 0.05,-0.656 0.058,-1.328 0.023,-2.035 l 1.129,-0.086 c 0.172,1.906 0.266,2.891 0.277,2.969 0.051,0.41 0.133,0.891 0.254,1.437 l -0.125,0.145 c -0.429,0.012 -0.851,0.02 -1.265,0.039 -0.774,0.051 -2.293,0.156 -4.571,0.324 l -5.476,0.418 c -2.219,0.168 -3.711,0.285 -4.488,0.364 -0.481,0.046 -0.93,0.097 -1.352,0.156 l -0.133,-0.129 c 0.024,-0.469 0.031,-0.899 0.027,-1.297 -0.003,-0.234 -0.062,-1.281 -0.167,-3.137 l 1.128,-0.086 c 0.075,0.782 0.2,1.493 0.364,2.11 0.062,0.261 0.133,0.418 0.199,0.468 0.047,0.04 0.223,0.055 0.519,0.067 0.743,0.012 1.602,-0.027 2.575,-0.098 l 1.929,-0.144 c 0.032,-0.274 -0.031,-1.516 -0.203,-3.731 l -0.613,-8.125 c -0.148,-1.965 -0.285,-3.125 -0.418,-3.508 -0.086,-0.254 -0.238,-0.418 -0.453,-0.515 -0.211,-0.09 -0.86,-0.117 -1.945,-0.071 l -0.086,-1.132 c 1.671,-0.067 3.148,-0.157 4.429,-0.254"
         style="fill:#231f20;fill-opacity:1;fill-rule:nonzero;stroke:none"
         id="path156"
         inkscape:connector-curvature="0" /><path
         d="m 784.629,911.742 0.18,1.199 c 0.843,-0.105 1.367,-0.164 1.558,-0.156 0.192,0.012 0.336,0.039 0.442,0.098 0.093,0.051 0.168,0.137 0.226,0.254 0.129,0.265 0.27,0.879 0.43,1.855 l 0.461,2.668 0.945,6.297 0.34,2.656 c 0.137,0.996 0.18,1.641 0.129,1.922 -0.016,0.129 -0.059,0.238 -0.137,0.317 -0.07,0.078 -0.199,0.156 -0.379,0.222 -0.179,0.071 -0.695,0.176 -1.551,0.324 l 0.184,1.192 c 1.465,-0.266 3.008,-0.527 4.645,-0.774 1.457,-0.214 2.757,-0.39 3.894,-0.507 l -0.18,-1.192 c -0.976,0.11 -1.554,0.156 -1.73,0.137 -0.18,-0.012 -0.313,-0.059 -0.395,-0.137 -0.086,-0.078 -0.183,-0.39 -0.3,-0.918 -0.215,-0.906 -0.457,-2.215 -0.715,-3.945 l -0.231,-1.543 c 0.645,-0.156 2.008,-0.383 4.086,-0.691 2.629,-0.403 4.25,-0.618 4.875,-0.657 l 0.235,1.555 c 0.207,1.387 0.332,2.285 0.371,2.684 0.093,1.203 0.136,1.886 0.121,2.043 -0.008,0.105 -0.039,0.203 -0.086,0.273 -0.055,0.059 -0.152,0.125 -0.305,0.195 -0.148,0.059 -0.711,0.184 -1.679,0.36 l 0.179,1.203 c 1.125,-0.227 2.414,-0.442 3.875,-0.656 1.629,-0.254 3.188,-0.457 4.66,-0.625 l -0.172,-1.2 c -0.851,0.106 -1.371,0.164 -1.562,0.157 -0.191,-0.012 -0.34,-0.039 -0.438,-0.098 -0.097,-0.051 -0.175,-0.137 -0.226,-0.254 -0.133,-0.273 -0.274,-0.891 -0.434,-1.855 l -0.461,-2.676 -0.949,-6.301 -0.332,-2.645 c -0.14,-1.007 -0.187,-1.652 -0.144,-1.914 0.023,-0.136 0.074,-0.246 0.144,-0.332 0.074,-0.078 0.199,-0.16 0.383,-0.226 0.18,-0.059 0.695,-0.164 1.547,-0.313 l -0.18,-1.191 c -1.461,0.266 -3.008,0.527 -4.64,0.773 -1.458,0.215 -2.758,0.391 -3.895,0.508 l 0.18,1.192 c 0.992,-0.11 1.578,-0.157 1.757,-0.149 0.18,0.02 0.313,0.07 0.403,0.149 0.086,0.078 0.187,0.378 0.305,0.918 0.191,0.906 0.417,2.222 0.675,3.945 l 0.418,2.82 c -0.441,0.117 -1.758,0.344 -3.937,0.676 -2.09,0.312 -3.489,0.508 -4.188,0.594 -0.281,0.039 -0.558,0.058 -0.836,0.078 l -0.422,-2.821 c -0.21,-1.406 -0.32,-2.304 -0.324,-2.695 -0.109,-1.203 -0.16,-1.894 -0.144,-2.062 0.008,-0.098 0.039,-0.188 0.086,-0.254 0.05,-0.067 0.152,-0.137 0.297,-0.196 0.152,-0.07 0.707,-0.183 1.656,-0.363 l -0.176,-1.199 c -1.121,0.227 -2.41,0.441 -3.875,0.664 -1.633,0.242 -3.184,0.449 -4.664,0.617"
         style="fill:#231f20;fill-opacity:1;fill-rule:nonzero;stroke:none"
         id="path158"
         inkscape:connector-curvature="0" /><path
         d="m 820.938,879.359 0.824,2.528 6.16,-1.317 c 0.656,-0.129 1.18,-0.09 1.566,0.098 0.383,0.184 0.789,0.684 1.219,1.492 0.781,1.543 2.09,5.137 3.934,10.762 l 2.461,7.531 c 0.847,2.598 1.738,5.41 2.671,8.438 l 0.809,2.722 c 0.219,0.664 0.297,1.114 0.234,1.348 -0.07,0.227 -0.195,0.371 -0.386,0.441 -0.125,0.039 -0.649,0.008 -1.575,-0.078 -4.714,-0.449 -7.734,-0.781 -9.046,-1.008 l -0.305,0.352 c 0.059,0.441 0.176,1.145 0.359,2.102 0.125,0.722 0.227,1.394 0.297,2.019 l 0.106,0.203 c 4.086,-0.125 7.351,-0.183 9.793,-0.164 2.441,0.02 6.285,0.137 11.539,0.371 l 0.527,-0.691 c -0.098,-0.332 -0.488,-1.301 -1.133,-2.891 -0.664,-1.594 -1.054,-2.617 -1.211,-3.086 -0.656,-1.797 -2.258,-6.426 -4.804,-13.886 l -1.52,-4.653 c -1.484,-4.539 -2.465,-7.703 -2.937,-9.5 -0.817,-2.695 -1.196,-4.304 -1.141,-4.832 0.039,-0.312 0.176,-0.597 0.418,-0.832 0.406,-0.437 1.836,-1.113 4.273,-2.031 0.7,-0.242 1.352,-0.527 1.953,-0.84 l -0.824,-2.527 c -4.472,1.629 -8.121,2.898 -10.929,3.816 -1.922,0.637 -6.364,2.004 -13.332,4.113"
         style="fill:#231f20;fill-opacity:1;fill-rule:nonzero;stroke:none"
         id="path160"
         inkscape:connector-curvature="0" /><path
         d="m 874.516,887.367 c 1.496,0.235 2.843,0.801 4.035,1.699 1.191,0.887 2.109,2.02 2.734,3.379 0.906,1.961 1.035,3.809 0.41,5.516 -0.644,1.719 -1.953,3.039 -3.925,3.957 -1.719,0.789 -3.36,0.918 -4.903,0.359 -1.543,-0.547 -2.668,-1.601 -3.39,-3.164 -0.282,-0.625 -0.457,-1.25 -0.516,-1.875 -0.07,-0.625 -0.02,-1.297 0.137,-2 0.156,-0.703 0.429,-1.41 0.82,-2.09 0.379,-0.695 0.918,-1.464 1.621,-2.316 l 1.68,-2.019 z m -8.797,-2.746 c -1.934,-0.418 -3.555,-1.141 -4.895,-2.168 -1.336,-1.023 -2.371,-2.336 -3.113,-3.933 -1.133,-2.454 -1.32,-4.786 -0.559,-7.024 0.754,-2.234 2.207,-3.848 4.348,-4.836 1.914,-0.887 3.809,-0.965 5.691,-0.23 1.887,0.73 3.282,2.097 4.2,4.082 0.675,1.433 0.968,2.754 0.91,3.933 -0.059,1.184 -0.5,2.434 -1.328,3.77 -0.821,1.328 -2.364,3.234 -4.61,5.703 z m -2.031,2.363 c -1.192,1.692 -1.973,3.086 -2.364,4.211 -0.39,1.114 -0.547,2.371 -0.441,3.77 0.109,1.394 0.48,2.801 1.144,4.226 1.055,2.297 2.578,4.063 4.532,5.286 1.953,1.211 4.062,1.851 6.308,1.921 2.246,0.071 4.735,-0.535 7.481,-1.804 3.32,-1.535 5.515,-3.586 6.57,-6.133 1.047,-2.551 1.008,-5.059 -0.125,-7.52 -0.625,-1.32 -1.445,-2.414 -2.5,-3.293 -1.055,-0.867 -2.266,-1.543 -3.652,-2.019 -0.782,-0.274 -1.993,-0.512 -3.633,-0.723 1.367,-1.504 2.344,-2.812 2.91,-3.918 0.566,-1.101 0.918,-2.187 1.055,-3.25 0.136,-1.078 0.097,-2.168 -0.129,-3.3 -0.215,-1.125 -0.594,-2.266 -1.121,-3.43 -1.328,-2.86 -3.203,-5.059 -5.618,-6.582 -2.41,-1.531 -5.183,-2.274 -8.281,-2.227 -2.136,0.051 -4.441,0.637 -6.883,1.77 -2.324,1.074 -4.082,2.324 -5.293,3.758 -0.839,0.996 -1.543,2.179 -2.082,3.554 -0.535,1.367 -0.808,2.793 -0.82,4.278 -0.008,1.476 0.391,3.078 1.184,4.804 0.625,1.34 1.367,2.461 2.254,3.36 0.879,0.91 1.867,1.601 2.941,2.09 1.074,0.488 2.09,0.8 3.055,0.937 0.207,0.02 1.379,0.098 3.508,0.234"
         style="fill:#231f20;fill-opacity:1;fill-rule:nonzero;stroke:none"
         id="path162"
         inkscape:connector-curvature="0" /><path
         d="m 888.121,871.633 -0.742,1.269 c 0.703,0.938 1.629,2.317 2.773,4.141 l 2.852,4.434 2.234,3.703 1.77,3.172 c 0.82,1.398 1.308,2.238 1.445,2.511 0.274,0.504 0.535,1.004 0.781,1.492 0.254,0.489 0.528,1.067 0.821,1.711 l 0.535,0.059 c 4.484,-2.891 8.371,-5.324 11.691,-7.324 1.27,-0.766 2.266,-1.367 3.016,-1.797 l 5.48,-3.059 -0.019,-0.605 c -1.477,-1.922 -2.383,-3.192 -2.754,-3.797 -0.293,-0.5 -0.664,-1.152 -1.074,-1.984 l -0.508,-0.196 c -0.723,0.489 -1.524,1.028 -2.442,1.602 -3.007,1.914 -4.953,3.125 -5.82,3.652 -4.023,2.422 -6.867,4.043 -8.535,4.875 l -5.527,-8.867 c 2.05,-0.215 3.691,-0.52 4.961,-0.91 1.25,-0.399 2.527,-0.985 3.828,-1.766 3.465,-2.101 5.613,-4.699 6.445,-7.812 0.84,-3.125 0.293,-6.262 -1.602,-9.414 -1.523,-2.512 -3.703,-4.512 -6.562,-6.02 -2.852,-1.492 -6.211,-2.086 -10.078,-1.765 -2.91,0.246 -5.86,1.261 -8.828,3.046 -1.27,0.762 -2.285,1.496 -3.047,2.188 -0.762,0.683 -1.652,1.699 -2.676,3.039 0.391,0.898 0.75,1.824 1.074,2.773 0.313,0.957 0.977,3.114 1.973,6.485 L 881.852,866 c -0.235,-1.828 -0.235,-3.477 0.027,-4.934 0.254,-1.464 0.832,-2.851 1.73,-4.168 0.887,-1.308 1.981,-2.355 3.282,-3.136 2.05,-1.25 4.179,-1.563 6.367,-0.946 2.168,0.606 4.004,2.137 5.476,4.579 1.536,2.539 2.043,4.941 1.536,7.187 -0.508,2.246 -1.946,4.082 -4.297,5.496 -0.938,0.57 -1.836,0.969 -2.676,1.215 -0.859,0.242 -1.621,0.391 -2.285,0.43 -0.364,0.027 -1.328,0.007 -2.891,-0.09"
         style="fill:#231f20;fill-opacity:1;fill-rule:nonzero;stroke:none"
         id="path164"
         inkscape:connector-curvature="0" /><path
         d="m 923.324,857.113 c -2.969,-3.965 -5.437,-7.695 -7.429,-11.183 -1.973,-3.496 -2.911,-6.094 -2.813,-7.793 0.117,-1.699 0.742,-2.989 1.895,-3.848 1.425,-1.062 3.144,-1.211 5.175,-0.437 2.012,0.769 5.137,3.972 9.356,9.617 2.754,3.683 5.273,7.519 7.539,11.504 1.211,2.14 1.973,3.855 2.285,5.168 0.293,1.297 0.293,2.41 0,3.347 -0.293,0.938 -0.859,1.719 -1.699,2.344 -0.957,0.715 -1.992,1.047 -3.145,1.016 -1.144,-0.039 -2.422,-0.594 -3.82,-1.66 -1.98,-1.485 -4.434,-4.18 -7.344,-8.075 z m -9.187,1.141 c 2.285,3.066 4.597,5.703 6.933,7.91 1.504,1.426 3.145,2.551 4.91,3.379 1.77,0.82 3.45,1.309 5.051,1.457 1.582,0.156 3.184,-0.012 4.785,-0.488 1.602,-0.489 3.125,-1.27 4.571,-2.344 2.898,-2.168 4.687,-4.492 5.371,-6.965 0.672,-2.469 0.508,-5.137 -0.508,-7.988 -1.008,-2.86 -3.047,-6.348 -6.133,-10.469 -2.179,-2.91 -4.219,-5.34 -6.133,-7.293 -1.925,-1.965 -3.839,-3.437 -5.761,-4.426 -1.914,-0.976 -3.692,-1.574 -5.325,-1.777 -1.628,-0.203 -3.222,-0.098 -4.773,0.332 -1.543,0.422 -3.164,1.27 -4.844,2.531 -2.011,1.504 -3.476,3.192 -4.394,5.078 -0.918,1.883 -1.289,3.926 -1.114,6.133 0.176,2.196 0.918,4.539 2.247,7.031 1.328,2.481 3.027,5.118 5.117,7.899"
         style="fill:#231f20;fill-opacity:1;fill-rule:nonzero;stroke:none"
         id="path166"
         inkscape:connector-curvature="0" /><path
         d="m 961.617,723.367 -0.801,12.856 72.674,88.707 -1.25,-15 -69.998,-86.563 h -0.625"
         style="fill:#231f20;fill-opacity:1;fill-rule:nonzero;stroke:none"
         id="path168"
         inkscape:connector-curvature="0" /><path
         d="m 535.68,727.43 4.062,9.375 -75.937,92.187 1.25,-15 70,-86.562 h 0.625"
         style="fill:#231f20;fill-opacity:1;fill-rule:nonzero;stroke:none"
         id="path170"
         inkscape:connector-curvature="0" /><path
         d="m 743.18,241.91 c -265.559,0 -480.836,215.274 -480.836,480.832 0,265.555 215.277,480.838 480.836,480.838 265.56,0 480.84,-215.283 480.84,-480.838 0,-265.558 -215.28,-480.832 -480.84,-480.832 z m 0,969.16 c -269.239,0 -487.5,-218.261 -487.5,-487.5 0,-269.238 218.261,-487.5 487.5,-487.5 269.24,0 487.5,218.262 487.5,487.5 0,269.239 -218.26,487.5 -487.5,487.5"
         style="fill:#231f20;fill-opacity:1;fill-rule:nonzero;stroke:none"
         id="path172"
         inkscape:connector-curvature="0" /><path
         d="m 743.18,72.7383 c -358.985,0 -650.0003,291.0237 -650.0003,650.0037 0,358.988 291.0153,649.998 650.0003,649.998 358.98,0 650,-291.01 650,-649.998 0,-358.98 -291.02,-650.0037 -650,-650.0037 z m 0,1306.2517 c -362.438,0 -656.2503,-293.81 -656.2503,-656.248 0,-362.433 293.8123,-656.2537 656.2503,-656.2537 362.44,0 656.25,293.8207 656.25,656.2537 0,362.438 -293.81,656.248 -656.25,656.248"
         style="fill:#231f20;fill-opacity:1;fill-rule:nonzero;stroke:none"
         id="path174"
         inkscape:connector-curvature="0" /></g></g></svg>