<?xml version="1.0" encoding="UTF-8" standalone="no"?>
<!-- Created with Inkscape (http://www.inkscape.org/) -->

<svg
   xmlns:dc="http://purl.org/dc/elements/1.1/"
   xmlns:cc="http://creativecommons.org/ns#"
   xmlns:rdf="http://www.w3.org/1999/02/22-rdf-syntax-ns#"
   xmlns:svg="http://www.w3.org/2000/svg"
   xmlns="http://www.w3.org/2000/svg"
   xmlns:sodipodi="http://sodipodi.sourceforge.net/DTD/sodipodi-0.dtd"
   xmlns:inkscape="http://www.inkscape.org/namespaces/inkscape"
   width="179mm"
   height="106mm"
   viewBox="0 0 179 106"
   version="1.1"
   id="svg8"
   inkscape:version="0.92.4 5da689c313, 2019-01-14"
   sodipodi:docname="1d anatomy.svg">
  <defs
     id="defs2">
    <marker
       inkscape:stockid="Arrow2Lend"
       orient="auto"
       refY="0"
       refX="0"
       id="marker10177"
       style="overflow:visible"
       inkscape:isstock="true">
      <path
         id="path10175"
         style="fill:#000000;fill-opacity:1;fill-rule:evenodd;stroke:#000000;stroke-width:0.625;stroke-linejoin:round;stroke-opacity:1"
         d="M 8.7185878,4.0337352 -2.2072895,0.01601326 8.7185884,-4.0017078 c -1.7454984,2.3720609 -1.7354408,5.6174519 -6e-7,8.035443 z"
         transform="matrix(-1.1,0,0,-1.1,-1.1,0)"
         inkscape:connector-curvature="0" />
    </marker>
    <marker
       inkscape:isstock="true"
       style="overflow:visible"
       id="marker10101"
       refX="0"
       refY="0"
       orient="auto"
       inkscape:stockid="Arrow2Lend"
       inkscape:collect="always">
      <path
         inkscape:connector-curvature="0"
         transform="matrix(-1.1,0,0,-1.1,-1.1,0)"
         d="M 8.7185878,4.0337352 -2.2072895,0.01601326 8.7185884,-4.0017078 c -1.7454984,2.3720609 -1.7354408,5.6174519 -6e-7,8.035443 z"
         style="fill:#000000;fill-opacity:1;fill-rule:evenodd;stroke:#000000;stroke-width:0.625;stroke-linejoin:round;stroke-opacity:1"
         id="path10099" />
    </marker>
    <marker
       inkscape:stockid="Arrow2Lend"
       orient="auto"
       refY="0"
       refX="0"
       id="marker5418"
       style="overflow:visible"
       inkscape:isstock="true">
      <path
         id="path5416"
         style="fill:#000000;fill-opacity:1;fill-rule:evenodd;stroke:#000000;stroke-width:0.625;stroke-linejoin:round;stroke-opacity:1"
         d="M 8.7185878,4.0337352 -2.2072895,0.01601326 8.7185884,-4.0017078 c -1.7454984,2.3720609 -1.7354408,5.6174519 -6e-7,8.035443 z"
         transform="matrix(-1.1,0,0,-1.1,-1.1,0)"
         inkscape:connector-curvature="0" />
    </marker>
    <marker
       inkscape:stockid="Arrow2Lend"
       orient="auto"
       refY="0"
       refX="0"
       id="Arrow2Lend"
       style="overflow:visible"
       inkscape:isstock="true"
       inkscape:collect="always">
      <path
         id="path4676"
         style="fill:#000000;fill-opacity:1;fill-rule:evenodd;stroke:#000000;stroke-width:0.625;stroke-linejoin:round;stroke-opacity:1"
         d="M 8.7185878,4.0337352 -2.2072895,0.01601326 8.7185884,-4.0017078 c -1.7454984,2.3720609 -1.7354408,5.6174519 -6e-7,8.035443 z"
         transform="matrix(-1.1,0,0,-1.1,-1.1,0)"
         inkscape:connector-curvature="0" />
    </marker>
    <marker
       inkscape:isstock="true"
       style="overflow:visible"
       id="marker5110"
       refX="0"
       refY="0"
       orient="auto"
       inkscape:stockid="Arrow1Mend">
      <path
         transform="matrix(-0.4,0,0,-0.4,-4,0)"
         style="fill:#000000;fill-opacity:1;fill-rule:evenodd;stroke:#000000;stroke-width:1.00000003pt;stroke-opacity:1"
         d="M 0,0 5,-5 -12.5,0 5,5 Z"
         id="path5108"
         inkscape:connector-curvature="0" />
    </marker>
    <marker
       inkscape:stockid="Arrow1Mend"
       orient="auto"
       refY="0"
       refX="0"
       id="Arrow1Mend"
       style="overflow:visible"
       inkscape:isstock="true"
       inkscape:collect="always">
      <path
         id="path4664"
         d="M 0,0 5,-5 -12.5,0 5,5 Z"
         style="fill:#000000;fill-opacity:1;fill-rule:evenodd;stroke:#000000;stroke-width:1.00000003pt;stroke-opacity:1"
         transform="matrix(-0.4,0,0,-0.4,-4,0)"
         inkscape:connector-curvature="0" />
    </marker>
    <marker
       inkscape:stockid="Arrow1Lend"
       orient="auto"
       refY="0"
       refX="0"
       id="Arrow1Lend"
       style="overflow:visible"
       inkscape:isstock="true">
      <path
         id="path4658"
         d="M 0,0 5,-5 -12.5,0 5,5 Z"
         style="fill:#000000;fill-opacity:1;fill-rule:evenodd;stroke:#000000;stroke-width:1.00000003pt;stroke-opacity:1"
         transform="matrix(-0.8,0,0,-0.8,-10,0)"
         inkscape:connector-curvature="0" />
    </marker>
    <marker
       inkscape:stockid="Arrow2Lend"
       orient="auto"
       refY="0"
       refX="0"
       id="marker5418-0"
       style="overflow:visible"
       inkscape:isstock="true">
      <path
         inkscape:connector-curvature="0"
         id="path5416-0"
         style="fill:#000000;fill-opacity:1;fill-rule:evenodd;stroke:#000000;stroke-width:0.625;stroke-linejoin:round;stroke-opacity:1"
         d="M 8.7185878,4.0337352 -2.2072895,0.01601326 8.7185884,-4.0017078 c -1.7454984,2.3720609 -1.7354408,5.6174519 -6e-7,8.035443 z"
         transform="matrix(-1.1,0,0,-1.1,-1.1,0)" />
    </marker>
    <marker
       inkscape:stockid="Arrow2Lend"
       orient="auto"
       refY="0"
       refX="0"
       id="marker5418-8"
       style="overflow:visible"
       inkscape:isstock="true">
      <path
         inkscape:connector-curvature="0"
         id="path5416-2"
         style="fill:#000000;fill-opacity:1;fill-rule:evenodd;stroke:#000000;stroke-width:0.625;stroke-linejoin:round;stroke-opacity:1"
         d="M 8.7185878,4.0337352 -2.2072895,0.01601326 8.7185884,-4.0017078 c -1.7454984,2.3720609 -1.7354408,5.6174519 -6e-7,8.035443 z"
         transform="matrix(-1.1,0,0,-1.1,-1.1,0)" />
    </marker>
  </defs>
  <sodipodi:namedview
     id="base"
     pagecolor="#ffffff"
     bordercolor="#666666"
     borderopacity="1.0"
     inkscape:pageopacity="0.0"
     inkscape:pageshadow="2"
     inkscape:zoom="1.4578796"
     inkscape:cx="543.50873"
     inkscape:cy="180.62641"
     inkscape:document-units="mm"
     inkscape:current-layer="layer1"
     showgrid="false"
     inkscape:window-width="1920"
     inkscape:window-height="1043"
     inkscape:window-x="1920"
     inkscape:window-y="0"
     inkscape:window-maximized="1" />
  <metadata
     id="metadata5">
    <rdf:RDF>
      <cc:Work
         rdf:about="">
        <dc:format>image/svg+xml</dc:format>
        <dc:type
           rdf:resource="http://purl.org/dc/dcmitype/StillImage" />
        <dc:title></dc:title>
      </cc:Work>
    </rdf:RDF>
  </metadata>
  <g
     inkscape:label="Layer 1"
     inkscape:groupmode="layer"
     id="layer1"
     transform="translate(0,-191)">
    <path
       style="fill:none;stroke:#000000;stroke-width:1;stroke-linecap:butt;stroke-linejoin:miter;stroke-miterlimit:4;stroke-dasharray:none;stroke-opacity:1"
       d="m 7.8833332,199.18691 v 79.0678"
       id="path4536"
       inkscape:connector-curvature="0"
       sodipodi:nodetypes="cc" />
    <path
       style="fill:none;stroke:#000000;stroke-width:1;stroke-linecap:butt;stroke-linejoin:miter;stroke-miterlimit:4;stroke-dasharray:none;stroke-opacity:1"
       d="m 7.8833332,278.25471 c 0.3849879,12.69734 11.2337558,12.12063 11.2337558,12.12063"
       id="path4553"
       inkscape:connector-curvature="0"
       sodipodi:nodetypes="cc" />
    <path
       style="fill:none;stroke:#000000;stroke-width:1;stroke-linecap:butt;stroke-linejoin:miter;stroke-miterlimit:4;stroke-dasharray:none;stroke-opacity:1"
       d="M 19.117089,290.37534 H 57.149575"
       id="path4555"
       inkscape:connector-curvature="0"
       sodipodi:nodetypes="cc" />
    <path
       style="fill:none;stroke:#000000;stroke-width:1;stroke-linecap:butt;stroke-linejoin:miter;stroke-miterlimit:4;stroke-dasharray:none;stroke-opacity:1"
       d="m 68.383332,199.18691 v 79.0678"
       id="path4536-6"
       inkscape:connector-curvature="0"
       sodipodi:nodetypes="cc" />
    <path
       style="fill:none;stroke:#000000;stroke-width:1;stroke-linecap:butt;stroke-linejoin:miter;stroke-miterlimit:4;stroke-dasharray:none;stroke-opacity:1"
       d="m 68.383332,278.25471 c -0.128329,13.08233 -11.233757,12.12063 -11.233757,12.12063"
       id="path4553-7"
       inkscape:connector-curvature="0"
       sodipodi:nodetypes="cc" />
    <path
       style="fill:#000000;fill-opacity:0.39215686;stroke:none;stroke-width:0.96089685;stroke-linecap:round;stroke-linejoin:round;stroke-miterlimit:4;stroke-dasharray:none;stroke-opacity:1"
       d="m 14.186125,289.22604 c -1.779974,-0.68861 -3.701544,-1.95794 -4.6698797,-3.77473 -1.6183621,-3.03636 -1.0312174,-1.33889 -1.0312174,-45.68507 v -40.80341 h 4.4506791 4.45068 l -0.0047,38.13821 c -0.0046,37.4755 -0.0028,37.61406 0.524135,39.02254 0.687742,1.83816 2.332895,3.48907 4.247366,4.26225 l 1.458981,0.58922 h 14.364383 c 13.195879,0 14.471493,-0.0374 15.680795,-0.45925 2.795342,-0.97521 4.462907,-2.90347 5.087594,-5.88293 0.252063,-1.20224 0.323868,-9.5952 0.328006,-38.34002 l 0.0053,-37.33002 h 4.322032 4.851202 v 41.16647 c 0,39.41621 -0.01484,40.69537 -0.494284,42.56993 -0.271854,1.06294 -0.678752,2.28935 -0.904214,2.72535 -0.674955,1.30522 -2.254533,2.65788 -3.542996,3.51514 l -1.816486,1.20856 -23.008476,0.58224 c -22.319437,0.56481 -24.634219,-1.54923 -25.886399,-2.03365 z"
       id="path4651"
       inkscape:connector-curvature="0"
       sodipodi:nodetypes="csscccssscsscscccsccscscc" />
    <path
       style="fill:none;stroke:#000000;stroke-width:1;stroke-linecap:butt;stroke-linejoin:miter;stroke-miterlimit:4;stroke-dasharray:none;stroke-opacity:1;marker-end:url(#Arrow1Mend)"
       d="M 75.679941,243.25471 H 93.730789"
       id="path4653"
       inkscape:connector-curvature="0"
       sodipodi:nodetypes="cc" />
    <rect
       style="fill:#000000;fill-opacity:0.39215686;stroke:none;stroke-width:1.81022751;stroke-linecap:round;stroke-linejoin:round;stroke-miterlimit:4;stroke-dasharray:none;stroke-opacity:1"
       id="rect4963"
       width="52.118645"
       height="54.15255"
       x="100.49765"
       y="211.51605" />
    <path
       style="fill:none;stroke:#000000;stroke-width:10;stroke-linecap:butt;stroke-linejoin:miter;stroke-miterlimit:4;stroke-dasharray:none;stroke-opacity:0.58823529"
       d="m 100.4976,270.68284 h 52.11865"
       id="path4965"
       inkscape:connector-curvature="0" />
    <g
       aria-label="cell wall + membranes"
       style="font-style:normal;font-weight:normal;font-size:4.23333311px;line-height:1.25;font-family:sans-serif;letter-spacing:0px;word-spacing:0px;fill:#000000;fill-opacity:1;stroke:none;stroke-width:0.26458332"
       id="text4973">
      <path
         d="m 103.55894,269.95228 v 0.35553 q -0.16123,-0.0889 -0.32453,-0.13229 -0.16123,-0.0455 -0.32659,-0.0455 -0.37001,0 -0.57464,0.23565 -0.20464,0.23358 -0.20464,0.65732 0,0.42375 0.20464,0.65939 0.20463,0.23358 0.57464,0.23358 0.16536,0 0.32659,-0.0434 0.1633,-0.0455 0.32453,-0.13436 v 0.3514 q -0.15916,0.0744 -0.33073,0.11162 -0.1695,0.0372 -0.36173,0.0372 -0.52297,0 -0.83096,-0.32866 -0.30799,-0.32866 -0.30799,-0.88677 0,-0.56637 0.31006,-0.8909 0.31212,-0.32453 0.85369,-0.32453 0.1757,0 0.34313,0.0372 0.16743,0.0351 0.32453,0.10749 z"
         style="font-size:4.23333311px;fill:#000000;fill-opacity:1;stroke-width:0.26458332"
         id="path1161" />
      <path
         d="m 106.20477,270.92586 v 0.18604 h -1.74873 q 0.0248,0.39274 0.23565,0.59944 0.2129,0.20464 0.59118,0.20464 0.2191,0 0.42374,-0.0537 0.20671,-0.0537 0.40928,-0.16123 v 0.35967 q -0.20464,0.0868 -0.41961,0.13229 -0.21498,0.0455 -0.43615,0.0455 -0.55397,0 -0.8785,-0.32246 -0.32246,-0.32246 -0.32246,-0.8723 0,-0.56844 0.30592,-0.90123 0.30799,-0.33487 0.82889,-0.33487 0.46716,0 0.73794,0.30179 0.27285,0.29973 0.27285,0.81649 z m -0.38034,-0.11162 q -0.004,-0.31213 -0.1757,-0.49816 -0.16949,-0.18604 -0.45061,-0.18604 -0.31833,0 -0.51057,0.17984 -0.19017,0.17983 -0.2191,0.50643 z"
         style="font-size:4.23333311px;fill:#000000;fill-opacity:1;stroke-width:0.26458332"
         id="path1163" />
      <path
         d="m 106.82902,268.96216 h 0.38034 v 3.21634 h -0.38034 z"
         style="font-size:4.23333311px;fill:#000000;fill-opacity:1;stroke-width:0.26458332"
         id="path1165" />
      <path
         d="m 108.00311,268.96216 h 0.38034 v 3.21634 h -0.38034 z"
         style="font-size:4.23333311px;fill:#000000;fill-opacity:1;stroke-width:0.26458332"
         id="path1167" />
      <path
         d="m 110.30375,269.86339 h 0.38034 l 0.47542,1.80661 0.47336,-1.80661 h 0.44855 l 0.47542,1.80661 0.47336,-1.80661 h 0.38033 l -0.60564,2.31511 h -0.44855 l -0.49817,-1.89756 -0.50022,1.89756 h -0.44855 z"
         style="font-size:4.23333311px;fill:#000000;fill-opacity:1;stroke-width:0.26458332"
         id="path1169" />
      <path
         d="m 115.04144,271.01474 q -0.46095,0 -0.63872,0.10542 -0.17777,0.10542 -0.17777,0.35967 0,0.20257 0.1323,0.32246 0.13436,0.11783 0.3638,0.11783 0.31626,0 0.50643,-0.22325 0.19223,-0.22531 0.19223,-0.59738 v -0.0847 z m 0.75861,-0.15709 v 1.32085 h -0.38034 v -0.3514 q -0.13022,0.21084 -0.32452,0.31212 -0.19431,0.0992 -0.47543,0.0992 -0.35553,0 -0.56637,-0.19844 -0.20877,-0.2005 -0.20877,-0.53536 0,-0.39068 0.26045,-0.58911 0.26251,-0.19844 0.78134,-0.19844 h 0.5333 v -0.0372 q 0,-0.26252 -0.17363,-0.40514 -0.17156,-0.1447 -0.48369,-0.1447 -0.19844,0 -0.38654,0.0476 -0.1881,0.0475 -0.36174,0.14262 v -0.3514 q 0.20878,-0.0806 0.40515,-0.11989 0.19637,-0.0413 0.3824,-0.0413 0.5023,0 0.75035,0.26045 0.24804,0.26045 0.24804,0.78962 z"
         style="font-size:4.23333311px;fill:#000000;fill-opacity:1;stroke-width:0.26458332"
         id="path1171" />
      <path
         d="m 116.58553,268.96216 h 0.38034 v 3.21634 h -0.38034 z"
         style="font-size:4.23333311px;fill:#000000;fill-opacity:1;stroke-width:0.26458332"
         id="path1173" />
      <path
         d="m 117.75962,268.96216 h 0.38034 v 3.21634 h -0.38034 z"
         style="font-size:4.23333311px;fill:#000000;fill-opacity:1;stroke-width:0.26458332"
         id="path1175" />
      <path
         d="m 121.82966,269.5244 v 1.15135 h 1.15135 v 0.3514 h -1.15135 v 1.15135 h -0.34727 v -1.15135 h -1.15135 v -0.3514 h 1.15135 v -1.15135 z"
         style="font-size:4.23333311px;fill:#000000;fill-opacity:1;stroke-width:0.26458332"
         id="path1177" />
      <path
         d="m 126.9787,270.30781 q 0.14263,-0.25631 0.34106,-0.37827 0.19844,-0.12196 0.46716,-0.12196 0.36173,0 0.5581,0.25425 0.19637,0.25218 0.19637,0.71934 v 1.39733 h -0.3824 v -1.38493 q 0,-0.3328 -0.11782,-0.49403 -0.11783,-0.16123 -0.35967,-0.16123 -0.29559,0 -0.46716,0.19637 -0.17156,0.19637 -0.17156,0.53537 v 1.30845 h -0.38241 v -1.38493 q 0,-0.33486 -0.11782,-0.49403 -0.11782,-0.16123 -0.3638,-0.16123 -0.29146,0 -0.46302,0.19844 -0.17157,0.19637 -0.17157,0.5333 v 1.30845 h -0.3824 v -2.31511 h 0.3824 v 0.35967 q 0.13023,-0.21291 0.31213,-0.31419 0.1819,-0.10129 0.43201,-0.10129 0.25218,0 0.42788,0.12816 0.17777,0.12816 0.26252,0.37207 z"
         style="font-size:4.23333311px;fill:#000000;fill-opacity:1;stroke-width:0.26458332"
         id="path1179" />
      <path
         d="m 131.28231,270.92586 v 0.18604 h -1.74873 q 0.0248,0.39274 0.23564,0.59944 0.21291,0.20464 0.59118,0.20464 0.21911,0 0.42375,-0.0537 0.20671,-0.0537 0.40928,-0.16123 v 0.35967 q -0.20464,0.0868 -0.41962,0.13229 -0.21497,0.0455 -0.43614,0.0455 -0.55398,0 -0.8785,-0.32246 -0.32246,-0.32246 -0.32246,-0.8723 0,-0.56844 0.30592,-0.90123 0.30799,-0.33487 0.82889,-0.33487 0.46715,0 0.73794,0.30179 0.27285,0.29973 0.27285,0.81649 z m -0.38034,-0.11162 q -0.004,-0.31213 -0.1757,-0.49816 -0.1695,-0.18604 -0.45062,-0.18604 -0.31832,0 -0.51056,0.17984 -0.19017,0.17983 -0.21911,0.50643 z"
         style="font-size:4.23333311px;fill:#000000;fill-opacity:1;stroke-width:0.26458332"
         id="path1181" />
      <path
         d="m 133.70904,270.30781 q 0.14262,-0.25631 0.34106,-0.37827 0.19844,-0.12196 0.46716,-0.12196 0.36173,0 0.5581,0.25425 0.19637,0.25218 0.19637,0.71934 v 1.39733 h -0.3824 v -1.38493 q 0,-0.3328 -0.11783,-0.49403 -0.11782,-0.16123 -0.35966,-0.16123 -0.29559,0 -0.46716,0.19637 -0.17157,0.19637 -0.17157,0.53537 v 1.30845 h -0.3824 v -1.38493 q 0,-0.33486 -0.11782,-0.49403 -0.11783,-0.16123 -0.36381,-0.16123 -0.29145,0 -0.46302,0.19844 -0.17156,0.19637 -0.17156,0.5333 v 1.30845 h -0.38241 v -2.31511 h 0.38241 v 0.35967 q 0.13022,-0.21291 0.31212,-0.31419 0.1819,-0.10129 0.43202,-0.10129 0.25218,0 0.42788,0.12816 0.17777,0.12816 0.26252,0.37207 z"
         style="font-size:4.23333311px;fill:#000000;fill-opacity:1;stroke-width:0.26458332"
         id="path1183" />
      <path
         d="m 137.69432,271.02301 q 0,-0.41961 -0.17363,-0.65732 -0.17157,-0.23978 -0.47336,-0.23978 -0.30179,0 -0.47542,0.23978 -0.17157,0.23771 -0.17157,0.65732 0,0.41961 0.17157,0.65939 0.17363,0.23772 0.47542,0.23772 0.30179,0 0.47336,-0.23772 0.17363,-0.23978 0.17363,-0.65939 z m -1.29398,-0.80822 q 0.11989,-0.2067 0.30179,-0.30592 0.18397,-0.10129 0.43822,-0.10129 0.42168,0 0.6842,0.33487 0.26458,0.33486 0.26458,0.88056 0,0.54571 -0.26458,0.88057 -0.26252,0.33486 -0.6842,0.33486 -0.25425,0 -0.43822,-0.0992 -0.1819,-0.10128 -0.30179,-0.30799 v 0.34727 h -0.3824 v -3.21634 h 0.3824 z"
         style="font-size:4.23333311px;fill:#000000;fill-opacity:1;stroke-width:0.26458332"
         id="path1185" />
      <path
         d="m 140.0611,270.21893 q -0.0641,-0.0372 -0.14056,-0.0537 -0.0744,-0.0186 -0.16536,-0.0186 -0.32246,0 -0.4961,0.21084 -0.17156,0.20877 -0.17156,0.60151 v 1.21957 h -0.38241 v -2.31511 h 0.38241 v 0.35967 q 0.11989,-0.21084 0.31212,-0.31212 0.19224,-0.10336 0.46716,-0.10336 0.0393,0 0.0868,0.006 0.0475,0.004 0.10542,0.0145 z"
         style="font-size:4.23333311px;fill:#000000;fill-opacity:1;stroke-width:0.26458332"
         id="path1187" />
      <path
         d="m 141.51631,271.01474 q -0.46095,0 -0.63872,0.10542 -0.17777,0.10542 -0.17777,0.35967 0,0.20257 0.13229,0.32246 0.13436,0.11783 0.36381,0.11783 0.31626,0 0.50642,-0.22325 0.19224,-0.22531 0.19224,-0.59738 v -0.0847 z m 0.75861,-0.15709 v 1.32085 h -0.38034 v -0.3514 q -0.13022,0.21084 -0.32453,0.31212 -0.1943,0.0992 -0.47542,0.0992 -0.35553,0 -0.56637,-0.19844 -0.20878,-0.2005 -0.20878,-0.53536 0,-0.39068 0.26045,-0.58911 0.26252,-0.19844 0.78135,-0.19844 h 0.5333 v -0.0372 q 0,-0.26252 -0.17363,-0.40514 -0.17157,-0.1447 -0.48369,-0.1447 -0.19844,0 -0.38654,0.0476 -0.18811,0.0475 -0.36174,0.14262 v -0.3514 q 0.20877,-0.0806 0.40515,-0.11989 0.19637,-0.0413 0.3824,-0.0413 0.5023,0 0.75034,0.26045 0.24805,0.26045 0.24805,0.78962 z"
         style="font-size:4.23333311px;fill:#000000;fill-opacity:1;stroke-width:0.26458332"
         id="path1189" />
      <path
         d="m 144.98483,270.78117 v 1.39733 h -0.38034 v -1.38493 q 0,-0.32866 -0.12815,-0.49196 -0.12816,-0.1633 -0.38448,-0.1633 -0.30799,0 -0.48575,0.19637 -0.17777,0.19637 -0.17777,0.53537 v 1.30845 h -0.38241 v -2.31511 h 0.38241 v 0.35967 q 0.13642,-0.20877 0.32039,-0.31212 0.18604,-0.10336 0.42788,-0.10336 0.39895,0 0.60358,0.24805 0.20464,0.24598 0.20464,0.72554 z"
         style="font-size:4.23333311px;fill:#000000;fill-opacity:1;stroke-width:0.26458332"
         id="path1191" />
      <path
         d="m 147.72782,270.92586 v 0.18604 h -1.74873 q 0.0248,0.39274 0.23564,0.59944 0.21291,0.20464 0.59118,0.20464 0.21911,0 0.42374,-0.0537 0.20671,-0.0537 0.40928,-0.16123 v 0.35967 q -0.20464,0.0868 -0.41961,0.13229 -0.21497,0.0455 -0.43615,0.0455 -0.55397,0 -0.8785,-0.32246 -0.32246,-0.32246 -0.32246,-0.8723 0,-0.56844 0.30592,-0.90123 0.308,-0.33487 0.82889,-0.33487 0.46716,0 0.73794,0.30179 0.27286,0.29973 0.27286,0.81649 z m -0.38034,-0.11162 q -0.004,-0.31213 -0.1757,-0.49816 -0.1695,-0.18604 -0.45062,-0.18604 -0.31833,0 -0.51056,0.17984 -0.19017,0.17983 -0.21911,0.50643 z"
         style="font-size:4.23333311px;fill:#000000;fill-opacity:1;stroke-width:0.26458332"
         id="path1193" />
      <path
         d="m 149.82795,269.93161 v 0.35966 q -0.16123,-0.0827 -0.33487,-0.12402 -0.17363,-0.0413 -0.35967,-0.0413 -0.28318,0 -0.42581,0.0868 -0.14056,0.0868 -0.14056,0.26045 0,0.13229 0.10129,0.20877 0.10128,0.0744 0.40721,0.14262 l 0.13022,0.0289 q 0.40514,0.0868 0.57464,0.24598 0.17157,0.1571 0.17157,0.44029 0,0.32246 -0.25632,0.51056 -0.25424,0.1881 -0.70073,0.1881 -0.18603,0 -0.3886,-0.0372 -0.20051,-0.0351 -0.42375,-0.10748 v -0.39274 q 0.21084,0.10955 0.41548,0.16536 0.20464,0.0537 0.40514,0.0537 0.26872,0 0.41341,-0.091 0.1447,-0.093 0.1447,-0.26044 0,-0.15503 -0.10542,-0.23772 -0.10336,-0.0827 -0.45682,-0.15916 l -0.1323,-0.031 q -0.35346,-0.0744 -0.51056,-0.22737 -0.1571,-0.15503 -0.1571,-0.42375 0,-0.32659 0.23152,-0.50436 0.23151,-0.17777 0.65732,-0.17777 0.21084,0 0.39687,0.031 0.18604,0.031 0.34314,0.093 z"
         style="font-size:4.23333311px;fill:#000000;fill-opacity:1;stroke-width:0.26458332"
         id="path1195" />
    </g>
    <g
       aria-label="cell matrix"
       style="font-style:normal;font-weight:normal;font-size:4.23333311px;line-height:1.25;font-family:sans-serif;letter-spacing:0px;word-spacing:0px;fill:#000000;fill-opacity:1;stroke:none;stroke-width:0.26458332"
       id="text4977">
      <path
         d="m 103.30468,220.11529 v 0.35553 q -0.16123,-0.0889 -0.32453,-0.13229 -0.16123,-0.0455 -0.32659,-0.0455 -0.37,0 -0.57464,0.23565 -0.20464,0.23358 -0.20464,0.65732 0,0.42375 0.20464,0.65939 0.20464,0.23358 0.57464,0.23358 0.16536,0 0.32659,-0.0434 0.1633,-0.0455 0.32453,-0.13436 v 0.3514 q -0.15916,0.0744 -0.33073,0.11162 -0.1695,0.0372 -0.36173,0.0372 -0.52297,0 -0.83096,-0.32866 -0.30799,-0.32866 -0.30799,-0.88677 0,-0.56637 0.31006,-0.8909 0.31212,-0.32453 0.85369,-0.32453 0.1757,0 0.34313,0.0372 0.16744,0.0351 0.32453,0.10749 z"
         style="font-size:4.23333311px;fill:#000000;fill-opacity:1;stroke-width:0.26458332"
         id="path1140" />
      <path
         d="m 105.95052,221.08887 v 0.18604 h -1.74873 q 0.0248,0.39274 0.23564,0.59944 0.21291,0.20464 0.59118,0.20464 0.21911,0 0.42375,-0.0537 0.2067,-0.0538 0.40927,-0.16123 v 0.35966 q -0.20464,0.0868 -0.41961,0.1323 -0.21497,0.0455 -0.43615,0.0455 -0.55397,0 -0.8785,-0.32246 -0.32246,-0.32246 -0.32246,-0.8723 0,-0.56844 0.30593,-0.90123 0.30799,-0.33487 0.82889,-0.33487 0.46715,0 0.73793,0.30179 0.27286,0.29973 0.27286,0.81649 z m -0.38034,-0.11162 q -0.004,-0.31213 -0.1757,-0.49816 -0.1695,-0.18604 -0.45062,-0.18604 -0.31833,0 -0.51056,0.17984 -0.19017,0.17983 -0.21911,0.50643 z"
         style="font-size:4.23333311px;fill:#000000;fill-opacity:1;stroke-width:0.26458332"
         id="path1142" />
      <path
         d="m 106.57477,219.12517 h 0.38034 v 3.21634 h -0.38034 z"
         style="font-size:4.23333311px;fill:#000000;fill-opacity:1;stroke-width:0.26458332"
         id="path1144" />
      <path
         d="m 107.74886,219.12517 h 0.38033 v 3.21634 h -0.38033 z"
         style="font-size:4.23333311px;fill:#000000;fill-opacity:1;stroke-width:0.26458332"
         id="path1146" />
      <path
         d="m 112.07314,220.47082 q 0.14263,-0.25631 0.34106,-0.37827 0.19844,-0.12196 0.46716,-0.12196 0.36173,0 0.5581,0.25425 0.19637,0.25218 0.19637,0.71934 v 1.39733 h -0.3824 v -1.38493 q 0,-0.3328 -0.11782,-0.49403 -0.11783,-0.16123 -0.35967,-0.16123 -0.29559,0 -0.46716,0.19637 -0.17156,0.19637 -0.17156,0.53537 v 1.30845 h -0.38241 v -1.38493 q 0,-0.33486 -0.11782,-0.49403 -0.11782,-0.16123 -0.3638,-0.16123 -0.29146,0 -0.46302,0.19844 -0.17157,0.19637 -0.17157,0.5333 v 1.30845 h -0.3824 v -2.31511 h 0.3824 v 0.35967 q 0.13023,-0.21291 0.31213,-0.31419 0.1819,-0.10129 0.43201,-0.10129 0.25218,0 0.42788,0.12816 0.17777,0.12816 0.26252,0.37207 z"
         style="font-size:4.23333311px;fill:#000000;fill-opacity:1;stroke-width:0.26458332"
         id="path1148" />
      <path
         d="m 115.44864,221.17775 q -0.46095,0 -0.63872,0.10542 -0.17776,0.10542 -0.17776,0.35967 0,0.20257 0.13229,0.32246 0.13436,0.11782 0.3638,0.11782 0.31626,0 0.50643,-0.22324 0.19223,-0.22531 0.19223,-0.59738 v -0.0847 z m 0.75861,-0.15709 v 1.32085 h -0.38034 v -0.3514 q -0.13022,0.21084 -0.32452,0.31212 -0.19431,0.0992 -0.47543,0.0992 -0.35553,0 -0.56637,-0.19844 -0.20877,-0.2005 -0.20877,-0.53536 0,-0.39068 0.26045,-0.58911 0.26251,-0.19844 0.78134,-0.19844 h 0.5333 v -0.0372 q 0,-0.26252 -0.17363,-0.40514 -0.17156,-0.1447 -0.48369,-0.1447 -0.19844,0 -0.38654,0.0476 -0.1881,0.0475 -0.36173,0.14262 v -0.3514 q 0.20877,-0.0806 0.40514,-0.11989 0.19637,-0.0413 0.3824,-0.0413 0.5023,0 0.75035,0.26045 0.24804,0.26045 0.24804,0.78962 z"
         style="font-size:4.23333311px;fill:#000000;fill-opacity:1;stroke-width:0.26458332"
         id="path1150" />
      <path
         d="m 117.36894,219.36908 v 0.65732 h 0.78341 v 0.29559 h -0.78341 v 1.25677 q 0,0.28319 0.0765,0.3638 0.0786,0.0806 0.31626,0.0806 h 0.39067 v 0.31833 h -0.39067 q -0.44028,0 -0.60771,-0.1633 -0.16744,-0.16537 -0.16744,-0.59945 v -1.25677 h -0.27905 v -0.29559 h 0.27905 v -0.65732 z"
         style="font-size:4.23333311px;fill:#000000;fill-opacity:1;stroke-width:0.26458332"
         id="path1152" />
      <path
         d="m 119.99617,220.38194 q -0.0641,-0.0372 -0.14056,-0.0537 -0.0744,-0.0186 -0.16537,-0.0186 -0.32246,0 -0.49609,0.21084 -0.17156,0.20877 -0.17156,0.60151 v 1.21957 h -0.38241 v -2.31511 h 0.38241 v 0.35967 q 0.11988,-0.21084 0.31212,-0.31212 0.19224,-0.10336 0.46716,-0.10336 0.0393,0 0.0868,0.006 0.0475,0.004 0.10542,0.0145 z"
         style="font-size:4.23333311px;fill:#000000;fill-opacity:1;stroke-width:0.26458332"
         id="path1154" />
      <path
         d="m 120.39925,220.0264 h 0.38033 v 2.31511 h -0.38033 z m 0,-0.90123 h 0.38033 v 0.48162 h -0.38033 z"
         style="font-size:4.23333311px;fill:#000000;fill-opacity:1;stroke-width:0.26458332"
         id="path1156" />
      <path
         d="m 123.49776,220.0264 -0.83715,1.12655 0.88056,1.18856 h -0.44855 l -0.67386,-0.90951 -0.67386,0.90951 h -0.44855 l 0.89917,-1.2113 -0.82269,-1.10381 h 0.44855 l 0.61392,0.82476 0.61391,-0.82476 z"
         style="font-size:4.23333311px;fill:#000000;fill-opacity:1;stroke-width:0.26458332"
         id="path1158" />
    </g>
    <g
       aria-label="gwlmm"
       transform="rotate(-54.626231)"
       style="font-style:normal;font-variant:normal;font-weight:normal;font-stretch:normal;font-size:6.3499999px;line-height:1.25;font-family:'WenQuanYi Zen Hei Sharp';-inkscape-font-specification:'WenQuanYi Zen Hei Sharp';letter-spacing:0px;word-spacing:0px;fill:#000000;fill-opacity:1;stroke:none;stroke-width:0.26458332"
       id="text4981">
      <path
         d="m -130.29297,291.50538 q -0.18604,0.93018 -1.77974,0.93018 -1.50068,0 -1.33325,-0.84336 0.093,-0.47749 0.62012,-0.65112 -0.27285,-0.19844 -0.21084,-0.5085 0.0682,-0.34106 0.45888,-0.5333 0.0434,-0.0186 0.10542,-0.0434 -0.35966,-0.32866 -0.25424,-0.84956 0.12402,-0.60151 0.70073,-0.91157 0.35347,-0.19224 0.76274,-0.19224 0.35347,0 0.62012,0.14263 0.16123,-0.44028 0.50229,-0.5271 0.11783,-0.031 0.26665,-0.031 0.14263,0 0.21084,0.006 l -0.0682,0.39687 q -0.38447,0 -0.5209,0.11162 l -0.093,0.0868 -0.0744,0.14262 q -0.006,0.0186 -0.0124,0.031 0.24185,0.34106 0.15503,0.79375 -0.11782,0.57671 -0.70693,0.87437 -0.34727,0.17983 -0.73174,0.17983 l -0.42788,-0.0496 h -0.006 q -0.18603,0 -0.32246,0.14883 -0.062,0.0682 -0.0744,0.14883 -0.0434,0.21084 0.18603,0.27285 0.20464,0.062 0.84336,0.0558 0.57051,0 0.83096,0.10542 0.32246,0.14263 0.36587,0.49609 0.006,0.11162 -0.0124,0.21704 z m -0.44029,-2.49907 q 0.0806,-0.39067 -0.19843,-0.60151 -0.15503,-0.10542 -0.37207,-0.10542 -0.42788,0 -0.69453,0.32866 -0.13023,0.17363 -0.17364,0.38447 -0.093,0.47749 0.26045,0.64492 0.13643,0.062 0.32246,0.062 0.45889,0 0.71314,-0.36587 0.10542,-0.16123 0.14262,-0.34727 z m -0.0434,2.51768 q 0.0744,-0.36587 -0.66353,-0.37827 l -0.26665,-0.006 q -0.23564,-0.0124 -0.76274,-0.0496 -0.37827,0.16124 -0.43409,0.43409 -0.0868,0.42168 0.63873,0.50229 0.13022,0.0186 0.27285,0.0186 0.92397,0 1.15962,-0.37208 0.0434,-0.0744 0.0558,-0.14882 z"
         style="font-style:italic"
         id="path1117" />
      <path
         d="m -127.55453,290.38793 -0.60462,2.096 h -0.262 l -0.46757,-1.55588 -0.43129,1.55588 h -0.26603 l -0.6288,-2.096 h 0.32649 l 0.45548,1.56394 0.43532,-1.56394 h 0.23782 l 0.46757,1.56797 0.4716,-1.56797 z"
         style="font-style:normal;font-variant:normal;font-weight:normal;font-stretch:normal;font-size:64.99999762%;font-family:'WenQuanYi Zen Hei Sharp';-inkscape-font-specification:'WenQuanYi Zen Hei Sharp';baseline-shift:sub"
         id="path1119" />
      <path
         d="m -126.84915,292.48393 h -0.32246 v -2.8296 h 0.32246 z"
         style="font-style:normal;font-variant:normal;font-weight:normal;font-stretch:normal;font-size:64.99999762%;font-family:'WenQuanYi Zen Hei Sharp';-inkscape-font-specification:'WenQuanYi Zen Hei Sharp';baseline-shift:sub"
         id="path1121" />
      <path
         d="m -123.41091,292.48393 h -0.32246 v -1.33418 q 0,-0.44742 -0.27813,-0.5361 -0.0605,-0.0161 -0.12898,-0.0161 -0.23781,0 -0.40711,0.23379 -0.10883,0.16526 -0.11286,0.45144 v 0.0685 1.13265 h -0.32246 v -1.33015 q 0,-0.44339 -0.28618,-0.53609 -0.0605,-0.0202 -0.13705,-0.0202 -0.19751,0 -0.35874,0.18139 -0.0121,0.0121 -0.0202,0.0242 -0.12495,0.16123 -0.12495,0.47966 v 1.20117 h -0.32247 v -2.096 h 0.29022 v 0.40308 h 0.008 q 0.12899,-0.30634 0.40711,-0.41517 0.1048,-0.0443 0.22169,-0.0443 0.33455,0 0.50788,0.29022 0.0564,0.0967 0.0806,0.2096 0.14511,-0.35874 0.46354,-0.46354 0.1048,-0.0363 0.21363,-0.0363 0.27409,0 0.46354,0.21363 l 0.0645,0.0887 q 0.10077,0.16929 0.10077,0.52803 z"
         style="font-style:normal;font-variant:normal;font-weight:normal;font-stretch:normal;font-size:64.99999762%;font-family:'WenQuanYi Zen Hei Sharp';-inkscape-font-specification:'WenQuanYi Zen Hei Sharp';baseline-shift:sub"
         id="path1123" />
      <path
         d="m -120.02507,292.48393 h -0.32246 v -1.33418 q 0,-0.44742 -0.27813,-0.5361 -0.0605,-0.0161 -0.12898,-0.0161 -0.23781,0 -0.40711,0.23379 -0.10883,0.16526 -0.11286,0.45144 v 0.0685 1.13265 h -0.32246 v -1.33015 q 0,-0.44339 -0.28618,-0.53609 -0.0605,-0.0202 -0.13705,-0.0202 -0.19751,0 -0.35874,0.18139 -0.0121,0.0121 -0.0202,0.0242 -0.12495,0.16123 -0.12495,0.47966 v 1.20117 h -0.32247 v -2.096 h 0.29022 v 0.40308 h 0.008 q 0.12899,-0.30634 0.40711,-0.41517 0.1048,-0.0443 0.22169,-0.0443 0.33455,0 0.50788,0.29022 0.0564,0.0967 0.0806,0.2096 0.14511,-0.35874 0.46354,-0.46354 0.1048,-0.0363 0.21363,-0.0363 0.27409,0 0.46354,0.21363 l 0.0645,0.0887 q 0.10077,0.16929 0.10077,0.52803 z"
         style="font-style:normal;font-variant:normal;font-weight:normal;font-stretch:normal;font-size:64.99999762%;font-family:'WenQuanYi Zen Hei Sharp';-inkscape-font-specification:'WenQuanYi Zen Hei Sharp';baseline-shift:sub"
         id="path1125" />
    </g>
    <path
       style="fill:none;stroke:#000000;stroke-width:0.26499999;stroke-linecap:butt;stroke-linejoin:miter;stroke-miterlimit:4;stroke-dasharray:0.26499999, 0.79499996;stroke-dashoffset:0;stroke-opacity:1"
       d="m 101.4166,259.43384 h 50"
       id="path4993"
       inkscape:connector-curvature="0"
       sodipodi:nodetypes="cc" />
    <path
       style="fill:none;stroke:#000000;stroke-width:0.26499999;stroke-linecap:butt;stroke-linejoin:miter;stroke-miterlimit:4;stroke-dasharray:0.26499999, 0.79499996;stroke-dashoffset:0;stroke-opacity:1"
       d="m 101.53322,252.30134 h 50.00021"
       id="path4993-0"
       inkscape:connector-curvature="0"
       sodipodi:nodetypes="cc" />
    <path
       style="fill:none;stroke:#000000;stroke-width:0.26499999;stroke-linecap:butt;stroke-linejoin:miter;stroke-miterlimit:4;stroke-dasharray:0.26499999, 0.79499997;stroke-dashoffset:0;stroke-opacity:1"
       d="m 101.4298,245.30134 h 50"
       id="path4993-2"
       inkscape:connector-curvature="0"
       sodipodi:nodetypes="cc" />
    <path
       style="fill:none;stroke:#000000;stroke-width:0.26499999;stroke-linecap:butt;stroke-linejoin:miter;stroke-miterlimit:4;stroke-dasharray:0.26499999, 0.79499998;stroke-dashoffset:0;stroke-opacity:1"
       d="m 101.93828,238.30134 h 50"
       id="path4993-2-4"
       inkscape:connector-curvature="0"
       sodipodi:nodetypes="cc" />
    <path
       style="fill:none;stroke:#000000;stroke-width:0.26499999;stroke-linecap:butt;stroke-linejoin:miter;stroke-miterlimit:4;stroke-dasharray:0.26499999, 0.79499999;stroke-dashoffset:0;stroke-opacity:1"
       d="m 101.68404,231.30134 h 50"
       id="path4993-2-4-3"
       inkscape:connector-curvature="0"
       sodipodi:nodetypes="cc" />
    <path
       style="fill:none;stroke:#000000;stroke-width:0.26499999;stroke-linecap:butt;stroke-linejoin:miter;stroke-miterlimit:4;stroke-dasharray:0.26499999, 0.795;stroke-dashoffset:0;stroke-opacity:1"
       d="m 101.0629,224.30134 h 50"
       id="path4993-2-4-3-7"
       inkscape:connector-curvature="0"
       sodipodi:nodetypes="cc" />
    <path
       style="fill:none;stroke:#000000;stroke-width:0.26499999;stroke-linecap:butt;stroke-linejoin:miter;stroke-miterlimit:4;stroke-dasharray:0.26499999, 0.795;stroke-dashoffset:0;stroke-opacity:1"
       d="m 101.17556,217.30134 h 50"
       id="path4993-2-4-3-3"
       inkscape:connector-curvature="0"
       sodipodi:nodetypes="cc" />
    <g
       aria-label="glayer"
       transform="rotate(-48.026246)"
       style="font-style:normal;font-variant:normal;font-weight:normal;font-stretch:normal;font-size:6.3499999px;line-height:1.25;font-family:'WenQuanYi Zen Hei Sharp';-inkscape-font-specification:'WenQuanYi Zen Hei Sharp';letter-spacing:0px;word-spacing:0px;fill:#000000;fill-opacity:1;stroke:none;stroke-width:0.26458332"
       id="text4981-0">
      <path
         d="m -69.967357,284.2465 q -0.186035,0.93018 -1.779736,0.93018 -1.500684,0 -1.333252,-0.84336 0.09302,-0.47749 0.620117,-0.65112 -0.272852,-0.19844 -0.21084,-0.5085 0.06821,-0.34106 0.458887,-0.5333 0.04341,-0.0186 0.10542,-0.0434 -0.359668,-0.32866 -0.254248,-0.84956 0.124023,-0.60151 0.700732,-0.91157 0.353467,-0.19224 0.762744,-0.19224 0.353467,0 0.620117,0.14263 0.161231,-0.44028 0.502295,-0.5271 0.117823,-0.031 0.266651,-0.031 0.142627,0 0.21084,0.006 l -0.06821,0.39688 q -0.384473,0 -0.520899,0.11162 l -0.09302,0.0868 -0.07441,0.14262 q -0.0062,0.0186 -0.0124,0.031 0.241846,0.34106 0.15503,0.79375 -0.117823,0.57671 -0.706934,0.87437 -0.347266,0.17983 -0.731738,0.17983 l -0.427881,-0.0496 h -0.0062 q -0.186035,0 -0.322461,0.14883 -0.06201,0.0682 -0.07441,0.14883 -0.04341,0.21084 0.186035,0.27285 0.204639,0.062 0.843359,0.0558 0.570508,0 0.830957,0.10542 0.322461,0.14262 0.365869,0.49609 0.0062,0.11162 -0.0124,0.21704 z m -0.440283,-2.49907 q 0.08061,-0.39067 -0.198438,-0.60151 -0.155029,-0.10542 -0.37207,-0.10542 -0.427881,0 -0.694531,0.32866 -0.130225,0.17363 -0.173633,0.38447 -0.09302,0.47749 0.260449,0.64492 0.136426,0.062 0.322461,0.062 0.458887,0 0.713135,-0.36587 0.10542,-0.16123 0.142627,-0.34727 z m -0.04341,2.51768 q 0.07441,-0.36587 -0.663526,-0.37828 l -0.26665,-0.006 q -0.235645,-0.0124 -0.762744,-0.0496 -0.378272,0.16123 -0.434082,0.43409 -0.08682,0.42168 0.63872,0.50229 0.130225,0.0186 0.272852,0.0186 0.923975,0 1.159619,-0.37207 0.04341,-0.0744 0.05581,-0.14882 z"
         style="font-style:italic;stroke-width:0.26458332"
         id="path1104" />
      <path
         d="m -69.248331,285.22505 h -0.322461 v -2.8296 h 0.322461 z"
         style="font-style:normal;font-variant:normal;font-weight:normal;font-stretch:normal;font-size:4.12749958px;font-family:'WenQuanYi Zen Hei Sharp';-inkscape-font-specification:'WenQuanYi Zen Hei Sharp';baseline-shift:sub;stroke-width:0.26458332"
         id="path1106" />
      <path
         d="m -66.86212,285.22505 h -0.322461 l -0.03628,-0.39099 q -0.21363,0.4313 -0.733599,0.4313 -0.407107,0 -0.608645,-0.25394 -0.124953,-0.1572 -0.124953,-0.37889 0,-0.31037 0.26603,-0.50788 0.05643,-0.0484 0.124954,-0.0766 0.270061,-0.12899 0.894829,-0.12496 h 0.181384 v -0.0887 q 0,-0.38695 -0.274092,-0.47562 l -0.145107,-0.0282 q -0.0524,-0.004 -0.112862,-0.004 -0.499814,0 -0.576398,0.37083 l -0.298277,-0.0484 q 0.0524,-0.40711 0.540122,-0.52803 0.169292,-0.0484 0.362769,-0.0484 0.536091,0 0.701352,0.28619 0.116892,0.19347 0.116892,0.61267 v 0.81018 q 0,0.28619 0.04434,0.44339 z m -0.358738,-0.91902 v -0.13704 h -0.270061 q -0.850491,0 -0.850491,0.47966 0,0.262 0.278123,0.34261 0.08062,0.0242 0.177353,0.0242 0.342615,0 0.536092,-0.28619 0.128984,-0.18944 0.128984,-0.42323 z"
         style="font-style:normal;font-variant:normal;font-weight:normal;font-stretch:normal;font-size:4.12749958px;font-family:'WenQuanYi Zen Hei Sharp';-inkscape-font-specification:'WenQuanYi Zen Hei Sharp';baseline-shift:sub;stroke-width:0.26458332"
         id="path1108" />
      <path
         d="m -64.935416,283.12905 -0.822276,2.2935 q -0.124953,0.35874 -0.306337,0.46757 -0.133016,0.0806 -0.330523,0.0806 -0.100769,0 -0.241846,-0.0363 v -0.25797 q 0.124954,0.0282 0.217662,0.0282 0.253937,0 0.37486,-0.25797 0.02419,-0.0484 0.09271,-0.25797 l -0.725537,-2.05972 h 0.334553 l 0.560276,1.57603 0.576399,-1.57603 z"
         style="font-style:normal;font-variant:normal;font-weight:normal;font-stretch:normal;font-size:4.12749958px;font-family:'WenQuanYi Zen Hei Sharp';-inkscape-font-specification:'WenQuanYi Zen Hei Sharp';baseline-shift:sub;stroke-width:0.26458332"
         id="path1110" />
      <path
         d="m -62.916005,284.20123 h -1.523628 q -0.004,0.40308 0.185415,0.61671 0.1572,0.17735 0.439353,0.17735 0.350676,0 0.515938,-0.30633 0.02418,-0.0443 0.04434,-0.10077 l 0.306338,0.0645 q -0.116892,0.36277 -0.483691,0.52803 -0.193477,0.0847 -0.411138,0.0847 -0.540122,0 -0.798091,-0.44339 -0.16123,-0.27409 -0.16123,-0.64492 0,-0.51997 0.314399,-0.8384 0.257969,-0.26603 0.657014,-0.26603 0.544153,0 0.781968,0.4716 0.133015,0.262 0.133015,0.60865 z m -0.354707,-0.23781 q 0.004,-0.34262 -0.2096,-0.51997 -0.145107,-0.12092 -0.350676,-0.12092 -0.31843,0 -0.487722,0.29021 -0.09674,0.1572 -0.1048,0.35068 z"
         style="font-style:normal;font-variant:normal;font-weight:normal;font-stretch:normal;font-size:4.12749958px;font-family:'WenQuanYi Zen Hei Sharp';-inkscape-font-specification:'WenQuanYi Zen Hei Sharp';baseline-shift:sub;stroke-width:0.26458332"
         id="path1112" />
      <path
         d="m -61.400439,283.38702 h -0.06852 q -0.386953,0 -0.556245,0.3668 -0.08465,0.18945 -0.08465,0.41517 v 1.05606 h -0.322461 v -2.096 h 0.286185 v 0.49175 h 0.0081 q 0.193477,-0.55221 0.58043,-0.55221 0.04837,0 0.157199,0.0121 z"
         style="font-style:normal;font-variant:normal;font-weight:normal;font-stretch:normal;font-size:4.12749958px;font-family:'WenQuanYi Zen Hei Sharp';-inkscape-font-specification:'WenQuanYi Zen Hei Sharp';baseline-shift:sub;stroke-width:0.26458332"
         id="path1114" />
    </g>
    <path
       style="fill:none;stroke:#000000;stroke-width:0.26458332px;stroke-linecap:butt;stroke-linejoin:miter;stroke-opacity:1;marker-end:url(#Arrow2Lend)"
       d="m 158.97217,271.92537 -6.35592,-1.24253"
       id="path5100"
       inkscape:connector-curvature="0" />
    <g
       aria-label="layer 1"
       style="font-style:normal;font-weight:normal;font-size:3.52777767px;line-height:1.25;font-family:sans-serif;letter-spacing:0px;word-spacing:0px;fill:#000000;fill-opacity:1;stroke:none;stroke-width:0.26458332"
       id="text5680">
      <path
         d="m 133.88764,260.3661 h 0.31695 v 2.68029 h -0.31695 z"
         style="stroke-width:0.26458332"
         id="path1091" />
      <path
         d="m 135.74283,262.07659 q -0.38413,0 -0.53227,0.0879 -0.14814,0.0879 -0.14814,0.29973 0,0.16881 0.11024,0.26871 0.11197,0.0982 0.30317,0.0982 0.26355,0 0.42203,-0.18604 0.16019,-0.18775 0.16019,-0.49781 v -0.0706 z m 0.63217,-0.13091 v 1.10071 h -0.31695 v -0.29284 q -0.10852,0.1757 -0.27044,0.26011 -0.16192,0.0827 -0.39618,0.0827 -0.29628,0 -0.47198,-0.16536 -0.17398,-0.16709 -0.17398,-0.44614 0,-0.32557 0.21704,-0.49093 0.21877,-0.16536 0.65113,-0.16536 h 0.44441 v -0.031 q 0,-0.21876 -0.14469,-0.33762 -0.14297,-0.12058 -0.40308,-0.12058 -0.16536,0 -0.32211,0.0396 -0.15676,0.0396 -0.30145,0.11886 v -0.29284 q 0.17398,-0.0672 0.33762,-0.0999 0.16364,-0.0345 0.31867,-0.0345 0.41858,0 0.62529,0.21705 0.2067,0.21704 0.2067,0.65801 z"
         style="stroke-width:0.26458332"
         id="path1093" />
      <path
         d="m 137.83228,263.22553 q -0.13436,0.34451 -0.26183,0.44959 -0.12747,0.10507 -0.34106,0.10507 h -0.25322 v -0.26527 h 0.18604 q 0.13091,0 0.20326,-0.062 0.0723,-0.062 0.16019,-0.29284 l 0.0569,-0.14469 -0.78032,-1.89825 h 0.3359 l 0.60289,1.50896 0.60289,-1.50896 h 0.3359 z"
         style="stroke-width:0.26458332"
         id="path1095" />
      <path
         d="m 140.7675,262.00252 v 0.15503 h -1.45728 q 0.0207,0.32729 0.19637,0.49954 0.17743,0.17053 0.49265,0.17053 0.18259,0 0.35312,-0.0448 0.17226,-0.0448 0.34107,-0.13436 v 0.29972 q -0.17053,0.0724 -0.34968,0.11024 -0.17914,0.0379 -0.36346,0.0379 -0.46164,0 -0.73208,-0.26872 -0.26872,-0.26871 -0.26872,-0.72691 0,-0.4737 0.25494,-0.75103 0.25666,-0.27906 0.69074,-0.27906 0.3893,0 0.61495,0.2515 0.22738,0.24977 0.22738,0.6804 z m -0.31695,-0.093 q -0.003,-0.26011 -0.14642,-0.41514 -0.14125,-0.15503 -0.37551,-0.15503 -0.26527,0 -0.42547,0.14986 -0.15848,0.14987 -0.18259,0.42203 z"
         style="stroke-width:0.26458332"
         id="path1097" />
      <path
         d="m 142.40564,261.41341 q -0.0534,-0.031 -0.11713,-0.0448 -0.062,-0.0155 -0.13781,-0.0155 -0.26871,0 -0.41341,0.1757 -0.14297,0.17398 -0.14297,0.50126 v 1.01631 h -0.31867 v -1.92926 h 0.31867 v 0.29973 q 0.0999,-0.1757 0.26011,-0.26011 0.16019,-0.0861 0.38929,-0.0861 0.0327,0 0.0724,0.005 0.0396,0.003 0.0879,0.0121 z"
         style="stroke-width:0.26458332"
         id="path1099" />
      <path
         d="m 143.96971,262.75355 h 0.56845 v -1.96198 l -0.6184,0.12403 v -0.31695 l 0.61495,-0.12403 h 0.34795 v 2.27893 h 0.56845 v 0.29284 h -1.4814 z"
         style="stroke-width:0.26458332"
         id="path1101" />
    </g>
    <g
       aria-label="layer 2"
       style="font-style:normal;font-weight:normal;font-size:3.52777767px;line-height:1.25;font-family:sans-serif;letter-spacing:0px;word-spacing:0px;fill:#000000;fill-opacity:1;stroke:none;stroke-width:0.26458332"
       id="text5680-8">
      <path
         d="m 133.88764,253.94557 h 0.31695 v 2.68028 h -0.31695 z"
         style="stroke-width:0.26458332"
         id="path1078" />
      <path
         d="m 135.74283,255.65606 q -0.38413,0 -0.53227,0.0879 -0.14814,0.0879 -0.14814,0.29972 0,0.16881 0.11024,0.26872 0.11197,0.0982 0.30317,0.0982 0.26355,0 0.42203,-0.18604 0.16019,-0.18776 0.16019,-0.49782 v -0.0706 z m 0.63217,-0.13091 v 1.1007 h -0.31695 v -0.29283 q -0.10852,0.1757 -0.27044,0.26011 -0.16192,0.0827 -0.39618,0.0827 -0.29628,0 -0.47198,-0.16537 -0.17398,-0.16708 -0.17398,-0.44614 0,-0.32556 0.21704,-0.49092 0.21877,-0.16537 0.65113,-0.16537 h 0.44441 v -0.031 q 0,-0.21877 -0.14469,-0.33762 -0.14297,-0.12058 -0.40308,-0.12058 -0.16536,0 -0.32211,0.0396 -0.15676,0.0396 -0.30145,0.11885 v -0.29283 q 0.17398,-0.0672 0.33762,-0.0999 0.16364,-0.0344 0.31867,-0.0344 0.41858,0 0.62529,0.21704 0.2067,0.21704 0.2067,0.65802 z"
         style="stroke-width:0.26458332"
         id="path1080" />
      <path
         d="m 137.83228,256.805 q -0.13436,0.34451 -0.26183,0.44958 -0.12747,0.10508 -0.34106,0.10508 h -0.25322 v -0.26527 h 0.18604 q 0.13091,0 0.20326,-0.062 0.0723,-0.062 0.16019,-0.29284 l 0.0569,-0.14469 -0.78032,-1.89825 h 0.3359 l 0.60289,1.50895 0.60289,-1.50895 h 0.3359 z"
         style="stroke-width:0.26458332"
         id="path1082" />
      <path
         d="m 140.7675,255.58199 v 0.15503 h -1.45728 q 0.0207,0.32728 0.19637,0.49954 0.17743,0.17053 0.49265,0.17053 0.18259,0 0.35312,-0.0448 0.17226,-0.0448 0.34107,-0.13435 v 0.29972 q -0.17053,0.0723 -0.34968,0.11024 -0.17914,0.0379 -0.36346,0.0379 -0.46164,0 -0.73208,-0.26872 -0.26872,-0.26872 -0.26872,-0.72691 0,-0.4737 0.25494,-0.75103 0.25666,-0.27906 0.69074,-0.27906 0.3893,0 0.61495,0.25149 0.22738,0.24977 0.22738,0.68041 z m -0.31695,-0.093 q -0.003,-0.2601 -0.14642,-0.41513 -0.14125,-0.15503 -0.37551,-0.15503 -0.26527,0 -0.42547,0.14986 -0.15848,0.14986 -0.18259,0.42203 z"
         style="stroke-width:0.26458332"
         id="path1084" />
      <path
         d="m 142.40564,254.99288 q -0.0534,-0.031 -0.11713,-0.0448 -0.062,-0.0155 -0.13781,-0.0155 -0.26871,0 -0.41341,0.1757 -0.14297,0.17398 -0.14297,0.50126 v 1.0163 h -0.31867 v -1.92925 h 0.31867 v 0.29972 q 0.0999,-0.1757 0.26011,-0.2601 0.16019,-0.0861 0.38929,-0.0861 0.0327,0 0.0724,0.005 0.0396,0.003 0.0879,0.0121 z"
         style="stroke-width:0.26458332"
         id="path1086" />
      <path
         d="m 144.20915,256.33302 h 1.21439 v 0.29283 h -1.63297 v -0.29283 q 0.19809,-0.20498 0.53916,-0.54949 0.34278,-0.34623 0.43063,-0.44614 0.16709,-0.18776 0.23255,-0.31695 0.0672,-0.13091 0.0672,-0.25666 0,-0.20498 -0.1447,-0.33417 -0.14297,-0.12919 -0.37379,-0.12919 -0.16364,0 -0.34623,0.0568 -0.18087,0.0568 -0.38757,0.17225 v -0.3514 q 0.21015,-0.0844 0.39274,-0.12746 0.18259,-0.0431 0.33417,-0.0431 0.39963,0 0.63734,0.19982 0.23771,0.19981 0.23771,0.53399 0,0.15847 -0.0603,0.30144 -0.0586,0.14125 -0.21532,0.33418 -0.0431,0.0499 -0.27389,0.28939 -0.23082,0.23771 -0.65112,0.66662 z"
         style="stroke-width:0.26458332"
         id="path1088" />
    </g>
    <g
       aria-label="layer 3"
       style="font-style:normal;font-weight:normal;font-size:3.52777767px;line-height:1.25;font-family:sans-serif;letter-spacing:0px;word-spacing:0px;fill:#000000;fill-opacity:1;stroke:none;stroke-width:0.26458332"
       id="text5680-0">
      <path
         d="m 133.88764,246.57268 h 0.31695 v 2.68028 h -0.31695 z"
         style="stroke-width:0.26458332"
         id="path1065" />
      <path
         d="m 135.74283,248.28317 q -0.38413,0 -0.53227,0.0878 -0.14814,0.0879 -0.14814,0.29972 0,0.16881 0.11024,0.26872 0.11197,0.0982 0.30317,0.0982 0.26355,0 0.42203,-0.18603 0.16019,-0.18776 0.16019,-0.49782 v -0.0706 z m 0.63217,-0.13092 v 1.10071 h -0.31695 v -0.29283 q -0.10852,0.1757 -0.27044,0.2601 -0.16192,0.0827 -0.39618,0.0827 -0.29628,0 -0.47198,-0.16536 -0.17398,-0.16709 -0.17398,-0.44614 0,-0.32556 0.21704,-0.49093 0.21877,-0.16536 0.65113,-0.16536 h 0.44441 v -0.031 q 0,-0.21876 -0.14469,-0.33762 -0.14297,-0.12057 -0.40308,-0.12057 -0.16536,0 -0.32211,0.0396 -0.15676,0.0396 -0.30145,0.11886 v -0.29283 q 0.17398,-0.0672 0.33762,-0.0999 0.16364,-0.0344 0.31867,-0.0344 0.41858,0 0.62529,0.21704 0.2067,0.21704 0.2067,0.65801 z"
         style="stroke-width:0.26458332"
         id="path1067" />
      <path
         d="m 137.83228,249.43211 q -0.13436,0.3445 -0.26183,0.44958 -0.12747,0.10508 -0.34106,0.10508 h -0.25322 v -0.26528 h 0.18604 q 0.13091,0 0.20326,-0.062 0.0723,-0.062 0.16019,-0.29283 l 0.0569,-0.1447 -0.78032,-1.89824 h 0.3359 l 0.60289,1.50895 0.60289,-1.50895 h 0.3359 z"
         style="stroke-width:0.26458332"
         id="path1069" />
      <path
         d="m 140.7675,248.2091 v 0.15503 h -1.45728 q 0.0207,0.32728 0.19637,0.49953 0.17743,0.17054 0.49265,0.17054 0.18259,0 0.35312,-0.0448 0.17226,-0.0448 0.34107,-0.13436 v 0.29972 q -0.17053,0.0724 -0.34968,0.11025 -0.17914,0.0379 -0.36346,0.0379 -0.46164,0 -0.73208,-0.26871 -0.26872,-0.26872 -0.26872,-0.72692 0,-0.4737 0.25494,-0.75103 0.25666,-0.27905 0.69074,-0.27905 0.3893,0 0.61495,0.25149 0.22738,0.24977 0.22738,0.68041 z m -0.31695,-0.093 q -0.003,-0.26011 -0.14642,-0.41514 -0.14125,-0.15502 -0.37551,-0.15502 -0.26527,0 -0.42547,0.14986 -0.15848,0.14986 -0.18259,0.42202 z"
         style="stroke-width:0.26458332"
         id="path1071" />
      <path
         d="m 142.40564,247.61998 q -0.0534,-0.031 -0.11713,-0.0448 -0.062,-0.0155 -0.13781,-0.0155 -0.26871,0 -0.41341,0.1757 -0.14297,0.17397 -0.14297,0.50126 v 1.0163 h -0.31867 v -1.92925 h 0.31867 v 0.29972 q 0.0999,-0.1757 0.26011,-0.2601 0.16019,-0.0861 0.38929,-0.0861 0.0327,0 0.0724,0.005 0.0396,0.003 0.0879,0.0121 z"
         style="stroke-width:0.26458332"
         id="path1073" />
      <path
         d="m 144.96362,247.86631 q 0.24977,0.0534 0.3893,0.22221 0.14125,0.16881 0.14125,0.41685 0,0.38069 -0.26183,0.58912 -0.26183,0.20842 -0.74414,0.20842 -0.16192,0 -0.33417,-0.0327 -0.17054,-0.031 -0.35313,-0.0947 v -0.3359 q 0.1447,0.0844 0.31695,0.12747 0.17226,0.0431 0.36002,0.0431 0.32728,0 0.49781,-0.12919 0.17226,-0.12919 0.17226,-0.37552 0,-0.22737 -0.1602,-0.35484 -0.15847,-0.12919 -0.44269,-0.12919 h -0.29973 v -0.28594 h 0.31351 q 0.25666,0 0.39274,-0.10163 0.13608,-0.10336 0.13608,-0.29628 0,-0.1981 -0.14125,-0.30317 -0.13953,-0.1068 -0.40135,-0.1068 -0.14298,0 -0.30662,0.031 -0.16364,0.031 -0.36001,0.0965 v -0.31006 q 0.19809,-0.0551 0.37035,-0.0827 0.17397,-0.0276 0.32728,-0.0276 0.39619,0 0.62701,0.18087 0.23082,0.17914 0.23082,0.48575 0,0.2136 -0.1223,0.36174 -0.1223,0.14642 -0.34796,0.20326 z"
         style="stroke-width:0.26458332"
         id="path1075" />
    </g>
    <g
       aria-label="layer 4"
       style="font-style:normal;font-weight:normal;font-size:3.52777767px;line-height:1.25;font-family:sans-serif;letter-spacing:0px;word-spacing:0px;fill:#000000;fill-opacity:1;stroke:none;stroke-width:0.26458332"
       id="text5680-7">
      <path
         d="m 133.88764,239.70825 h 0.31695 v 2.68028 h -0.31695 z"
         style="stroke-width:0.26458332"
         id="path1052" />
      <path
         d="m 135.74283,241.41874 q -0.38413,0 -0.53227,0.0878 -0.14814,0.0879 -0.14814,0.29972 0,0.16881 0.11024,0.26872 0.11197,0.0982 0.30317,0.0982 0.26355,0 0.42203,-0.18604 0.16019,-0.18776 0.16019,-0.49782 v -0.0706 z m 0.63217,-0.13091 v 1.1007 h -0.31695 v -0.29283 q -0.10852,0.1757 -0.27044,0.26011 -0.16192,0.0827 -0.39618,0.0827 -0.29628,0 -0.47198,-0.16537 -0.17398,-0.16708 -0.17398,-0.44614 0,-0.32556 0.21704,-0.49092 0.21877,-0.16537 0.65113,-0.16537 h 0.44441 v -0.031 q 0,-0.21877 -0.14469,-0.33762 -0.14297,-0.12058 -0.40308,-0.12058 -0.16536,0 -0.32211,0.0396 -0.15676,0.0396 -0.30145,0.11885 v -0.29283 q 0.17398,-0.0672 0.33762,-0.0999 0.16364,-0.0344 0.31867,-0.0344 0.41858,0 0.62529,0.21704 0.2067,0.21704 0.2067,0.65802 z"
         style="stroke-width:0.26458332"
         id="path1054" />
      <path
         d="m 137.83228,242.56768 q -0.13436,0.34451 -0.26183,0.44958 -0.12747,0.10508 -0.34106,0.10508 h -0.25322 v -0.26527 h 0.18604 q 0.13091,0 0.20326,-0.062 0.0723,-0.062 0.16019,-0.29284 l 0.0569,-0.14469 -0.78032,-1.89825 h 0.3359 l 0.60289,1.50895 0.60289,-1.50895 h 0.3359 z"
         style="stroke-width:0.26458332"
         id="path1056" />
      <path
         d="m 140.7675,241.34467 v 0.15503 h -1.45728 q 0.0207,0.32728 0.19637,0.49954 0.17743,0.17053 0.49265,0.17053 0.18259,0 0.35312,-0.0448 0.17226,-0.0448 0.34107,-0.13435 v 0.29972 q -0.17053,0.0724 -0.34968,0.11024 -0.17914,0.0379 -0.36346,0.0379 -0.46164,0 -0.73208,-0.26872 -0.26872,-0.26872 -0.26872,-0.72691 0,-0.4737 0.25494,-0.75103 0.25666,-0.27906 0.69074,-0.27906 0.3893,0 0.61495,0.25149 0.22738,0.24977 0.22738,0.68041 z m -0.31695,-0.093 q -0.003,-0.2601 -0.14642,-0.41513 -0.14125,-0.15503 -0.37551,-0.15503 -0.26527,0 -0.42547,0.14986 -0.15848,0.14986 -0.18259,0.42203 z"
         style="stroke-width:0.26458332"
         id="path1058" />
      <path
         d="m 142.40564,240.75556 q -0.0534,-0.031 -0.11713,-0.0448 -0.062,-0.0155 -0.13781,-0.0155 -0.26871,0 -0.41341,0.1757 -0.14297,0.17398 -0.14297,0.50126 v 1.0163 h -0.31867 v -1.92925 h 0.31867 v 0.29972 q 0.0999,-0.1757 0.26011,-0.2601 0.16019,-0.0861 0.38929,-0.0861 0.0327,0 0.0724,0.005 0.0396,0.003 0.0879,0.0121 z"
         style="stroke-width:0.26458332"
         id="path1060" />
      <path
         d="m 144.86544,240.11994 -0.8785,1.37287 h 0.8785 z m -0.0913,-0.30317 h 0.43753 v 1.67604 h 0.3669 v 0.28939 h -0.3669 v 0.60633 h -0.34623 v -0.60633 h -1.161 v -0.3359 z"
         style="stroke-width:0.26458332"
         id="path1062" />
    </g>
    <g
       aria-label="layer 5"
       style="font-style:normal;font-weight:normal;font-size:3.52777767px;line-height:1.25;font-family:sans-serif;letter-spacing:0px;word-spacing:0px;fill:#000000;fill-opacity:1;stroke:none;stroke-width:0.26458332"
       id="text5680-3">
      <path
         d="m 133.88764,233.0981 h 0.31695 v 2.68028 h -0.31695 z"
         style="stroke-width:0.26458332"
         id="path1039" />
      <path
         d="m 135.74283,234.80859 q -0.38413,0 -0.53227,0.0879 -0.14814,0.0878 -0.14814,0.29972 0,0.16881 0.11024,0.26872 0.11197,0.0982 0.30317,0.0982 0.26355,0 0.42203,-0.18603 0.16019,-0.18776 0.16019,-0.49782 v -0.0706 z m 0.63217,-0.13092 v 1.10071 h -0.31695 v -0.29283 q -0.10852,0.1757 -0.27044,0.2601 -0.16192,0.0827 -0.39618,0.0827 -0.29628,0 -0.47198,-0.16537 -0.17398,-0.16709 -0.17398,-0.44614 0,-0.32556 0.21704,-0.49093 0.21877,-0.16536 0.65113,-0.16536 h 0.44441 v -0.031 q 0,-0.21876 -0.14469,-0.33762 -0.14297,-0.12057 -0.40308,-0.12057 -0.16536,0 -0.32211,0.0396 -0.15676,0.0396 -0.30145,0.11885 v -0.29283 q 0.17398,-0.0672 0.33762,-0.0999 0.16364,-0.0345 0.31867,-0.0345 0.41858,0 0.62529,0.21704 0.2067,0.21704 0.2067,0.65801 z"
         style="stroke-width:0.26458332"
         id="path1041" />
      <path
         d="m 137.83228,235.95753 q -0.13436,0.34451 -0.26183,0.44958 -0.12747,0.10508 -0.34106,0.10508 h -0.25322 v -0.26528 h 0.18604 q 0.13091,0 0.20326,-0.062 0.0723,-0.062 0.16019,-0.29283 l 0.0569,-0.14469 -0.78032,-1.89825 h 0.3359 l 0.60289,1.50895 0.60289,-1.50895 h 0.3359 z"
         style="stroke-width:0.26458332"
         id="path1043" />
      <path
         d="m 140.7675,234.73452 v 0.15503 h -1.45728 q 0.0207,0.32728 0.19637,0.49954 0.17743,0.17053 0.49265,0.17053 0.18259,0 0.35312,-0.0448 0.17226,-0.0448 0.34107,-0.13436 v 0.29973 q -0.17053,0.0723 -0.34968,0.11024 -0.17914,0.0379 -0.36346,0.0379 -0.46164,0 -0.73208,-0.26872 -0.26872,-0.26872 -0.26872,-0.72692 0,-0.4737 0.25494,-0.75103 0.25666,-0.27905 0.69074,-0.27905 0.3893,0 0.61495,0.25149 0.22738,0.24977 0.22738,0.68041 z m -0.31695,-0.093 q -0.003,-0.2601 -0.14642,-0.41513 -0.14125,-0.15503 -0.37551,-0.15503 -0.26527,0 -0.42547,0.14986 -0.15848,0.14986 -0.18259,0.42202 z"
         style="stroke-width:0.26458332"
         id="path1045" />
      <path
         d="m 142.40564,234.14541 q -0.0534,-0.031 -0.11713,-0.0448 -0.062,-0.0155 -0.13781,-0.0155 -0.26871,0 -0.41341,0.1757 -0.14297,0.17397 -0.14297,0.50126 v 1.0163 h -0.31867 v -1.92925 h 0.31867 v 0.29972 q 0.0999,-0.1757 0.26011,-0.2601 0.16019,-0.0861 0.38929,-0.0861 0.0327,0 0.0724,0.005 0.0396,0.003 0.0879,0.012 z"
         style="stroke-width:0.26458332"
         id="path1047" />
      <path
         d="m 143.91287,233.20662 h 1.36598 v 0.29283 h -1.04731 v 0.63045 q 0.0758,-0.0258 0.15159,-0.0379 0.0758,-0.0138 0.15158,-0.0138 0.43064,0 0.68213,0.23599 0.25149,0.23598 0.25149,0.63906 0,0.41513 -0.25838,0.64596 -0.25838,0.2291 -0.72864,0.2291 -0.16192,0 -0.33073,-0.0276 -0.16709,-0.0276 -0.34623,-0.0827 v -0.34968 q 0.15503,0.0844 0.32039,0.12575 0.16537,0.0413 0.34968,0.0413 0.298,0 0.47198,-0.15675 0.17398,-0.15675 0.17398,-0.42547 0,-0.26872 -0.17398,-0.42547 -0.17398,-0.15675 -0.47198,-0.15675 -0.13953,0 -0.27905,0.031 -0.13781,0.031 -0.2825,0.0965 z"
         style="stroke-width:0.26458332"
         id="path1049" />
    </g>
    <g
       aria-label="layer 6"
       style="font-style:normal;font-weight:normal;font-size:3.52777767px;line-height:1.25;font-family:sans-serif;letter-spacing:0px;word-spacing:0px;fill:#000000;fill-opacity:1;stroke:none;stroke-width:0.26458332"
       id="text5680-4">
      <path
         d="m 133.88764,226.23367 h 0.31695 v 2.68029 h -0.31695 z"
         style="stroke-width:0.26458332"
         id="path1026" />
      <path
         d="m 135.74283,227.94416 q -0.38413,0 -0.53227,0.0879 -0.14814,0.0878 -0.14814,0.29972 0,0.16881 0.11024,0.26872 0.11197,0.0982 0.30317,0.0982 0.26355,0 0.42203,-0.18604 0.16019,-0.18776 0.16019,-0.49781 v -0.0706 z m 0.63217,-0.13091 v 1.10071 h -0.31695 v -0.29284 q -0.10852,0.1757 -0.27044,0.26011 -0.16192,0.0827 -0.39618,0.0827 -0.29628,0 -0.47198,-0.16537 -0.17398,-0.16708 -0.17398,-0.44613 0,-0.32557 0.21704,-0.49093 0.21877,-0.16537 0.65113,-0.16537 h 0.44441 v -0.031 q 0,-0.21876 -0.14469,-0.33762 -0.14297,-0.12058 -0.40308,-0.12058 -0.16536,0 -0.32211,0.0396 -0.15676,0.0396 -0.30145,0.11886 v -0.29284 q 0.17398,-0.0672 0.33762,-0.0999 0.16364,-0.0345 0.31867,-0.0345 0.41858,0 0.62529,0.21704 0.2067,0.21705 0.2067,0.65802 z"
         style="stroke-width:0.26458332"
         id="path1028" />
      <path
         d="m 137.83228,229.0931 q -0.13436,0.34451 -0.26183,0.44959 -0.12747,0.10507 -0.34106,0.10507 h -0.25322 v -0.26527 h 0.18604 q 0.13091,0 0.20326,-0.062 0.0723,-0.062 0.16019,-0.29284 l 0.0569,-0.14469 -0.78032,-1.89825 h 0.3359 l 0.60289,1.50895 0.60289,-1.50895 h 0.3359 z"
         style="stroke-width:0.26458332"
         id="path1030" />
      <path
         d="m 140.7675,227.87009 v 0.15503 h -1.45728 q 0.0207,0.32729 0.19637,0.49954 0.17743,0.17053 0.49265,0.17053 0.18259,0 0.35312,-0.0448 0.17226,-0.0448 0.34107,-0.13436 v 0.29972 q -0.17053,0.0724 -0.34968,0.11024 -0.17914,0.0379 -0.36346,0.0379 -0.46164,0 -0.73208,-0.26872 -0.26872,-0.26872 -0.26872,-0.72691 0,-0.4737 0.25494,-0.75103 0.25666,-0.27906 0.69074,-0.27906 0.3893,0 0.61495,0.2515 0.22738,0.24976 0.22738,0.6804 z m -0.31695,-0.093 q -0.003,-0.2601 -0.14642,-0.41513 -0.14125,-0.15503 -0.37551,-0.15503 -0.26527,0 -0.42547,0.14986 -0.15848,0.14986 -0.18259,0.42203 z"
         style="stroke-width:0.26458332"
         id="path1032" />
      <path
         d="m 142.40564,227.28098 q -0.0534,-0.031 -0.11713,-0.0448 -0.062,-0.0155 -0.13781,-0.0155 -0.26871,0 -0.41341,0.1757 -0.14297,0.17398 -0.14297,0.50126 v 1.01631 h -0.31867 v -1.92926 h 0.31867 v 0.29973 q 0.0999,-0.1757 0.26011,-0.26011 0.16019,-0.0861 0.38929,-0.0861 0.0327,0 0.0724,0.005 0.0396,0.003 0.0879,0.0121 z"
         style="stroke-width:0.26458332"
         id="path1034" />
      <path
         d="m 144.69663,227.48941 q -0.23427,0 -0.37207,0.1602 -0.13608,0.16019 -0.13608,0.43925 0,0.27733 0.13608,0.43925 0.1378,0.16019 0.37207,0.16019 0.23427,0 0.37035,-0.16019 0.1378,-0.16192 0.1378,-0.43925 0,-0.27906 -0.1378,-0.43925 -0.13608,-0.1602 -0.37035,-0.1602 z m 0.69074,-1.09037 v 0.31694 q -0.13091,-0.062 -0.26527,-0.0947 -0.13264,-0.0327 -0.26355,-0.0327 -0.34451,0 -0.5271,0.23254 -0.18087,0.23254 -0.20671,0.7028 0.10163,-0.14986 0.25494,-0.2291 0.15331,-0.081 0.33762,-0.081 0.38757,0 0.6115,0.23599 0.22566,0.23427 0.22566,0.63907 0,0.39618 -0.23427,0.63562 -0.23426,0.23943 -0.62356,0.23943 -0.44614,0 -0.68213,-0.34106 -0.23599,-0.34279 -0.23599,-0.99219 0,-0.60978 0.28939,-0.97152 0.28939,-0.36346 0.77687,-0.36346 0.13091,0 0.26355,0.0258 0.13436,0.0258 0.27905,0.0775 z"
         style="stroke-width:0.26458332"
         id="path1036" />
    </g>
    <g
       aria-label="layer i"
       style="font-style:normal;font-weight:normal;font-size:3.52777767px;line-height:1.25;font-family:sans-serif;letter-spacing:0px;word-spacing:0px;fill:#000000;fill-opacity:1;stroke:none;stroke-width:0.26458332"
       id="text5680-01">
      <path
         d="m 133.88764,213.01337 h 0.31695 v 2.68028 h -0.31695 z"
         style="stroke-width:0.26458332"
         id="path1013" />
      <path
         d="m 135.74283,214.72385 q -0.38413,0 -0.53227,0.0879 -0.14814,0.0879 -0.14814,0.29973 0,0.16881 0.11024,0.26872 0.11197,0.0982 0.30317,0.0982 0.26355,0 0.42203,-0.18603 0.16019,-0.18776 0.16019,-0.49782 v -0.0706 z m 0.63217,-0.13091 v 1.10071 h -0.31695 v -0.29283 q -0.10852,0.1757 -0.27044,0.2601 -0.16192,0.0827 -0.39618,0.0827 -0.29628,0 -0.47198,-0.16536 -0.17398,-0.16709 -0.17398,-0.44614 0,-0.32556 0.21704,-0.49093 0.21877,-0.16536 0.65113,-0.16536 h 0.44441 v -0.031 q 0,-0.21876 -0.14469,-0.33762 -0.14297,-0.12058 -0.40308,-0.12058 -0.16536,0 -0.32211,0.0396 -0.15676,0.0396 -0.30145,0.11886 v -0.29283 q 0.17398,-0.0672 0.33762,-0.0999 0.16364,-0.0344 0.31867,-0.0344 0.41858,0 0.62529,0.21704 0.2067,0.21704 0.2067,0.65801 z"
         style="stroke-width:0.26458332"
         id="path1015" />
      <path
         d="m 137.83228,215.87279 q -0.13436,0.34451 -0.26183,0.44959 -0.12747,0.10507 -0.34106,0.10507 h -0.25322 v -0.26527 h 0.18604 q 0.13091,0 0.20326,-0.062 0.0723,-0.062 0.16019,-0.29283 l 0.0569,-0.1447 -0.78032,-1.89824 h 0.3359 l 0.60289,1.50895 0.60289,-1.50895 h 0.3359 z"
         style="stroke-width:0.26458332"
         id="path1017" />
      <path
         d="m 140.7675,214.64979 v 0.15502 h -1.45728 q 0.0207,0.32729 0.19637,0.49954 0.17743,0.17054 0.49265,0.17054 0.18259,0 0.35312,-0.0448 0.17226,-0.0448 0.34107,-0.13436 v 0.29972 q -0.17053,0.0724 -0.34968,0.11025 -0.17914,0.0379 -0.36346,0.0379 -0.46164,0 -0.73208,-0.26871 -0.26872,-0.26872 -0.26872,-0.72692 0,-0.4737 0.25494,-0.75103 0.25666,-0.27905 0.69074,-0.27905 0.3893,0 0.61495,0.25149 0.22738,0.24977 0.22738,0.68041 z m -0.31695,-0.093 q -0.003,-0.26011 -0.14642,-0.41514 -0.14125,-0.15503 -0.37551,-0.15503 -0.26527,0 -0.42547,0.14987 -0.15848,0.14986 -0.18259,0.42202 z"
         style="stroke-width:0.26458332"
         id="path1019" />
      <path
         d="m 142.40564,214.06067 q -0.0534,-0.031 -0.11713,-0.0448 -0.062,-0.0155 -0.13781,-0.0155 -0.26871,0 -0.41341,0.1757 -0.14297,0.17398 -0.14297,0.50127 v 1.0163 h -0.31867 v -1.92925 h 0.31867 v 0.29972 q 0.0999,-0.1757 0.26011,-0.26011 0.16019,-0.0861 0.38929,-0.0861 0.0327,0 0.0724,0.005 0.0396,0.003 0.0879,0.0121 z"
         style="stroke-width:0.26458332"
         id="path1021" />
      <path
         d="m 143.86464,213.7644 h 0.31695 v 1.92925 h -0.31695 z m 0,-0.75103 h 0.31695 v 0.40135 h -0.31695 z"
         style="stroke-width:0.26458332"
         id="path1023" />
    </g>
    <path
       style="fill:none;stroke:#000000;stroke-width:0.26458332px;stroke-linecap:butt;stroke-linejoin:miter;stroke-opacity:1;marker-end:url(#marker5418)"
       d="m 165.83658,244.2135 c 0.93479,16.27338 -8.90849,16.8391 -13.22033,19.34006"
       id="path5740"
       inkscape:connector-curvature="0"
       sodipodi:nodetypes="cc" />
    <path
       style="fill:none;stroke:#000000;stroke-width:0.26458332px;stroke-linecap:butt;stroke-linejoin:miter;stroke-opacity:1;marker-end:url(#marker5418-0)"
       d="m 165.83658,244.2135 c -4.65843,12.71406 -4.59025,9.03681 -12.71565,11.79201"
       id="path5740-4"
       inkscape:connector-curvature="0"
       sodipodi:nodetypes="cc" />
    <g
       aria-label="... ..."
       transform="rotate(-90)"
       style="font-style:normal;font-weight:normal;font-size:4.23333311px;line-height:1.25;font-family:sans-serif;letter-spacing:0px;word-spacing:0px;fill:#000000;fill-opacity:1;stroke:none;stroke-width:0.26458332"
       id="text7847">
      <path
         d="m -243.45434,155.74541 h 0.43615 v 0.52504 h -0.43615 z"
         style="font-size:4.23333311px;stroke-width:0.26458332"
         id="path1000" />
      <path
         d="m -242.10662,155.74541 h 0.43615 v 0.52504 h -0.43615 z"
         style="font-size:4.23333311px;stroke-width:0.26458332"
         id="path1002" />
      <path
         d="m -240.7589,155.74541 h 0.43615 v 0.52504 h -0.43615 z"
         style="font-size:4.23333311px;stroke-width:0.26458332"
         id="path1004" />
      <path
         d="m -238.06346,155.74541 h 0.43615 v 0.52504 h -0.43615 z"
         style="font-size:4.23333311px;stroke-width:0.26458332"
         id="path1006" />
      <path
         d="m -236.71574,155.74541 h 0.43615 v 0.52504 h -0.43615 z"
         style="font-size:4.23333311px;stroke-width:0.26458332"
         id="path1008" />
      <path
         d="m -235.36801,155.74541 h 0.43614 v 0.52504 h -0.43614 z"
         style="font-size:4.23333311px;stroke-width:0.26458332"
         id="path1010" />
    </g>
    <path
       style="fill:none;stroke:#000000;stroke-width:0.26458332px;stroke-linecap:butt;stroke-linejoin:miter;stroke-opacity:1;marker-end:url(#marker5418-8)"
       d="m 164.92507,236.64139 c 1.44326,-22.62931 -7.85016,-18.4266 -12.162,-20.92756"
       id="path5740-2"
       inkscape:connector-curvature="0"
       sodipodi:nodetypes="cc" />
    <rect
       style="fill:none;fill-opacity:1;stroke:#000000;stroke-width:0.37201905;stroke-linecap:round;stroke-linejoin:round;stroke-miterlimit:4;stroke-dasharray:0.37201905, 1.11605716;stroke-dashoffset:0;stroke-opacity:0.58823529"
       id="rect10066"
       width="12.64178"
       height="16.800226"
       x="30.483089"
       y="276.86945" />
    <rect
       style="fill:none;fill-opacity:1;stroke:#000000;stroke-width:0.37201905;stroke-linecap:round;stroke-linejoin:round;stroke-miterlimit:4;stroke-dasharray:0.37201905, 1.11605717;stroke-dashoffset:0;stroke-opacity:0.58823529"
       id="rect10066-0"
       width="12.64178"
       height="16.800226"
       x="-258.53397"
       y="55.892868"
       transform="rotate(-90)" />
    <g
       aria-label="cell wall + membranes"
       transform="rotate(-90)"
       style="font-style:normal;font-weight:normal;font-size:3.17499995px;line-height:1.25;font-family:sans-serif;letter-spacing:0px;word-spacing:0px;fill:#000000;fill-opacity:1;stroke:none;stroke-width:0.26458332"
       id="text10085">
      <path
         d="m -233.98942,72.95493 v 0.266651 q -0.12092,-0.06666 -0.2434,-0.09922 -0.12092,-0.03411 -0.24494,-0.03411 -0.2775,0 -0.43098,0.176734 -0.15348,0.175183 -0.15348,0.492993 0,0.31781 0.15348,0.494543 0.15348,0.175183 0.43098,0.175183 0.12402,0 0.24494,-0.03256 0.12248,-0.03411 0.2434,-0.100769 v 0.26355 q -0.11937,0.05581 -0.24805,0.08372 -0.12712,0.02791 -0.2713,0.02791 -0.39222,0 -0.62322,-0.246496 -0.23099,-0.246497 -0.23099,-0.665076 0,-0.42478 0.23254,-0.668176 0.2341,-0.243396 0.64028,-0.243396 0.13177,0 0.25734,0.0279 0.12558,0.02636 0.2434,0.08062 z"
         style="font-size:3.17499995px;stroke-width:0.26458332"
         id="path1204" />
      <path
         d="m -232.00504,73.685118 v 0.139526 h -1.31155 q 0.0186,0.294556 0.17673,0.449585 0.15968,0.153479 0.44338,0.153479 0.16434,0 0.31781,-0.04031 0.15503,-0.04031 0.30696,-0.120923 v 0.269751 q -0.15348,0.06511 -0.31471,0.09922 -0.16123,0.03411 -0.32711,0.03411 -0.41548,0 -0.65887,-0.241846 -0.24185,-0.241845 -0.24185,-0.654223 0,-0.426331 0.22944,-0.675928 0.231,-0.251147 0.62167,-0.251147 0.35037,0 0.55346,0.226342 0.20464,0.224793 0.20464,0.612366 z m -0.28526,-0.08372 q -0.003,-0.234094 -0.13177,-0.37362 -0.12713,-0.139527 -0.33797,-0.139527 -0.23874,0 -0.38292,0.134876 -0.14263,0.134875 -0.16433,0.379822 z"
         style="font-size:3.17499995px;stroke-width:0.26458332"
         id="path1206" />
      <path
         d="m -231.53686,72.21234 h 0.28526 v 2.412256 h -0.28526 z"
         style="font-size:3.17499995px;stroke-width:0.26458332"
         id="path1208" />
      <path
         d="m -230.65629,72.21234 h 0.28525 v 2.412256 h -0.28525 z"
         style="font-size:3.17499995px;stroke-width:0.26458332"
         id="path1210" />
      <path
         d="m -228.93081,72.888268 h 0.28525 l 0.35657,1.354956 0.35501,-1.354956 h 0.33642 l 0.35657,1.354956 0.35501,-1.354956 h 0.28526 l -0.45424,1.736328 h -0.33641 l -0.37362,-1.423169 -0.37517,1.423169 h -0.33642 z"
         style="font-size:3.17499995px;stroke-width:0.26458332"
         id="path1212" />
      <path
         d="m -225.37754,73.751781 q -0.34572,0 -0.47904,0.07906 -0.13333,0.07906 -0.13333,0.269751 0,0.151928 0.0992,0.241845 0.10077,0.08837 0.27285,0.08837 0.2372,0 0.37982,-0.167432 0.14418,-0.168982 0.14418,-0.448034 v -0.06356 z m 0.56896,-0.117823 v 0.990638 h -0.28526 v -0.26355 q -0.0977,0.15813 -0.24339,0.234094 -0.14573,0.07441 -0.35657,0.07441 -0.26665,0 -0.42478,-0.148828 -0.15658,-0.150378 -0.15658,-0.401526 0,-0.293005 0.19533,-0.441833 0.19689,-0.148828 0.58602,-0.148828 h 0.39997 v -0.02791 q 0,-0.196887 -0.13022,-0.303857 -0.12868,-0.108521 -0.36277,-0.108521 -0.14883,0 -0.28991,0.03566 -0.14107,0.03566 -0.2713,0.10697 v -0.26355 q 0.15658,-0.06046 0.30386,-0.08992 0.14728,-0.031 0.2868,-0.031 0.37672,0 0.56276,0.195337 0.18604,0.195336 0.18604,0.592211 z"
         style="font-size:3.17499995px;stroke-width:0.26458332"
         id="path1214" />
      <path
         d="m -224.21947,72.21234 h 0.28525 v 2.412256 h -0.28525 z"
         style="font-size:3.17499995px;stroke-width:0.26458332"
         id="path1216" />
      <path
         d="m -223.33891,72.21234 h 0.28526 v 2.412256 h -0.28526 z"
         style="font-size:3.17499995px;stroke-width:0.26458332"
         id="path1218" />
      <path
         d="m -220.28638,72.63402 v 0.863513 h 0.86351 v 0.263549 h -0.86351 v 0.863514 h -0.26045 v -0.863514 h -0.86351 v -0.263549 h 0.86351 V 72.63402 Z"
         style="font-size:3.17499995px;stroke-width:0.26458332"
         id="path1220" />
      <path
         d="m -216.4246,73.221581 q 0.10697,-0.192237 0.2558,-0.283704 0.14883,-0.09147 0.35036,-0.09147 0.27131,0 0.41858,0.190686 0.14728,0.189135 0.14728,0.539502 v 1.047998 h -0.2868 v -1.038697 q 0,-0.249597 -0.0884,-0.37052 -0.0884,-0.120922 -0.26975,-0.120922 -0.22169,0 -0.35037,0.147277 -0.12867,0.147278 -0.12867,0.401526 v 0.981336 h -0.28681 v -1.038697 q 0,-0.251147 -0.0884,-0.37052 -0.0884,-0.120922 -0.27285,-0.120922 -0.2186,0 -0.34727,0.148828 -0.12867,0.147277 -0.12867,0.399975 v 0.981336 h -0.28681 v -1.736328 h 0.28681 v 0.269751 q 0.0977,-0.159681 0.23409,-0.235645 0.13643,-0.07596 0.32401,-0.07596 0.18914,0 0.32091,0.09612 0.13333,0.09612 0.19689,0.279053 z"
         style="font-size:3.17499995px;stroke-width:0.26458332"
         id="path1222" />
      <path
         d="m -213.19689,73.685118 v 0.139526 h -1.31155 q 0.0186,0.294556 0.17674,0.449585 0.15968,0.153479 0.44338,0.153479 0.16433,0 0.31781,-0.04031 0.15503,-0.04031 0.30696,-0.120923 v 0.269751 q -0.15348,0.06511 -0.31471,0.09922 -0.16123,0.03411 -0.32711,0.03411 -0.41548,0 -0.65888,-0.241846 -0.24184,-0.241845 -0.24184,-0.654223 0,-0.426331 0.22944,-0.675928 0.23099,-0.251147 0.62167,-0.251147 0.35036,0 0.55345,0.226342 0.20464,0.224793 0.20464,0.612366 z m -0.28525,-0.08372 q -0.003,-0.234094 -0.13178,-0.37362 -0.12712,-0.139527 -0.33796,-0.139527 -0.23875,0 -0.38293,0.134876 -0.14262,0.134875 -0.16433,0.379822 z"
         style="font-size:3.17499995px;stroke-width:0.26458332"
         id="path1224" />
      <path
         d="m -211.37685,73.221581 q 0.10697,-0.192237 0.2558,-0.283704 0.14883,-0.09147 0.35037,-0.09147 0.2713,0 0.41858,0.190686 0.14728,0.189135 0.14728,0.539502 v 1.047998 h -0.28681 v -1.038697 q 0,-0.249597 -0.0884,-0.37052 -0.0884,-0.120922 -0.26975,-0.120922 -0.22169,0 -0.35036,0.147277 -0.12868,0.147278 -0.12868,0.401526 v 0.981336 h -0.2868 v -1.038697 q 0,-0.251147 -0.0884,-0.37052 -0.0884,-0.120922 -0.27285,-0.120922 -0.21859,0 -0.34727,0.148828 -0.12867,0.147277 -0.12867,0.399975 v 0.981336 h -0.2868 v -1.736328 h 0.2868 v 0.269751 q 0.0977,-0.159681 0.23409,-0.235645 0.13643,-0.07596 0.32402,-0.07596 0.18913,0 0.32091,0.09612 0.13332,0.09612 0.19688,0.279053 z"
         style="font-size:3.17499995px;stroke-width:0.26458332"
         id="path1226" />
      <path
         d="m -208.38788,73.757982 q 0,-0.31471 -0.13023,-0.492993 -0.12867,-0.179834 -0.35501,-0.179834 -0.22635,0 -0.35657,0.179834 -0.12868,0.178283 -0.12868,0.492993 0,0.314709 0.12868,0.494543 0.13022,0.178284 0.35657,0.178284 0.22634,0 0.35501,-0.178284 0.13023,-0.179834 0.13023,-0.494543 z m -0.97049,-0.606165 q 0.0899,-0.155029 0.22635,-0.229443 0.13797,-0.07596 0.32866,-0.07596 0.31626,0 0.51315,0.251147 0.19843,0.251148 0.19843,0.660425 0,0.409277 -0.19843,0.660425 -0.19689,0.251147 -0.51315,0.251147 -0.19069,0 -0.32866,-0.07441 -0.13643,-0.07596 -0.22635,-0.230994 v 0.26045 h -0.2868 V 72.21234 h 0.2868 z"
         style="font-size:3.17499995px;stroke-width:0.26458332"
         id="path1228" />
      <path
         d="m -206.6128,73.154918 q -0.0481,-0.0279 -0.10542,-0.04031 -0.0558,-0.01395 -0.12402,-0.01395 -0.24185,0 -0.37207,0.15813 -0.12868,0.156579 -0.12868,0.451135 v 0.914673 h -0.2868 v -1.736328 h 0.2868 v 0.269751 q 0.0899,-0.15813 0.2341,-0.234095 0.14418,-0.07751 0.35036,-0.07751 0.0295,0 0.0651,0.0047 0.0357,0.0031 0.0791,0.01085 z"
         style="font-size:3.17499995px;stroke-width:0.26458332"
         id="path1230" />
      <path
         d="m -205.52139,73.751781 q -0.34572,0 -0.47904,0.07906 -0.13333,0.07906 -0.13333,0.269751 0,0.151928 0.0992,0.241845 0.10077,0.08837 0.27285,0.08837 0.2372,0 0.37983,-0.167432 0.14417,-0.168982 0.14417,-0.448034 v -0.06356 z m 0.56896,-0.117823 v 0.990638 h -0.28526 v -0.26355 q -0.0977,0.15813 -0.24339,0.234094 -0.14573,0.07441 -0.35657,0.07441 -0.26665,0 -0.42478,-0.148828 -0.15658,-0.150378 -0.15658,-0.401526 0,-0.293005 0.19534,-0.441833 0.19688,-0.148828 0.58601,-0.148828 h 0.39997 v -0.02791 q 0,-0.196887 -0.13022,-0.303857 -0.12868,-0.108521 -0.36277,-0.108521 -0.14883,0 -0.2899,0.03566 -0.14108,0.03566 -0.27131,0.10697 v -0.26355 q 0.15658,-0.06046 0.30386,-0.08992 0.14728,-0.031 0.28681,-0.031 0.37672,0 0.56275,0.195337 0.18604,0.195336 0.18604,0.592211 z"
         style="font-size:3.17499995px;stroke-width:0.26458332"
         id="path1232" />
      <path
         d="m -202.92,73.576598 v 1.047998 h -0.28525 v -1.038697 q 0,-0.246496 -0.0961,-0.368969 -0.0961,-0.122473 -0.28836,-0.122473 -0.23099,0 -0.36432,0.147277 -0.13332,0.147278 -0.13332,0.401526 v 0.981336 h -0.2868 v -1.736328 h 0.2868 v 0.269751 q 0.10232,-0.15658 0.2403,-0.234095 0.13952,-0.07751 0.32091,-0.07751 0.2992,0 0.45268,0.186035 0.15348,0.184485 0.15348,0.544153 z"
         style="font-size:3.17499995px;stroke-width:0.26458332"
         id="path1234" />
      <path
         d="m -200.86276,73.685118 v 0.139526 h -1.31155 q 0.0186,0.294556 0.17673,0.449585 0.15968,0.153479 0.44339,0.153479 0.16433,0 0.31781,-0.04031 0.15503,-0.04031 0.30696,-0.120923 v 0.269751 q -0.15348,0.06511 -0.31471,0.09922 -0.16123,0.03411 -0.32711,0.03411 -0.41548,0 -0.65888,-0.241846 -0.24185,-0.241845 -0.24185,-0.654223 0,-0.426331 0.22945,-0.675928 0.23099,-0.251147 0.62167,-0.251147 0.35036,0 0.55345,0.226342 0.20464,0.224793 0.20464,0.612366 z m -0.28525,-0.08372 q -0.003,-0.234094 -0.13178,-0.37362 -0.12712,-0.139527 -0.33796,-0.139527 -0.23875,0 -0.38293,0.134876 -0.14262,0.134875 -0.16433,0.379822 z"
         style="font-size:3.17499995px;stroke-width:0.26458332"
         id="path1236" />
      <path
         d="m -199.28766,72.939427 v 0.269751 q -0.12093,-0.06201 -0.25115,-0.09302 -0.13023,-0.03101 -0.26975,-0.03101 -0.21239,0 -0.31936,0.06511 -0.10542,0.06511 -0.10542,0.195337 0,0.09922 0.076,0.15658 0.076,0.05581 0.30541,0.10697 l 0.0977,0.0217 q 0.30386,0.06511 0.43098,0.184485 0.12867,0.117822 0.12867,0.330212 0,0.241846 -0.19223,0.382922 -0.19069,0.141077 -0.52555,0.141077 -0.13953,0 -0.29146,-0.02791 -0.15037,-0.02635 -0.31781,-0.08061 v -0.294556 q 0.15813,0.08216 0.31161,0.124023 0.15348,0.04031 0.30386,0.04031 0.20154,0 0.31006,-0.06821 0.10852,-0.06976 0.10852,-0.195337 0,-0.116272 -0.0791,-0.178283 -0.0775,-0.06201 -0.34261,-0.119373 l -0.0992,-0.02325 q -0.2651,-0.05581 -0.38292,-0.170533 -0.11782,-0.116272 -0.11782,-0.31781 0,-0.244946 0.17363,-0.378271 0.17363,-0.133325 0.49299,-0.133325 0.15813,0 0.29766,0.02325 0.13952,0.02325 0.25735,0.06976 z"
         style="font-size:3.17499995px;stroke-width:0.26458332"
         id="path1238" />
    </g>
    <path
       style="fill:none;stroke:#000000;stroke-width:0.26458332px;stroke-linecap:butt;stroke-linejoin:miter;stroke-opacity:1;marker-end:url(#marker10101)"
       d="m 73.019369,235.01695 -4.491525,5.00484"
       id="path10091"
       inkscape:connector-curvature="0" />
    <g
       aria-label="cell matrix"
       style="font-style:normal;font-weight:normal;font-size:3.17499995px;line-height:1.25;font-family:sans-serif;letter-spacing:0px;word-spacing:0px;fill:#000000;fill-opacity:1;stroke:none;stroke-width:0.26458332"
       id="text10165">
      <path
         d="m 35.684336,239.63542 v 0.26665 q -0.120923,-0.0667 -0.243396,-0.0992 -0.120923,-0.0341 -0.244946,-0.0341 -0.277503,0 -0.430982,0.17674 -0.153479,0.17518 -0.153479,0.49299 0,0.31781 0.153479,0.49454 0.153479,0.17519 0.430982,0.17519 0.124023,0 0.244946,-0.0326 0.122473,-0.0341 0.243396,-0.10077 v 0.26355 q -0.119372,0.0558 -0.248047,0.0837 -0.127124,0.0279 -0.271301,0.0279 -0.392224,0 -0.623218,-0.24649 -0.230993,-0.2465 -0.230993,-0.66508 0,-0.42478 0.232543,-0.66818 0.234095,-0.24339 0.640271,-0.24339 0.131775,0 0.257349,0.0279 0.125574,0.0264 0.243396,0.0806 z"
         style="font-size:3.17499995px;stroke-width:0.26458332"
         id="path1241" />
      <path
         d="m 37.668711,240.36561 v 0.13952 h -1.311548 q 0.0186,0.29456 0.176734,0.44959 0.15968,0.15348 0.443383,0.15348 0.164331,0 0.31781,-0.0403 0.15503,-0.0403 0.306958,-0.12092 v 0.26975 q -0.153479,0.0651 -0.314709,0.0992 -0.161231,0.0341 -0.327112,0.0341 -0.415478,0 -0.658874,-0.24184 -0.241846,-0.24185 -0.241846,-0.65423 0,-0.42633 0.229443,-0.67592 0.230994,-0.25115 0.621668,-0.25115 0.350366,0 0.553454,0.22634 0.204639,0.22479 0.204639,0.61237 z m -0.285254,-0.0837 q -0.0031,-0.23409 -0.131775,-0.37362 -0.127124,-0.13953 -0.337964,-0.13953 -0.238745,0 -0.382922,0.13488 -0.142627,0.13487 -0.164331,0.37982 z"
         style="font-size:3.17499995px;stroke-width:0.26458332"
         id="path1243" />
      <path
         d="m 38.1369,238.89283 h 0.285253 v 2.41225 H 38.1369 Z"
         style="font-size:3.17499995px;stroke-width:0.26458332"
         id="path1245" />
      <path
         d="m 39.017466,238.89283 h 0.285254 v 2.41225 h -0.285254 z"
         style="font-size:3.17499995px;stroke-width:0.26458332"
         id="path1247" />
      <path
         d="m 42.260679,239.90207 q 0.10697,-0.19224 0.255798,-0.2837 0.148828,-0.0915 0.350366,-0.0915 0.271302,0 0.418579,0.19068 0.147278,0.18914 0.147278,0.53951 v 1.04799 h -0.286804 v -1.03869 q 0,-0.2496 -0.08837,-0.37052 -0.08837,-0.12092 -0.269751,-0.12092 -0.221692,0 -0.350366,0.14727 -0.128674,0.14728 -0.128674,0.40153 v 0.98133 h -0.286804 v -1.03869 q 0,-0.25115 -0.08837,-0.37052 -0.08837,-0.12092 -0.272852,-0.12092 -0.218591,0 -0.347265,0.14882 -0.128675,0.14728 -0.128675,0.39998 v 0.98133 h -0.286804 v -1.73632 h 0.286804 v 0.26975 q 0.09767,-0.15968 0.234095,-0.23565 0.136425,-0.076 0.324011,-0.076 0.189136,0 0.320911,0.0961 0.133325,0.0961 0.196887,0.27905 z"
         style="font-size:3.17499995px;stroke-width:0.26458332"
         id="path1249" />
      <path
         d="m 44.792307,240.43227 q -0.345715,0 -0.47904,0.0791 -0.133326,0.0791 -0.133326,0.26976 0,0.15192 0.09922,0.24184 0.100769,0.0884 0.272852,0.0884 0.237194,0 0.379821,-0.16743 0.144178,-0.16899 0.144178,-0.44804 v -0.0636 z m 0.568958,-0.11782 v 0.99063 h -0.285254 v -0.26355 q -0.09767,0.15813 -0.243396,0.2341 -0.145728,0.0744 -0.356568,0.0744 -0.26665,0 -0.42478,-0.14883 -0.15658,-0.15037 -0.15658,-0.40152 0,-0.29301 0.195337,-0.44183 0.196888,-0.14883 0.586011,-0.14883 h 0.399976 v -0.0279 q 0,-0.19689 -0.130225,-0.30386 -0.128674,-0.10852 -0.362768,-0.10852 -0.148829,0 -0.289905,0.0357 -0.141077,0.0357 -0.271302,0.10697 v -0.26355 q 0.15658,-0.0605 0.303858,-0.0899 0.147278,-0.031 0.286804,-0.031 0.376721,0 0.562756,0.19534 0.186036,0.19533 0.186036,0.59221 z"
         style="font-size:3.17499995px;stroke-width:0.26458332"
         id="path1251" />
      <path
         d="m 46.23253,239.07576 v 0.493 h 0.587561 v 0.22169 H 46.23253 v 0.94258 q 0,0.21239 0.05736,0.27285 0.05891,0.0605 0.237195,0.0605 h 0.293006 v 0.23874 h -0.293006 q -0.330212,0 -0.455786,-0.12247 -0.125574,-0.12402 -0.125574,-0.44958 v -0.94258 h -0.209289 v -0.22169 h 0.209289 v -0.493 z"
         style="font-size:3.17499995px;stroke-width:0.26458332"
         id="path1253" />
      <path
         d="m 48.202952,239.83541 q -0.04806,-0.0279 -0.10542,-0.0403 -0.05581,-0.0139 -0.124024,-0.0139 -0.241845,0 -0.37207,0.15813 -0.128674,0.15658 -0.128674,0.45113 v 0.91467 h -0.286805 v -1.73632 h 0.286805 v 0.26975 q 0.08992,-0.15813 0.234094,-0.2341 0.144177,-0.0775 0.350366,-0.0775 0.02946,0 0.06511,0.005 0.03566,0.003 0.07906,0.0108 z"
         style="font-size:3.17499995px;stroke-width:0.26458332"
         id="path1255" />
      <path
         d="m 48.505258,239.56876 h 0.285254 v 1.73632 h -0.285254 z m 0,-0.67593 h 0.285254 v 0.36122 h -0.285254 z"
         style="font-size:3.17499995px;stroke-width:0.26458332"
         id="path1257" />
      <path
         d="m 50.829148,239.56876 -0.627869,0.84491 0.660425,0.89141 H 50.52529 l -0.505395,-0.68212 -0.505396,0.68212 h -0.336413 l 0.674377,-0.90847 -0.617016,-0.82785 h 0.336413 l 0.460437,0.61856 0.460437,-0.61856 z"
         style="font-size:3.17499995px;stroke-width:0.26458332"
         id="path1259" />
    </g>
    <path
       style="fill:none;stroke:#000000;stroke-width:0.26458332px;stroke-linecap:butt;stroke-linejoin:miter;stroke-opacity:1;marker-end:url(#marker10177)"
       d="m 50.818401,241.43341 10.523003,-0.25666"
       id="path10167"
       inkscape:connector-curvature="0" />
  </g>
</svg>
