<?xml version="1.0" encoding="utf-8" standalone="no"?>
<!DOCTYPE svg PUBLIC "-//W3C//DTD SVG 1.1//EN"
  "http://www.w3.org/Graphics/SVG/1.1/DTD/svg11.dtd">
<!-- Created with matplotlib (https://matplotlib.org/) -->
<svg height="382.797344pt" version="1.1" viewBox="0 0 538.778625 382.797344" width="538.778625pt" xmlns="http://www.w3.org/2000/svg" xmlns:xlink="http://www.w3.org/1999/xlink">
 <defs>
  <style type="text/css">
*{stroke-linecap:butt;stroke-linejoin:round;}
  </style>
 </defs>
 <g id="figure_1">
  <g id="patch_1">
   <path d="M 0 382.797344 
L 538.778625 382.797344 
L 538.778625 0 
L 0 0 
z
" style="fill:none;"/>
  </g>
  <g id="axes_1">
   <g id="patch_2">
    <path d="M 59.135 337.159219 
L 460.895 337.159219 
L 460.895 10.999219 
L 59.135 10.999219 
z
" style="fill:none;"/>
   </g>
   <g id="PathCollection_1">
    <path clip-path="url(#p87af2bf474)" d="M 85.919 337.159219 
L 112.703 337.159219 
L 139.487 337.159219 
L 166.271 337.159219 
L 193.055 337.159219 
L 219.839 337.159219 
L 246.623 337.159219 
L 256.950665 337.159219 
L 246.623 336.321726 
L 219.839 333.746196 
L 193.055 330.401712 
L 166.271 325.812668 
L 142.804439 319.992903 
L 139.487 318.888897 
L 112.703 306.578655 
L 107.140388 302.826587 
L 89.578901 285.660271 
L 85.919 280.570688 
L 79.437527 268.493956 
L 72.856224 251.32764 
L 68.067073 234.161324 
L 64.385041 216.995008 
L 61.455296 199.828692 
L 59.135 183.334979 
L 59.135 199.828692 
L 59.135 216.995008 
L 59.135 234.161324 
L 59.135 251.32764 
L 59.135 268.493956 
L 59.135 285.660271 
L 59.135 302.826587 
L 59.135 319.992903 
L 59.135 337.159219 
z
" style="fill:#481b6d;"/>
    <path clip-path="url(#p87af2bf474)" d="M 460.895 337.159219 
L 460.895 319.992903 
L 460.895 302.826587 
L 460.895 285.660271 
L 460.895 268.493956 
L 460.895 251.32764 
L 460.895 234.161324 
L 460.895 216.995008 
L 460.895 199.828692 
L 460.895 182.662377 
L 460.895 165.496061 
L 460.895 148.329745 
L 460.895 131.163429 
L 460.895 113.997113 
L 460.895 96.830798 
L 460.895 79.664482 
L 460.895 62.498166 
L 460.895 45.33185 
L 460.895 28.165535 
L 460.895 10.999219 
L 456.342357 10.999219 
L 456.482753 28.165535 
L 456.641169 45.33185 
L 456.73951 62.498166 
L 456.828155 79.664482 
L 456.896999 96.830798 
L 456.940189 113.997113 
L 456.959522 131.163429 
L 456.968722 148.329745 
L 456.939673 165.496061 
L 456.880343 182.662377 
L 456.776164 199.828692 
L 456.617216 216.995008 
L 456.39112 234.161324 
L 456.073732 251.32764 
L 455.618764 268.493956 
L 454.924885 285.660271 
L 453.762878 302.826587 
L 451.437451 319.992903 
L 444.256458 337.159219 
z
" style="fill:#481b6d;"/>
   </g>
   <g id="PathCollection_2">
    <path clip-path="url(#p87af2bf474)" d="M 166.271 325.812668 
L 193.055 330.401712 
L 219.839 333.746196 
L 246.623 336.321726 
L 256.950665 337.159219 
L 273.407 337.159219 
L 300.191 337.159219 
L 326.975 337.159219 
L 353.759 337.159219 
L 380.543 337.159219 
L 407.327 337.159219 
L 434.111 337.159219 
L 444.256458 337.159219 
L 451.437451 319.992903 
L 453.762878 302.826587 
L 454.924885 285.660271 
L 455.618764 268.493956 
L 456.073732 251.32764 
L 456.39112 234.161324 
L 456.617216 216.995008 
L 456.776164 199.828692 
L 456.880343 182.662377 
L 456.939673 165.496061 
L 456.968722 148.329745 
L 456.959522 131.163429 
L 456.940189 113.997113 
L 456.896999 96.830798 
L 456.828155 79.664482 
L 456.73951 62.498166 
L 456.641169 45.33185 
L 456.482753 28.165535 
L 456.342357 10.999219 
L 451.789714 10.999219 
L 452.070507 28.165535 
L 452.387338 45.33185 
L 452.584021 62.498166 
L 452.761309 79.664482 
L 452.898999 96.830798 
L 452.985378 113.997113 
L 453.024043 131.163429 
L 453.042445 148.329745 
L 452.984346 165.496061 
L 452.865686 182.662377 
L 452.657328 199.828692 
L 452.339432 216.995008 
L 451.88724 234.161324 
L 451.252464 251.32764 
L 450.342527 268.493956 
L 448.95477 285.660271 
L 446.630756 302.826587 
L 441.979902 319.992903 
L 434.111 331.678383 
L 407.327 330.490083 
L 380.543 329.002306 
L 353.759 327.240738 
L 326.975 325.164874 
L 300.191 322.696266 
L 275.767035 319.992903 
L 273.407 319.654564 
L 246.623 315.276342 
L 219.839 309.85938 
L 193.055 302.88309 
L 192.873233 302.826587 
L 166.271 292.27624 
L 153.540174 285.660271 
L 139.487 276.187712 
L 130.518383 268.493956 
L 115.294382 251.32764 
L 112.703 247.706253 
L 104.982374 234.161324 
L 97.222115 216.995008 
L 90.981662 199.828692 
L 85.919 183.09785 
L 85.818148 182.662377 
L 82.322008 165.496061 
L 79.410515 148.329745 
L 76.948807 131.163429 
L 74.827455 113.997113 
L 72.959755 96.830798 
L 71.335293 79.664482 
L 69.89523 62.498166 
L 68.610141 45.33185 
L 67.457112 28.165535 
L 66.418008 10.999219 
L 59.135 10.999219 
L 59.135 28.165535 
L 59.135 45.33185 
L 59.135 62.498166 
L 59.135 79.664482 
L 59.135 96.830798 
L 59.135 113.997113 
L 59.135 131.163429 
L 59.135 148.329745 
L 59.135 165.496061 
L 59.135 182.662377 
L 59.135 183.334979 
L 61.455296 199.828692 
L 64.385041 216.995008 
L 68.067073 234.161324 
L 72.856224 251.32764 
L 79.437527 268.493956 
L 85.919 280.570688 
L 89.578901 285.660271 
L 107.140388 302.826587 
L 112.703 306.578655 
L 139.487 318.888897 
L 142.804439 319.992903 
z
" style="fill:#3f4788;"/>
   </g>
   <g id="PathCollection_3">
    <path clip-path="url(#p87af2bf474)" d="M 300.191 322.696266 
L 326.975 325.164874 
L 353.759 327.240738 
L 380.543 329.002306 
L 407.327 330.490083 
L 434.111 331.678383 
L 441.979902 319.992903 
L 446.630756 302.826587 
L 448.95477 285.660271 
L 450.342527 268.493956 
L 451.252464 251.32764 
L 451.88724 234.161324 
L 452.339432 216.995008 
L 452.657328 199.828692 
L 452.865686 182.662377 
L 452.984346 165.496061 
L 453.042445 148.329745 
L 453.024043 131.163429 
L 452.985378 113.997113 
L 452.898999 96.830798 
L 452.761309 79.664482 
L 452.584021 62.498166 
L 452.387338 45.33185 
L 452.070507 28.165535 
L 451.789714 10.999219 
L 447.237071 10.999219 
L 447.65826 28.165535 
L 448.133507 45.33185 
L 448.428531 62.498166 
L 448.694464 79.664482 
L 448.900998 96.830798 
L 449.030567 113.997113 
L 449.088565 131.163429 
L 449.116167 148.329745 
L 449.029019 165.496061 
L 448.851029 182.662377 
L 448.538492 199.828692 
L 448.061648 216.995008 
L 447.38336 234.161324 
L 446.431196 251.32764 
L 445.066291 268.493956 
L 442.984655 285.660271 
L 439.498634 302.826587 
L 434.111 316.870096 
L 407.327 314.936432 
L 380.543 312.452973 
L 353.759 309.511057 
L 326.975 306.060889 
L 305.487838 302.826587 
L 300.191 301.829358 
L 273.407 296.080829 
L 246.623 289.194313 
L 235.005241 285.660271 
L 219.839 279.933932 
L 194.904332 268.493956 
L 193.055 267.445356 
L 169.345299 251.32764 
L 166.271 248.755571 
L 151.723928 234.161324 
L 139.487 218.982528 
L 138.16783 216.995008 
L 128.469961 199.828692 
L 120.413888 182.662377 
L 113.562939 165.496061 
L 112.703 163.032045 
L 108.607771 148.329745 
L 104.508888 131.163429 
L 100.943103 113.997113 
L 97.769092 96.830798 
L 94.998973 79.664482 
L 92.533044 62.498166 
L 90.328714 45.33185 
L 88.352518 28.165535 
L 86.578074 10.999219 
L 85.919 10.999219 
L 66.418008 10.999219 
L 67.457112 28.165535 
L 68.610141 45.33185 
L 69.89523 62.498166 
L 71.335293 79.664482 
L 72.959755 96.830798 
L 74.827455 113.997113 
L 76.948807 131.163429 
L 79.410515 148.329745 
L 82.322008 165.496061 
L 85.818148 182.662377 
L 85.919 183.09785 
L 90.981662 199.828692 
L 97.222115 216.995008 
L 104.982374 234.161324 
L 112.703 247.706253 
L 115.294382 251.32764 
L 130.518383 268.493956 
L 139.487 276.187712 
L 153.540174 285.660271 
L 166.271 292.27624 
L 192.873233 302.826587 
L 193.055 302.88309 
L 219.839 309.85938 
L 246.623 315.276342 
L 273.407 319.654564 
L 275.767035 319.992903 
z
" style="fill:#2e6e8e;"/>
   </g>
   <g id="PathCollection_4">
    <path clip-path="url(#p87af2bf474)" d="M 326.975 306.060889 
L 353.759 309.511057 
L 380.543 312.452973 
L 407.327 314.936432 
L 434.111 316.870096 
L 439.498634 302.826587 
L 442.984655 285.660271 
L 445.066291 268.493956 
L 446.431196 251.32764 
L 447.38336 234.161324 
L 448.061648 216.995008 
L 448.538492 199.828692 
L 448.851029 182.662377 
L 449.029019 165.496061 
L 449.116167 148.329745 
L 449.088565 131.163429 
L 449.030567 113.997113 
L 448.900998 96.830798 
L 448.694464 79.664482 
L 448.428531 62.498166 
L 448.133507 45.33185 
L 447.65826 28.165535 
L 447.237071 10.999219 
L 442.684427 10.999219 
L 443.246014 28.165535 
L 443.879676 45.33185 
L 444.273041 62.498166 
L 444.627618 79.664482 
L 444.902997 96.830798 
L 445.075757 113.997113 
L 445.153086 131.163429 
L 445.18989 148.329745 
L 445.073691 165.496061 
L 444.836372 182.662377 
L 444.419656 199.828692 
L 443.783863 216.995008 
L 442.87948 234.161324 
L 441.609928 251.32764 
L 439.790055 268.493956 
L 437.01454 285.660271 
L 434.111 297.082201 
L 407.327 294.599698 
L 380.543 291.175706 
L 353.759 287.035937 
L 346.081943 285.660271 
L 326.975 281.454202 
L 300.191 274.61918 
L 279.667741 268.493956 
L 273.407 266.220495 
L 246.623 254.971873 
L 239.190938 251.32764 
L 219.839 239.883499 
L 211.570983 234.161324 
L 193.055 218.811314 
L 191.18432 216.995008 
L 176.182514 199.828692 
L 166.271 186.305735 
L 163.999122 182.662377 
L 154.735844 165.496061 
L 146.844069 148.329745 
L 140.084784 131.163429 
L 139.487 129.438241 
L 135.018466 113.997113 
L 130.600429 96.830798 
L 126.800857 79.664482 
L 123.471452 62.498166 
L 120.552969 45.33185 
L 117.985046 28.165535 
L 115.711218 10.999219 
L 112.703 10.999219 
L 86.578074 10.999219 
L 88.352518 28.165535 
L 90.328714 45.33185 
L 92.533044 62.498166 
L 94.998973 79.664482 
L 97.769092 96.830798 
L 100.943103 113.997113 
L 104.508888 131.163429 
L 108.607771 148.329745 
L 112.703 163.032045 
L 113.562939 165.496061 
L 120.413888 182.662377 
L 128.469961 199.828692 
L 138.16783 216.995008 
L 139.487 218.982528 
L 151.723928 234.161324 
L 166.271 248.755571 
L 169.345299 251.32764 
L 193.055 267.445356 
L 194.904332 268.493956 
L 219.839 279.933932 
L 235.005241 285.660271 
L 246.623 289.194313 
L 273.407 296.080829 
L 300.191 301.829358 
L 305.487838 302.826587 
z
" style="fill:#21918c;"/>
   </g>
   <g id="PathCollection_5">
    <path clip-path="url(#p87af2bf474)" d="M 353.759 287.035937 
L 380.543 291.175706 
L 407.327 294.599698 
L 434.111 297.082201 
L 437.01454 285.660271 
L 439.790055 268.493956 
L 441.609928 251.32764 
L 442.87948 234.161324 
L 443.783863 216.995008 
L 444.419656 199.828692 
L 444.836372 182.662377 
L 445.073691 165.496061 
L 445.18989 148.329745 
L 445.153086 131.163429 
L 445.075757 113.997113 
L 444.902997 96.830798 
L 444.627618 79.664482 
L 444.273041 62.498166 
L 443.879676 45.33185 
L 443.246014 28.165535 
L 442.684427 10.999219 
L 438.131784 10.999219 
L 438.833767 28.165535 
L 439.625845 45.33185 
L 440.117552 62.498166 
L 440.560773 79.664482 
L 440.904996 96.830798 
L 441.120946 113.997113 
L 441.217608 131.163429 
L 441.263612 148.329745 
L 441.118364 165.496061 
L 440.821715 182.662377 
L 440.30082 199.828692 
L 439.506079 216.995008 
L 438.3756 234.161324 
L 436.78866 251.32764 
L 434.513819 268.493956 
L 434.111 270.715271 
L 411.985323 268.493956 
L 407.327 267.934907 
L 380.543 262.817484 
L 353.759 256.473764 
L 335.424193 251.32764 
L 326.975 248.513884 
L 300.191 238.14911 
L 291.289945 234.161324 
L 273.407 224.741973 
L 260.681206 216.995008 
L 246.623 206.910926 
L 238.052823 199.828692 
L 220.434198 182.662377 
L 219.839 181.989032 
L 207.160015 165.496061 
L 195.882028 148.329745 
L 193.055 143.293198 
L 187.169723 131.163429 
L 180.044323 113.997113 
L 173.712041 96.830798 
L 168.432262 79.664482 
L 166.271 71.403155 
L 164.309365 62.498166 
L 161.117551 45.33185 
L 158.635095 28.165535 
L 156.585993 10.999219 
L 139.487 10.999219 
L 115.711218 10.999219 
L 117.985046 28.165535 
L 120.552969 45.33185 
L 123.471452 62.498166 
L 126.800857 79.664482 
L 130.600429 96.830798 
L 135.018466 113.997113 
L 139.487 129.438241 
L 140.084784 131.163429 
L 146.844069 148.329745 
L 154.735844 165.496061 
L 163.999122 182.662377 
L 166.271 186.305735 
L 176.182514 199.828692 
L 191.18432 216.995008 
L 193.055 218.811314 
L 211.570983 234.161324 
L 219.839 239.883499 
L 239.190938 251.32764 
L 246.623 254.971873 
L 273.407 266.220495 
L 279.667741 268.493956 
L 300.191 274.61918 
L 326.975 281.454202 
L 346.081943 285.660271 
z
" style="fill:#2db27d;"/>
   </g>
   <g id="PathCollection_6">
    <path clip-path="url(#p87af2bf474)" d="M 434.111 270.715271 
L 434.513819 268.493956 
L 436.78866 251.32764 
L 438.3756 234.161324 
L 439.506079 216.995008 
L 440.30082 199.828692 
L 440.821715 182.662377 
L 441.118364 165.496061 
L 441.263612 148.329745 
L 441.217608 131.163429 
L 441.120946 113.997113 
L 440.904996 96.830798 
L 440.560773 79.664482 
L 440.117552 62.498166 
L 439.625845 45.33185 
L 438.833767 28.165535 
L 438.131784 10.999219 
L 434.111 10.999219 
L 425.5846 10.999219 
L 434.111 21.711972 
L 434.421521 28.165535 
L 435.372014 45.33185 
L 435.962062 62.498166 
L 436.493927 79.664482 
L 436.906996 96.830798 
L 437.166135 113.997113 
L 437.282129 131.163429 
L 437.337334 148.329745 
L 437.163037 165.496061 
L 436.807058 182.662377 
L 436.181984 199.828692 
L 435.228295 216.995008 
L 434.111 231.259745 
L 407.327 228.455367 
L 380.543 222.013299 
L 364.90408 216.995008 
L 353.759 212.786001 
L 326.975 200.635984 
L 325.469535 199.828692 
L 300.191 183.79812 
L 298.637728 182.662377 
L 278.929264 165.496061 
L 273.407 159.887601 
L 263.560879 148.329745 
L 251.444805 131.163429 
L 246.623 122.981016 
L 242.046048 113.997113 
L 234.582692 96.830798 
L 228.872054 79.664482 
L 224.795604 62.498166 
L 222.248622 45.33185 
L 221.827418 28.165535 
L 221.427586 10.999219 
L 219.839 10.999219 
L 193.055 10.999219 
L 166.271 10.999219 
L 156.585993 10.999219 
L 158.635095 28.165535 
L 161.117551 45.33185 
L 164.309365 62.498166 
L 166.271 71.403155 
L 168.432262 79.664482 
L 173.712041 96.830798 
L 180.044323 113.997113 
L 187.169723 131.163429 
L 193.055 143.293198 
L 195.882028 148.329745 
L 207.160015 165.496061 
L 219.839 181.989032 
L 220.434198 182.662377 
L 238.052823 199.828692 
L 246.623 206.910926 
L 260.681206 216.995008 
L 273.407 224.741973 
L 291.289945 234.161324 
L 300.191 238.14911 
L 326.975 248.513884 
L 335.424193 251.32764 
L 353.759 256.473764 
L 380.543 262.817484 
L 407.327 267.934907 
L 411.985323 268.493956 
z
" style="fill:#73d056;"/>
   </g>
   <g id="PathCollection_7">
    <path clip-path="url(#p87af2bf474)" d="M 380.543 222.013299 
L 407.327 228.455367 
L 434.111 231.259745 
L 435.228295 216.995008 
L 436.181984 199.828692 
L 436.807058 182.662377 
L 437.163037 165.496061 
L 437.337334 148.329745 
L 437.282129 131.163429 
L 437.166135 113.997113 
L 436.906996 96.830798 
L 436.493927 79.664482 
L 435.962062 62.498166 
L 435.372014 45.33185 
L 434.421521 28.165535 
L 434.111 21.711972 
L 425.5846 10.999219 
L 407.327 10.999219 
L 380.543 10.999219 
L 353.759 10.999219 
L 326.975 10.999219 
L 300.191 10.999219 
L 273.407 10.999219 
L 246.623 10.999219 
L 221.427586 10.999219 
L 221.827418 28.165535 
L 222.248622 45.33185 
L 224.795604 62.498166 
L 228.872054 79.664482 
L 234.582692 96.830798 
L 242.046048 113.997113 
L 246.623 122.981016 
L 251.444805 131.163429 
L 263.560879 148.329745 
L 273.407 159.887601 
L 278.929264 165.496061 
L 298.637728 182.662377 
L 300.191 183.79812 
L 325.469535 199.828692 
L 326.975 200.635984 
L 353.759 212.786001 
L 364.90408 216.995008 
z
" style="fill:#d0e11c;"/>
   </g>
   <g id="matplotlib.axis_1">
    <g id="xtick_1">
     <g id="line2d_1">
      <defs>
       <path d="M 0 0 
L 0 3.5 
" id="m8ec42768c8" style="stroke:#000000;stroke-width:0.8;"/>
      </defs>
      <g>
       <use style="stroke:#000000;stroke-width:0.8;" x="85.919" xlink:href="#m8ec42768c8" y="337.159219"/>
      </g>
     </g>
     <g id="text_1">
      <!-- 10 -->
      <defs>
       <path d="M 12.40625 8.296875 
L 28.515625 8.296875 
L 28.515625 63.921875 
L 10.984375 60.40625 
L 10.984375 69.390625 
L 28.421875 72.90625 
L 38.28125 72.90625 
L 38.28125 8.296875 
L 54.390625 8.296875 
L 54.390625 0 
L 12.40625 0 
z
" id="DejaVuSans-49"/>
       <path d="M 31.78125 66.40625 
Q 24.171875 66.40625 20.328125 58.90625 
Q 16.5 51.421875 16.5 36.375 
Q 16.5 21.390625 20.328125 13.890625 
Q 24.171875 6.390625 31.78125 6.390625 
Q 39.453125 6.390625 43.28125 13.890625 
Q 47.125 21.390625 47.125 36.375 
Q 47.125 51.421875 43.28125 58.90625 
Q 39.453125 66.40625 31.78125 66.40625 
z
M 31.78125 74.21875 
Q 44.046875 74.21875 50.515625 64.515625 
Q 56.984375 54.828125 56.984375 36.375 
Q 56.984375 17.96875 50.515625 8.265625 
Q 44.046875 -1.421875 31.78125 -1.421875 
Q 19.53125 -1.421875 13.0625 8.265625 
Q 6.59375 17.96875 6.59375 36.375 
Q 6.59375 54.828125 13.0625 64.515625 
Q 19.53125 74.21875 31.78125 74.21875 
z
" id="DejaVuSans-48"/>
      </defs>
      <g transform="translate(79.5565 351.757656)scale(0.1 -0.1)">
       <use xlink:href="#DejaVuSans-49"/>
       <use x="63.623047" xlink:href="#DejaVuSans-48"/>
      </g>
     </g>
    </g>
    <g id="xtick_2">
     <g id="line2d_2">
      <g>
       <use style="stroke:#000000;stroke-width:0.8;" x="139.487" xlink:href="#m8ec42768c8" y="337.159219"/>
      </g>
     </g>
     <g id="text_2">
      <!-- 20 -->
      <defs>
       <path d="M 19.1875 8.296875 
L 53.609375 8.296875 
L 53.609375 0 
L 7.328125 0 
L 7.328125 8.296875 
Q 12.9375 14.109375 22.625 23.890625 
Q 32.328125 33.6875 34.8125 36.53125 
Q 39.546875 41.84375 41.421875 45.53125 
Q 43.3125 49.21875 43.3125 52.78125 
Q 43.3125 58.59375 39.234375 62.25 
Q 35.15625 65.921875 28.609375 65.921875 
Q 23.96875 65.921875 18.8125 64.3125 
Q 13.671875 62.703125 7.8125 59.421875 
L 7.8125 69.390625 
Q 13.765625 71.78125 18.9375 73 
Q 24.125 74.21875 28.421875 74.21875 
Q 39.75 74.21875 46.484375 68.546875 
Q 53.21875 62.890625 53.21875 53.421875 
Q 53.21875 48.921875 51.53125 44.890625 
Q 49.859375 40.875 45.40625 35.40625 
Q 44.1875 33.984375 37.640625 27.21875 
Q 31.109375 20.453125 19.1875 8.296875 
z
" id="DejaVuSans-50"/>
      </defs>
      <g transform="translate(133.1245 351.757656)scale(0.1 -0.1)">
       <use xlink:href="#DejaVuSans-50"/>
       <use x="63.623047" xlink:href="#DejaVuSans-48"/>
      </g>
     </g>
    </g>
    <g id="xtick_3">
     <g id="line2d_3">
      <g>
       <use style="stroke:#000000;stroke-width:0.8;" x="193.055" xlink:href="#m8ec42768c8" y="337.159219"/>
      </g>
     </g>
     <g id="text_3">
      <!-- 30 -->
      <defs>
       <path d="M 40.578125 39.3125 
Q 47.65625 37.796875 51.625 33 
Q 55.609375 28.21875 55.609375 21.1875 
Q 55.609375 10.40625 48.1875 4.484375 
Q 40.765625 -1.421875 27.09375 -1.421875 
Q 22.515625 -1.421875 17.65625 -0.515625 
Q 12.796875 0.390625 7.625 2.203125 
L 7.625 11.71875 
Q 11.71875 9.328125 16.59375 8.109375 
Q 21.484375 6.890625 26.8125 6.890625 
Q 36.078125 6.890625 40.9375 10.546875 
Q 45.796875 14.203125 45.796875 21.1875 
Q 45.796875 27.640625 41.28125 31.265625 
Q 36.765625 34.90625 28.71875 34.90625 
L 20.21875 34.90625 
L 20.21875 43.015625 
L 29.109375 43.015625 
Q 36.375 43.015625 40.234375 45.921875 
Q 44.09375 48.828125 44.09375 54.296875 
Q 44.09375 59.90625 40.109375 62.90625 
Q 36.140625 65.921875 28.71875 65.921875 
Q 24.65625 65.921875 20.015625 65.03125 
Q 15.375 64.15625 9.8125 62.3125 
L 9.8125 71.09375 
Q 15.4375 72.65625 20.34375 73.4375 
Q 25.25 74.21875 29.59375 74.21875 
Q 40.828125 74.21875 47.359375 69.109375 
Q 53.90625 64.015625 53.90625 55.328125 
Q 53.90625 49.265625 50.4375 45.09375 
Q 46.96875 40.921875 40.578125 39.3125 
z
" id="DejaVuSans-51"/>
      </defs>
      <g transform="translate(186.6925 351.757656)scale(0.1 -0.1)">
       <use xlink:href="#DejaVuSans-51"/>
       <use x="63.623047" xlink:href="#DejaVuSans-48"/>
      </g>
     </g>
    </g>
    <g id="xtick_4">
     <g id="line2d_4">
      <g>
       <use style="stroke:#000000;stroke-width:0.8;" x="246.623" xlink:href="#m8ec42768c8" y="337.159219"/>
      </g>
     </g>
     <g id="text_4">
      <!-- 40 -->
      <defs>
       <path d="M 37.796875 64.3125 
L 12.890625 25.390625 
L 37.796875 25.390625 
z
M 35.203125 72.90625 
L 47.609375 72.90625 
L 47.609375 25.390625 
L 58.015625 25.390625 
L 58.015625 17.1875 
L 47.609375 17.1875 
L 47.609375 0 
L 37.796875 0 
L 37.796875 17.1875 
L 4.890625 17.1875 
L 4.890625 26.703125 
z
" id="DejaVuSans-52"/>
      </defs>
      <g transform="translate(240.2605 351.757656)scale(0.1 -0.1)">
       <use xlink:href="#DejaVuSans-52"/>
       <use x="63.623047" xlink:href="#DejaVuSans-48"/>
      </g>
     </g>
    </g>
    <g id="xtick_5">
     <g id="line2d_5">
      <g>
       <use style="stroke:#000000;stroke-width:0.8;" x="300.191" xlink:href="#m8ec42768c8" y="337.159219"/>
      </g>
     </g>
     <g id="text_5">
      <!-- 50 -->
      <defs>
       <path d="M 10.796875 72.90625 
L 49.515625 72.90625 
L 49.515625 64.59375 
L 19.828125 64.59375 
L 19.828125 46.734375 
Q 21.96875 47.46875 24.109375 47.828125 
Q 26.265625 48.1875 28.421875 48.1875 
Q 40.625 48.1875 47.75 41.5 
Q 54.890625 34.8125 54.890625 23.390625 
Q 54.890625 11.625 47.5625 5.09375 
Q 40.234375 -1.421875 26.90625 -1.421875 
Q 22.3125 -1.421875 17.546875 -0.640625 
Q 12.796875 0.140625 7.71875 1.703125 
L 7.71875 11.625 
Q 12.109375 9.234375 16.796875 8.0625 
Q 21.484375 6.890625 26.703125 6.890625 
Q 35.15625 6.890625 40.078125 11.328125 
Q 45.015625 15.765625 45.015625 23.390625 
Q 45.015625 31 40.078125 35.4375 
Q 35.15625 39.890625 26.703125 39.890625 
Q 22.75 39.890625 18.8125 39.015625 
Q 14.890625 38.140625 10.796875 36.28125 
z
" id="DejaVuSans-53"/>
      </defs>
      <g transform="translate(293.8285 351.757656)scale(0.1 -0.1)">
       <use xlink:href="#DejaVuSans-53"/>
       <use x="63.623047" xlink:href="#DejaVuSans-48"/>
      </g>
     </g>
    </g>
    <g id="xtick_6">
     <g id="line2d_6">
      <g>
       <use style="stroke:#000000;stroke-width:0.8;" x="353.759" xlink:href="#m8ec42768c8" y="337.159219"/>
      </g>
     </g>
     <g id="text_6">
      <!-- 60 -->
      <defs>
       <path d="M 33.015625 40.375 
Q 26.375 40.375 22.484375 35.828125 
Q 18.609375 31.296875 18.609375 23.390625 
Q 18.609375 15.53125 22.484375 10.953125 
Q 26.375 6.390625 33.015625 6.390625 
Q 39.65625 6.390625 43.53125 10.953125 
Q 47.40625 15.53125 47.40625 23.390625 
Q 47.40625 31.296875 43.53125 35.828125 
Q 39.65625 40.375 33.015625 40.375 
z
M 52.59375 71.296875 
L 52.59375 62.3125 
Q 48.875 64.0625 45.09375 64.984375 
Q 41.3125 65.921875 37.59375 65.921875 
Q 27.828125 65.921875 22.671875 59.328125 
Q 17.53125 52.734375 16.796875 39.40625 
Q 19.671875 43.65625 24.015625 45.921875 
Q 28.375 48.1875 33.59375 48.1875 
Q 44.578125 48.1875 50.953125 41.515625 
Q 57.328125 34.859375 57.328125 23.390625 
Q 57.328125 12.15625 50.6875 5.359375 
Q 44.046875 -1.421875 33.015625 -1.421875 
Q 20.359375 -1.421875 13.671875 8.265625 
Q 6.984375 17.96875 6.984375 36.375 
Q 6.984375 53.65625 15.1875 63.9375 
Q 23.390625 74.21875 37.203125 74.21875 
Q 40.921875 74.21875 44.703125 73.484375 
Q 48.484375 72.75 52.59375 71.296875 
z
" id="DejaVuSans-54"/>
      </defs>
      <g transform="translate(347.3965 351.757656)scale(0.1 -0.1)">
       <use xlink:href="#DejaVuSans-54"/>
       <use x="63.623047" xlink:href="#DejaVuSans-48"/>
      </g>
     </g>
    </g>
    <g id="xtick_7">
     <g id="line2d_7">
      <g>
       <use style="stroke:#000000;stroke-width:0.8;" x="407.327" xlink:href="#m8ec42768c8" y="337.159219"/>
      </g>
     </g>
     <g id="text_7">
      <!-- 70 -->
      <defs>
       <path d="M 8.203125 72.90625 
L 55.078125 72.90625 
L 55.078125 68.703125 
L 28.609375 0 
L 18.3125 0 
L 43.21875 64.59375 
L 8.203125 64.59375 
z
" id="DejaVuSans-55"/>
      </defs>
      <g transform="translate(400.9645 351.757656)scale(0.1 -0.1)">
       <use xlink:href="#DejaVuSans-55"/>
       <use x="63.623047" xlink:href="#DejaVuSans-48"/>
      </g>
     </g>
    </g>
    <g id="xtick_8">
     <g id="line2d_8">
      <g>
       <use style="stroke:#000000;stroke-width:0.8;" x="460.895" xlink:href="#m8ec42768c8" y="337.159219"/>
      </g>
     </g>
     <g id="text_8">
      <!-- 80 -->
      <defs>
       <path d="M 31.78125 34.625 
Q 24.75 34.625 20.71875 30.859375 
Q 16.703125 27.09375 16.703125 20.515625 
Q 16.703125 13.921875 20.71875 10.15625 
Q 24.75 6.390625 31.78125 6.390625 
Q 38.8125 6.390625 42.859375 10.171875 
Q 46.921875 13.96875 46.921875 20.515625 
Q 46.921875 27.09375 42.890625 30.859375 
Q 38.875 34.625 31.78125 34.625 
z
M 21.921875 38.8125 
Q 15.578125 40.375 12.03125 44.71875 
Q 8.5 49.078125 8.5 55.328125 
Q 8.5 64.0625 14.71875 69.140625 
Q 20.953125 74.21875 31.78125 74.21875 
Q 42.671875 74.21875 48.875 69.140625 
Q 55.078125 64.0625 55.078125 55.328125 
Q 55.078125 49.078125 51.53125 44.71875 
Q 48 40.375 41.703125 38.8125 
Q 48.828125 37.15625 52.796875 32.3125 
Q 56.78125 27.484375 56.78125 20.515625 
Q 56.78125 9.90625 50.3125 4.234375 
Q 43.84375 -1.421875 31.78125 -1.421875 
Q 19.734375 -1.421875 13.25 4.234375 
Q 6.78125 9.90625 6.78125 20.515625 
Q 6.78125 27.484375 10.78125 32.3125 
Q 14.796875 37.15625 21.921875 38.8125 
z
M 18.3125 54.390625 
Q 18.3125 48.734375 21.84375 45.5625 
Q 25.390625 42.390625 31.78125 42.390625 
Q 38.140625 42.390625 41.71875 45.5625 
Q 45.3125 48.734375 45.3125 54.390625 
Q 45.3125 60.0625 41.71875 63.234375 
Q 38.140625 66.40625 31.78125 66.40625 
Q 25.390625 66.40625 21.84375 63.234375 
Q 18.3125 60.0625 18.3125 54.390625 
z
" id="DejaVuSans-56"/>
      </defs>
      <g transform="translate(454.5325 351.757656)scale(0.1 -0.1)">
       <use xlink:href="#DejaVuSans-56"/>
       <use x="63.623047" xlink:href="#DejaVuSans-48"/>
      </g>
     </g>
    </g>
    <g id="text_9">
     <!-- $V_\mathrm{cmax}$ ($\mathrm{\mu mol\ CO_2\ m^{-1}\ s^{-1}}$) -->
     <defs>
      <path d="M 20.609375 0 
L 7.8125 72.90625 
L 17.484375 72.90625 
L 28.078125 10.203125 
L 63.484375 72.90625 
L 74.21875 72.90625 
L 32.078125 0 
z
" id="DejaVuSans-Oblique-86"/>
      <path d="M 48.78125 52.59375 
L 48.78125 44.1875 
Q 44.96875 46.296875 41.140625 47.34375 
Q 37.3125 48.390625 33.40625 48.390625 
Q 24.65625 48.390625 19.8125 42.84375 
Q 14.984375 37.3125 14.984375 27.296875 
Q 14.984375 17.28125 19.8125 11.734375 
Q 24.65625 6.203125 33.40625 6.203125 
Q 37.3125 6.203125 41.140625 7.25 
Q 44.96875 8.296875 48.78125 10.40625 
L 48.78125 2.09375 
Q 45.015625 0.34375 40.984375 -0.53125 
Q 36.96875 -1.421875 32.421875 -1.421875 
Q 20.0625 -1.421875 12.78125 6.34375 
Q 5.515625 14.109375 5.515625 27.296875 
Q 5.515625 40.671875 12.859375 48.328125 
Q 20.21875 56 33.015625 56 
Q 37.15625 56 41.109375 55.140625 
Q 45.0625 54.296875 48.78125 52.59375 
z
" id="DejaVuSans-99"/>
      <path d="M 52 44.1875 
Q 55.375 50.25 60.0625 53.125 
Q 64.75 56 71.09375 56 
Q 79.640625 56 84.28125 50.015625 
Q 88.921875 44.046875 88.921875 33.015625 
L 88.921875 0 
L 79.890625 0 
L 79.890625 32.71875 
Q 79.890625 40.578125 77.09375 44.375 
Q 74.3125 48.1875 68.609375 48.1875 
Q 61.625 48.1875 57.5625 43.546875 
Q 53.515625 38.921875 53.515625 30.90625 
L 53.515625 0 
L 44.484375 0 
L 44.484375 32.71875 
Q 44.484375 40.625 41.703125 44.40625 
Q 38.921875 48.1875 33.109375 48.1875 
Q 26.21875 48.1875 22.15625 43.53125 
Q 18.109375 38.875 18.109375 30.90625 
L 18.109375 0 
L 9.078125 0 
L 9.078125 54.6875 
L 18.109375 54.6875 
L 18.109375 46.1875 
Q 21.1875 51.21875 25.484375 53.609375 
Q 29.78125 56 35.6875 56 
Q 41.65625 56 45.828125 52.96875 
Q 50 49.953125 52 44.1875 
z
" id="DejaVuSans-109"/>
      <path d="M 34.28125 27.484375 
Q 23.390625 27.484375 19.1875 25 
Q 14.984375 22.515625 14.984375 16.5 
Q 14.984375 11.71875 18.140625 8.90625 
Q 21.296875 6.109375 26.703125 6.109375 
Q 34.1875 6.109375 38.703125 11.40625 
Q 43.21875 16.703125 43.21875 25.484375 
L 43.21875 27.484375 
z
M 52.203125 31.203125 
L 52.203125 0 
L 43.21875 0 
L 43.21875 8.296875 
Q 40.140625 3.328125 35.546875 0.953125 
Q 30.953125 -1.421875 24.3125 -1.421875 
Q 15.921875 -1.421875 10.953125 3.296875 
Q 6 8.015625 6 15.921875 
Q 6 25.140625 12.171875 29.828125 
Q 18.359375 34.515625 30.609375 34.515625 
L 43.21875 34.515625 
L 43.21875 35.40625 
Q 43.21875 41.609375 39.140625 45 
Q 35.0625 48.390625 27.6875 48.390625 
Q 23 48.390625 18.546875 47.265625 
Q 14.109375 46.140625 10.015625 43.890625 
L 10.015625 52.203125 
Q 14.9375 54.109375 19.578125 55.046875 
Q 24.21875 56 28.609375 56 
Q 40.484375 56 46.34375 49.84375 
Q 52.203125 43.703125 52.203125 31.203125 
z
" id="DejaVuSans-97"/>
      <path d="M 54.890625 54.6875 
L 35.109375 28.078125 
L 55.90625 0 
L 45.3125 0 
L 29.390625 21.484375 
L 13.484375 0 
L 2.875 0 
L 24.125 28.609375 
L 4.6875 54.6875 
L 15.28125 54.6875 
L 29.78125 35.203125 
L 44.28125 54.6875 
z
" id="DejaVuSans-120"/>
      <path id="DejaVuSans-32"/>
      <path d="M 31 75.875 
Q 24.46875 64.65625 21.28125 53.65625 
Q 18.109375 42.671875 18.109375 31.390625 
Q 18.109375 20.125 21.3125 9.0625 
Q 24.515625 -2 31 -13.1875 
L 23.1875 -13.1875 
Q 15.875 -1.703125 12.234375 9.375 
Q 8.59375 20.453125 8.59375 31.390625 
Q 8.59375 42.28125 12.203125 53.3125 
Q 15.828125 64.359375 23.1875 75.875 
z
" id="DejaVuSans-40"/>
      <path d="M 8.5 -20.796875 
L 8.5 54.6875 
L 17.484375 54.6875 
L 17.484375 20.703125 
Q 17.484375 13.625 20.84375 10 
Q 24.21875 6.390625 30.8125 6.390625 
Q 38.03125 6.390625 41.671875 10.484375 
Q 45.3125 14.59375 45.3125 22.796875 
L 45.3125 54.6875 
L 54.296875 54.6875 
L 54.296875 12.59375 
Q 54.296875 9.671875 55.140625 8.28125 
Q 56 6.890625 57.8125 6.890625 
Q 58.25 6.890625 59.03125 7.15625 
Q 59.8125 7.421875 61.1875 8.015625 
L 61.1875 0.78125 
Q 59.1875 -0.34375 57.390625 -0.875 
Q 55.609375 -1.421875 53.90625 -1.421875 
Q 50.53125 -1.421875 48.53125 0.484375 
Q 46.53125 2.390625 45.796875 6.296875 
Q 43.359375 2.4375 39.8125 0.5 
Q 36.28125 -1.421875 31.5 -1.421875 
Q 26.515625 -1.421875 23.015625 0.484375 
Q 19.53125 2.390625 17.484375 6.203125 
L 17.484375 -20.796875 
z
" id="DejaVuSans-956"/>
      <path d="M 30.609375 48.390625 
Q 23.390625 48.390625 19.1875 42.75 
Q 14.984375 37.109375 14.984375 27.296875 
Q 14.984375 17.484375 19.15625 11.84375 
Q 23.34375 6.203125 30.609375 6.203125 
Q 37.796875 6.203125 41.984375 11.859375 
Q 46.1875 17.53125 46.1875 27.296875 
Q 46.1875 37.015625 41.984375 42.703125 
Q 37.796875 48.390625 30.609375 48.390625 
z
M 30.609375 56 
Q 42.328125 56 49.015625 48.375 
Q 55.71875 40.765625 55.71875 27.296875 
Q 55.71875 13.875 49.015625 6.21875 
Q 42.328125 -1.421875 30.609375 -1.421875 
Q 18.84375 -1.421875 12.171875 6.21875 
Q 5.515625 13.875 5.515625 27.296875 
Q 5.515625 40.765625 12.171875 48.375 
Q 18.84375 56 30.609375 56 
z
" id="DejaVuSans-111"/>
      <path d="M 9.421875 75.984375 
L 18.40625 75.984375 
L 18.40625 0 
L 9.421875 0 
z
" id="DejaVuSans-108"/>
      <path d="M 64.40625 67.28125 
L 64.40625 56.890625 
Q 59.421875 61.53125 53.78125 63.8125 
Q 48.140625 66.109375 41.796875 66.109375 
Q 29.296875 66.109375 22.65625 58.46875 
Q 16.015625 50.828125 16.015625 36.375 
Q 16.015625 21.96875 22.65625 14.328125 
Q 29.296875 6.6875 41.796875 6.6875 
Q 48.140625 6.6875 53.78125 8.984375 
Q 59.421875 11.28125 64.40625 15.921875 
L 64.40625 5.609375 
Q 59.234375 2.09375 53.4375 0.328125 
Q 47.65625 -1.421875 41.21875 -1.421875 
Q 24.65625 -1.421875 15.125 8.703125 
Q 5.609375 18.84375 5.609375 36.375 
Q 5.609375 53.953125 15.125 64.078125 
Q 24.65625 74.21875 41.21875 74.21875 
Q 47.75 74.21875 53.53125 72.484375 
Q 59.328125 70.75 64.40625 67.28125 
z
" id="DejaVuSans-67"/>
      <path d="M 39.40625 66.21875 
Q 28.65625 66.21875 22.328125 58.203125 
Q 16.015625 50.203125 16.015625 36.375 
Q 16.015625 22.609375 22.328125 14.59375 
Q 28.65625 6.59375 39.40625 6.59375 
Q 50.140625 6.59375 56.421875 14.59375 
Q 62.703125 22.609375 62.703125 36.375 
Q 62.703125 50.203125 56.421875 58.203125 
Q 50.140625 66.21875 39.40625 66.21875 
z
M 39.40625 74.21875 
Q 54.734375 74.21875 63.90625 63.9375 
Q 73.09375 53.65625 73.09375 36.375 
Q 73.09375 19.140625 63.90625 8.859375 
Q 54.734375 -1.421875 39.40625 -1.421875 
Q 24.03125 -1.421875 14.8125 8.828125 
Q 5.609375 19.09375 5.609375 36.375 
Q 5.609375 53.65625 14.8125 63.9375 
Q 24.03125 74.21875 39.40625 74.21875 
z
" id="DejaVuSans-79"/>
      <path d="M 10.59375 35.5 
L 73.1875 35.5 
L 73.1875 27.203125 
L 10.59375 27.203125 
z
" id="DejaVuSans-8722"/>
      <path d="M 44.28125 53.078125 
L 44.28125 44.578125 
Q 40.484375 46.53125 36.375 47.5 
Q 32.28125 48.484375 27.875 48.484375 
Q 21.1875 48.484375 17.84375 46.4375 
Q 14.5 44.390625 14.5 40.28125 
Q 14.5 37.15625 16.890625 35.375 
Q 19.28125 33.59375 26.515625 31.984375 
L 29.59375 31.296875 
Q 39.15625 29.25 43.1875 25.515625 
Q 47.21875 21.78125 47.21875 15.09375 
Q 47.21875 7.46875 41.1875 3.015625 
Q 35.15625 -1.421875 24.609375 -1.421875 
Q 20.21875 -1.421875 15.453125 -0.5625 
Q 10.6875 0.296875 5.421875 2 
L 5.421875 11.28125 
Q 10.40625 8.6875 15.234375 7.390625 
Q 20.0625 6.109375 24.8125 6.109375 
Q 31.15625 6.109375 34.5625 8.28125 
Q 37.984375 10.453125 37.984375 14.40625 
Q 37.984375 18.0625 35.515625 20.015625 
Q 33.0625 21.96875 24.703125 23.78125 
L 21.578125 24.515625 
Q 13.234375 26.265625 9.515625 29.90625 
Q 5.8125 33.546875 5.8125 39.890625 
Q 5.8125 47.609375 11.28125 51.796875 
Q 16.75 56 26.8125 56 
Q 31.78125 56 36.171875 55.265625 
Q 40.578125 54.546875 44.28125 53.078125 
z
" id="DejaVuSans-115"/>
      <path d="M 8.015625 75.875 
L 15.828125 75.875 
Q 23.140625 64.359375 26.78125 53.3125 
Q 30.421875 42.28125 30.421875 31.390625 
Q 30.421875 20.453125 26.78125 9.375 
Q 23.140625 -1.703125 15.828125 -13.1875 
L 8.015625 -13.1875 
Q 14.5 -2 17.703125 9.0625 
Q 20.90625 20.125 20.90625 31.390625 
Q 20.90625 42.671875 17.703125 53.65625 
Q 14.5 64.65625 8.015625 75.875 
z
" id="DejaVuSans-41"/>
     </defs>
     <g transform="translate(157.615 372.237344)scale(0.16 -0.16)">
      <use transform="translate(0 0.684375)" xlink:href="#DejaVuSans-Oblique-86"/>
      <use transform="translate(68.408203 -15.721875)scale(0.7)" xlink:href="#DejaVuSans-99"/>
      <use transform="translate(106.894531 -15.721875)scale(0.7)" xlink:href="#DejaVuSans-109"/>
      <use transform="translate(175.083008 -15.721875)scale(0.7)" xlink:href="#DejaVuSans-97"/>
      <use transform="translate(217.978516 -15.721875)scale(0.7)" xlink:href="#DejaVuSans-120"/>
      <use transform="translate(262.138672 0.684375)" xlink:href="#DejaVuSans-32"/>
      <use transform="translate(293.925781 0.684375)" xlink:href="#DejaVuSans-40"/>
      <use transform="translate(332.939453 0.684375)" xlink:href="#DejaVuSans-956"/>
      <use transform="translate(396.5625 0.684375)" xlink:href="#DejaVuSans-109"/>
      <use transform="translate(493.974609 0.684375)" xlink:href="#DejaVuSans-111"/>
      <use transform="translate(555.15625 0.684375)" xlink:href="#DejaVuSans-108"/>
      <use transform="translate(615.409832 0.684375)" xlink:href="#DejaVuSans-67"/>
      <use transform="translate(685.23405 0.684375)" xlink:href="#DejaVuSans-79"/>
      <use transform="translate(764.902019 -15.721875)scale(0.7)" xlink:href="#DejaVuSans-50"/>
      <use transform="translate(844.642905 0.684375)" xlink:href="#DejaVuSans-109"/>
      <use transform="translate(943.012046 38.965625)scale(0.7)" xlink:href="#DejaVuSans-8722"/>
      <use transform="translate(1001.66439 38.965625)scale(0.7)" xlink:href="#DejaVuSans-49"/>
      <use transform="translate(1081.405276 0.684375)" xlink:href="#DejaVuSans-115"/>
      <use transform="translate(1134.461917 38.965625)scale(0.7)" xlink:href="#DejaVuSans-8722"/>
      <use transform="translate(1193.11426 38.965625)scale(0.7)" xlink:href="#DejaVuSans-49"/>
      <use transform="translate(1240.384768 0.684375)" xlink:href="#DejaVuSans-41"/>
     </g>
    </g>
   </g>
   <g id="matplotlib.axis_2">
    <g id="ytick_1">
     <g id="line2d_9">
      <defs>
       <path d="M 0 0 
L -3.5 0 
" id="me9da81a56b" style="stroke:#000000;stroke-width:0.8;"/>
      </defs>
      <g>
       <use style="stroke:#000000;stroke-width:0.8;" x="59.135" xlink:href="#me9da81a56b" y="311.409745"/>
      </g>
     </g>
     <g id="text_10">
      <!-- 250 -->
      <g transform="translate(33.0475 315.208964)scale(0.1 -0.1)">
       <use xlink:href="#DejaVuSans-50"/>
       <use x="63.623047" xlink:href="#DejaVuSans-53"/>
       <use x="127.246094" xlink:href="#DejaVuSans-48"/>
      </g>
     </g>
    </g>
    <g id="ytick_2">
     <g id="line2d_10">
      <g>
       <use style="stroke:#000000;stroke-width:0.8;" x="59.135" xlink:href="#me9da81a56b" y="268.493956"/>
      </g>
     </g>
     <g id="text_11">
      <!-- 500 -->
      <g transform="translate(33.0475 272.293174)scale(0.1 -0.1)">
       <use xlink:href="#DejaVuSans-53"/>
       <use x="63.623047" xlink:href="#DejaVuSans-48"/>
       <use x="127.246094" xlink:href="#DejaVuSans-48"/>
      </g>
     </g>
    </g>
    <g id="ytick_3">
     <g id="line2d_11">
      <g>
       <use style="stroke:#000000;stroke-width:0.8;" x="59.135" xlink:href="#me9da81a56b" y="225.578166"/>
      </g>
     </g>
     <g id="text_12">
      <!-- 750 -->
      <g transform="translate(33.0475 229.377385)scale(0.1 -0.1)">
       <use xlink:href="#DejaVuSans-55"/>
       <use x="63.623047" xlink:href="#DejaVuSans-53"/>
       <use x="127.246094" xlink:href="#DejaVuSans-48"/>
      </g>
     </g>
    </g>
    <g id="ytick_4">
     <g id="line2d_12">
      <g>
       <use style="stroke:#000000;stroke-width:0.8;" x="59.135" xlink:href="#me9da81a56b" y="182.662377"/>
      </g>
     </g>
     <g id="text_13">
      <!-- 1000 -->
      <g transform="translate(26.685 186.461595)scale(0.1 -0.1)">
       <use xlink:href="#DejaVuSans-49"/>
       <use x="63.623047" xlink:href="#DejaVuSans-48"/>
       <use x="127.246094" xlink:href="#DejaVuSans-48"/>
       <use x="190.869141" xlink:href="#DejaVuSans-48"/>
      </g>
     </g>
    </g>
    <g id="ytick_5">
     <g id="line2d_13">
      <g>
       <use style="stroke:#000000;stroke-width:0.8;" x="59.135" xlink:href="#me9da81a56b" y="139.746587"/>
      </g>
     </g>
     <g id="text_14">
      <!-- 1250 -->
      <g transform="translate(26.685 143.545806)scale(0.1 -0.1)">
       <use xlink:href="#DejaVuSans-49"/>
       <use x="63.623047" xlink:href="#DejaVuSans-50"/>
       <use x="127.246094" xlink:href="#DejaVuSans-53"/>
       <use x="190.869141" xlink:href="#DejaVuSans-48"/>
      </g>
     </g>
    </g>
    <g id="ytick_6">
     <g id="line2d_14">
      <g>
       <use style="stroke:#000000;stroke-width:0.8;" x="59.135" xlink:href="#me9da81a56b" y="96.830798"/>
      </g>
     </g>
     <g id="text_15">
      <!-- 1500 -->
      <g transform="translate(26.685 100.630016)scale(0.1 -0.1)">
       <use xlink:href="#DejaVuSans-49"/>
       <use x="63.623047" xlink:href="#DejaVuSans-53"/>
       <use x="127.246094" xlink:href="#DejaVuSans-48"/>
       <use x="190.869141" xlink:href="#DejaVuSans-48"/>
      </g>
     </g>
    </g>
    <g id="ytick_7">
     <g id="line2d_15">
      <g>
       <use style="stroke:#000000;stroke-width:0.8;" x="59.135" xlink:href="#me9da81a56b" y="53.915008"/>
      </g>
     </g>
     <g id="text_16">
      <!-- 1750 -->
      <g transform="translate(26.685 57.714227)scale(0.1 -0.1)">
       <use xlink:href="#DejaVuSans-49"/>
       <use x="63.623047" xlink:href="#DejaVuSans-55"/>
       <use x="127.246094" xlink:href="#DejaVuSans-53"/>
       <use x="190.869141" xlink:href="#DejaVuSans-48"/>
      </g>
     </g>
    </g>
    <g id="ytick_8">
     <g id="line2d_16">
      <g>
       <use style="stroke:#000000;stroke-width:0.8;" x="59.135" xlink:href="#me9da81a56b" y="10.999219"/>
      </g>
     </g>
     <g id="text_17">
      <!-- 2000 -->
      <g transform="translate(26.685 14.798437)scale(0.1 -0.1)">
       <use xlink:href="#DejaVuSans-50"/>
       <use x="63.623047" xlink:href="#DejaVuSans-48"/>
       <use x="127.246094" xlink:href="#DejaVuSans-48"/>
       <use x="190.869141" xlink:href="#DejaVuSans-48"/>
      </g>
     </g>
    </g>
    <g id="text_18">
     <!-- Leaf area per basal area -->
     <defs>
      <path d="M 9.8125 72.90625 
L 19.671875 72.90625 
L 19.671875 8.296875 
L 55.171875 8.296875 
L 55.171875 0 
L 9.8125 0 
z
" id="DejaVuSans-76"/>
      <path d="M 56.203125 29.59375 
L 56.203125 25.203125 
L 14.890625 25.203125 
Q 15.484375 15.921875 20.484375 11.0625 
Q 25.484375 6.203125 34.421875 6.203125 
Q 39.59375 6.203125 44.453125 7.46875 
Q 49.3125 8.734375 54.109375 11.28125 
L 54.109375 2.78125 
Q 49.265625 0.734375 44.1875 -0.34375 
Q 39.109375 -1.421875 33.890625 -1.421875 
Q 20.796875 -1.421875 13.15625 6.1875 
Q 5.515625 13.8125 5.515625 26.8125 
Q 5.515625 40.234375 12.765625 48.109375 
Q 20.015625 56 32.328125 56 
Q 43.359375 56 49.78125 48.890625 
Q 56.203125 41.796875 56.203125 29.59375 
z
M 47.21875 32.234375 
Q 47.125 39.59375 43.09375 43.984375 
Q 39.0625 48.390625 32.421875 48.390625 
Q 24.90625 48.390625 20.390625 44.140625 
Q 15.875 39.890625 15.1875 32.171875 
z
" id="DejaVuSans-101"/>
      <path d="M 37.109375 75.984375 
L 37.109375 68.5 
L 28.515625 68.5 
Q 23.6875 68.5 21.796875 66.546875 
Q 19.921875 64.59375 19.921875 59.515625 
L 19.921875 54.6875 
L 34.71875 54.6875 
L 34.71875 47.703125 
L 19.921875 47.703125 
L 19.921875 0 
L 10.890625 0 
L 10.890625 47.703125 
L 2.296875 47.703125 
L 2.296875 54.6875 
L 10.890625 54.6875 
L 10.890625 58.5 
Q 10.890625 67.625 15.140625 71.796875 
Q 19.390625 75.984375 28.609375 75.984375 
z
" id="DejaVuSans-102"/>
      <path d="M 41.109375 46.296875 
Q 39.59375 47.171875 37.8125 47.578125 
Q 36.03125 48 33.890625 48 
Q 26.265625 48 22.1875 43.046875 
Q 18.109375 38.09375 18.109375 28.8125 
L 18.109375 0 
L 9.078125 0 
L 9.078125 54.6875 
L 18.109375 54.6875 
L 18.109375 46.1875 
Q 20.953125 51.171875 25.484375 53.578125 
Q 30.03125 56 36.53125 56 
Q 37.453125 56 38.578125 55.875 
Q 39.703125 55.765625 41.0625 55.515625 
z
" id="DejaVuSans-114"/>
      <path d="M 18.109375 8.203125 
L 18.109375 -20.796875 
L 9.078125 -20.796875 
L 9.078125 54.6875 
L 18.109375 54.6875 
L 18.109375 46.390625 
Q 20.953125 51.265625 25.265625 53.625 
Q 29.59375 56 35.59375 56 
Q 45.5625 56 51.78125 48.09375 
Q 58.015625 40.1875 58.015625 27.296875 
Q 58.015625 14.40625 51.78125 6.484375 
Q 45.5625 -1.421875 35.59375 -1.421875 
Q 29.59375 -1.421875 25.265625 0.953125 
Q 20.953125 3.328125 18.109375 8.203125 
z
M 48.6875 27.296875 
Q 48.6875 37.203125 44.609375 42.84375 
Q 40.53125 48.484375 33.40625 48.484375 
Q 26.265625 48.484375 22.1875 42.84375 
Q 18.109375 37.203125 18.109375 27.296875 
Q 18.109375 17.390625 22.1875 11.75 
Q 26.265625 6.109375 33.40625 6.109375 
Q 40.53125 6.109375 44.609375 11.75 
Q 48.6875 17.390625 48.6875 27.296875 
z
" id="DejaVuSans-112"/>
      <path d="M 48.6875 27.296875 
Q 48.6875 37.203125 44.609375 42.84375 
Q 40.53125 48.484375 33.40625 48.484375 
Q 26.265625 48.484375 22.1875 42.84375 
Q 18.109375 37.203125 18.109375 27.296875 
Q 18.109375 17.390625 22.1875 11.75 
Q 26.265625 6.109375 33.40625 6.109375 
Q 40.53125 6.109375 44.609375 11.75 
Q 48.6875 17.390625 48.6875 27.296875 
z
M 18.109375 46.390625 
Q 20.953125 51.265625 25.265625 53.625 
Q 29.59375 56 35.59375 56 
Q 45.5625 56 51.78125 48.09375 
Q 58.015625 40.1875 58.015625 27.296875 
Q 58.015625 14.40625 51.78125 6.484375 
Q 45.5625 -1.421875 35.59375 -1.421875 
Q 29.59375 -1.421875 25.265625 0.953125 
Q 20.953125 3.328125 18.109375 8.203125 
L 18.109375 0 
L 9.078125 0 
L 9.078125 75.984375 
L 18.109375 75.984375 
z
" id="DejaVuSans-98"/>
     </defs>
     <g transform="translate(19.3575 271.937969)rotate(-90)scale(0.16 -0.16)">
      <use xlink:href="#DejaVuSans-76"/>
      <use x="55.697266" xlink:href="#DejaVuSans-101"/>
      <use x="117.220703" xlink:href="#DejaVuSans-97"/>
      <use x="178.5" xlink:href="#DejaVuSans-102"/>
      <use x="213.705078" xlink:href="#DejaVuSans-32"/>
      <use x="245.492188" xlink:href="#DejaVuSans-97"/>
      <use x="306.771484" xlink:href="#DejaVuSans-114"/>
      <use x="347.853516" xlink:href="#DejaVuSans-101"/>
      <use x="409.376953" xlink:href="#DejaVuSans-97"/>
      <use x="470.65625" xlink:href="#DejaVuSans-32"/>
      <use x="502.443359" xlink:href="#DejaVuSans-112"/>
      <use x="565.919922" xlink:href="#DejaVuSans-101"/>
      <use x="627.443359" xlink:href="#DejaVuSans-114"/>
      <use x="668.556641" xlink:href="#DejaVuSans-32"/>
      <use x="700.34375" xlink:href="#DejaVuSans-98"/>
      <use x="763.820312" xlink:href="#DejaVuSans-97"/>
      <use x="825.099609" xlink:href="#DejaVuSans-115"/>
      <use x="877.199219" xlink:href="#DejaVuSans-97"/>
      <use x="938.478516" xlink:href="#DejaVuSans-108"/>
      <use x="966.261719" xlink:href="#DejaVuSans-32"/>
      <use x="998.048828" xlink:href="#DejaVuSans-97"/>
      <use x="1059.328125" xlink:href="#DejaVuSans-114"/>
      <use x="1100.410156" xlink:href="#DejaVuSans-101"/>
      <use x="1161.933594" xlink:href="#DejaVuSans-97"/>
     </g>
    </g>
   </g>
   <g id="line2d_17">
    <defs>
     <path d="M -5 0 
L 5 0 
M 0 5 
L 0 -5 
" id="m1644db75df" style="stroke:#ff0000;"/>
    </defs>
    <g clip-path="url(#p87af2bf474)">
     <use style="fill:#ff0000;stroke:#ff0000;" x="380.543" xlink:href="#m1644db75df" y="113.997113"/>
    </g>
   </g>
   <g id="patch_3">
    <path d="M 59.135 337.159219 
L 59.135 10.999219 
" style="fill:none;stroke:#000000;stroke-linecap:square;stroke-linejoin:miter;stroke-width:0.8;"/>
   </g>
   <g id="patch_4">
    <path d="M 460.895 337.159219 
L 460.895 10.999219 
" style="fill:none;stroke:#000000;stroke-linecap:square;stroke-linejoin:miter;stroke-width:0.8;"/>
   </g>
   <g id="patch_5">
    <path d="M 59.135 337.159219 
L 460.895 337.159219 
" style="fill:none;stroke:#000000;stroke-linecap:square;stroke-linejoin:miter;stroke-width:0.8;"/>
   </g>
   <g id="patch_6">
    <path d="M 59.135 10.999219 
L 460.895 10.999219 
" style="fill:none;stroke:#000000;stroke-linecap:square;stroke-linejoin:miter;stroke-width:0.8;"/>
   </g>
  </g>
  <g id="axes_2">
   <g id="patch_7">
    <path clip-path="url(#p3dc113543e)" d="M 486.005 337.159219 
L 486.005 290.564933 
L 486.005 57.593504 
L 486.005 10.999219 
L 502.313 10.999219 
L 502.313 57.593504 
L 502.313 290.564933 
L 502.313 337.159219 
z
" style="fill:#ffffff;stroke:#ffffff;stroke-linejoin:miter;stroke-width:0.01;"/>
   </g>
   <g id="QuadMesh_1">
    <path clip-path="url(#p3dc113543e)" d="M 486.005 337.159219 
L 502.313 337.159219 
L 502.313 290.564933 
L 486.005 290.564933 
L 486.005 337.159219 
" style="fill:#481b6d;"/>
    <path clip-path="url(#p3dc113543e)" d="M 486.005 290.564933 
L 502.313 290.564933 
L 502.313 243.970647 
L 486.005 243.970647 
L 486.005 290.564933 
" style="fill:#3f4788;"/>
    <path clip-path="url(#p3dc113543e)" d="M 486.005 243.970647 
L 502.313 243.970647 
L 502.313 197.376362 
L 486.005 197.376362 
L 486.005 243.970647 
" style="fill:#2e6e8e;"/>
    <path clip-path="url(#p3dc113543e)" d="M 486.005 197.376362 
L 502.313 197.376362 
L 502.313 150.782076 
L 486.005 150.782076 
L 486.005 197.376362 
" style="fill:#21918c;"/>
    <path clip-path="url(#p3dc113543e)" d="M 486.005 150.782076 
L 502.313 150.782076 
L 502.313 104.18779 
L 486.005 104.18779 
L 486.005 150.782076 
" style="fill:#2db27d;"/>
    <path clip-path="url(#p3dc113543e)" d="M 486.005 104.18779 
L 502.313 104.18779 
L 502.313 57.593504 
L 486.005 57.593504 
L 486.005 104.18779 
" style="fill:#73d056;"/>
    <path clip-path="url(#p3dc113543e)" d="M 486.005 57.593504 
L 502.313 57.593504 
L 502.313 10.999219 
L 486.005 10.999219 
L 486.005 57.593504 
" style="fill:#d0e11c;"/>
   </g>
   <g id="matplotlib.axis_3"/>
   <g id="matplotlib.axis_4">
    <g id="ytick_9">
     <g id="line2d_18">
      <defs>
       <path d="M 0 0 
L 3.5 0 
" id="m3a53cc81db" style="stroke:#000000;stroke-width:0.8;"/>
      </defs>
      <g>
       <use style="stroke:#000000;stroke-width:0.8;" x="502.313" xlink:href="#m3a53cc81db" y="337.159219"/>
      </g>
     </g>
     <g id="text_19">
      <!-- 0.00 -->
      <defs>
       <path d="M 10.6875 12.40625 
L 21 12.40625 
L 21 0 
L 10.6875 0 
z
" id="DejaVuSans-46"/>
      </defs>
      <g transform="translate(509.313 340.958437)scale(0.1 -0.1)">
       <use xlink:href="#DejaVuSans-48"/>
       <use x="63.623047" xlink:href="#DejaVuSans-46"/>
       <use x="95.410156" xlink:href="#DejaVuSans-48"/>
       <use x="159.033203" xlink:href="#DejaVuSans-48"/>
      </g>
     </g>
    </g>
    <g id="ytick_10">
     <g id="line2d_19">
      <g>
       <use style="stroke:#000000;stroke-width:0.8;" x="502.313" xlink:href="#m3a53cc81db" y="290.564933"/>
      </g>
     </g>
     <g id="text_20">
      <!-- 0.06 -->
      <g transform="translate(509.313 294.364152)scale(0.1 -0.1)">
       <use xlink:href="#DejaVuSans-48"/>
       <use x="63.623047" xlink:href="#DejaVuSans-46"/>
       <use x="95.410156" xlink:href="#DejaVuSans-48"/>
       <use x="159.033203" xlink:href="#DejaVuSans-54"/>
      </g>
     </g>
    </g>
    <g id="ytick_11">
     <g id="line2d_20">
      <g>
       <use style="stroke:#000000;stroke-width:0.8;" x="502.313" xlink:href="#m3a53cc81db" y="243.970647"/>
      </g>
     </g>
     <g id="text_21">
      <!-- 0.12 -->
      <g transform="translate(509.313 247.769866)scale(0.1 -0.1)">
       <use xlink:href="#DejaVuSans-48"/>
       <use x="63.623047" xlink:href="#DejaVuSans-46"/>
       <use x="95.410156" xlink:href="#DejaVuSans-49"/>
       <use x="159.033203" xlink:href="#DejaVuSans-50"/>
      </g>
     </g>
    </g>
    <g id="ytick_12">
     <g id="line2d_21">
      <g>
       <use style="stroke:#000000;stroke-width:0.8;" x="502.313" xlink:href="#m3a53cc81db" y="197.376362"/>
      </g>
     </g>
     <g id="text_22">
      <!-- 0.18 -->
      <g transform="translate(509.313 201.17558)scale(0.1 -0.1)">
       <use xlink:href="#DejaVuSans-48"/>
       <use x="63.623047" xlink:href="#DejaVuSans-46"/>
       <use x="95.410156" xlink:href="#DejaVuSans-49"/>
       <use x="159.033203" xlink:href="#DejaVuSans-56"/>
      </g>
     </g>
    </g>
    <g id="ytick_13">
     <g id="line2d_22">
      <g>
       <use style="stroke:#000000;stroke-width:0.8;" x="502.313" xlink:href="#m3a53cc81db" y="150.782076"/>
      </g>
     </g>
     <g id="text_23">
      <!-- 0.24 -->
      <g transform="translate(509.313 154.581295)scale(0.1 -0.1)">
       <use xlink:href="#DejaVuSans-48"/>
       <use x="63.623047" xlink:href="#DejaVuSans-46"/>
       <use x="95.410156" xlink:href="#DejaVuSans-50"/>
       <use x="159.033203" xlink:href="#DejaVuSans-52"/>
      </g>
     </g>
    </g>
    <g id="ytick_14">
     <g id="line2d_23">
      <g>
       <use style="stroke:#000000;stroke-width:0.8;" x="502.313" xlink:href="#m3a53cc81db" y="104.18779"/>
      </g>
     </g>
     <g id="text_24">
      <!-- 0.30 -->
      <g transform="translate(509.313 107.987009)scale(0.1 -0.1)">
       <use xlink:href="#DejaVuSans-48"/>
       <use x="63.623047" xlink:href="#DejaVuSans-46"/>
       <use x="95.410156" xlink:href="#DejaVuSans-51"/>
       <use x="159.033203" xlink:href="#DejaVuSans-48"/>
      </g>
     </g>
    </g>
    <g id="ytick_15">
     <g id="line2d_24">
      <g>
       <use style="stroke:#000000;stroke-width:0.8;" x="502.313" xlink:href="#m3a53cc81db" y="57.593504"/>
      </g>
     </g>
     <g id="text_25">
      <!-- 0.36 -->
      <g transform="translate(509.313 61.392723)scale(0.1 -0.1)">
       <use xlink:href="#DejaVuSans-48"/>
       <use x="63.623047" xlink:href="#DejaVuSans-46"/>
       <use x="95.410156" xlink:href="#DejaVuSans-51"/>
       <use x="159.033203" xlink:href="#DejaVuSans-54"/>
      </g>
     </g>
    </g>
    <g id="ytick_16">
     <g id="line2d_25">
      <g>
       <use style="stroke:#000000;stroke-width:0.8;" x="502.313" xlink:href="#m3a53cc81db" y="10.999219"/>
      </g>
     </g>
     <g id="text_26">
      <!-- 0.42 -->
      <g transform="translate(509.313 14.798437)scale(0.1 -0.1)">
       <use xlink:href="#DejaVuSans-48"/>
       <use x="63.623047" xlink:href="#DejaVuSans-46"/>
       <use x="95.410156" xlink:href="#DejaVuSans-52"/>
       <use x="159.033203" xlink:href="#DejaVuSans-50"/>
      </g>
     </g>
    </g>
   </g>
   <g id="patch_8">
    <path d="M 486.005 337.159219 
L 486.005 290.564933 
L 486.005 57.593504 
L 486.005 10.999219 
L 502.313 10.999219 
L 502.313 57.593504 
L 502.313 290.564933 
L 502.313 337.159219 
z
" style="fill:none;stroke:#000000;stroke-linejoin:miter;stroke-width:0.8;"/>
   </g>
  </g>
 </g>
 <defs>
  <clipPath id="p87af2bf474">
   <rect height="326.16" width="401.76" x="59.135" y="10.999219"/>
  </clipPath>
  <clipPath id="p3dc113543e">
   <rect height="326.16" width="16.308" x="486.005" y="10.999219"/>
  </clipPath>
 </defs>
</svg>
