<?xml version="1.0" encoding="utf-8" standalone="no"?>
<!DOCTYPE svg PUBLIC "-//W3C//DTD SVG 1.1//EN"
  "http://www.w3.org/Graphics/SVG/1.1/DTD/svg11.dtd">
<!-- Created with matplotlib (http://matplotlib.org/) -->
<svg height="382.797344pt" version="1.1" viewBox="0 0 538.778625 382.797344" width="538.778625pt" xmlns="http://www.w3.org/2000/svg" xmlns:xlink="http://www.w3.org/1999/xlink">
 <defs>
  <style type="text/css">
*{stroke-linecap:butt;stroke-linejoin:round;}
  </style>
 </defs>
 <g id="figure_1">
  <g id="patch_1">
   <path d="M 0 382.797344 
L 538.778625 382.797344 
L 538.778625 0 
L 0 0 
z
" style="fill:none;"/>
  </g>
  <g id="axes_1">
   <g id="patch_2">
    <path d="M 59.135 337.159219 
L 460.895 337.159219 
L 460.895 10.999219 
L 59.135 10.999219 
z
" style="fill:none;"/>
   </g>
   <g id="PathCollection_1">
    <path clip-path="url(#p71df0167fa)" d="M 103.775 337.159219 
L 106.183555 337.159219 
L 103.775 336.706786 
L 59.796449 319.992903 
L 59.135 319.502524 
L 59.135 319.992903 
L 59.135 337.159219 
z
" style="fill:#48186a;"/>
   </g>
   <g id="PathCollection_2">
    <path clip-path="url(#p71df0167fa)" d="M 103.775 336.706786 
L 106.183555 337.159219 
L 148.415 337.159219 
L 193.055 337.159219 
L 223.778622 337.159219 
L 193.055 334.247106 
L 148.415 328.118682 
L 113.909011 319.992903 
L 103.775 316.264981 
L 81.417827 302.826587 
L 64.566434 285.660271 
L 59.135 277.832815 
L 59.135 285.660271 
L 59.135 302.826587 
L 59.135 319.502524 
L 59.796449 319.992903 
z
" style="fill:#424086;"/>
   </g>
   <g id="PathCollection_3">
    <path clip-path="url(#p71df0167fa)" d="M 148.415 328.118682 
L 193.055 334.247106 
L 223.778622 337.159219 
L 237.695 337.159219 
L 282.335 337.159219 
L 326.975 337.159219 
L 371.615 337.159219 
L 407.501511 337.159219 
L 371.615 335.566772 
L 326.975 333.239074 
L 282.335 330.400457 
L 237.695 326.690758 
L 193.055 321.430918 
L 184.303899 319.992903 
L 148.415 311.328297 
L 125.510833 302.826587 
L 103.775 291.111752 
L 97.256907 285.660271 
L 82.357049 268.493956 
L 71.721624 251.32764 
L 63.550771 234.161324 
L 59.135 222.846157 
L 59.135 234.161324 
L 59.135 251.32764 
L 59.135 268.493956 
L 59.135 277.832815 
L 64.566434 285.660271 
L 81.417827 302.826587 
L 103.775 316.264981 
L 113.909011 319.992903 
z
" style="fill:#33638d;"/>
    <path clip-path="url(#p71df0167fa)" d="M 460.895 28.035667 
L 460.895 10.999219 
L 439.201833 10.999219 
z
" style="fill:#33638d;"/>
   </g>
   <g id="PathCollection_4">
    <path clip-path="url(#p71df0167fa)" d="M 193.055 321.430918 
L 237.695 326.690758 
L 282.335 330.400457 
L 326.975 333.239074 
L 371.615 335.566772 
L 407.501511 337.159219 
L 416.255 337.159219 
L 460.895 337.159219 
L 460.895 327.450648 
L 416.255 326.167295 
L 371.615 324.472056 
L 326.975 322.254071 
L 293.043792 319.992903 
L 282.335 318.947151 
L 237.695 313.114761 
L 193.055 305.012835 
L 184.524961 302.826587 
L 148.415 290.335882 
L 139.303639 285.660271 
L 114.370768 268.493956 
L 103.775 258.908195 
L 98.299418 251.32764 
L 88.479533 234.161324 
L 80.689441 216.995008 
L 74.342274 199.828692 
L 69.050722 182.662377 
L 64.549577 165.496061 
L 60.679115 148.329745 
L 59.135 140.509795 
L 59.135 148.329745 
L 59.135 165.496061 
L 59.135 182.662377 
L 59.135 199.828692 
L 59.135 216.995008 
L 59.135 222.846157 
L 63.550771 234.161324 
L 71.721624 251.32764 
L 82.357049 268.493956 
L 97.256907 285.660271 
L 103.775 291.111752 
L 125.510833 302.826587 
L 148.415 311.328297 
L 184.303899 319.992903 
z
" style="fill:#26828e;"/>
    <path clip-path="url(#p71df0167fa)" d="M 460.895 60.33315 
L 460.895 45.33185 
L 460.895 28.165535 
L 460.895 28.035667 
L 439.201833 10.999219 
L 416.255 10.999219 
L 397.434468 10.999219 
L 416.255 26.448214 
L 418.33268 28.165535 
L 438.363426 45.33185 
z
" style="fill:#26828e;"/>
   </g>
   <g id="PathCollection_5">
    <path clip-path="url(#p71df0167fa)" d="M 326.975 322.254071 
L 371.615 324.472056 
L 416.255 326.167295 
L 460.895 327.450648 
L 460.895 319.992903 
L 460.895 312.812352 
L 416.255 311.664305 
L 371.615 309.739485 
L 326.975 306.907628 
L 282.335 302.84978 
L 282.158392 302.826587 
L 237.695 295.330045 
L 197.756797 285.660271 
L 193.055 284.247037 
L 157.777455 268.493956 
L 148.415 263.252139 
L 134.20658 251.32764 
L 117.974707 234.161324 
L 104.741945 216.995008 
L 103.775 215.525822 
L 97.172151 199.828692 
L 91.21831 182.662377 
L 86.245877 165.496061 
L 82.087475 148.329745 
L 78.592618 131.163429 
L 75.585989 113.997113 
L 72.900617 96.830798 
L 70.663331 79.664482 
L 68.658392 62.498166 
L 66.964918 45.33185 
L 65.496661 28.165535 
L 64.229252 10.999219 
L 59.135 10.999219 
L 59.135 28.165535 
L 59.135 45.33185 
L 59.135 62.498166 
L 59.135 79.664482 
L 59.135 96.830798 
L 59.135 113.997113 
L 59.135 131.163429 
L 59.135 140.509795 
L 60.679115 148.329745 
L 64.549577 165.496061 
L 69.050722 182.662377 
L 74.342274 199.828692 
L 80.689441 216.995008 
L 88.479533 234.161324 
L 98.299418 251.32764 
L 103.775 258.908195 
L 114.370768 268.493956 
L 139.303639 285.660271 
L 148.415 290.335882 
L 184.524961 302.826587 
L 193.055 305.012835 
L 237.695 313.114761 
L 282.335 318.947151 
L 293.043792 319.992903 
z
" style="fill:#1fa088;"/>
    <path clip-path="url(#p71df0167fa)" d="M 460.895 99.147286 
L 460.895 96.830798 
L 460.895 79.664482 
L 460.895 62.498166 
L 460.895 60.33315 
L 438.363426 45.33185 
L 418.33268 28.165535 
L 416.255 26.448214 
L 397.434468 10.999219 
L 371.615 10.999219 
L 352.353564 10.999219 
L 371.615 27.585322 
L 372.262035 28.165535 
L 389.649624 45.33185 
L 412.183858 62.498166 
L 416.255 65.805405 
L 434.77661 79.664482 
L 457.70291 96.830798 
z
" style="fill:#1fa088;"/>
   </g>
   <g id="PathCollection_6">
    <path clip-path="url(#p71df0167fa)" d="M 282.335 302.84978 
L 326.975 306.907628 
L 371.615 309.739485 
L 416.255 311.664305 
L 460.895 312.812352 
L 460.895 302.826587 
L 460.895 289.299958 
L 416.255 289.848178 
L 371.615 288.887659 
L 326.975 286.288424 
L 320.970964 285.660271 
L 282.335 280.768121 
L 237.695 272.01467 
L 225.983062 268.493956 
L 193.055 256.549062 
L 183.616853 251.32764 
L 157.9465 234.161324 
L 148.415 226.68941 
L 140.462436 216.995008 
L 128.787067 199.828692 
L 119.072818 182.662377 
L 110.663721 165.496061 
L 103.775 149.42111 
L 103.495836 148.329745 
L 99.885827 131.163429 
L 96.907965 113.997113 
L 94.352201 96.830798 
L 92.50358 79.664482 
L 90.937186 62.498166 
L 89.940281 45.33185 
L 89.217704 28.165535 
L 88.725774 10.999219 
L 64.229252 10.999219 
L 65.496661 28.165535 
L 66.964918 45.33185 
L 68.658392 62.498166 
L 70.663331 79.664482 
L 72.900617 96.830798 
L 75.585989 113.997113 
L 78.592618 131.163429 
L 82.087475 148.329745 
L 86.245877 165.496061 
L 91.21831 182.662377 
L 97.172151 199.828692 
L 103.775 215.525822 
L 104.741945 216.995008 
L 117.974707 234.161324 
L 134.20658 251.32764 
L 148.415 263.252139 
L 157.777455 268.493956 
L 193.055 284.247037 
L 197.756797 285.660271 
L 237.695 295.330045 
L 282.158392 302.826587 
z
" style="fill:#3dbc74;"/>
    <path clip-path="url(#p71df0167fa)" d="M 460.895 145.256494 
L 460.895 131.163429 
L 460.895 113.997113 
L 460.895 99.147286 
L 457.70291 96.830798 
L 434.77661 79.664482 
L 416.255 65.805405 
L 412.183858 62.498166 
L 389.649624 45.33185 
L 372.262035 28.165535 
L 371.615 27.585322 
L 352.353564 10.999219 
L 326.975 10.999219 
L 301.457121 10.999219 
L 318.179923 28.165535 
L 326.975 35.461086 
L 337.611249 45.33185 
L 358.184081 62.498166 
L 371.615 75.4363 
L 375.860667 79.664482 
L 396.963059 96.830798 
L 416.255 112.293407 
L 418.425864 113.997113 
L 440.296485 131.163429 
z
" style="fill:#3dbc74;"/>
   </g>
   <g id="PathCollection_7">
    <path clip-path="url(#p71df0167fa)" d="M 326.975 286.288424 
L 371.615 288.887659 
L 416.255 289.848178 
L 460.895 289.299958 
L 460.895 285.660271 
L 460.895 268.493956 
L 460.895 251.32764 
L 460.895 234.161324 
L 460.895 216.995008 
L 460.895 199.828692 
L 460.895 182.662377 
L 460.895 165.496061 
L 460.895 148.329745 
L 460.895 145.256494 
L 440.296485 131.163429 
L 418.425864 113.997113 
L 416.255 112.293407 
L 396.963059 96.830798 
L 375.860667 79.664482 
L 371.615 75.4363 
L 358.184081 62.498166 
L 337.611249 45.33185 
L 326.975 35.461086 
L 318.179923 28.165535 
L 301.457121 10.999219 
L 282.335 10.999219 
L 237.695 10.999219 
L 232.457862 10.999219 
L 237.695 14.361419 
L 252.64621 28.165535 
L 269.696482 45.33185 
L 282.335 56.386546 
L 288.348925 62.498166 
L 306.649541 79.664482 
L 325.794745 96.830798 
L 326.975 97.807925 
L 344.319463 113.997113 
L 364.88399 131.163429 
L 371.615 138.156531 
L 380.948918 148.329745 
L 400.040619 165.496061 
L 415.71699 182.662377 
L 416.255 183.313931 
L 429.916256 199.828692 
L 438.224032 216.995008 
L 433.34363 234.161324 
L 416.255 244.431977 
L 389.832999 251.32764 
L 371.615 253.402089 
L 326.975 253.952304 
L 299.125107 251.32764 
L 282.335 249.470524 
L 237.695 238.485718 
L 227.548002 234.161324 
L 193.055 217.545986 
L 192.36516 216.995008 
L 174.426377 199.828692 
L 158.961951 182.662377 
L 148.415 169.579566 
L 146.529675 165.496061 
L 140.048625 148.329745 
L 135.253431 131.163429 
L 131.370547 113.997113 
L 128.043725 96.830798 
L 126.060371 79.664482 
L 124.77356 62.498166 
L 125.065399 45.33185 
L 126.27336 28.165535 
L 128.383163 10.999219 
L 103.775 10.999219 
L 88.725774 10.999219 
L 89.217704 28.165535 
L 89.940281 45.33185 
L 90.937186 62.498166 
L 92.50358 79.664482 
L 94.352201 96.830798 
L 96.907965 113.997113 
L 99.885827 131.163429 
L 103.495836 148.329745 
L 103.775 149.42111 
L 110.663721 165.496061 
L 119.072818 182.662377 
L 128.787067 199.828692 
L 140.462436 216.995008 
L 148.415 226.68941 
L 157.9465 234.161324 
L 183.616853 251.32764 
L 193.055 256.549062 
L 225.983062 268.493956 
L 237.695 272.01467 
L 282.335 280.768121 
L 320.970964 285.660271 
z
" style="fill:#84d44b;"/>
   </g>
   <g id="PathCollection_8">
    <path clip-path="url(#p71df0167fa)" d="M 326.975 253.952304 
L 371.615 253.402089 
L 389.832999 251.32764 
L 416.255 244.431977 
L 433.34363 234.161324 
L 438.224032 216.995008 
L 429.916256 199.828692 
L 416.255 183.313931 
L 415.71699 182.662377 
L 400.040619 165.496061 
L 380.948918 148.329745 
L 371.615 138.156531 
L 364.88399 131.163429 
L 344.319463 113.997113 
L 326.975 97.807925 
L 325.794745 96.830798 
L 306.649541 79.664482 
L 288.348925 62.498166 
L 282.335 56.386546 
L 269.696482 45.33185 
L 252.64621 28.165535 
L 237.695 14.361419 
L 232.457862 10.999219 
L 193.055 10.999219 
L 148.415 10.999219 
L 128.383163 10.999219 
L 126.27336 28.165535 
L 125.065399 45.33185 
L 124.77356 62.498166 
L 126.060371 79.664482 
L 128.043725 96.830798 
L 131.370547 113.997113 
L 135.253431 131.163429 
L 140.048625 148.329745 
L 146.529675 165.496061 
L 148.415 169.579566 
L 158.961951 182.662377 
L 174.426377 199.828692 
L 192.36516 216.995008 
L 193.055 217.545986 
L 227.548002 234.161324 
L 237.695 238.485718 
L 282.335 249.470524 
L 299.125107 251.32764 
z
" style="fill:#d5e21a;"/>
   </g>
   <g id="matplotlib.axis_1">
    <g id="xtick_1">
     <g id="line2d_1">
      <defs>
       <path d="M 0 0 
L 0 3.5 
" id="m6691783cc8" style="stroke:#000000;stroke-width:0.8;"/>
      </defs>
      <g>
       <use style="stroke:#000000;stroke-width:0.8;" x="59.135" xlink:href="#m6691783cc8" y="337.159219"/>
      </g>
     </g>
     <g id="text_1">
      <!-- 20 -->
      <defs>
       <path d="M 19.1875 8.296875 
L 53.609375 8.296875 
L 53.609375 0 
L 7.328125 0 
L 7.328125 8.296875 
Q 12.9375 14.109375 22.625 23.890625 
Q 32.328125 33.6875 34.8125 36.53125 
Q 39.546875 41.84375 41.421875 45.53125 
Q 43.3125 49.21875 43.3125 52.78125 
Q 43.3125 58.59375 39.234375 62.25 
Q 35.15625 65.921875 28.609375 65.921875 
Q 23.96875 65.921875 18.8125 64.3125 
Q 13.671875 62.703125 7.8125 59.421875 
L 7.8125 69.390625 
Q 13.765625 71.78125 18.9375 73 
Q 24.125 74.21875 28.421875 74.21875 
Q 39.75 74.21875 46.484375 68.546875 
Q 53.21875 62.890625 53.21875 53.421875 
Q 53.21875 48.921875 51.53125 44.890625 
Q 49.859375 40.875 45.40625 35.40625 
Q 44.1875 33.984375 37.640625 27.21875 
Q 31.109375 20.453125 19.1875 8.296875 
z
" id="DejaVuSans-32"/>
       <path d="M 31.78125 66.40625 
Q 24.171875 66.40625 20.328125 58.90625 
Q 16.5 51.421875 16.5 36.375 
Q 16.5 21.390625 20.328125 13.890625 
Q 24.171875 6.390625 31.78125 6.390625 
Q 39.453125 6.390625 43.28125 13.890625 
Q 47.125 21.390625 47.125 36.375 
Q 47.125 51.421875 43.28125 58.90625 
Q 39.453125 66.40625 31.78125 66.40625 
z
M 31.78125 74.21875 
Q 44.046875 74.21875 50.515625 64.515625 
Q 56.984375 54.828125 56.984375 36.375 
Q 56.984375 17.96875 50.515625 8.265625 
Q 44.046875 -1.421875 31.78125 -1.421875 
Q 19.53125 -1.421875 13.0625 8.265625 
Q 6.59375 17.96875 6.59375 36.375 
Q 6.59375 54.828125 13.0625 64.515625 
Q 19.53125 74.21875 31.78125 74.21875 
z
" id="DejaVuSans-30"/>
      </defs>
      <g transform="translate(52.7725 351.757656)scale(0.1 -0.1)">
       <use xlink:href="#DejaVuSans-32"/>
       <use x="63.623047" xlink:href="#DejaVuSans-30"/>
      </g>
     </g>
    </g>
    <g id="xtick_2">
     <g id="line2d_2">
      <g>
       <use style="stroke:#000000;stroke-width:0.8;" x="103.775" xlink:href="#m6691783cc8" y="337.159219"/>
      </g>
     </g>
     <g id="text_2">
      <!-- 40 -->
      <defs>
       <path d="M 37.796875 64.3125 
L 12.890625 25.390625 
L 37.796875 25.390625 
z
M 35.203125 72.90625 
L 47.609375 72.90625 
L 47.609375 25.390625 
L 58.015625 25.390625 
L 58.015625 17.1875 
L 47.609375 17.1875 
L 47.609375 0 
L 37.796875 0 
L 37.796875 17.1875 
L 4.890625 17.1875 
L 4.890625 26.703125 
z
" id="DejaVuSans-34"/>
      </defs>
      <g transform="translate(97.4125 351.757656)scale(0.1 -0.1)">
       <use xlink:href="#DejaVuSans-34"/>
       <use x="63.623047" xlink:href="#DejaVuSans-30"/>
      </g>
     </g>
    </g>
    <g id="xtick_3">
     <g id="line2d_3">
      <g>
       <use style="stroke:#000000;stroke-width:0.8;" x="148.415" xlink:href="#m6691783cc8" y="337.159219"/>
      </g>
     </g>
     <g id="text_3">
      <!-- 60 -->
      <defs>
       <path d="M 33.015625 40.375 
Q 26.375 40.375 22.484375 35.828125 
Q 18.609375 31.296875 18.609375 23.390625 
Q 18.609375 15.53125 22.484375 10.953125 
Q 26.375 6.390625 33.015625 6.390625 
Q 39.65625 6.390625 43.53125 10.953125 
Q 47.40625 15.53125 47.40625 23.390625 
Q 47.40625 31.296875 43.53125 35.828125 
Q 39.65625 40.375 33.015625 40.375 
z
M 52.59375 71.296875 
L 52.59375 62.3125 
Q 48.875 64.0625 45.09375 64.984375 
Q 41.3125 65.921875 37.59375 65.921875 
Q 27.828125 65.921875 22.671875 59.328125 
Q 17.53125 52.734375 16.796875 39.40625 
Q 19.671875 43.65625 24.015625 45.921875 
Q 28.375 48.1875 33.59375 48.1875 
Q 44.578125 48.1875 50.953125 41.515625 
Q 57.328125 34.859375 57.328125 23.390625 
Q 57.328125 12.15625 50.6875 5.359375 
Q 44.046875 -1.421875 33.015625 -1.421875 
Q 20.359375 -1.421875 13.671875 8.265625 
Q 6.984375 17.96875 6.984375 36.375 
Q 6.984375 53.65625 15.1875 63.9375 
Q 23.390625 74.21875 37.203125 74.21875 
Q 40.921875 74.21875 44.703125 73.484375 
Q 48.484375 72.75 52.59375 71.296875 
z
" id="DejaVuSans-36"/>
      </defs>
      <g transform="translate(142.0525 351.757656)scale(0.1 -0.1)">
       <use xlink:href="#DejaVuSans-36"/>
       <use x="63.623047" xlink:href="#DejaVuSans-30"/>
      </g>
     </g>
    </g>
    <g id="xtick_4">
     <g id="line2d_4">
      <g>
       <use style="stroke:#000000;stroke-width:0.8;" x="193.055" xlink:href="#m6691783cc8" y="337.159219"/>
      </g>
     </g>
     <g id="text_4">
      <!-- 80 -->
      <defs>
       <path d="M 31.78125 34.625 
Q 24.75 34.625 20.71875 30.859375 
Q 16.703125 27.09375 16.703125 20.515625 
Q 16.703125 13.921875 20.71875 10.15625 
Q 24.75 6.390625 31.78125 6.390625 
Q 38.8125 6.390625 42.859375 10.171875 
Q 46.921875 13.96875 46.921875 20.515625 
Q 46.921875 27.09375 42.890625 30.859375 
Q 38.875 34.625 31.78125 34.625 
z
M 21.921875 38.8125 
Q 15.578125 40.375 12.03125 44.71875 
Q 8.5 49.078125 8.5 55.328125 
Q 8.5 64.0625 14.71875 69.140625 
Q 20.953125 74.21875 31.78125 74.21875 
Q 42.671875 74.21875 48.875 69.140625 
Q 55.078125 64.0625 55.078125 55.328125 
Q 55.078125 49.078125 51.53125 44.71875 
Q 48 40.375 41.703125 38.8125 
Q 48.828125 37.15625 52.796875 32.3125 
Q 56.78125 27.484375 56.78125 20.515625 
Q 56.78125 9.90625 50.3125 4.234375 
Q 43.84375 -1.421875 31.78125 -1.421875 
Q 19.734375 -1.421875 13.25 4.234375 
Q 6.78125 9.90625 6.78125 20.515625 
Q 6.78125 27.484375 10.78125 32.3125 
Q 14.796875 37.15625 21.921875 38.8125 
z
M 18.3125 54.390625 
Q 18.3125 48.734375 21.84375 45.5625 
Q 25.390625 42.390625 31.78125 42.390625 
Q 38.140625 42.390625 41.71875 45.5625 
Q 45.3125 48.734375 45.3125 54.390625 
Q 45.3125 60.0625 41.71875 63.234375 
Q 38.140625 66.40625 31.78125 66.40625 
Q 25.390625 66.40625 21.84375 63.234375 
Q 18.3125 60.0625 18.3125 54.390625 
z
" id="DejaVuSans-38"/>
      </defs>
      <g transform="translate(186.6925 351.757656)scale(0.1 -0.1)">
       <use xlink:href="#DejaVuSans-38"/>
       <use x="63.623047" xlink:href="#DejaVuSans-30"/>
      </g>
     </g>
    </g>
    <g id="xtick_5">
     <g id="line2d_5">
      <g>
       <use style="stroke:#000000;stroke-width:0.8;" x="237.695" xlink:href="#m6691783cc8" y="337.159219"/>
      </g>
     </g>
     <g id="text_5">
      <!-- 100 -->
      <defs>
       <path d="M 12.40625 8.296875 
L 28.515625 8.296875 
L 28.515625 63.921875 
L 10.984375 60.40625 
L 10.984375 69.390625 
L 28.421875 72.90625 
L 38.28125 72.90625 
L 38.28125 8.296875 
L 54.390625 8.296875 
L 54.390625 0 
L 12.40625 0 
z
" id="DejaVuSans-31"/>
      </defs>
      <g transform="translate(228.15125 351.757656)scale(0.1 -0.1)">
       <use xlink:href="#DejaVuSans-31"/>
       <use x="63.623047" xlink:href="#DejaVuSans-30"/>
       <use x="127.246094" xlink:href="#DejaVuSans-30"/>
      </g>
     </g>
    </g>
    <g id="xtick_6">
     <g id="line2d_6">
      <g>
       <use style="stroke:#000000;stroke-width:0.8;" x="282.335" xlink:href="#m6691783cc8" y="337.159219"/>
      </g>
     </g>
     <g id="text_6">
      <!-- 120 -->
      <g transform="translate(272.79125 351.757656)scale(0.1 -0.1)">
       <use xlink:href="#DejaVuSans-31"/>
       <use x="63.623047" xlink:href="#DejaVuSans-32"/>
       <use x="127.246094" xlink:href="#DejaVuSans-30"/>
      </g>
     </g>
    </g>
    <g id="xtick_7">
     <g id="line2d_7">
      <g>
       <use style="stroke:#000000;stroke-width:0.8;" x="326.975" xlink:href="#m6691783cc8" y="337.159219"/>
      </g>
     </g>
     <g id="text_7">
      <!-- 140 -->
      <g transform="translate(317.43125 351.757656)scale(0.1 -0.1)">
       <use xlink:href="#DejaVuSans-31"/>
       <use x="63.623047" xlink:href="#DejaVuSans-34"/>
       <use x="127.246094" xlink:href="#DejaVuSans-30"/>
      </g>
     </g>
    </g>
    <g id="xtick_8">
     <g id="line2d_8">
      <g>
       <use style="stroke:#000000;stroke-width:0.8;" x="371.615" xlink:href="#m6691783cc8" y="337.159219"/>
      </g>
     </g>
     <g id="text_8">
      <!-- 160 -->
      <g transform="translate(362.07125 351.757656)scale(0.1 -0.1)">
       <use xlink:href="#DejaVuSans-31"/>
       <use x="63.623047" xlink:href="#DejaVuSans-36"/>
       <use x="127.246094" xlink:href="#DejaVuSans-30"/>
      </g>
     </g>
    </g>
    <g id="xtick_9">
     <g id="line2d_9">
      <g>
       <use style="stroke:#000000;stroke-width:0.8;" x="416.255" xlink:href="#m6691783cc8" y="337.159219"/>
      </g>
     </g>
     <g id="text_9">
      <!-- 180 -->
      <g transform="translate(406.71125 351.757656)scale(0.1 -0.1)">
       <use xlink:href="#DejaVuSans-31"/>
       <use x="63.623047" xlink:href="#DejaVuSans-38"/>
       <use x="127.246094" xlink:href="#DejaVuSans-30"/>
      </g>
     </g>
    </g>
    <g id="xtick_10">
     <g id="line2d_10">
      <g>
       <use style="stroke:#000000;stroke-width:0.8;" x="460.895" xlink:href="#m6691783cc8" y="337.159219"/>
      </g>
     </g>
     <g id="text_10">
      <!-- 200 -->
      <g transform="translate(451.35125 351.757656)scale(0.1 -0.1)">
       <use xlink:href="#DejaVuSans-32"/>
       <use x="63.623047" xlink:href="#DejaVuSans-30"/>
       <use x="127.246094" xlink:href="#DejaVuSans-30"/>
      </g>
     </g>
    </g>
    <g id="text_11">
     <!-- $V_\mathrm{cmax}$ ($\mathrm{\mu mol\ CO_2\ m^{-1}\ s^{-1}}$) -->
     <defs>
      <path d="M 20.609375 0 
L 7.8125 72.90625 
L 17.484375 72.90625 
L 28.078125 10.203125 
L 63.484375 72.90625 
L 74.21875 72.90625 
L 32.078125 0 
z
" id="DejaVuSans-Oblique-56"/>
      <path d="M 48.78125 52.59375 
L 48.78125 44.1875 
Q 44.96875 46.296875 41.140625 47.34375 
Q 37.3125 48.390625 33.40625 48.390625 
Q 24.65625 48.390625 19.8125 42.84375 
Q 14.984375 37.3125 14.984375 27.296875 
Q 14.984375 17.28125 19.8125 11.734375 
Q 24.65625 6.203125 33.40625 6.203125 
Q 37.3125 6.203125 41.140625 7.25 
Q 44.96875 8.296875 48.78125 10.40625 
L 48.78125 2.09375 
Q 45.015625 0.34375 40.984375 -0.53125 
Q 36.96875 -1.421875 32.421875 -1.421875 
Q 20.0625 -1.421875 12.78125 6.34375 
Q 5.515625 14.109375 5.515625 27.296875 
Q 5.515625 40.671875 12.859375 48.328125 
Q 20.21875 56 33.015625 56 
Q 37.15625 56 41.109375 55.140625 
Q 45.0625 54.296875 48.78125 52.59375 
z
" id="DejaVuSans-63"/>
      <path d="M 52 44.1875 
Q 55.375 50.25 60.0625 53.125 
Q 64.75 56 71.09375 56 
Q 79.640625 56 84.28125 50.015625 
Q 88.921875 44.046875 88.921875 33.015625 
L 88.921875 0 
L 79.890625 0 
L 79.890625 32.71875 
Q 79.890625 40.578125 77.09375 44.375 
Q 74.3125 48.1875 68.609375 48.1875 
Q 61.625 48.1875 57.5625 43.546875 
Q 53.515625 38.921875 53.515625 30.90625 
L 53.515625 0 
L 44.484375 0 
L 44.484375 32.71875 
Q 44.484375 40.625 41.703125 44.40625 
Q 38.921875 48.1875 33.109375 48.1875 
Q 26.21875 48.1875 22.15625 43.53125 
Q 18.109375 38.875 18.109375 30.90625 
L 18.109375 0 
L 9.078125 0 
L 9.078125 54.6875 
L 18.109375 54.6875 
L 18.109375 46.1875 
Q 21.1875 51.21875 25.484375 53.609375 
Q 29.78125 56 35.6875 56 
Q 41.65625 56 45.828125 52.96875 
Q 50 49.953125 52 44.1875 
z
" id="DejaVuSans-6d"/>
      <path d="M 34.28125 27.484375 
Q 23.390625 27.484375 19.1875 25 
Q 14.984375 22.515625 14.984375 16.5 
Q 14.984375 11.71875 18.140625 8.90625 
Q 21.296875 6.109375 26.703125 6.109375 
Q 34.1875 6.109375 38.703125 11.40625 
Q 43.21875 16.703125 43.21875 25.484375 
L 43.21875 27.484375 
z
M 52.203125 31.203125 
L 52.203125 0 
L 43.21875 0 
L 43.21875 8.296875 
Q 40.140625 3.328125 35.546875 0.953125 
Q 30.953125 -1.421875 24.3125 -1.421875 
Q 15.921875 -1.421875 10.953125 3.296875 
Q 6 8.015625 6 15.921875 
Q 6 25.140625 12.171875 29.828125 
Q 18.359375 34.515625 30.609375 34.515625 
L 43.21875 34.515625 
L 43.21875 35.40625 
Q 43.21875 41.609375 39.140625 45 
Q 35.0625 48.390625 27.6875 48.390625 
Q 23 48.390625 18.546875 47.265625 
Q 14.109375 46.140625 10.015625 43.890625 
L 10.015625 52.203125 
Q 14.9375 54.109375 19.578125 55.046875 
Q 24.21875 56 28.609375 56 
Q 40.484375 56 46.34375 49.84375 
Q 52.203125 43.703125 52.203125 31.203125 
z
" id="DejaVuSans-61"/>
      <path d="M 54.890625 54.6875 
L 35.109375 28.078125 
L 55.90625 0 
L 45.3125 0 
L 29.390625 21.484375 
L 13.484375 0 
L 2.875 0 
L 24.125 28.609375 
L 4.6875 54.6875 
L 15.28125 54.6875 
L 29.78125 35.203125 
L 44.28125 54.6875 
z
" id="DejaVuSans-78"/>
      <path id="DejaVuSans-20"/>
      <path d="M 31 75.875 
Q 24.46875 64.65625 21.28125 53.65625 
Q 18.109375 42.671875 18.109375 31.390625 
Q 18.109375 20.125 21.3125 9.0625 
Q 24.515625 -2 31 -13.1875 
L 23.1875 -13.1875 
Q 15.875 -1.703125 12.234375 9.375 
Q 8.59375 20.453125 8.59375 31.390625 
Q 8.59375 42.28125 12.203125 53.3125 
Q 15.828125 64.359375 23.1875 75.875 
z
" id="DejaVuSans-28"/>
      <path d="M 8.5 -20.796875 
L 8.5 54.6875 
L 17.484375 54.6875 
L 17.484375 20.703125 
Q 17.484375 13.625 20.84375 10 
Q 24.21875 6.390625 30.8125 6.390625 
Q 38.03125 6.390625 41.671875 10.484375 
Q 45.3125 14.59375 45.3125 22.796875 
L 45.3125 54.6875 
L 54.296875 54.6875 
L 54.296875 12.59375 
Q 54.296875 9.671875 55.140625 8.28125 
Q 56 6.890625 57.8125 6.890625 
Q 58.25 6.890625 59.03125 7.15625 
Q 59.8125 7.421875 61.1875 8.015625 
L 61.1875 0.78125 
Q 59.1875 -0.34375 57.390625 -0.875 
Q 55.609375 -1.421875 53.90625 -1.421875 
Q 50.53125 -1.421875 48.53125 0.484375 
Q 46.53125 2.390625 45.796875 6.296875 
Q 43.359375 2.4375 39.8125 0.5 
Q 36.28125 -1.421875 31.5 -1.421875 
Q 26.515625 -1.421875 23.015625 0.484375 
Q 19.53125 2.390625 17.484375 6.203125 
L 17.484375 -20.796875 
z
" id="DejaVuSans-3bc"/>
      <path d="M 30.609375 48.390625 
Q 23.390625 48.390625 19.1875 42.75 
Q 14.984375 37.109375 14.984375 27.296875 
Q 14.984375 17.484375 19.15625 11.84375 
Q 23.34375 6.203125 30.609375 6.203125 
Q 37.796875 6.203125 41.984375 11.859375 
Q 46.1875 17.53125 46.1875 27.296875 
Q 46.1875 37.015625 41.984375 42.703125 
Q 37.796875 48.390625 30.609375 48.390625 
z
M 30.609375 56 
Q 42.328125 56 49.015625 48.375 
Q 55.71875 40.765625 55.71875 27.296875 
Q 55.71875 13.875 49.015625 6.21875 
Q 42.328125 -1.421875 30.609375 -1.421875 
Q 18.84375 -1.421875 12.171875 6.21875 
Q 5.515625 13.875 5.515625 27.296875 
Q 5.515625 40.765625 12.171875 48.375 
Q 18.84375 56 30.609375 56 
z
" id="DejaVuSans-6f"/>
      <path d="M 9.421875 75.984375 
L 18.40625 75.984375 
L 18.40625 0 
L 9.421875 0 
z
" id="DejaVuSans-6c"/>
      <path d="M 64.40625 67.28125 
L 64.40625 56.890625 
Q 59.421875 61.53125 53.78125 63.8125 
Q 48.140625 66.109375 41.796875 66.109375 
Q 29.296875 66.109375 22.65625 58.46875 
Q 16.015625 50.828125 16.015625 36.375 
Q 16.015625 21.96875 22.65625 14.328125 
Q 29.296875 6.6875 41.796875 6.6875 
Q 48.140625 6.6875 53.78125 8.984375 
Q 59.421875 11.28125 64.40625 15.921875 
L 64.40625 5.609375 
Q 59.234375 2.09375 53.4375 0.328125 
Q 47.65625 -1.421875 41.21875 -1.421875 
Q 24.65625 -1.421875 15.125 8.703125 
Q 5.609375 18.84375 5.609375 36.375 
Q 5.609375 53.953125 15.125 64.078125 
Q 24.65625 74.21875 41.21875 74.21875 
Q 47.75 74.21875 53.53125 72.484375 
Q 59.328125 70.75 64.40625 67.28125 
z
" id="DejaVuSans-43"/>
      <path d="M 39.40625 66.21875 
Q 28.65625 66.21875 22.328125 58.203125 
Q 16.015625 50.203125 16.015625 36.375 
Q 16.015625 22.609375 22.328125 14.59375 
Q 28.65625 6.59375 39.40625 6.59375 
Q 50.140625 6.59375 56.421875 14.59375 
Q 62.703125 22.609375 62.703125 36.375 
Q 62.703125 50.203125 56.421875 58.203125 
Q 50.140625 66.21875 39.40625 66.21875 
z
M 39.40625 74.21875 
Q 54.734375 74.21875 63.90625 63.9375 
Q 73.09375 53.65625 73.09375 36.375 
Q 73.09375 19.140625 63.90625 8.859375 
Q 54.734375 -1.421875 39.40625 -1.421875 
Q 24.03125 -1.421875 14.8125 8.828125 
Q 5.609375 19.09375 5.609375 36.375 
Q 5.609375 53.65625 14.8125 63.9375 
Q 24.03125 74.21875 39.40625 74.21875 
z
" id="DejaVuSans-4f"/>
      <path d="M 10.59375 35.5 
L 73.1875 35.5 
L 73.1875 27.203125 
L 10.59375 27.203125 
z
" id="DejaVuSans-2212"/>
      <path d="M 44.28125 53.078125 
L 44.28125 44.578125 
Q 40.484375 46.53125 36.375 47.5 
Q 32.28125 48.484375 27.875 48.484375 
Q 21.1875 48.484375 17.84375 46.4375 
Q 14.5 44.390625 14.5 40.28125 
Q 14.5 37.15625 16.890625 35.375 
Q 19.28125 33.59375 26.515625 31.984375 
L 29.59375 31.296875 
Q 39.15625 29.25 43.1875 25.515625 
Q 47.21875 21.78125 47.21875 15.09375 
Q 47.21875 7.46875 41.1875 3.015625 
Q 35.15625 -1.421875 24.609375 -1.421875 
Q 20.21875 -1.421875 15.453125 -0.5625 
Q 10.6875 0.296875 5.421875 2 
L 5.421875 11.28125 
Q 10.40625 8.6875 15.234375 7.390625 
Q 20.0625 6.109375 24.8125 6.109375 
Q 31.15625 6.109375 34.5625 8.28125 
Q 37.984375 10.453125 37.984375 14.40625 
Q 37.984375 18.0625 35.515625 20.015625 
Q 33.0625 21.96875 24.703125 23.78125 
L 21.578125 24.515625 
Q 13.234375 26.265625 9.515625 29.90625 
Q 5.8125 33.546875 5.8125 39.890625 
Q 5.8125 47.609375 11.28125 51.796875 
Q 16.75 56 26.8125 56 
Q 31.78125 56 36.171875 55.265625 
Q 40.578125 54.546875 44.28125 53.078125 
z
" id="DejaVuSans-73"/>
      <path d="M 8.015625 75.875 
L 15.828125 75.875 
Q 23.140625 64.359375 26.78125 53.3125 
Q 30.421875 42.28125 30.421875 31.390625 
Q 30.421875 20.453125 26.78125 9.375 
Q 23.140625 -1.703125 15.828125 -13.1875 
L 8.015625 -13.1875 
Q 14.5 -2 17.703125 9.0625 
Q 20.90625 20.125 20.90625 31.390625 
Q 20.90625 42.671875 17.703125 53.65625 
Q 14.5 64.65625 8.015625 75.875 
z
" id="DejaVuSans-29"/>
     </defs>
     <g transform="translate(157.615 372.237344)scale(0.16 -0.16)">
      <use transform="translate(0 0.684375)" xlink:href="#DejaVuSans-Oblique-56"/>
      <use transform="translate(68.408203 -15.721875)scale(0.7)" xlink:href="#DejaVuSans-63"/>
      <use transform="translate(106.894531 -15.721875)scale(0.7)" xlink:href="#DejaVuSans-6d"/>
      <use transform="translate(175.083008 -15.721875)scale(0.7)" xlink:href="#DejaVuSans-61"/>
      <use transform="translate(217.978516 -15.721875)scale(0.7)" xlink:href="#DejaVuSans-78"/>
      <use transform="translate(262.138672 0.684375)" xlink:href="#DejaVuSans-20"/>
      <use transform="translate(293.925781 0.684375)" xlink:href="#DejaVuSans-28"/>
      <use transform="translate(332.939453 0.684375)" xlink:href="#DejaVuSans-3bc"/>
      <use transform="translate(396.5625 0.684375)" xlink:href="#DejaVuSans-6d"/>
      <use transform="translate(493.974609 0.684375)" xlink:href="#DejaVuSans-6f"/>
      <use transform="translate(555.15625 0.684375)" xlink:href="#DejaVuSans-6c"/>
      <use transform="translate(615.409832 0.684375)" xlink:href="#DejaVuSans-43"/>
      <use transform="translate(685.23405 0.684375)" xlink:href="#DejaVuSans-4f"/>
      <use transform="translate(764.902019 -15.721875)scale(0.7)" xlink:href="#DejaVuSans-32"/>
      <use transform="translate(844.642905 0.684375)" xlink:href="#DejaVuSans-6d"/>
      <use transform="translate(943.012046 38.965625)scale(0.7)" xlink:href="#DejaVuSans-2212"/>
      <use transform="translate(1001.66439 38.965625)scale(0.7)" xlink:href="#DejaVuSans-31"/>
      <use transform="translate(1081.405276 0.684375)" xlink:href="#DejaVuSans-73"/>
      <use transform="translate(1134.461917 38.965625)scale(0.7)" xlink:href="#DejaVuSans-2212"/>
      <use transform="translate(1193.11426 38.965625)scale(0.7)" xlink:href="#DejaVuSans-31"/>
      <use transform="translate(1240.384768 0.684375)" xlink:href="#DejaVuSans-29"/>
     </g>
    </g>
   </g>
   <g id="matplotlib.axis_2">
    <g id="ytick_1">
     <g id="line2d_11">
      <defs>
       <path d="M 0 0 
L -3.5 0 
" id="m87fd08ba3f" style="stroke:#000000;stroke-width:0.8;"/>
      </defs>
      <g>
       <use style="stroke:#000000;stroke-width:0.8;" x="59.135" xlink:href="#m87fd08ba3f" y="311.409745"/>
      </g>
     </g>
     <g id="text_12">
      <!-- 250 -->
      <defs>
       <path d="M 10.796875 72.90625 
L 49.515625 72.90625 
L 49.515625 64.59375 
L 19.828125 64.59375 
L 19.828125 46.734375 
Q 21.96875 47.46875 24.109375 47.828125 
Q 26.265625 48.1875 28.421875 48.1875 
Q 40.625 48.1875 47.75 41.5 
Q 54.890625 34.8125 54.890625 23.390625 
Q 54.890625 11.625 47.5625 5.09375 
Q 40.234375 -1.421875 26.90625 -1.421875 
Q 22.3125 -1.421875 17.546875 -0.640625 
Q 12.796875 0.140625 7.71875 1.703125 
L 7.71875 11.625 
Q 12.109375 9.234375 16.796875 8.0625 
Q 21.484375 6.890625 26.703125 6.890625 
Q 35.15625 6.890625 40.078125 11.328125 
Q 45.015625 15.765625 45.015625 23.390625 
Q 45.015625 31 40.078125 35.4375 
Q 35.15625 39.890625 26.703125 39.890625 
Q 22.75 39.890625 18.8125 39.015625 
Q 14.890625 38.140625 10.796875 36.28125 
z
" id="DejaVuSans-35"/>
      </defs>
      <g transform="translate(33.0475 315.208964)scale(0.1 -0.1)">
       <use xlink:href="#DejaVuSans-32"/>
       <use x="63.623047" xlink:href="#DejaVuSans-35"/>
       <use x="127.246094" xlink:href="#DejaVuSans-30"/>
      </g>
     </g>
    </g>
    <g id="ytick_2">
     <g id="line2d_12">
      <g>
       <use style="stroke:#000000;stroke-width:0.8;" x="59.135" xlink:href="#m87fd08ba3f" y="268.493956"/>
      </g>
     </g>
     <g id="text_13">
      <!-- 500 -->
      <g transform="translate(33.0475 272.293174)scale(0.1 -0.1)">
       <use xlink:href="#DejaVuSans-35"/>
       <use x="63.623047" xlink:href="#DejaVuSans-30"/>
       <use x="127.246094" xlink:href="#DejaVuSans-30"/>
      </g>
     </g>
    </g>
    <g id="ytick_3">
     <g id="line2d_13">
      <g>
       <use style="stroke:#000000;stroke-width:0.8;" x="59.135" xlink:href="#m87fd08ba3f" y="225.578166"/>
      </g>
     </g>
     <g id="text_14">
      <!-- 750 -->
      <defs>
       <path d="M 8.203125 72.90625 
L 55.078125 72.90625 
L 55.078125 68.703125 
L 28.609375 0 
L 18.3125 0 
L 43.21875 64.59375 
L 8.203125 64.59375 
z
" id="DejaVuSans-37"/>
      </defs>
      <g transform="translate(33.0475 229.377385)scale(0.1 -0.1)">
       <use xlink:href="#DejaVuSans-37"/>
       <use x="63.623047" xlink:href="#DejaVuSans-35"/>
       <use x="127.246094" xlink:href="#DejaVuSans-30"/>
      </g>
     </g>
    </g>
    <g id="ytick_4">
     <g id="line2d_14">
      <g>
       <use style="stroke:#000000;stroke-width:0.8;" x="59.135" xlink:href="#m87fd08ba3f" y="182.662377"/>
      </g>
     </g>
     <g id="text_15">
      <!-- 1000 -->
      <g transform="translate(26.685 186.461595)scale(0.1 -0.1)">
       <use xlink:href="#DejaVuSans-31"/>
       <use x="63.623047" xlink:href="#DejaVuSans-30"/>
       <use x="127.246094" xlink:href="#DejaVuSans-30"/>
       <use x="190.869141" xlink:href="#DejaVuSans-30"/>
      </g>
     </g>
    </g>
    <g id="ytick_5">
     <g id="line2d_15">
      <g>
       <use style="stroke:#000000;stroke-width:0.8;" x="59.135" xlink:href="#m87fd08ba3f" y="139.746587"/>
      </g>
     </g>
     <g id="text_16">
      <!-- 1250 -->
      <g transform="translate(26.685 143.545806)scale(0.1 -0.1)">
       <use xlink:href="#DejaVuSans-31"/>
       <use x="63.623047" xlink:href="#DejaVuSans-32"/>
       <use x="127.246094" xlink:href="#DejaVuSans-35"/>
       <use x="190.869141" xlink:href="#DejaVuSans-30"/>
      </g>
     </g>
    </g>
    <g id="ytick_6">
     <g id="line2d_16">
      <g>
       <use style="stroke:#000000;stroke-width:0.8;" x="59.135" xlink:href="#m87fd08ba3f" y="96.830798"/>
      </g>
     </g>
     <g id="text_17">
      <!-- 1500 -->
      <g transform="translate(26.685 100.630016)scale(0.1 -0.1)">
       <use xlink:href="#DejaVuSans-31"/>
       <use x="63.623047" xlink:href="#DejaVuSans-35"/>
       <use x="127.246094" xlink:href="#DejaVuSans-30"/>
       <use x="190.869141" xlink:href="#DejaVuSans-30"/>
      </g>
     </g>
    </g>
    <g id="ytick_7">
     <g id="line2d_17">
      <g>
       <use style="stroke:#000000;stroke-width:0.8;" x="59.135" xlink:href="#m87fd08ba3f" y="53.915008"/>
      </g>
     </g>
     <g id="text_18">
      <!-- 1750 -->
      <g transform="translate(26.685 57.714227)scale(0.1 -0.1)">
       <use xlink:href="#DejaVuSans-31"/>
       <use x="63.623047" xlink:href="#DejaVuSans-37"/>
       <use x="127.246094" xlink:href="#DejaVuSans-35"/>
       <use x="190.869141" xlink:href="#DejaVuSans-30"/>
      </g>
     </g>
    </g>
    <g id="ytick_8">
     <g id="line2d_18">
      <g>
       <use style="stroke:#000000;stroke-width:0.8;" x="59.135" xlink:href="#m87fd08ba3f" y="10.999219"/>
      </g>
     </g>
     <g id="text_19">
      <!-- 2000 -->
      <g transform="translate(26.685 14.798437)scale(0.1 -0.1)">
       <use xlink:href="#DejaVuSans-32"/>
       <use x="63.623047" xlink:href="#DejaVuSans-30"/>
       <use x="127.246094" xlink:href="#DejaVuSans-30"/>
       <use x="190.869141" xlink:href="#DejaVuSans-30"/>
      </g>
     </g>
    </g>
    <g id="text_20">
     <!-- Leaf area per basal area -->
     <defs>
      <path d="M 9.8125 72.90625 
L 19.671875 72.90625 
L 19.671875 8.296875 
L 55.171875 8.296875 
L 55.171875 0 
L 9.8125 0 
z
" id="DejaVuSans-4c"/>
      <path d="M 56.203125 29.59375 
L 56.203125 25.203125 
L 14.890625 25.203125 
Q 15.484375 15.921875 20.484375 11.0625 
Q 25.484375 6.203125 34.421875 6.203125 
Q 39.59375 6.203125 44.453125 7.46875 
Q 49.3125 8.734375 54.109375 11.28125 
L 54.109375 2.78125 
Q 49.265625 0.734375 44.1875 -0.34375 
Q 39.109375 -1.421875 33.890625 -1.421875 
Q 20.796875 -1.421875 13.15625 6.1875 
Q 5.515625 13.8125 5.515625 26.8125 
Q 5.515625 40.234375 12.765625 48.109375 
Q 20.015625 56 32.328125 56 
Q 43.359375 56 49.78125 48.890625 
Q 56.203125 41.796875 56.203125 29.59375 
z
M 47.21875 32.234375 
Q 47.125 39.59375 43.09375 43.984375 
Q 39.0625 48.390625 32.421875 48.390625 
Q 24.90625 48.390625 20.390625 44.140625 
Q 15.875 39.890625 15.1875 32.171875 
z
" id="DejaVuSans-65"/>
      <path d="M 37.109375 75.984375 
L 37.109375 68.5 
L 28.515625 68.5 
Q 23.6875 68.5 21.796875 66.546875 
Q 19.921875 64.59375 19.921875 59.515625 
L 19.921875 54.6875 
L 34.71875 54.6875 
L 34.71875 47.703125 
L 19.921875 47.703125 
L 19.921875 0 
L 10.890625 0 
L 10.890625 47.703125 
L 2.296875 47.703125 
L 2.296875 54.6875 
L 10.890625 54.6875 
L 10.890625 58.5 
Q 10.890625 67.625 15.140625 71.796875 
Q 19.390625 75.984375 28.609375 75.984375 
z
" id="DejaVuSans-66"/>
      <path d="M 41.109375 46.296875 
Q 39.59375 47.171875 37.8125 47.578125 
Q 36.03125 48 33.890625 48 
Q 26.265625 48 22.1875 43.046875 
Q 18.109375 38.09375 18.109375 28.8125 
L 18.109375 0 
L 9.078125 0 
L 9.078125 54.6875 
L 18.109375 54.6875 
L 18.109375 46.1875 
Q 20.953125 51.171875 25.484375 53.578125 
Q 30.03125 56 36.53125 56 
Q 37.453125 56 38.578125 55.875 
Q 39.703125 55.765625 41.0625 55.515625 
z
" id="DejaVuSans-72"/>
      <path d="M 18.109375 8.203125 
L 18.109375 -20.796875 
L 9.078125 -20.796875 
L 9.078125 54.6875 
L 18.109375 54.6875 
L 18.109375 46.390625 
Q 20.953125 51.265625 25.265625 53.625 
Q 29.59375 56 35.59375 56 
Q 45.5625 56 51.78125 48.09375 
Q 58.015625 40.1875 58.015625 27.296875 
Q 58.015625 14.40625 51.78125 6.484375 
Q 45.5625 -1.421875 35.59375 -1.421875 
Q 29.59375 -1.421875 25.265625 0.953125 
Q 20.953125 3.328125 18.109375 8.203125 
z
M 48.6875 27.296875 
Q 48.6875 37.203125 44.609375 42.84375 
Q 40.53125 48.484375 33.40625 48.484375 
Q 26.265625 48.484375 22.1875 42.84375 
Q 18.109375 37.203125 18.109375 27.296875 
Q 18.109375 17.390625 22.1875 11.75 
Q 26.265625 6.109375 33.40625 6.109375 
Q 40.53125 6.109375 44.609375 11.75 
Q 48.6875 17.390625 48.6875 27.296875 
z
" id="DejaVuSans-70"/>
      <path d="M 48.6875 27.296875 
Q 48.6875 37.203125 44.609375 42.84375 
Q 40.53125 48.484375 33.40625 48.484375 
Q 26.265625 48.484375 22.1875 42.84375 
Q 18.109375 37.203125 18.109375 27.296875 
Q 18.109375 17.390625 22.1875 11.75 
Q 26.265625 6.109375 33.40625 6.109375 
Q 40.53125 6.109375 44.609375 11.75 
Q 48.6875 17.390625 48.6875 27.296875 
z
M 18.109375 46.390625 
Q 20.953125 51.265625 25.265625 53.625 
Q 29.59375 56 35.59375 56 
Q 45.5625 56 51.78125 48.09375 
Q 58.015625 40.1875 58.015625 27.296875 
Q 58.015625 14.40625 51.78125 6.484375 
Q 45.5625 -1.421875 35.59375 -1.421875 
Q 29.59375 -1.421875 25.265625 0.953125 
Q 20.953125 3.328125 18.109375 8.203125 
L 18.109375 0 
L 9.078125 0 
L 9.078125 75.984375 
L 18.109375 75.984375 
z
" id="DejaVuSans-62"/>
     </defs>
     <g transform="translate(19.3575 271.937969)rotate(-90)scale(0.16 -0.16)">
      <use xlink:href="#DejaVuSans-4c"/>
      <use x="55.697266" xlink:href="#DejaVuSans-65"/>
      <use x="117.220703" xlink:href="#DejaVuSans-61"/>
      <use x="178.5" xlink:href="#DejaVuSans-66"/>
      <use x="213.705078" xlink:href="#DejaVuSans-20"/>
      <use x="245.492188" xlink:href="#DejaVuSans-61"/>
      <use x="306.771484" xlink:href="#DejaVuSans-72"/>
      <use x="347.853516" xlink:href="#DejaVuSans-65"/>
      <use x="409.376953" xlink:href="#DejaVuSans-61"/>
      <use x="470.65625" xlink:href="#DejaVuSans-20"/>
      <use x="502.443359" xlink:href="#DejaVuSans-70"/>
      <use x="565.919922" xlink:href="#DejaVuSans-65"/>
      <use x="627.443359" xlink:href="#DejaVuSans-72"/>
      <use x="668.556641" xlink:href="#DejaVuSans-20"/>
      <use x="700.34375" xlink:href="#DejaVuSans-62"/>
      <use x="763.820312" xlink:href="#DejaVuSans-61"/>
      <use x="825.099609" xlink:href="#DejaVuSans-73"/>
      <use x="877.199219" xlink:href="#DejaVuSans-61"/>
      <use x="938.478516" xlink:href="#DejaVuSans-6c"/>
      <use x="966.261719" xlink:href="#DejaVuSans-20"/>
      <use x="998.048828" xlink:href="#DejaVuSans-61"/>
      <use x="1059.328125" xlink:href="#DejaVuSans-72"/>
      <use x="1100.410156" xlink:href="#DejaVuSans-65"/>
      <use x="1161.933594" xlink:href="#DejaVuSans-61"/>
     </g>
    </g>
   </g>
   <g id="line2d_19">
    <defs>
     <path d="M -5 0 
L 5 0 
M 0 5 
L 0 -5 
" id="m33e1af3355" style="stroke:#ff0000;"/>
    </defs>
    <g clip-path="url(#p71df0167fa)">
     <use style="fill:#ff0000;stroke:#ff0000;" x="237.695" xlink:href="#m33e1af3355" y="148.329745"/>
    </g>
   </g>
   <g id="patch_3">
    <path d="M 59.135 337.159219 
L 59.135 10.999219 
" style="fill:none;stroke:#000000;stroke-linecap:square;stroke-linejoin:miter;stroke-width:0.8;"/>
   </g>
   <g id="patch_4">
    <path d="M 460.895 337.159219 
L 460.895 10.999219 
" style="fill:none;stroke:#000000;stroke-linecap:square;stroke-linejoin:miter;stroke-width:0.8;"/>
   </g>
   <g id="patch_5">
    <path d="M 59.135 337.159219 
L 460.895 337.159219 
" style="fill:none;stroke:#000000;stroke-linecap:square;stroke-linejoin:miter;stroke-width:0.8;"/>
   </g>
   <g id="patch_6">
    <path d="M 59.135 10.999219 
L 460.895 10.999219 
" style="fill:none;stroke:#000000;stroke-linecap:square;stroke-linejoin:miter;stroke-width:0.8;"/>
   </g>
  </g>
  <g id="axes_2">
   <g id="patch_7">
    <path clip-path="url(#p57c3cb01b7)" d="M 486.005 337.159219 
L 486.005 296.389219 
L 486.005 51.769219 
L 486.005 10.999219 
L 502.313 10.999219 
L 502.313 51.769219 
L 502.313 296.389219 
L 502.313 337.159219 
z
" style="fill:#ffffff;stroke:#ffffff;stroke-linejoin:miter;stroke-width:0.01;"/>
   </g>
   <g id="QuadMesh_1">
    <path clip-path="url(#p57c3cb01b7)" d="M 486.005 337.159219 
L 502.313 337.159219 
L 502.313 296.389219 
L 486.005 296.389219 
L 486.005 337.159219 
" style="fill:#48186a;"/>
    <path clip-path="url(#p57c3cb01b7)" d="M 486.005 296.389219 
L 502.313 296.389219 
L 502.313 255.619219 
L 486.005 255.619219 
L 486.005 296.389219 
" style="fill:#424086;"/>
    <path clip-path="url(#p57c3cb01b7)" d="M 486.005 255.619219 
L 502.313 255.619219 
L 502.313 214.849219 
L 486.005 214.849219 
L 486.005 255.619219 
" style="fill:#33638d;"/>
    <path clip-path="url(#p57c3cb01b7)" d="M 486.005 214.849219 
L 502.313 214.849219 
L 502.313 174.079219 
L 486.005 174.079219 
L 486.005 214.849219 
" style="fill:#26828e;"/>
    <path clip-path="url(#p57c3cb01b7)" d="M 486.005 174.079219 
L 502.313 174.079219 
L 502.313 133.309219 
L 486.005 133.309219 
L 486.005 174.079219 
" style="fill:#1fa088;"/>
    <path clip-path="url(#p57c3cb01b7)" d="M 486.005 133.309219 
L 502.313 133.309219 
L 502.313 92.539219 
L 486.005 92.539219 
L 486.005 133.309219 
" style="fill:#3dbc74;"/>
    <path clip-path="url(#p57c3cb01b7)" d="M 486.005 92.539219 
L 502.313 92.539219 
L 502.313 51.769219 
L 486.005 51.769219 
L 486.005 92.539219 
" style="fill:#84d44b;"/>
    <path clip-path="url(#p57c3cb01b7)" d="M 486.005 51.769219 
L 502.313 51.769219 
L 502.313 10.999219 
L 486.005 10.999219 
L 486.005 51.769219 
" style="fill:#d5e21a;"/>
   </g>
   <g id="matplotlib.axis_3"/>
   <g id="matplotlib.axis_4">
    <g id="ytick_9">
     <g id="line2d_20">
      <defs>
       <path d="M 0 0 
L 3.5 0 
" id="mb55ef001ba" style="stroke:#000000;stroke-width:0.8;"/>
      </defs>
      <g>
       <use style="stroke:#000000;stroke-width:0.8;" x="502.313" xlink:href="#mb55ef001ba" y="337.159219"/>
      </g>
     </g>
     <g id="text_21">
      <!-- 0.00 -->
      <defs>
       <path d="M 10.6875 12.40625 
L 21 12.40625 
L 21 0 
L 10.6875 0 
z
" id="DejaVuSans-2e"/>
      </defs>
      <g transform="translate(509.313 340.958437)scale(0.1 -0.1)">
       <use xlink:href="#DejaVuSans-30"/>
       <use x="63.623047" xlink:href="#DejaVuSans-2e"/>
       <use x="95.410156" xlink:href="#DejaVuSans-30"/>
       <use x="159.033203" xlink:href="#DejaVuSans-30"/>
      </g>
     </g>
    </g>
    <g id="ytick_10">
     <g id="line2d_21">
      <g>
       <use style="stroke:#000000;stroke-width:0.8;" x="502.313" xlink:href="#mb55ef001ba" y="296.389219"/>
      </g>
     </g>
     <g id="text_22">
      <!-- 0.06 -->
      <g transform="translate(509.313 300.188437)scale(0.1 -0.1)">
       <use xlink:href="#DejaVuSans-30"/>
       <use x="63.623047" xlink:href="#DejaVuSans-2e"/>
       <use x="95.410156" xlink:href="#DejaVuSans-30"/>
       <use x="159.033203" xlink:href="#DejaVuSans-36"/>
      </g>
     </g>
    </g>
    <g id="ytick_11">
     <g id="line2d_22">
      <g>
       <use style="stroke:#000000;stroke-width:0.8;" x="502.313" xlink:href="#mb55ef001ba" y="255.619219"/>
      </g>
     </g>
     <g id="text_23">
      <!-- 0.12 -->
      <g transform="translate(509.313 259.418437)scale(0.1 -0.1)">
       <use xlink:href="#DejaVuSans-30"/>
       <use x="63.623047" xlink:href="#DejaVuSans-2e"/>
       <use x="95.410156" xlink:href="#DejaVuSans-31"/>
       <use x="159.033203" xlink:href="#DejaVuSans-32"/>
      </g>
     </g>
    </g>
    <g id="ytick_12">
     <g id="line2d_23">
      <g>
       <use style="stroke:#000000;stroke-width:0.8;" x="502.313" xlink:href="#mb55ef001ba" y="214.849219"/>
      </g>
     </g>
     <g id="text_24">
      <!-- 0.18 -->
      <g transform="translate(509.313 218.648437)scale(0.1 -0.1)">
       <use xlink:href="#DejaVuSans-30"/>
       <use x="63.623047" xlink:href="#DejaVuSans-2e"/>
       <use x="95.410156" xlink:href="#DejaVuSans-31"/>
       <use x="159.033203" xlink:href="#DejaVuSans-38"/>
      </g>
     </g>
    </g>
    <g id="ytick_13">
     <g id="line2d_24">
      <g>
       <use style="stroke:#000000;stroke-width:0.8;" x="502.313" xlink:href="#mb55ef001ba" y="174.079219"/>
      </g>
     </g>
     <g id="text_25">
      <!-- 0.24 -->
      <g transform="translate(509.313 177.878437)scale(0.1 -0.1)">
       <use xlink:href="#DejaVuSans-30"/>
       <use x="63.623047" xlink:href="#DejaVuSans-2e"/>
       <use x="95.410156" xlink:href="#DejaVuSans-32"/>
       <use x="159.033203" xlink:href="#DejaVuSans-34"/>
      </g>
     </g>
    </g>
    <g id="ytick_14">
     <g id="line2d_25">
      <g>
       <use style="stroke:#000000;stroke-width:0.8;" x="502.313" xlink:href="#mb55ef001ba" y="133.309219"/>
      </g>
     </g>
     <g id="text_26">
      <!-- 0.30 -->
      <defs>
       <path d="M 40.578125 39.3125 
Q 47.65625 37.796875 51.625 33 
Q 55.609375 28.21875 55.609375 21.1875 
Q 55.609375 10.40625 48.1875 4.484375 
Q 40.765625 -1.421875 27.09375 -1.421875 
Q 22.515625 -1.421875 17.65625 -0.515625 
Q 12.796875 0.390625 7.625 2.203125 
L 7.625 11.71875 
Q 11.71875 9.328125 16.59375 8.109375 
Q 21.484375 6.890625 26.8125 6.890625 
Q 36.078125 6.890625 40.9375 10.546875 
Q 45.796875 14.203125 45.796875 21.1875 
Q 45.796875 27.640625 41.28125 31.265625 
Q 36.765625 34.90625 28.71875 34.90625 
L 20.21875 34.90625 
L 20.21875 43.015625 
L 29.109375 43.015625 
Q 36.375 43.015625 40.234375 45.921875 
Q 44.09375 48.828125 44.09375 54.296875 
Q 44.09375 59.90625 40.109375 62.90625 
Q 36.140625 65.921875 28.71875 65.921875 
Q 24.65625 65.921875 20.015625 65.03125 
Q 15.375 64.15625 9.8125 62.3125 
L 9.8125 71.09375 
Q 15.4375 72.65625 20.34375 73.4375 
Q 25.25 74.21875 29.59375 74.21875 
Q 40.828125 74.21875 47.359375 69.109375 
Q 53.90625 64.015625 53.90625 55.328125 
Q 53.90625 49.265625 50.4375 45.09375 
Q 46.96875 40.921875 40.578125 39.3125 
z
" id="DejaVuSans-33"/>
      </defs>
      <g transform="translate(509.313 137.108437)scale(0.1 -0.1)">
       <use xlink:href="#DejaVuSans-30"/>
       <use x="63.623047" xlink:href="#DejaVuSans-2e"/>
       <use x="95.410156" xlink:href="#DejaVuSans-33"/>
       <use x="159.033203" xlink:href="#DejaVuSans-30"/>
      </g>
     </g>
    </g>
    <g id="ytick_15">
     <g id="line2d_26">
      <g>
       <use style="stroke:#000000;stroke-width:0.8;" x="502.313" xlink:href="#mb55ef001ba" y="92.539219"/>
      </g>
     </g>
     <g id="text_27">
      <!-- 0.36 -->
      <g transform="translate(509.313 96.338437)scale(0.1 -0.1)">
       <use xlink:href="#DejaVuSans-30"/>
       <use x="63.623047" xlink:href="#DejaVuSans-2e"/>
       <use x="95.410156" xlink:href="#DejaVuSans-33"/>
       <use x="159.033203" xlink:href="#DejaVuSans-36"/>
      </g>
     </g>
    </g>
    <g id="ytick_16">
     <g id="line2d_27">
      <g>
       <use style="stroke:#000000;stroke-width:0.8;" x="502.313" xlink:href="#mb55ef001ba" y="51.769219"/>
      </g>
     </g>
     <g id="text_28">
      <!-- 0.42 -->
      <g transform="translate(509.313 55.568437)scale(0.1 -0.1)">
       <use xlink:href="#DejaVuSans-30"/>
       <use x="63.623047" xlink:href="#DejaVuSans-2e"/>
       <use x="95.410156" xlink:href="#DejaVuSans-34"/>
       <use x="159.033203" xlink:href="#DejaVuSans-32"/>
      </g>
     </g>
    </g>
    <g id="ytick_17">
     <g id="line2d_28">
      <g>
       <use style="stroke:#000000;stroke-width:0.8;" x="502.313" xlink:href="#mb55ef001ba" y="10.999219"/>
      </g>
     </g>
     <g id="text_29">
      <!-- 0.48 -->
      <g transform="translate(509.313 14.798437)scale(0.1 -0.1)">
       <use xlink:href="#DejaVuSans-30"/>
       <use x="63.623047" xlink:href="#DejaVuSans-2e"/>
       <use x="95.410156" xlink:href="#DejaVuSans-34"/>
       <use x="159.033203" xlink:href="#DejaVuSans-38"/>
      </g>
     </g>
    </g>
   </g>
   <g id="patch_8">
    <path d="M 486.005 337.159219 
L 486.005 296.389219 
L 486.005 51.769219 
L 486.005 10.999219 
L 502.313 10.999219 
L 502.313 51.769219 
L 502.313 296.389219 
L 502.313 337.159219 
z
" style="fill:none;stroke:#000000;stroke-linejoin:miter;stroke-width:0.8;"/>
   </g>
  </g>
 </g>
 <defs>
  <clipPath id="p71df0167fa">
   <rect height="326.16" width="401.76" x="59.135" y="10.999219"/>
  </clipPath>
  <clipPath id="p57c3cb01b7">
   <rect height="326.16" width="16.308" x="486.005" y="10.999219"/>
  </clipPath>
 </defs>
</svg>
