<?xml version="1.0" encoding="utf-8" standalone="no"?>
<!DOCTYPE svg PUBLIC "-//W3C//DTD SVG 1.1//EN"
  "http://www.w3.org/Graphics/SVG/1.1/DTD/svg11.dtd">
<!-- Created with matplotlib (http://matplotlib.org/) -->
<svg height="363.545pt" version="1.1" viewBox="0 0 595.385 363.545" width="595.385pt" xmlns="http://www.w3.org/2000/svg" xmlns:xlink="http://www.w3.org/1999/xlink">
 <defs>
  <style type="text/css">
*{stroke-linecap:butt;stroke-linejoin:round;}
  </style>
 </defs>
 <g id="figure_1">
  <g id="patch_1">
   <path d="M 0 363.545 
L 595.385 363.545 
L 595.385 0 
L 0 0 
z
" style="fill:none;"/>
  </g>
  <g id="axes_1">
   <g id="patch_2">
    <path d="M 26.685 336.86 
L 584.685 336.86 
L 584.685 10.7 
L 26.685 10.7 
z
" style="fill:none;"/>
   </g>
   <g id="patch_3">
    <path clip-path="url(#p5e40774c90)" d="M 198.211965 123.601538 
L 215.40765 148.690769 
L 206.809807 148.690769 
L 206.809807 173.78 
L 189.614122 173.78 
L 189.614122 148.690769 
L 181.016279 148.690769 
z
" style="fill:#ff0000;opacity:0.7;stroke:#ff0000;stroke-linejoin:miter;"/>
   </g>
   <g id="patch_4">
    <path clip-path="url(#p5e40774c90)" d="M 395.96235 173.78 
L 378.766664 148.690769 
L 387.364507 148.690769 
L 387.364507 123.601538 
L 404.560193 123.601538 
L 404.560193 148.690769 
L 413.158035 148.690769 
z
" style="fill:#ff0000;opacity:0.7;stroke:#ff0000;stroke-linejoin:miter;"/>
   </g>
   <g id="matplotlib.axis_1">
    <g id="text_1">
     <!-- History                                  Novel -->
     <defs>
      <path d="M 9.8125 72.90625 
L 19.671875 72.90625 
L 19.671875 43.015625 
L 55.515625 43.015625 
L 55.515625 72.90625 
L 65.375 72.90625 
L 65.375 0 
L 55.515625 0 
L 55.515625 34.71875 
L 19.671875 34.71875 
L 19.671875 0 
L 9.8125 0 
z
" id="DejaVuSans-48"/>
      <path d="M 9.421875 54.6875 
L 18.40625 54.6875 
L 18.40625 0 
L 9.421875 0 
z
M 9.421875 75.984375 
L 18.40625 75.984375 
L 18.40625 64.59375 
L 9.421875 64.59375 
z
" id="DejaVuSans-69"/>
      <path d="M 44.28125 53.078125 
L 44.28125 44.578125 
Q 40.484375 46.53125 36.375 47.5 
Q 32.28125 48.484375 27.875 48.484375 
Q 21.1875 48.484375 17.84375 46.4375 
Q 14.5 44.390625 14.5 40.28125 
Q 14.5 37.15625 16.890625 35.375 
Q 19.28125 33.59375 26.515625 31.984375 
L 29.59375 31.296875 
Q 39.15625 29.25 43.1875 25.515625 
Q 47.21875 21.78125 47.21875 15.09375 
Q 47.21875 7.46875 41.1875 3.015625 
Q 35.15625 -1.421875 24.609375 -1.421875 
Q 20.21875 -1.421875 15.453125 -0.5625 
Q 10.6875 0.296875 5.421875 2 
L 5.421875 11.28125 
Q 10.40625 8.6875 15.234375 7.390625 
Q 20.0625 6.109375 24.8125 6.109375 
Q 31.15625 6.109375 34.5625 8.28125 
Q 37.984375 10.453125 37.984375 14.40625 
Q 37.984375 18.0625 35.515625 20.015625 
Q 33.0625 21.96875 24.703125 23.78125 
L 21.578125 24.515625 
Q 13.234375 26.265625 9.515625 29.90625 
Q 5.8125 33.546875 5.8125 39.890625 
Q 5.8125 47.609375 11.28125 51.796875 
Q 16.75 56 26.8125 56 
Q 31.78125 56 36.171875 55.265625 
Q 40.578125 54.546875 44.28125 53.078125 
z
" id="DejaVuSans-73"/>
      <path d="M 18.3125 70.21875 
L 18.3125 54.6875 
L 36.8125 54.6875 
L 36.8125 47.703125 
L 18.3125 47.703125 
L 18.3125 18.015625 
Q 18.3125 11.328125 20.140625 9.421875 
Q 21.96875 7.515625 27.59375 7.515625 
L 36.8125 7.515625 
L 36.8125 0 
L 27.59375 0 
Q 17.1875 0 13.234375 3.875 
Q 9.28125 7.765625 9.28125 18.015625 
L 9.28125 47.703125 
L 2.6875 47.703125 
L 2.6875 54.6875 
L 9.28125 54.6875 
L 9.28125 70.21875 
z
" id="DejaVuSans-74"/>
      <path d="M 30.609375 48.390625 
Q 23.390625 48.390625 19.1875 42.75 
Q 14.984375 37.109375 14.984375 27.296875 
Q 14.984375 17.484375 19.15625 11.84375 
Q 23.34375 6.203125 30.609375 6.203125 
Q 37.796875 6.203125 41.984375 11.859375 
Q 46.1875 17.53125 46.1875 27.296875 
Q 46.1875 37.015625 41.984375 42.703125 
Q 37.796875 48.390625 30.609375 48.390625 
z
M 30.609375 56 
Q 42.328125 56 49.015625 48.375 
Q 55.71875 40.765625 55.71875 27.296875 
Q 55.71875 13.875 49.015625 6.21875 
Q 42.328125 -1.421875 30.609375 -1.421875 
Q 18.84375 -1.421875 12.171875 6.21875 
Q 5.515625 13.875 5.515625 27.296875 
Q 5.515625 40.765625 12.171875 48.375 
Q 18.84375 56 30.609375 56 
z
" id="DejaVuSans-6f"/>
      <path d="M 41.109375 46.296875 
Q 39.59375 47.171875 37.8125 47.578125 
Q 36.03125 48 33.890625 48 
Q 26.265625 48 22.1875 43.046875 
Q 18.109375 38.09375 18.109375 28.8125 
L 18.109375 0 
L 9.078125 0 
L 9.078125 54.6875 
L 18.109375 54.6875 
L 18.109375 46.1875 
Q 20.953125 51.171875 25.484375 53.578125 
Q 30.03125 56 36.53125 56 
Q 37.453125 56 38.578125 55.875 
Q 39.703125 55.765625 41.0625 55.515625 
z
" id="DejaVuSans-72"/>
      <path d="M 32.171875 -5.078125 
Q 28.375 -14.84375 24.75 -17.8125 
Q 21.140625 -20.796875 15.09375 -20.796875 
L 7.90625 -20.796875 
L 7.90625 -13.28125 
L 13.1875 -13.28125 
Q 16.890625 -13.28125 18.9375 -11.515625 
Q 21 -9.765625 23.484375 -3.21875 
L 25.09375 0.875 
L 2.984375 54.6875 
L 12.5 54.6875 
L 29.59375 11.921875 
L 46.6875 54.6875 
L 56.203125 54.6875 
z
" id="DejaVuSans-79"/>
      <path id="DejaVuSans-20"/>
      <path d="M 9.8125 72.90625 
L 23.09375 72.90625 
L 55.421875 11.921875 
L 55.421875 72.90625 
L 64.984375 72.90625 
L 64.984375 0 
L 51.703125 0 
L 19.390625 60.984375 
L 19.390625 0 
L 9.8125 0 
z
" id="DejaVuSans-4e"/>
      <path d="M 2.984375 54.6875 
L 12.5 54.6875 
L 29.59375 8.796875 
L 46.6875 54.6875 
L 56.203125 54.6875 
L 35.6875 0 
L 23.484375 0 
z
" id="DejaVuSans-76"/>
      <path d="M 56.203125 29.59375 
L 56.203125 25.203125 
L 14.890625 25.203125 
Q 15.484375 15.921875 20.484375 11.0625 
Q 25.484375 6.203125 34.421875 6.203125 
Q 39.59375 6.203125 44.453125 7.46875 
Q 49.3125 8.734375 54.109375 11.28125 
L 54.109375 2.78125 
Q 49.265625 0.734375 44.1875 -0.34375 
Q 39.109375 -1.421875 33.890625 -1.421875 
Q 20.796875 -1.421875 13.15625 6.1875 
Q 5.515625 13.8125 5.515625 26.8125 
Q 5.515625 40.234375 12.765625 48.109375 
Q 20.015625 56 32.328125 56 
Q 43.359375 56 49.78125 48.890625 
Q 56.203125 41.796875 56.203125 29.59375 
z
M 47.21875 32.234375 
Q 47.125 39.59375 43.09375 43.984375 
Q 39.0625 48.390625 32.421875 48.390625 
Q 24.90625 48.390625 20.390625 44.140625 
Q 15.875 39.890625 15.1875 32.171875 
z
" id="DejaVuSans-65"/>
      <path d="M 9.421875 75.984375 
L 18.40625 75.984375 
L 18.40625 0 
L 9.421875 0 
z
" id="DejaVuSans-6c"/>
     </defs>
     <g transform="translate(168.01875 353.0175)scale(0.16 -0.16)">
      <use xlink:href="#DejaVuSans-48"/>
      <use x="75.195312" xlink:href="#DejaVuSans-69"/>
      <use x="102.978516" xlink:href="#DejaVuSans-73"/>
      <use x="155.078125" xlink:href="#DejaVuSans-74"/>
      <use x="194.287109" xlink:href="#DejaVuSans-6f"/>
      <use x="255.46875" xlink:href="#DejaVuSans-72"/>
      <use x="296.582031" xlink:href="#DejaVuSans-79"/>
      <use x="355.761719" xlink:href="#DejaVuSans-20"/>
      <use x="387.548828" xlink:href="#DejaVuSans-20"/>
      <use x="419.335938" xlink:href="#DejaVuSans-20"/>
      <use x="451.123047" xlink:href="#DejaVuSans-20"/>
      <use x="482.910156" xlink:href="#DejaVuSans-20"/>
      <use x="514.697266" xlink:href="#DejaVuSans-20"/>
      <use x="546.484375" xlink:href="#DejaVuSans-20"/>
      <use x="578.271484" xlink:href="#DejaVuSans-20"/>
      <use x="610.058594" xlink:href="#DejaVuSans-20"/>
      <use x="641.845703" xlink:href="#DejaVuSans-20"/>
      <use x="673.632812" xlink:href="#DejaVuSans-20"/>
      <use x="705.419922" xlink:href="#DejaVuSans-20"/>
      <use x="737.207031" xlink:href="#DejaVuSans-20"/>
      <use x="768.994141" xlink:href="#DejaVuSans-20"/>
      <use x="800.78125" xlink:href="#DejaVuSans-20"/>
      <use x="832.568359" xlink:href="#DejaVuSans-20"/>
      <use x="864.355469" xlink:href="#DejaVuSans-20"/>
      <use x="896.142578" xlink:href="#DejaVuSans-20"/>
      <use x="927.929688" xlink:href="#DejaVuSans-20"/>
      <use x="959.716797" xlink:href="#DejaVuSans-20"/>
      <use x="991.503906" xlink:href="#DejaVuSans-20"/>
      <use x="1023.291016" xlink:href="#DejaVuSans-20"/>
      <use x="1055.078125" xlink:href="#DejaVuSans-20"/>
      <use x="1086.865234" xlink:href="#DejaVuSans-20"/>
      <use x="1118.652344" xlink:href="#DejaVuSans-20"/>
      <use x="1150.439453" xlink:href="#DejaVuSans-20"/>
      <use x="1182.226562" xlink:href="#DejaVuSans-20"/>
      <use x="1214.013672" xlink:href="#DejaVuSans-20"/>
      <use x="1245.800781" xlink:href="#DejaVuSans-20"/>
      <use x="1277.587891" xlink:href="#DejaVuSans-20"/>
      <use x="1309.375" xlink:href="#DejaVuSans-20"/>
      <use x="1341.162109" xlink:href="#DejaVuSans-20"/>
      <use x="1372.949219" xlink:href="#DejaVuSans-20"/>
      <use x="1404.736328" xlink:href="#DejaVuSans-20"/>
      <use x="1436.523438" xlink:href="#DejaVuSans-4e"/>
      <use x="1511.328125" xlink:href="#DejaVuSans-6f"/>
      <use x="1572.509766" xlink:href="#DejaVuSans-76"/>
      <use x="1631.689453" xlink:href="#DejaVuSans-65"/>
      <use x="1693.212891" xlink:href="#DejaVuSans-6c"/>
     </g>
    </g>
   </g>
   <g id="matplotlib.axis_2">
    <g id="text_2">
     <!-- Response -->
     <defs>
      <path d="M 44.390625 34.1875 
Q 47.5625 33.109375 50.5625 29.59375 
Q 53.5625 26.078125 56.59375 19.921875 
L 66.609375 0 
L 56 0 
L 46.6875 18.703125 
Q 43.0625 26.03125 39.671875 28.421875 
Q 36.28125 30.8125 30.421875 30.8125 
L 19.671875 30.8125 
L 19.671875 0 
L 9.8125 0 
L 9.8125 72.90625 
L 32.078125 72.90625 
Q 44.578125 72.90625 50.734375 67.671875 
Q 56.890625 62.453125 56.890625 51.90625 
Q 56.890625 45.015625 53.6875 40.46875 
Q 50.484375 35.9375 44.390625 34.1875 
z
M 19.671875 64.796875 
L 19.671875 38.921875 
L 32.078125 38.921875 
Q 39.203125 38.921875 42.84375 42.21875 
Q 46.484375 45.515625 46.484375 51.90625 
Q 46.484375 58.296875 42.84375 61.546875 
Q 39.203125 64.796875 32.078125 64.796875 
z
" id="DejaVuSans-52"/>
      <path d="M 18.109375 8.203125 
L 18.109375 -20.796875 
L 9.078125 -20.796875 
L 9.078125 54.6875 
L 18.109375 54.6875 
L 18.109375 46.390625 
Q 20.953125 51.265625 25.265625 53.625 
Q 29.59375 56 35.59375 56 
Q 45.5625 56 51.78125 48.09375 
Q 58.015625 40.1875 58.015625 27.296875 
Q 58.015625 14.40625 51.78125 6.484375 
Q 45.5625 -1.421875 35.59375 -1.421875 
Q 29.59375 -1.421875 25.265625 0.953125 
Q 20.953125 3.328125 18.109375 8.203125 
z
M 48.6875 27.296875 
Q 48.6875 37.203125 44.609375 42.84375 
Q 40.53125 48.484375 33.40625 48.484375 
Q 26.265625 48.484375 22.1875 42.84375 
Q 18.109375 37.203125 18.109375 27.296875 
Q 18.109375 17.390625 22.1875 11.75 
Q 26.265625 6.109375 33.40625 6.109375 
Q 40.53125 6.109375 44.609375 11.75 
Q 48.6875 17.390625 48.6875 27.296875 
z
" id="DejaVuSans-70"/>
      <path d="M 54.890625 33.015625 
L 54.890625 0 
L 45.90625 0 
L 45.90625 32.71875 
Q 45.90625 40.484375 42.875 44.328125 
Q 39.84375 48.1875 33.796875 48.1875 
Q 26.515625 48.1875 22.3125 43.546875 
Q 18.109375 38.921875 18.109375 30.90625 
L 18.109375 0 
L 9.078125 0 
L 9.078125 54.6875 
L 18.109375 54.6875 
L 18.109375 46.1875 
Q 21.34375 51.125 25.703125 53.5625 
Q 30.078125 56 35.796875 56 
Q 45.21875 56 50.046875 50.171875 
Q 54.890625 44.34375 54.890625 33.015625 
z
" id="DejaVuSans-6e"/>
     </defs>
     <g transform="translate(19.3575 212.5575)rotate(-90)scale(0.16 -0.16)">
      <use xlink:href="#DejaVuSans-52"/>
      <use x="69.419922" xlink:href="#DejaVuSans-65"/>
      <use x="130.943359" xlink:href="#DejaVuSans-73"/>
      <use x="183.042969" xlink:href="#DejaVuSans-70"/>
      <use x="246.519531" xlink:href="#DejaVuSans-6f"/>
      <use x="307.701172" xlink:href="#DejaVuSans-6e"/>
      <use x="371.080078" xlink:href="#DejaVuSans-73"/>
      <use x="423.179688" xlink:href="#DejaVuSans-65"/>
     </g>
    </g>
   </g>
   <g id="line2d_1">
    <defs>
     <path d="M 0 3 
C 0.795609 3 1.55874 2.683901 2.12132 2.12132 
C 2.683901 1.55874 3 0.795609 3 0 
C 3 -0.795609 2.683901 -1.55874 2.12132 -2.12132 
C 1.55874 -2.683901 0.795609 -3 0 -3 
C -0.795609 -3 -1.55874 -2.683901 -2.12132 -2.12132 
C -2.683901 -1.55874 -3 -0.795609 -3 0 
C -3 0.795609 -2.683901 1.55874 -2.12132 2.12132 
C -1.55874 2.683901 -0.795609 3 0 3 
z
" id="m24ed5da12d" style="stroke:#0000ff;stroke-opacity:0.7;"/>
    </defs>
    <g clip-path="url(#p5e40774c90)">
     <use style="fill:#0000ff;fill-opacity:0.7;stroke:#0000ff;stroke-opacity:0.7;" x="52.048636" xlink:href="#m24ed5da12d" y="323.654322"/>
     <use style="fill:#0000ff;fill-opacity:0.7;stroke:#0000ff;stroke-opacity:0.7;" x="60.646479" xlink:href="#m24ed5da12d" y="332.911552"/>
     <use style="fill:#0000ff;fill-opacity:0.7;stroke:#0000ff;stroke-opacity:0.7;" x="69.244322" xlink:href="#m24ed5da12d" y="267.084525"/>
     <use style="fill:#0000ff;fill-opacity:0.7;stroke:#0000ff;stroke-opacity:0.7;" x="77.842165" xlink:href="#m24ed5da12d" y="224.844873"/>
     <use style="fill:#0000ff;fill-opacity:0.7;stroke:#0000ff;stroke-opacity:0.7;" x="86.440008" xlink:href="#m24ed5da12d" y="254.416336"/>
     <use style="fill:#0000ff;fill-opacity:0.7;stroke:#0000ff;stroke-opacity:0.7;" x="95.037851" xlink:href="#m24ed5da12d" y="238.331191"/>
     <use style="fill:#0000ff;fill-opacity:0.7;stroke:#0000ff;stroke-opacity:0.7;" x="103.635693" xlink:href="#m24ed5da12d" y="290.472419"/>
     <use style="fill:#0000ff;fill-opacity:0.7;stroke:#0000ff;stroke-opacity:0.7;" x="112.233536" xlink:href="#m24ed5da12d" y="224.539076"/>
     <use style="fill:#0000ff;fill-opacity:0.7;stroke:#0000ff;stroke-opacity:0.7;" x="120.831379" xlink:href="#m24ed5da12d" y="161.88687"/>
     <use style="fill:#0000ff;fill-opacity:0.7;stroke:#0000ff;stroke-opacity:0.7;" x="129.429222" xlink:href="#m24ed5da12d" y="168.411521"/>
     <use style="fill:#0000ff;fill-opacity:0.7;stroke:#0000ff;stroke-opacity:0.7;" x="138.027065" xlink:href="#m24ed5da12d" y="179.429534"/>
     <use style="fill:#0000ff;fill-opacity:0.7;stroke:#0000ff;stroke-opacity:0.7;" x="146.624908" xlink:href="#m24ed5da12d" y="253.973201"/>
     <use style="fill:#0000ff;fill-opacity:0.7;stroke:#0000ff;stroke-opacity:0.7;" x="155.22275" xlink:href="#m24ed5da12d" y="152.842514"/>
     <use style="fill:#0000ff;fill-opacity:0.7;stroke:#0000ff;stroke-opacity:0.7;" x="163.820593" xlink:href="#m24ed5da12d" y="155.570958"/>
     <use style="fill:#0000ff;fill-opacity:0.7;stroke:#0000ff;stroke-opacity:0.7;" x="172.418436" xlink:href="#m24ed5da12d" y="241.259165"/>
     <use style="fill:#0000ff;fill-opacity:0.7;stroke:#0000ff;stroke-opacity:0.7;" x="181.016279" xlink:href="#m24ed5da12d" y="182.268438"/>
     <use style="fill:#0000ff;fill-opacity:0.7;stroke:#0000ff;stroke-opacity:0.7;" x="189.614122" xlink:href="#m24ed5da12d" y="259.399056"/>
     <use style="fill:#0000ff;fill-opacity:0.7;stroke:#0000ff;stroke-opacity:0.7;" x="198.211965" xlink:href="#m24ed5da12d" y="248.45342"/>
     <use style="fill:#0000ff;fill-opacity:0.7;stroke:#0000ff;stroke-opacity:0.7;" x="206.809807" xlink:href="#m24ed5da12d" y="225.292291"/>
     <use style="fill:#0000ff;fill-opacity:0.7;stroke:#0000ff;stroke-opacity:0.7;" x="215.40765" xlink:href="#m24ed5da12d" y="247.804232"/>
     <use style="fill:#0000ff;fill-opacity:0.7;stroke:#0000ff;stroke-opacity:0.7;" x="224.005493" xlink:href="#m24ed5da12d" y="175.789699"/>
     <use style="fill:#0000ff;fill-opacity:0.7;stroke:#0000ff;stroke-opacity:0.7;" x="232.603336" xlink:href="#m24ed5da12d" y="172.490996"/>
     <use style="fill:#0000ff;fill-opacity:0.7;stroke:#0000ff;stroke-opacity:0.7;" x="241.201179" xlink:href="#m24ed5da12d" y="236.801075"/>
     <use style="fill:#0000ff;fill-opacity:0.7;stroke:#0000ff;stroke-opacity:0.7;" x="249.799022" xlink:href="#m24ed5da12d" y="245.685886"/>
     <use style="fill:#0000ff;fill-opacity:0.7;stroke:#0000ff;stroke-opacity:0.7;" x="258.396864" xlink:href="#m24ed5da12d" y="278.068251"/>
     <use style="fill:#0000ff;fill-opacity:0.7;stroke:#0000ff;stroke-opacity:0.7;" x="266.994707" xlink:href="#m24ed5da12d" y="288.694555"/>
     <use style="fill:#0000ff;fill-opacity:0.7;stroke:#0000ff;stroke-opacity:0.7;" x="275.59255" xlink:href="#m24ed5da12d" y="217.720534"/>
     <use style="fill:#0000ff;fill-opacity:0.7;stroke:#0000ff;stroke-opacity:0.7;" x="284.190393" xlink:href="#m24ed5da12d" y="240.574633"/>
     <use style="fill:#0000ff;fill-opacity:0.7;stroke:#0000ff;stroke-opacity:0.7;" x="292.788236" xlink:href="#m24ed5da12d" y="318.209459"/>
     <use style="fill:#0000ff;fill-opacity:0.7;stroke:#0000ff;stroke-opacity:0.7;" x="301.386079" xlink:href="#m24ed5da12d" y="275.165923"/>
    </g>
   </g>
   <g id="line2d_2">
    <path clip-path="url(#p5e40774c90)" d="M 52.048636 317.76669 
L 60.646479 322.050308 
L 69.244322 269.585208 
L 77.842165 228.396556 
L 86.440008 246.724811 
L 95.037851 231.695313 
L 103.635693 286.643433 
L 112.233536 216.737163 
L 120.831379 158.318809 
L 129.429222 156.934601 
L 138.027065 183.597497 
L 146.624908 247.995626 
L 155.22275 141.556542 
L 163.820593 159.726634 
L 172.418436 238.458404 
L 181.016279 185.63867 
L 189.614122 260.36398 
L 198.211965 259.116293 
L 206.809807 237.351597 
L 215.40765 241.289826 
L 224.005493 176.974935 
L 232.603336 169.409185 
L 241.201179 230.780876 
L 249.799022 247.726558 
L 258.396864 281.389623 
L 266.994707 296.998367 
L 275.59255 210.347502 
L 284.190393 232.218981 
L 292.788236 312.333235 
L 301.386079 265.75007 
" style="fill:none;stroke:#ff0000;stroke-dasharray:1.5,2.475;stroke-dashoffset:0;stroke-opacity:0.7;stroke-width:1.5;"/>
   </g>
   <g id="line2d_3">
    <defs>
     <path d="M 0 3 
C 0.795609 3 1.55874 2.683901 2.12132 2.12132 
C 2.683901 1.55874 3 0.795609 3 0 
C 3 -0.795609 2.683901 -1.55874 2.12132 -2.12132 
C 1.55874 -2.683901 0.795609 -3 0 -3 
C -0.795609 -3 -1.55874 -2.683901 -2.12132 -2.12132 
C -2.683901 -1.55874 -3 -0.795609 -3 0 
C -3 0.795609 -2.683901 1.55874 -2.12132 2.12132 
C -1.55874 2.683901 -0.795609 3 0 3 
z
" id="m87be0f5962" style="stroke:#ff0000;stroke-opacity:0.5;"/>
    </defs>
    <g clip-path="url(#p5e40774c90)">
     <use style="fill:#ff0000;fill-opacity:0.5;stroke:#ff0000;stroke-opacity:0.5;" x="309.983921" xlink:href="#m87be0f5962" y="210.597475"/>
     <use style="fill:#ff0000;fill-opacity:0.5;stroke:#ff0000;stroke-opacity:0.5;" x="318.581764" xlink:href="#m87be0f5962" y="161.931581"/>
     <use style="fill:#ff0000;fill-opacity:0.5;stroke:#ff0000;stroke-opacity:0.5;" x="327.179607" xlink:href="#m87be0f5962" y="188.907393"/>
     <use style="fill:#ff0000;fill-opacity:0.5;stroke:#ff0000;stroke-opacity:0.5;" x="335.77745" xlink:href="#m87be0f5962" y="219.955098"/>
     <use style="fill:#ff0000;fill-opacity:0.5;stroke:#ff0000;stroke-opacity:0.5;" x="344.375293" xlink:href="#m87be0f5962" y="221.826334"/>
     <use style="fill:#ff0000;fill-opacity:0.5;stroke:#ff0000;stroke-opacity:0.5;" x="352.973136" xlink:href="#m87be0f5962" y="205.301834"/>
     <use style="fill:#ff0000;fill-opacity:0.5;stroke:#ff0000;stroke-opacity:0.5;" x="361.570978" xlink:href="#m87be0f5962" y="233.082015"/>
     <use style="fill:#ff0000;fill-opacity:0.5;stroke:#ff0000;stroke-opacity:0.5;" x="370.168821" xlink:href="#m87be0f5962" y="222.874673"/>
     <use style="fill:#ff0000;fill-opacity:0.5;stroke:#ff0000;stroke-opacity:0.5;" x="378.766664" xlink:href="#m87be0f5962" y="172.942621"/>
     <use style="fill:#ff0000;fill-opacity:0.5;stroke:#ff0000;stroke-opacity:0.5;" x="387.364507" xlink:href="#m87be0f5962" y="180.753085"/>
     <use style="fill:#ff0000;fill-opacity:0.5;stroke:#ff0000;stroke-opacity:0.5;" x="395.96235" xlink:href="#m87be0f5962" y="195.333477"/>
     <use style="fill:#ff0000;fill-opacity:0.5;stroke:#ff0000;stroke-opacity:0.5;" x="404.560193" xlink:href="#m87be0f5962" y="288.055392"/>
     <use style="fill:#ff0000;fill-opacity:0.5;stroke:#ff0000;stroke-opacity:0.5;" x="413.158035" xlink:href="#m87be0f5962" y="237.503999"/>
     <use style="fill:#ff0000;fill-opacity:0.5;stroke:#ff0000;stroke-opacity:0.5;" x="421.755878" xlink:href="#m87be0f5962" y="264.800316"/>
     <use style="fill:#ff0000;fill-opacity:0.5;stroke:#ff0000;stroke-opacity:0.5;" x="430.353721" xlink:href="#m87be0f5962" y="199.961179"/>
     <use style="fill:#ff0000;fill-opacity:0.5;stroke:#ff0000;stroke-opacity:0.5;" x="438.951564" xlink:href="#m87be0f5962" y="278.693234"/>
     <use style="fill:#ff0000;fill-opacity:0.5;stroke:#ff0000;stroke-opacity:0.5;" x="447.549407" xlink:href="#m87be0f5962" y="205.10818"/>
     <use style="fill:#ff0000;fill-opacity:0.5;stroke:#ff0000;stroke-opacity:0.5;" x="456.14725" xlink:href="#m87be0f5962" y="295.921137"/>
     <use style="fill:#ff0000;fill-opacity:0.5;stroke:#ff0000;stroke-opacity:0.5;" x="464.745092" xlink:href="#m87be0f5962" y="277.161333"/>
     <use style="fill:#ff0000;fill-opacity:0.5;stroke:#ff0000;stroke-opacity:0.5;" x="473.342935" xlink:href="#m87be0f5962" y="213.676563"/>
     <use style="fill:#ff0000;fill-opacity:0.5;stroke:#ff0000;stroke-opacity:0.5;" x="481.940778" xlink:href="#m87be0f5962" y="263.726562"/>
     <use style="fill:#ff0000;fill-opacity:0.5;stroke:#ff0000;stroke-opacity:0.5;" x="490.538621" xlink:href="#m87be0f5962" y="225.946956"/>
     <use style="fill:#ff0000;fill-opacity:0.5;stroke:#ff0000;stroke-opacity:0.5;" x="499.136464" xlink:href="#m87be0f5962" y="279.863503"/>
     <use style="fill:#ff0000;fill-opacity:0.5;stroke:#ff0000;stroke-opacity:0.5;" x="507.734307" xlink:href="#m87be0f5962" y="323.558083"/>
     <use style="fill:#ff0000;fill-opacity:0.5;stroke:#ff0000;stroke-opacity:0.5;" x="516.332149" xlink:href="#m87be0f5962" y="267.555652"/>
     <use style="fill:#ff0000;fill-opacity:0.5;stroke:#ff0000;stroke-opacity:0.5;" x="524.929992" xlink:href="#m87be0f5962" y="296.519842"/>
     <use style="fill:#ff0000;fill-opacity:0.5;stroke:#ff0000;stroke-opacity:0.5;" x="533.527835" xlink:href="#m87be0f5962" y="303.620135"/>
     <use style="fill:#ff0000;fill-opacity:0.5;stroke:#ff0000;stroke-opacity:0.5;" x="542.125678" xlink:href="#m87be0f5962" y="355.114358"/>
     <use style="fill:#ff0000;fill-opacity:0.5;stroke:#ff0000;stroke-opacity:0.5;" x="550.723521" xlink:href="#m87be0f5962" y="359.387688"/>
     <use style="fill:#ff0000;fill-opacity:0.5;stroke:#ff0000;stroke-opacity:0.5;" x="559.321364" xlink:href="#m87be0f5962" y="266.408798"/>
    </g>
   </g>
   <g id="line2d_4">
    <path clip-path="url(#p5e40774c90)" d="M 309.983921 199.155324 
L 318.581764 150.241733 
L 327.179607 192.475352 
L 335.77745 231.348866 
L 344.375293 220.473341 
L 352.973136 199.373011 
L 361.570978 229.367643 
L 370.168821 234.091244 
L 378.766664 179.644386 
L 387.364507 175.587607 
L 395.96235 206.496056 
L 404.560193 279.362049 
L 413.158035 225.233328 
L 421.755878 271.127829 
L 430.353721 211.148083 
L 438.951564 266.658098 
L 447.549407 198.403928 
L 456.14725 297.070279 
L 464.745092 277.706857 
L 473.342935 203.251912 
L 481.940778 267.343674 
L 490.538621 237.15733 
L 499.136464 277.004075 
L 507.734307 328.261191 
L 516.332149 263.000475 
L 524.929992 285.281121 
L 533.527835 307.118079 
L 542.125678 361.46198 
L 545.025251 364.545 
M 551.186499 364.545 
L 559.321364 258.087706 
" style="fill:none;stroke:#ff0000;stroke-dasharray:1.5,2.475;stroke-dashoffset:0;stroke-opacity:0.7;stroke-width:1.5;"/>
   </g>
   <g id="patch_5">
    <path d="M 26.685 336.86 
L 26.685 10.7 
" style="fill:none;stroke:#000000;stroke-linecap:square;stroke-linejoin:miter;stroke-width:0.8;"/>
   </g>
   <g id="patch_6">
    <path d="M 584.685 336.86 
L 584.685 10.7 
" style="fill:none;stroke:#000000;stroke-linecap:square;stroke-linejoin:miter;stroke-width:0.8;"/>
   </g>
   <g id="patch_7">
    <path d="M 26.685 336.86 
L 584.685 336.86 
" style="fill:none;stroke:#000000;stroke-linecap:square;stroke-linejoin:miter;stroke-width:0.8;"/>
   </g>
   <g id="patch_8">
    <path d="M 26.685 10.7 
L 584.685 10.7 
" style="fill:none;stroke:#000000;stroke-linecap:square;stroke-linejoin:miter;stroke-width:0.8;"/>
   </g>
  </g>
  <g id="axes_2">
   <g id="patch_9">
    <path d="M 152.685 118.7 
L 440.685 118.7 
L 440.685 10.7 
L 152.685 10.7 
z
" style="fill:none;"/>
   </g>
   <g id="matplotlib.axis_3">
    <g id="text_3">
     <!-- Trait + Process -->
     <defs>
      <path d="M -0.296875 72.90625 
L 61.375 72.90625 
L 61.375 64.59375 
L 35.5 64.59375 
L 35.5 0 
L 25.59375 0 
L 25.59375 64.59375 
L -0.296875 64.59375 
z
" id="DejaVuSans-54"/>
      <path d="M 34.28125 27.484375 
Q 23.390625 27.484375 19.1875 25 
Q 14.984375 22.515625 14.984375 16.5 
Q 14.984375 11.71875 18.140625 8.90625 
Q 21.296875 6.109375 26.703125 6.109375 
Q 34.1875 6.109375 38.703125 11.40625 
Q 43.21875 16.703125 43.21875 25.484375 
L 43.21875 27.484375 
z
M 52.203125 31.203125 
L 52.203125 0 
L 43.21875 0 
L 43.21875 8.296875 
Q 40.140625 3.328125 35.546875 0.953125 
Q 30.953125 -1.421875 24.3125 -1.421875 
Q 15.921875 -1.421875 10.953125 3.296875 
Q 6 8.015625 6 15.921875 
Q 6 25.140625 12.171875 29.828125 
Q 18.359375 34.515625 30.609375 34.515625 
L 43.21875 34.515625 
L 43.21875 35.40625 
Q 43.21875 41.609375 39.140625 45 
Q 35.0625 48.390625 27.6875 48.390625 
Q 23 48.390625 18.546875 47.265625 
Q 14.109375 46.140625 10.015625 43.890625 
L 10.015625 52.203125 
Q 14.9375 54.109375 19.578125 55.046875 
Q 24.21875 56 28.609375 56 
Q 40.484375 56 46.34375 49.84375 
Q 52.203125 43.703125 52.203125 31.203125 
z
" id="DejaVuSans-61"/>
      <path d="M 46 62.703125 
L 46 35.5 
L 73.1875 35.5 
L 73.1875 27.203125 
L 46 27.203125 
L 46 0 
L 37.796875 0 
L 37.796875 27.203125 
L 10.59375 27.203125 
L 10.59375 35.5 
L 37.796875 35.5 
L 37.796875 62.703125 
z
" id="DejaVuSans-2b"/>
      <path d="M 19.671875 64.796875 
L 19.671875 37.40625 
L 32.078125 37.40625 
Q 38.96875 37.40625 42.71875 40.96875 
Q 46.484375 44.53125 46.484375 51.125 
Q 46.484375 57.671875 42.71875 61.234375 
Q 38.96875 64.796875 32.078125 64.796875 
z
M 9.8125 72.90625 
L 32.078125 72.90625 
Q 44.34375 72.90625 50.609375 67.359375 
Q 56.890625 61.8125 56.890625 51.125 
Q 56.890625 40.328125 50.609375 34.8125 
Q 44.34375 29.296875 32.078125 29.296875 
L 19.671875 29.296875 
L 19.671875 0 
L 9.8125 0 
z
" id="DejaVuSans-50"/>
      <path d="M 48.78125 52.59375 
L 48.78125 44.1875 
Q 44.96875 46.296875 41.140625 47.34375 
Q 37.3125 48.390625 33.40625 48.390625 
Q 24.65625 48.390625 19.8125 42.84375 
Q 14.984375 37.3125 14.984375 27.296875 
Q 14.984375 17.28125 19.8125 11.734375 
Q 24.65625 6.203125 33.40625 6.203125 
Q 37.3125 6.203125 41.140625 7.25 
Q 44.96875 8.296875 48.78125 10.40625 
L 48.78125 2.09375 
Q 45.015625 0.34375 40.984375 -0.53125 
Q 36.96875 -1.421875 32.421875 -1.421875 
Q 20.0625 -1.421875 12.78125 6.34375 
Q 5.515625 14.109375 5.515625 27.296875 
Q 5.515625 40.671875 12.859375 48.328125 
Q 20.21875 56 33.015625 56 
Q 37.15625 56 41.109375 55.140625 
Q 45.0625 54.296875 48.78125 52.59375 
z
" id="DejaVuSans-63"/>
     </defs>
     <g style="fill:#ff0000;" transform="translate(235.8175 134.8575)scale(0.16 -0.16)">
      <use xlink:href="#DejaVuSans-54"/>
      <use x="60.865234" xlink:href="#DejaVuSans-72"/>
      <use x="101.978516" xlink:href="#DejaVuSans-61"/>
      <use x="163.257812" xlink:href="#DejaVuSans-69"/>
      <use x="191.041016" xlink:href="#DejaVuSans-74"/>
      <use x="230.25" xlink:href="#DejaVuSans-20"/>
      <use x="262.037109" xlink:href="#DejaVuSans-2b"/>
      <use x="345.826172" xlink:href="#DejaVuSans-20"/>
      <use x="377.613281" xlink:href="#DejaVuSans-50"/>
      <use x="437.900391" xlink:href="#DejaVuSans-72"/>
      <use x="478.982422" xlink:href="#DejaVuSans-6f"/>
      <use x="540.164062" xlink:href="#DejaVuSans-63"/>
      <use x="595.144531" xlink:href="#DejaVuSans-65"/>
      <use x="656.667969" xlink:href="#DejaVuSans-73"/>
      <use x="708.767578" xlink:href="#DejaVuSans-73"/>
     </g>
    </g>
   </g>
   <g id="matplotlib.axis_4">
    <g id="text_4">
     <!-- Response -->
     <g transform="translate(146.605312 88.935937)rotate(-90)scale(0.1 -0.1)">
      <use xlink:href="#DejaVuSans-52"/>
      <use x="69.419922" xlink:href="#DejaVuSans-65"/>
      <use x="130.943359" xlink:href="#DejaVuSans-73"/>
      <use x="183.042969" xlink:href="#DejaVuSans-70"/>
      <use x="246.519531" xlink:href="#DejaVuSans-6f"/>
      <use x="307.701172" xlink:href="#DejaVuSans-6e"/>
      <use x="371.080078" xlink:href="#DejaVuSans-73"/>
      <use x="423.179688" xlink:href="#DejaVuSans-65"/>
     </g>
    </g>
   </g>
   <g id="line2d_5">
    <defs>
     <path d="M -3 3 
L 3 -3 
M -3 -3 
L 3 3 
" id="m9f2e6efa96" style="stroke:#000000;stroke-opacity:0.7;"/>
    </defs>
    <g clip-path="url(#p63f55eb246)">
     <use style="fill-opacity:0.7;stroke:#000000;stroke-opacity:0.7;" x="363.00861" xlink:href="#m9f2e6efa96" y="87.911056"/>
     <use style="fill-opacity:0.7;stroke:#000000;stroke-opacity:0.7;" x="283.742898" xlink:href="#m9f2e6efa96" y="68.731335"/>
     <use style="fill-opacity:0.7;stroke:#000000;stroke-opacity:0.7;" x="272.362503" xlink:href="#m9f2e6efa96" y="64.042094"/>
     <use style="fill-opacity:0.7;stroke:#000000;stroke-opacity:0.7;" x="315.923343" xlink:href="#m9f2e6efa96" y="85.199363"/>
     <use style="fill-opacity:0.7;stroke:#000000;stroke-opacity:0.7;" x="207.060544" xlink:href="#m9f2e6efa96" y="37.328524"/>
     <use style="fill-opacity:0.7;stroke:#000000;stroke-opacity:0.7;" x="399.193669" xlink:href="#m9f2e6efa96" y="94.754534"/>
     <use style="fill-opacity:0.7;stroke:#000000;stroke-opacity:0.7;" x="195.92672" xlink:href="#m9f2e6efa96" y="45.806824"/>
     <use style="fill-opacity:0.7;stroke:#000000;stroke-opacity:0.7;" x="309.021505" xlink:href="#m9f2e6efa96" y="85.538284"/>
     <use style="fill-opacity:0.7;stroke:#000000;stroke-opacity:0.7;" x="418.41611" xlink:href="#m9f2e6efa96" y="96.870221"/>
     <use style="fill-opacity:0.7;stroke:#000000;stroke-opacity:0.7;" x="202.218708" xlink:href="#m9f2e6efa96" y="37.218334"/>
     <use style="fill-opacity:0.7;stroke:#000000;stroke-opacity:0.7;" x="348.737154" xlink:href="#m9f2e6efa96" y="94.408663"/>
     <use style="fill-opacity:0.7;stroke:#000000;stroke-opacity:0.7;" x="421.09985" xlink:href="#m9f2e6efa96" y="101.112332"/>
     <use style="fill-opacity:0.7;stroke:#000000;stroke-opacity:0.7;" x="426.501862" xlink:href="#m9f2e6efa96" y="91.157136"/>
     <use style="fill-opacity:0.7;stroke:#000000;stroke-opacity:0.7;" x="256.819834" xlink:href="#m9f2e6efa96" y="60.102774"/>
     <use style="fill-opacity:0.7;stroke:#000000;stroke-opacity:0.7;" x="329.612129" xlink:href="#m9f2e6efa96" y="88.802377"/>
     <use style="fill-opacity:0.7;stroke:#000000;stroke-opacity:0.7;" x="412.50707" xlink:href="#m9f2e6efa96" y="103.089863"/>
     <use style="fill-opacity:0.7;stroke:#000000;stroke-opacity:0.7;" x="329.291286" xlink:href="#m9f2e6efa96" y="80.572152"/>
     <use style="fill-opacity:0.7;stroke:#000000;stroke-opacity:0.7;" x="394.295988" xlink:href="#m9f2e6efa96" y="87.703373"/>
     <use style="fill-opacity:0.7;stroke:#000000;stroke-opacity:0.7;" x="348.413865" xlink:href="#m9f2e6efa96" y="94.702944"/>
     <use style="fill-opacity:0.7;stroke:#000000;stroke-opacity:0.7;" x="175.437172" xlink:href="#m9f2e6efa96" y="24.540511"/>
     <use style="fill-opacity:0.7;stroke:#000000;stroke-opacity:0.7;" x="256.24137" xlink:href="#m9f2e6efa96" y="72.185522"/>
     <use style="fill-opacity:0.7;stroke:#000000;stroke-opacity:0.7;" x="399.796135" xlink:href="#m9f2e6efa96" y="91.837521"/>
     <use style="fill-opacity:0.7;stroke:#000000;stroke-opacity:0.7;" x="288.51642" xlink:href="#m9f2e6efa96" y="81.7438"/>
     <use style="fill-opacity:0.7;stroke:#000000;stroke-opacity:0.7;" x="279.397127" xlink:href="#m9f2e6efa96" y="79.085975"/>
     <use style="fill-opacity:0.7;stroke:#000000;stroke-opacity:0.7;" x="245.609552" xlink:href="#m9f2e6efa96" y="61.42854"/>
     <use style="fill-opacity:0.7;stroke:#000000;stroke-opacity:0.7;" x="207.597826" xlink:href="#m9f2e6efa96" y="37.70868"/>
     <use style="fill-opacity:0.7;stroke:#000000;stroke-opacity:0.7;" x="340.899093" xlink:href="#m9f2e6efa96" y="93.853618"/>
     <use style="fill-opacity:0.7;stroke:#000000;stroke-opacity:0.7;" x="269.283362" xlink:href="#m9f2e6efa96" y="76.897217"/>
     <use style="fill-opacity:0.7;stroke:#000000;stroke-opacity:0.7;" x="396.727263" xlink:href="#m9f2e6efa96" y="98.652715"/>
     <use style="fill-opacity:0.7;stroke:#000000;stroke-opacity:0.7;" x="177.083878" xlink:href="#m9f2e6efa96" y="20.57697"/>
     <use style="fill-opacity:0.7;stroke:#000000;stroke-opacity:0.7;" x="394.696461" xlink:href="#m9f2e6efa96" y="97.717837"/>
     <use style="fill-opacity:0.7;stroke:#000000;stroke-opacity:0.7;" x="189.959877" xlink:href="#m9f2e6efa96" y="39.515442"/>
     <use style="fill-opacity:0.7;stroke:#000000;stroke-opacity:0.7;" x="381.387927" xlink:href="#m9f2e6efa96" y="92.637657"/>
     <use style="fill-opacity:0.7;stroke:#000000;stroke-opacity:0.7;" x="285.695199" xlink:href="#m9f2e6efa96" y="67.648622"/>
     <use style="fill-opacity:0.7;stroke:#000000;stroke-opacity:0.7;" x="359.567166" xlink:href="#m9f2e6efa96" y="92.274906"/>
     <use style="fill-opacity:0.7;stroke:#000000;stroke-opacity:0.7;" x="283.826541" xlink:href="#m9f2e6efa96" y="74.110111"/>
     <use style="fill-opacity:0.7;stroke:#000000;stroke-opacity:0.7;" x="207.283461" xlink:href="#m9f2e6efa96" y="46.039405"/>
     <use style="fill-opacity:0.7;stroke:#000000;stroke-opacity:0.7;" x="414.029202" xlink:href="#m9f2e6efa96" y="95.276401"/>
     <use style="fill-opacity:0.7;stroke:#000000;stroke-opacity:0.7;" x="333.988334" xlink:href="#m9f2e6efa96" y="85.157153"/>
     <use style="fill-opacity:0.7;stroke:#000000;stroke-opacity:0.7;" x="222.018896" xlink:href="#m9f2e6efa96" y="47.270796"/>
     <use style="fill-opacity:0.7;stroke:#000000;stroke-opacity:0.7;" x="321.954186" xlink:href="#m9f2e6efa96" y="87.38302"/>
     <use style="fill-opacity:0.7;stroke:#000000;stroke-opacity:0.7;" x="220.660728" xlink:href="#m9f2e6efa96" y="52.069734"/>
     <use style="fill-opacity:0.7;stroke:#000000;stroke-opacity:0.7;" x="271.010306" xlink:href="#m9f2e6efa96" y="76.818038"/>
     <use style="fill-opacity:0.7;stroke:#000000;stroke-opacity:0.7;" x="321.616632" xlink:href="#m9f2e6efa96" y="75.23258"/>
     <use style="fill-opacity:0.7;stroke:#000000;stroke-opacity:0.7;" x="325.555174" xlink:href="#m9f2e6efa96" y="84.009736"/>
     <use style="fill-opacity:0.7;stroke:#000000;stroke-opacity:0.7;" x="194.035948" xlink:href="#m9f2e6efa96" y="29.041006"/>
     <use style="fill-opacity:0.7;stroke:#000000;stroke-opacity:0.7;" x="216.193427" xlink:href="#m9f2e6efa96" y="47.126734"/>
     <use style="fill-opacity:0.7;stroke:#000000;stroke-opacity:0.7;" x="285.753556" xlink:href="#m9f2e6efa96" y="79.412342"/>
     <use style="fill-opacity:0.7;stroke:#000000;stroke-opacity:0.7;" x="300.915329" xlink:href="#m9f2e6efa96" y="70.006861"/>
     <use style="fill-opacity:0.7;stroke:#000000;stroke-opacity:0.7;" x="390.218047" xlink:href="#m9f2e6efa96" y="96.208064"/>
     <use style="fill-opacity:0.7;stroke:#000000;stroke-opacity:0.7;" x="316.774826" xlink:href="#m9f2e6efa96" y="78.484618"/>
     <use style="fill-opacity:0.7;stroke:#000000;stroke-opacity:0.7;" x="378.24619" xlink:href="#m9f2e6efa96" y="86.178098"/>
     <use style="fill-opacity:0.7;stroke:#000000;stroke-opacity:0.7;" x="262.571977" xlink:href="#m9f2e6efa96" y="74.851979"/>
     <use style="fill-opacity:0.7;stroke:#000000;stroke-opacity:0.7;" x="214.925909" xlink:href="#m9f2e6efa96" y="55.141597"/>
     <use style="fill-opacity:0.7;stroke:#000000;stroke-opacity:0.7;" x="239.004228" xlink:href="#m9f2e6efa96" y="61.066271"/>
     <use style="fill-opacity:0.7;stroke:#000000;stroke-opacity:0.7;" x="172.314698" xlink:href="#m9f2e6efa96" y="24.954415"/>
     <use style="fill-opacity:0.7;stroke:#000000;stroke-opacity:0.7;" x="261.112036" xlink:href="#m9f2e6efa96" y="70.580177"/>
     <use style="fill-opacity:0.7;stroke:#000000;stroke-opacity:0.7;" x="332.161463" xlink:href="#m9f2e6efa96" y="87.996173"/>
     <use style="fill-opacity:0.7;stroke:#000000;stroke-opacity:0.7;" x="386.219536" xlink:href="#m9f2e6efa96" y="94.499531"/>
     <use style="fill-opacity:0.7;stroke:#000000;stroke-opacity:0.7;" x="227.249076" xlink:href="#m9f2e6efa96" y="46.37603"/>
     <use style="fill-opacity:0.7;stroke:#000000;stroke-opacity:0.7;" x="350.558466" xlink:href="#m9f2e6efa96" y="87.686994"/>
     <use style="fill-opacity:0.7;stroke:#000000;stroke-opacity:0.7;" x="362.778263" xlink:href="#m9f2e6efa96" y="89.55175"/>
     <use style="fill-opacity:0.7;stroke:#000000;stroke-opacity:0.7;" x="346.749605" xlink:href="#m9f2e6efa96" y="90.82232"/>
     <use style="fill-opacity:0.7;stroke:#000000;stroke-opacity:0.7;" x="418.005949" xlink:href="#m9f2e6efa96" y="101.284767"/>
     <use style="fill-opacity:0.7;stroke:#000000;stroke-opacity:0.7;" x="317.599762" xlink:href="#m9f2e6efa96" y="85.504571"/>
     <use style="fill-opacity:0.7;stroke:#000000;stroke-opacity:0.7;" x="281.906948" xlink:href="#m9f2e6efa96" y="66.169106"/>
     <use style="fill-opacity:0.7;stroke:#000000;stroke-opacity:0.7;" x="306.319588" xlink:href="#m9f2e6efa96" y="71.877216"/>
     <use style="fill-opacity:0.7;stroke:#000000;stroke-opacity:0.7;" x="167.022645" xlink:href="#m9f2e6efa96" y="23.758591"/>
     <use style="fill-opacity:0.7;stroke:#000000;stroke-opacity:0.7;" x="167.536047" xlink:href="#m9f2e6efa96" y="20.152891"/>
     <use style="fill-opacity:0.7;stroke:#000000;stroke-opacity:0.7;" x="295.009561" xlink:href="#m9f2e6efa96" y="74.865731"/>
     <use style="fill-opacity:0.7;stroke:#000000;stroke-opacity:0.7;" x="264.374804" xlink:href="#m9f2e6efa96" y="67.290391"/>
     <use style="fill-opacity:0.7;stroke:#000000;stroke-opacity:0.7;" x="201.116417" xlink:href="#m9f2e6efa96" y="47.583542"/>
     <use style="fill-opacity:0.7;stroke:#000000;stroke-opacity:0.7;" x="258.534798" xlink:href="#m9f2e6efa96" y="74.354902"/>
     <use style="fill-opacity:0.7;stroke:#000000;stroke-opacity:0.7;" x="333.720402" xlink:href="#m9f2e6efa96" y="78.796099"/>
     <use style="fill-opacity:0.7;stroke:#000000;stroke-opacity:0.7;" x="302.650599" xlink:href="#m9f2e6efa96" y="84.699675"/>
     <use style="fill-opacity:0.7;stroke:#000000;stroke-opacity:0.7;" x="269.562405" xlink:href="#m9f2e6efa96" y="71.610993"/>
     <use style="fill-opacity:0.7;stroke:#000000;stroke-opacity:0.7;" x="367.387501" xlink:href="#m9f2e6efa96" y="84.736359"/>
     <use style="fill-opacity:0.7;stroke:#000000;stroke-opacity:0.7;" x="179.744953" xlink:href="#m9f2e6efa96" y="24.934885"/>
     <use style="fill-opacity:0.7;stroke:#000000;stroke-opacity:0.7;" x="397.783571" xlink:href="#m9f2e6efa96" y="95.06407"/>
     <use style="fill-opacity:0.7;stroke:#000000;stroke-opacity:0.7;" x="343.58511" xlink:href="#m9f2e6efa96" y="80.427637"/>
     <use style="fill-opacity:0.7;stroke:#000000;stroke-opacity:0.7;" x="275.605241" xlink:href="#m9f2e6efa96" y="62.567632"/>
     <use style="fill-opacity:0.7;stroke:#000000;stroke-opacity:0.7;" x="346.883834" xlink:href="#m9f2e6efa96" y="86.713923"/>
     <use style="fill-opacity:0.7;stroke:#000000;stroke-opacity:0.7;" x="411.686782" xlink:href="#m9f2e6efa96" y="88.082011"/>
     <use style="fill-opacity:0.7;stroke:#000000;stroke-opacity:0.7;" x="337.224614" xlink:href="#m9f2e6efa96" y="84.36866"/>
     <use style="fill-opacity:0.7;stroke:#000000;stroke-opacity:0.7;" x="340.760428" xlink:href="#m9f2e6efa96" y="87.356368"/>
     <use style="fill-opacity:0.7;stroke:#000000;stroke-opacity:0.7;" x="349.597711" xlink:href="#m9f2e6efa96" y="77.975765"/>
     <use style="fill-opacity:0.7;stroke:#000000;stroke-opacity:0.7;" x="405.518084" xlink:href="#m9f2e6efa96" y="89.421718"/>
     <use style="fill-opacity:0.7;stroke:#000000;stroke-opacity:0.7;" x="398.617563" xlink:href="#m9f2e6efa96" y="100.075558"/>
     <use style="fill-opacity:0.7;stroke:#000000;stroke-opacity:0.7;" x="238.918201" xlink:href="#m9f2e6efa96" y="58.974211"/>
     <use style="fill-opacity:0.7;stroke:#000000;stroke-opacity:0.7;" x="171.648084" xlink:href="#m9f2e6efa96" y="24.026044"/>
     <use style="fill-opacity:0.7;stroke:#000000;stroke-opacity:0.7;" x="238.51297" xlink:href="#m9f2e6efa96" y="59.641735"/>
     <use style="fill-opacity:0.7;stroke:#000000;stroke-opacity:0.7;" x="261.084714" xlink:href="#m9f2e6efa96" y="62.655377"/>
     <use style="fill-opacity:0.7;stroke:#000000;stroke-opacity:0.7;" x="230.563983" xlink:href="#m9f2e6efa96" y="59.353273"/>
     <use style="fill-opacity:0.7;stroke:#000000;stroke-opacity:0.7;" x="285.50624" xlink:href="#m9f2e6efa96" y="72.204282"/>
     <use style="fill-opacity:0.7;stroke:#000000;stroke-opacity:0.7;" x="411.358143" xlink:href="#m9f2e6efa96" y="99.686847"/>
     <use style="fill-opacity:0.7;stroke:#000000;stroke-opacity:0.7;" x="215.352204" xlink:href="#m9f2e6efa96" y="50.684948"/>
     <use style="fill-opacity:0.7;stroke:#000000;stroke-opacity:0.7;" x="265.659481" xlink:href="#m9f2e6efa96" y="61.628492"/>
     <use style="fill-opacity:0.7;stroke:#000000;stroke-opacity:0.7;" x="383.881373" xlink:href="#m9f2e6efa96" y="87.426082"/>
     <use style="fill-opacity:0.7;stroke:#000000;stroke-opacity:0.7;" x="200.09046" xlink:href="#m9f2e6efa96" y="44.090099"/>
     <use style="fill-opacity:0.7;stroke:#000000;stroke-opacity:0.7;" x="258.034818" xlink:href="#m9f2e6efa96" y="70.30061"/>
    </g>
   </g>
   <g id="line2d_6">
    <path clip-path="url(#p63f55eb246)" d="M 165.775909 16.7 
L 174.503182 24.2 
L 183.230455 30.817647 
L 191.957727 36.7 
L 200.685 41.963158 
L 209.412273 46.7 
L 218.139545 50.985714 
L 226.866818 54.881818 
L 235.594091 58.43913 
L 244.321364 61.7 
L 253.048636 64.7 
L 261.775909 67.469231 
L 270.503182 70.033333 
L 279.230455 72.414286 
L 287.957727 74.631034 
L 296.685 76.7 
L 305.412273 78.635484 
L 314.139545 80.45 
L 322.866818 82.154545 
L 331.594091 83.758824 
L 340.321364 85.271429 
L 349.048636 86.7 
L 357.775909 88.051351 
L 366.503182 89.331579 
L 375.230455 90.546154 
L 383.957727 91.7 
L 392.685 92.797561 
L 401.412273 93.842857 
L 410.139545 94.839535 
L 418.866818 95.790909 
L 427.594091 96.7 
" style="fill:none;stroke:#ff0000;stroke-linecap:square;stroke-opacity:0.7;stroke-width:1.5;"/>
   </g>
   <g id="patch_10">
    <path d="M 152.685 118.7 
L 152.685 10.7 
" style="fill:none;stroke:#000000;stroke-linecap:square;stroke-linejoin:miter;stroke-width:0.8;"/>
   </g>
   <g id="patch_11">
    <path d="M 440.685 118.7 
L 440.685 10.7 
" style="fill:none;stroke:#000000;stroke-linecap:square;stroke-linejoin:miter;stroke-width:0.8;"/>
   </g>
   <g id="patch_12">
    <path d="M 152.685 118.7 
L 440.685 118.7 
" style="fill:none;stroke:#000000;stroke-linecap:square;stroke-linejoin:miter;stroke-width:0.8;"/>
   </g>
   <g id="patch_13">
    <path d="M 152.685 10.7 
L 440.685 10.7 
" style="fill:none;stroke:#000000;stroke-linecap:square;stroke-linejoin:miter;stroke-width:0.8;"/>
   </g>
  </g>
 </g>
 <defs>
  <clipPath id="p5e40774c90">
   <rect height="326.16" width="558" x="26.685" y="10.7"/>
  </clipPath>
  <clipPath id="p63f55eb246">
   <rect height="108" width="288" x="152.685" y="10.7"/>
  </clipPath>
 </defs>
</svg>
